<svg xmlns="http://www.w3.org/2000/svg" width="500" height="500" version="1.2" viewBox="0 0 1000 1000"><title>Mobile-login-ai</title><style>.s0{fill:#f5f5f5}.s1{fill:#ebebeb}.s2{fill:#27debf}.s3{opacity:.2;fill:#000}.s4{fill:#fff}.s5{fill:#e0e0e0}.s6{fill:#f0f0f0}.s7{fill:#455a64}.s8{fill:#37474f}.s9{fill:#263238}.s10,.s11{fill:#fff;stroke:#27debf;stroke-width:2}.s11{fill:#27debf}.s12{opacity:.7;fill:#fff}.s13{opacity:.1;fill:#000}.s14{opacity:.2;fill:#fff}.s15{fill:#ffa8a7}.s16{fill:#f28f8f}.s17{opacity:.3;fill:#000}</style><g id="Floor"><path id="&lt;Path&gt;" d="m250.5 540.6c137.8-65.7 361.2-65.7 499 0 137.8 65.7 137.8 172.2 0 237.9-137.8 65.7-361.2 65.7-499 0-137.8-65.7-137.8-172.2 0-237.9z" class="s0"/></g><g id="Shadow"><path id="&lt;Path&gt;" d="m716.6 692.6c17.9-8.6 47-8.6 65 0 17.9 8.5 17.9 22.4 0 30.9-18 8.6-47.1 8.6-65 0-18-8.5-18-22.4 0-30.9z" class="s1"/></g><g id="Plants"><g id="&lt;Group&gt;"><g id="&lt;Group&gt;"><g id="&lt;Group&gt;"><g id="&lt;Group&gt;"><path id="&lt;Path&gt;" d="m260.6 652.3c0.4-13.6 11.9-14.8 16.3-8.3 3.6 5.3 4.3 15.8-0.7 29.7-6.6 18.3-20 28.1-20 28.1l-16.3 9.4c11.9-13.2 19.8-31.9 20.7-58.9z" class="s2"/><path id="&lt;Path&gt;" d="m260.6 652.3c0.4-13.6 11.9-14.8 16.3-8.3 3.6 5.3 4.3 15.8-0.7 29.7-6.6 18.3-20 28.1-20 28.1l-16.3 9.4c11.9-13.2 19.8-31.9 20.7-58.9z" class="s3"/></g><path id="&lt;Path&gt;" d="m239.9 712.2c-0.3 0-0.6-0.2-0.8-0.4-0.3-0.5-0.2-1.1 0.2-1.4 37.6-26.1 30.4-62.3 30.3-62.7-0.1-0.5 0.2-1 0.7-1.1 0.6-0.2 1.1 0.2 1.2 0.7 0.1 0.4 7.7 37.9-31 64.7q-0.3 0.2-0.6 0.2z" class="s4"/></g><g id="&lt;Group&gt;"><path id="&lt;Path&gt;" d="m207.4 729.9c0 0-5.6-4.6-4.3-10.8 1.4-6.2 5-10.7-1.2-18.8-6.3-8-7.9-18.7-0.5-24.5 5.7-4.5 14.6 1.8 17.8-10.1 2.3-8.6 1.5-27.9 12.6-34.3 11.1-6.3 17.9 3.3 16.2 16.3-1.5 11.7-3.6 22.9-2 26 3.3 5.9 8.8 5.1 8.5 16.1-0.2 10.2-9.8 18.6-9.8 18.6z" class="s2"/><path id="&lt;Path&gt;" d="m226 720.2c-0.5 0-0.9-0.4-1-0.9-2.9-23.7 4-64.6 9.6-76.7 0.2-0.5 0.8-0.8 1.3-0.5 0.5 0.2 0.8 0.8 0.5 1.3-5.5 12-12.1 53-9.4 75.7 0.1 0.5-0.3 1-0.9 1.1q0 0-0.1 0z" class="s4"/><path id="&lt;Path&gt;" d="m225.5 701.8q-0.3 0-0.5-0.1c-6.9-3.4-11.3-15.5-11.5-16-0.2-0.5 0.1-1.1 0.6-1.3 0.5-0.2 1.1 0.1 1.3 0.6 0 0.2 4.3 11.8 10.5 14.9 0.5 0.2 0.7 0.8 0.5 1.3-0.2 0.4-0.6 0.6-0.9 0.6z" class="s4"/><path id="&lt;Path&gt;" d="m225.3 709.8c-0.4 0-0.7-0.3-0.9-0.7-0.2-0.5 0.1-1.1 0.6-1.3 11.6-4.7 18.9-18.6 19-18.7 0.3-0.5 0.9-0.7 1.3-0.4 0.5 0.2 0.7 0.8 0.5 1.3-0.3 0.6-7.7 14.7-20.1 19.7q-0.2 0.1-0.4 0.1z" class="s4"/></g></g><g id="&lt;Group&gt;"><g id="&lt;Group&gt;"><path id="&lt;Path&gt;" d="m633.6 602.2c0 0-8.7-14.2-9.6-29.6-0.8-15.4 2.5-21.8 7.2-23.6 4.6-1.8 5 3.8 7.4 7.2 2.4 3.3 7.2 1.4 9-9 1.8-10.4 8.4-28.1 21.9-31.4 15-3.8 7 13.8 3.2 20.7-3.7 6.9-6.7 16.2-4.2 18.8 2.5 2.5 6.3-2.2 10 2.2 4.5 5.2-9.4 24.2-17.3 28.7z" class="s2"/><path id="&lt;Path&gt;" d="m645.6 596.2q0 0-0.1 0c-0.5 0-0.9-0.5-0.9-1 2.2-41 22.2-69.4 22.4-69.6 0.3-0.5 0.9-0.6 1.4-0.3 0.4 0.4 0.5 1 0.2 1.4-0.2 0.3-19.8 28.2-22 68.6 0 0.5-0.5 0.9-1 0.9z" class="s4"/><path id="&lt;Path&gt;" d="m646.7 584.4q-0.2 0-0.5-0.1c-5.6-3.1-8.7-12.3-8.8-12.7-0.2-0.5 0.1-1.1 0.6-1.3 0.6-0.2 1.1 0.1 1.3 0.7 0 0.1 3 8.8 7.9 11.5 0.5 0.3 0.7 0.9 0.4 1.4-0.2 0.3-0.5 0.5-0.9 0.5z" class="s4"/><path id="&lt;Path&gt;" d="m647.7 578.3c-0.4 0-0.8-0.3-1-0.7-0.1-0.5 0.2-1.1 0.8-1.2 14.4-3.7 19.4-11.2 19.4-11.3 0.3-0.5 1-0.6 1.4-0.3 0.5 0.3 0.6 0.9 0.3 1.4-0.2 0.3-5.4 8.2-20.6 12.1q-0.2 0-0.3 0z" class="s4"/></g><g id="&lt;Group&gt;"><g id="&lt;Group&gt;"><path id="&lt;Path&gt;" d="m416 600.8c-61.4-12-72.8-73.4-73.1-101.7-0.3-32.2 12.4-60 35-56.3 22.7 3.7 16.9 48.9 18 87.7 1 35.9 20.1 40.6 20.1 40.6z" class="s2"/><path id="&lt;Path&gt;" d="m416 600.8c-61.4-12-72.8-73.4-73.1-101.7-0.3-32.2 12.4-60 35-56.3 22.7 3.7 16.9 48.9 18 87.7 1 35.9 20.1 40.6 20.1 40.6z" class="s3"/></g><path id="&lt;Path&gt;" d="m416 597.2q0-0.1-0.1-0.1c-13.9-2.5-25.1-10.1-33.5-22.6-24.8-37-17-106.2-14.4-118.3 0.1-0.6 0.6-0.9 1.1-0.8 0.6 0.1 0.9 0.7 0.8 1.2-2.5 11.9-10.3 80.3 14.2 116.8 8 12 18.8 19.3 32.1 21.8 0.6 0.1 0.9 0.6 0.8 1.1-0.1 0.5-0.5 0.9-1 0.9z" class="s4"/><g id="&lt;Group&gt;"><path id="&lt;Path&gt;" d="m416 689.3c-19.8 2.7-52 2.7-70.5-12-18.6-14.6-14.7-27.2-7.6-32.5 7.1-5.2 13.3-11.2 1.1-22.9-12.3-11.7-32.1-30.4-38.4-58.6-6.4-28.1-3.3-45.7 9.3-51.6 12.2-5.7 15.4 3.4 22.8 22 7.5 18.7 24.3 2.7 38.6 8.5 14.4 5.8 13.8 17.3 14.7 27.2 0.9 9.9 5.7 12.7 13.8 12.7 8.1 0 16.2 4.7 16.2 14.1z" class="s2"/><path id="&lt;Path&gt;" d="m416 656.7q-0.1 0-0.2-0.1c-0.9-0.2-21.4-6.2-51.2-33.6-31.8-29.2-46.8-73-47-73.4-0.2-0.6 0.1-1.1 0.6-1.3 0.6-0.2 1.1 0.1 1.3 0.6 0.1 0.5 15 43.8 46.4 72.6 29.5 27.1 50.2 33.1 50.4 33.2 0.5 0.2 0.9 0.7 0.7 1.2-0.1 0.5-0.5 0.8-1 0.8z" class="s4"/><path id="&lt;Path&gt;" d="m372.9 630c-0.4 0-0.8-0.3-1-0.7-6.4-16.4-7.8-51.7-7.9-53.2 0-0.5 0.4-1 1-1 0.5 0 1 0.4 1 0.9 0 0.4 1.5 36.4 7.8 52.6 0.2 0.5-0.1 1.1-0.6 1.3q-0.2 0.1-0.3 0.1z" class="s4"/><path id="&lt;Path&gt;" d="m372.7 653.7c-3.1 0-5.3-0.2-5.5-0.3-0.6 0-1-0.5-0.9-1.1 0.1-0.5 0.6-0.9 1.1-0.9 0.2 0.1 18.8 2.2 27.4-6.5 0.3-0.4 1-0.4 1.4-0.1 0.4 0.4 0.4 1.1 0 1.4-6.3 6.4-17 7.5-23.5 7.5z" class="s4"/></g></g></g></g></g><g id="Gear"><g id="&lt;Group&gt;"><g id="&lt;Group&gt;"><path id="&lt;Compound Path&gt;" fill-rule="evenodd" d="m347.6 284.8l3.6 7.6 3.2 5.8-6.9 15.4-2.5 4.1c-1.9 3-11 8.9-13.4 11.6l0.3 4.9-11.9 9.3-3.2-10.5c-2.6 1.3-2 5.9-4.4 6.2l-10.5 10.2-9.9-2.2 5.3-14.4c-1.7-1.3-3.1-3-4.2-5.1l-11.2 7.3-2.1-12.5 10.7-9.8c0.2-3.2 0.8-6.4 1.7-9.8l-8.5-3.6 6.9-15.4 9.8 0.5c2-3.1 4.2-6 6.6-8.7l-0.8-12.4 11.9-9.3 3.1 10.5q4-1.9 7.7-2.5l7.3-13.9 9.9 2.2-5.3 14.4c1.7 1.3 3.1 3 4.2 5.1l11.1-7.3 2.2 12.5zm-12.1 1c-1.6-9.6-5.1-9.1-14.2-1.9-9.1 7.2-14.5 21.7-12.8 31.3 1.6 9.6 4.4 8 13.5 0.9 9.1-7.2 15.2-20.8 13.5-30.3z" class="s5"/><path id="&lt;Path&gt;" d="m336.2 248.1l13 7.5-7.4 13.9-12.9-7.5z" class="s0"/><path id="&lt;Path&gt;" d="m369.1 270l-11.1 7.3-13-7.5 11.1-7.3z" class="s0"/><path id="&lt;Path&gt;" d="m367.3 305.7l-8.4-3.6-13-7.5 8.5 3.6z" class="s5"/><path id="&lt;Path&gt;" d="m297.3 332.8l13 7.5-5.3 14.4-13-7.5z" class="s5"/><path id="&lt;Path&gt;" d="m333 351l-13-7.5-3.2-10.5 13 7.5z" class="s5"/><path id="&lt;Compound Path&gt;" fill-rule="evenodd" d="m360.6 292.3c-0.2 3.2-0.8 6.5-1.7 9.8l8.4 3.6-6.8 15.4-9.9-0.5c-1.9 3.1-4.1 6-6.5 8.7l0.8 12.4-11.9 9.3-3.2-10.5q-4 1.9-7.6 2.5l-7.3 13.9-9.9-2.2 5.3-14.4c-1.7-1.3-3.1-3-4.3-5.1l-11.1 7.3-2.1-12.5 10.7-9.8c0.2-3.2 0.7-6.5 1.6-9.8l-8.4-3.6 6.9-15.4 9.8 0.5c2-3.1 4.2-6 6.6-8.7l-0.8-12.4 11.9-9.3 3.1 10.5c2.7-1.3 5.2-2.1 7.6-2.5l7.4-13.9 9.9 2.2-5.3 14.4c1.6 1.3 3.1 3 4.2 5.1l11.1-7.3 2.2 12.5zm-12.1 0.9c-1.6-9.5-10.4-11.5-19.5-4.3-9.1 7.2-15.1 20.7-13.5 30.3 1.7 9.5 10.4 11.5 19.5 4.3 9.1-7.1 15.2-20.7 13.5-30.3z" class="s1"/><path id="&lt;Path&gt;" d="m319.2 270.8l-13-7.5 11.9-9.3 13 7.5z" class="s0"/><path id="&lt;Path&gt;" d="m319.2 270.8l0.8 12.4-13-7.5-0.8-12.4z" class="s5"/><path id="&lt;Path&gt;" d="m303.6 291.4l-13-7.5 9.8 0.5 13 7.5z" class="s0"/><path id="&lt;Path&gt;" d="m303.6 291.4l-6.9 15.4-13-7.5 6.9-15.4z" class="s5"/><path id="&lt;Path&gt;" d="m292.8 330l-13-7.5 10.7-9.8 13 7.5z" class="s0"/><path id="&lt;Path&gt;" d="m294.9 342.5l-13-7.5-2.1-12.5 13 7.5z" class="s5"/><path id="&lt;Path&gt;" d="m349.2 255.6l-13-7.5 9.9 2.2 13 7.5z" class="s0"/></g><g id="&lt;Group&gt;"><path id="&lt;Compound Path&gt;" fill-rule="evenodd" d="m285.4 228.9c0.2 3.9 0 11-1.7 15.4l7 6.1-11.4 19.7-8.4-2.9c-2.9 3.7-8.1 7.4-12.9 9l-1.6 18.1-16.1 9.3-1.7-16.2c-3.4 1-6.6 1.3-9.6 1l-11.6 17.5-11.4-6.6 9.3-18.8c-1.8-2.5-3.1-5.4-4-8.9l-14.8 6.7v-18.6l14.8-10.4c0.9-4.5 2.2-9 4-13.5l-9.3-8 11.4-19.8 11.6 4.1c3-3.8 6.2-7.2 9.6-10.2l1.7-18.1 16.1-9.3 1.6 16.2c3.4-1 6.7-1.2 9.7-0.9l11.6-17.6 11.4 6.6-9.3 18.9c1.7 2.4 3.1 5.3 4 8.8l14.8-6.7v18.6zm-14.6-2.7c0-14.3-7.5-19.5-19.9-12.4-12.4 7.2-22.6 24.7-22.6 39 0 14.3 7.7 19.3 20 12.2 12.4-7.1 22.5-24.5 22.5-38.8z" class="s5"/><path id="&lt;Path&gt;" d="m280.6 197.2l-12.9-7.4 11.6-17.5 13 7.4z" class="s0"/><path id="&lt;Path&gt;" d="m298.3 214l-12.9-7.5 14.8-6.7 13 7.5z" class="s0"/><path id="&lt;Path&gt;" d="m253.2 311.1l-12.9-7.5-1.7-16.2 13 7.5z" class="s5"/><path id="&lt;Path&gt;" d="m215.3 280.5l13 7.4-9.4 18.9-12.9-7.5z" class="s5"/><path id="&lt;Compound Path&gt;" fill-rule="evenodd" d="m298.3 236.3c-0.9 4.5-2.2 9-4 13.5l9.4 8-11.4 19.8-11.7-4.1c-3 3.8-6.2 7.2-9.6 10.2l-1.6 18.1-16.2 9.3-1.6-16.2c-3.4 0.9-6.7 1.2-9.6 0.9l-11.7 17.5-11.4-6.5 9.4-18.9c-1.8-2.4-3.2-5.3-4-8.8l-14.9 6.7v-18.6l14.9-10.5c0.8-4.4 2.2-9 4-13.4l-9.4-8.1 11.4-19.7 11.7 4.1c2.9-3.8 6.2-7.2 9.6-10.2l1.6-18.1 16.2-9.3 1.6 16.2c3.4-1 6.6-1.3 9.6-1l11.7-17.5 11.4 6.6-9.4 18.8c1.8 2.5 3.1 5.4 4 8.9l14.9-6.7v18.6zm-14.7-2.7c0-14.3-10-20.1-22.4-13-12.4 7.2-22.4 24.6-22.4 38.8 0 14.3 10 20.1 22.4 13 12.4-7.2 22.4-24.5 22.4-38.8z" class="s1"/><path id="&lt;Path&gt;" d="m229 212.1l13 7.5-11.7-4.1-12.9-7.5z" class="s6"/><path id="&lt;Path&gt;" d="m218.9 235.2l-12.9-7.4 11.4-19.8 12.9 7.5z" class="s0"/><path id="&lt;Path&gt;" d="m206 227.8l12.9 7.4 9.4 8.1-13-7.5z" class="s5"/><path id="&lt;Path&gt;" d="m211.3 249.3l13 7.4-14.9 10.5-12.9-7.5z" class="s0"/><path id="&lt;Path&gt;" d="m196.5 259.7l12.9 7.5v18.6l-12.9-7.5z" class="s5"/><path id="&lt;Path&gt;" d="m253.2 191.3l-12.9-7.5 16.1-9.3 13 7.5z" class="s0"/></g></g></g><g id="Device"><g id="&lt;Group&gt;"><path id="&lt;Path&gt;" d="m428.8 716.1l-17.4-10.1c-1.9-1.1-1.9-2.9 0-4l188.1-108.5c1.9-1.1 5-1.1 6.9 0l17.4 10c1.9 1.1 1.9 2.9 0 4l-188 108.6c-2 1.1-5.1 1.1-7 0z" class="s5"/><path id="&lt;Path&gt;" d="m627.3 193.4v402.1c0 5.6-3.9 12.3-8.7 15l-169.5 97.9c-4.8 2.8-8.7 0.5-8.7-5v-402.1c0-5.6 3.9-12.3 8.7-15l169.5-97.9c4.8-2.8 8.7-0.5 8.7 5z" class="s7"/><path id="&lt;Path&gt;" d="m443 292.7l-24.4-14c1.5-2.7 3.7-5.1 6.1-6.5l169.5-97.9c4.8-2.7 12.6-2.7 17.4 0l7 4.1c4.3 2.5 7.9 8.2 8.5 13.4-0.7-4.3-4.2-5.9-8.5-3.4l-169.5 97.9c-2.4 1.4-4.6 3.7-6.1 6.4z" class="s8"/><path id="&lt;Path&gt;" d="m416 287.2c0-2.8 1-5.8 2.6-8.5l24.4 14c-1.6 2.8-2.6 5.8-2.6 8.6v402.1c0 5 3.1 7.3 7.2 5.7-4.8 2-11.5 1.8-15.8-0.7l-7.1-4.1c-4.8-2.7-8.7-9.4-8.7-15z" class="s9"/><path id="&lt;Path&gt;" d="m453.7 339.9l160.2-92.5c2.9-1.7 5.2-0.3 5.2 3v297.5c0 3.4-2.3 7.4-5.2 9l-160.2 92.5c-2.8 1.7-5.2 0.4-5.2-3v-297.5c0-3.3 2.4-7.4 5.2-9z" class="s4"/><path id="&lt;Path&gt;" d="m536.9 254.3c0 2-1.4 4.4-3.1 5.3-1.6 1-3 0.2-3-1.7 0-2 1.4-4.3 3-5.3 1.7-1 3.1-0.2 3.1 1.7z" class="s8"/><path id="&lt;Path&gt;" d="m545.9 624.4c0 7.7-5.4 17-12.1 20.9-6.6 3.8-12 0.7-12-7 0-7.7 5.4-17 12-20.8 6.7-3.9 12.1-0.7 12.1 6.9z" class="s8"/><g id="&lt;Group&gt;"><path id="&lt;Path&gt;" d="m511.2 287.1c0 3.8-2.8 8.6-6.1 10.5-3.4 2-6.1 0.4-6.1-3.5 0-3.9 2.7-8.6 6.1-10.6 3.3-1.9 6.1-0.3 6.1 3.6z" class="s8"/><path id="&lt;Path&gt;" d="m524.3 275l40.1-23.1c2.4-1.4 4.3-0.4 4.3 2.2 0 2.6-1.9 5.8-4.3 7.2l-40.1 23.1c-2.4 1.4-4.3 0.4-4.3-2.2 0-2.6 1.9-5.8 4.3-7.2z" class="s8"/></g><path id="&lt;Path&gt;" d="m429.5 352.7c2.7 1.6 4.9 5.4 4.9 8.5 0 3.1-2.2 4.4-4.9 2.8-2.7-1.6-4.8-5.3-4.8-8.4 0-3.1 2.1-4.4 4.8-2.9z" class="s8"/><path id="&lt;Path&gt;" d="m429.5 390.3c2.7 1.6 4.9 5.3 4.9 8.4 0 3.1-2.2 4.4-4.9 2.9-2.7-1.6-4.8-5.4-4.8-8.5 0-3.1 2.1-4.4 4.8-2.8z" class="s8"/><path id="&lt;Path&gt;" d="m428 353.5c2.7 1.6 4.9 5.3 4.9 8.4 0 3.1-2.2 4.4-4.9 2.9-2.7-1.6-4.9-5.4-4.9-8.5 0-3.1 2.2-4.4 4.9-2.8z" class="s7"/><path id="&lt;Path&gt;" d="m428 391c2.7 1.6 4.9 5.4 4.9 8.5 0 3.1-2.2 4.4-4.9 2.8-2.7-1.5-4.9-5.3-4.9-8.4 0-3.1 2.2-4.4 4.9-2.9z" class="s7"/><g id="&lt;Group&gt;"><path id="&lt;Path&gt;" d="m651.6 557.3c0 3.4-2.3 7.4-5.2 9l-19.1 11.1-141.1 81.4c-2.8 1.7-5.2 0.4-5.2-3v-297.5c0-3.3 2.4-7.4 5.2-9l141.1-81.5 19.1-11c2.9-1.7 5.2-0.3 5.2 3z" class="s10"/><path id="&lt;Path&gt;" d="m483.9 660.6q-1 0-1.8-0.5c-1.3-0.8-2.1-2.3-2.1-4.3v-297.5c0-3.7 2.5-8 5.7-9.9l141.1-81.4 1 1.7-141.1 81.4c-2.5 1.5-4.7 5.2-4.7 8.2v297.5c0 1.3 0.4 2.2 1.1 2.5 0.6 0.4 1.6 0.3 2.6-0.3l141.1-81.5 1 1.8-141.1 81.4q-1.4 0.9-2.8 0.9z" class="s11"/><path id="&lt;Path&gt;" d="m627.8 578.3l-1-1.8 19.1-11c2.6-1.5 4.7-5.2 4.7-8.2v-297.5c0-1.2-0.3-2.1-1-2.5-0.6-0.4-1.6-0.3-2.7 0.3l-19.1 11.1-1-1.7 19.1-11.1c1.8-1 3.4-1.1 4.7-0.4 1.3 0.8 2 2.3 2 4.3v297.5c0 3.7-2.5 8.1-5.7 9.9z" class="s11"/></g><g id="&lt;Group&gt;"><path id="&lt;Path&gt;" d="m566.3 328.9c18-10.3 32.5-1.9 32.5 18.8 0 20.7-14.5 45.9-32.5 56.3-17.9 10.3-32.5 1.9-32.5-18.8 0-20.7 14.6-45.9 32.5-56.3z" class="s2"/><path id="&lt;Path&gt;" d="m566.3 345.2c5.9-3.3 10.6-0.6 10.6 6.1 0 6.7-4.7 14.9-10.6 18.3-5.8 3.3-10.5 0.6-10.5-6.1 0-6.7 4.7-14.9 10.5-18.3z" class="s2"/></g><path id="&lt;Path&gt;" d="m586.9 383.6c-5.6 8.6-12.8 15.9-20.6 20.4-7.5 4.4-14.5 5.3-20 3.5v-3c0-11 7.7-24.4 17.3-30l6-3.4c9.5-5.5 17.3-1.1 17.3 10z" class="s2"/><g id="&lt;Group&gt;"><path id="&lt;Path&gt;" d="m566.3 345.2c5.9-3.3 10.6-0.6 10.6 6.1 0 6.7-4.7 14.9-10.6 18.3-5.8 3.3-10.5 0.6-10.5-6.1 0-6.7 4.7-14.9 10.5-18.3z" class="s12"/><path id="&lt;Path&gt;" d="m586.9 383.6c-5.6 8.6-12.8 15.9-20.6 20.4-7.5 4.4-14.5 5.3-20 3.5v-3c0-11 7.7-24.4 17.3-30l6-3.4c9.5-5.5 17.3-1.1 17.3 10z" class="s12"/></g><g id="&lt;Group&gt;"><path id="&lt;Path&gt;" d="m503.5 449.7l41.8-24.2c1.9-1.1 3.4-0.2 3.4 2v1.4c0 2.2-1.5 4.9-3.4 6l-41.8 24.2c-1.9 1.1-3.5 0.2-3.5-2v-1.4c0-2.2 1.6-4.9 3.5-6z" class="s2"/><path id="&lt;Path&gt;" d="m503.5 449.7l41.8-24.2c1.9-1.1 3.4-0.2 3.4 2v1.4c0 2.2-1.5 4.9-3.4 6l-41.8 24.2c-1.9 1.1-3.5 0.2-3.5-2v-1.4c0-2.2 1.6-4.9 3.5-6z" class="s13"/></g><g id="&lt;Group&gt;"><path id="&lt;Path&gt;" d="m501.7 478.8l126.6-73c0.9-0.6 1.7-0.1 1.7 1v14.7c0 1.1-0.8 2.5-1.7 3l-126.6 73.1c-0.9 0.5-1.7 0.1-1.7-1v-14.8c0-1.1 0.8-2.4 1.7-3z" class="s2"/><path id="&lt;Path&gt;" d="m501.7 478.8l126.6-73c0.9-0.6 1.7-0.1 1.7 1v14.7c0 1.1-0.8 2.5-1.7 3l-126.6 73.1c-0.9 0.5-1.7 0.1-1.7-1v-14.8c0-1.1 0.8-2.4 1.7-3z" class="s14"/></g><g id="&lt;Group&gt;"><path id="&lt;Path&gt;" d="m503.5 515.3l41.8-24.1c1.9-1.1 3.4-0.2 3.4 2v1.4c0 2.2-1.5 4.9-3.4 6l-41.8 24.1c-1.9 1.1-3.5 0.2-3.5-2v-1.4c0-2.2 1.6-4.9 3.5-6z" class="s2"/><path id="&lt;Path&gt;" d="m503.5 515.3l41.8-24.1c1.9-1.1 3.4-0.2 3.4 2v1.4c0 2.2-1.5 4.9-3.4 6l-41.8 24.1c-1.9 1.1-3.5 0.2-3.5-2v-1.4c0-2.2 1.6-4.9 3.5-6z" class="s13"/></g><g id="&lt;Group&gt;"><path id="&lt;Path&gt;" d="m501.7 544.5l126.6-73.1c0.9-0.5 1.7-0.1 1.7 1v14.8c0 1.1-0.8 2.4-1.7 3l-126.6 73c-0.9 0.6-1.7 0.2-1.7-1v-14.7c0-1.1 0.8-2.5 1.7-3z" class="s2"/><path id="&lt;Path&gt;" d="m501.7 544.5l126.6-73.1c0.9-0.5 1.7-0.1 1.7 1v14.8c0 1.1-0.8 2.4-1.7 3l-126.6 73c-0.9 0.6-1.7 0.2-1.7-1v-14.7c0-1.1 0.8-2.5 1.7-3z" class="s14"/></g><g id="&lt;Group&gt;"><path id="&lt;Path&gt;" d="m552.2 552.9l49.9-28.9c2-1.1 3.5-0.2 3.5 2v15.5c0 2.2-1.5 4.9-3.5 6l-49.9 28.8c-1.9 1.1-3.5 0.2-3.5-2v-15.4c0-2.2 1.6-4.9 3.5-6z" class="s2"/><path id="&lt;Path&gt;" d="m552.2 552.9l49.9-28.9c2-1.1 3.5-0.2 3.5 2v15.5c0 2.2-1.5 4.9-3.5 6l-49.9 28.8c-1.9 1.1-3.5 0.2-3.5-2v-15.4c0-2.2 1.6-4.9 3.5-6z" class="s13"/></g></g></g><g id="Character"><g id="&lt;Group&gt;"><path id="&lt;Path&gt;" d="m712.9 449.6c4.4-3.8 10.1-1.8 12.4-1.2 1.7 0.5 3 0.8 3.9 1l41.2 6.6c-2.6 12.6-10.9 30.5-12.7 34.9l6.6 10.7c0 0-4.4 5.5-17.6 9.4-13.1 3.8-29.1-4-29.1-4 0 0-3.4-17.7-4-22.6-0.2-1.6-0.4-3-0.7-4.2-0.9-4-2.5-3.3-7.7 1-1.6 1.4-33.2 28.6-37.1 28.5-3.9-0.2-6.4-4.5-7.7-6.6-1.3-2.1-20.9-37.5-23.1-40.9-2.2-3.5-3.6-4.4-7.3-6.9-3.7-2.6-6.9-6.3-8.5-9-1.2-2.1-0.2-3.9 1-4.9 1.1-1 0.3-3.2 1.2-4.5 1.1-1.7 3.1-1.8 2.7-2.6-0.3-0.8-1.4-2.5-3.9-6.3-2.5-3.7-3.6-6.3-2.1-7.5 2.1-1.6 4.2 1 7.6 5.5 3.5 4.4 10 13.9 10.9 13.2 0.8-0.7 1.4-4.8 3-6.9 1.7-2.1 4.6-2.5 4-0.3-0.3 1.3-0.7 6-1 8.1-0.3 2.1-1.5 6.6-0.4 9.7 1.5 4 26.1 37.9 26.1 37.9 0 0 28.2-25.7 42.3-38.1z" class="s15"/><path id="&lt;Path&gt;" d="m763.2 695.3c0.5 3.7 2.2 8 1.1 10.4-0.2 0.5-2.1 2.7-8.7 2.4-7.3-0.2-10.7-2.3-10.7-2.3l7.4-10.2z" class="s8"/><path id="&lt;Path&gt;" d="m757.8 703.1c0 0 2.2 7.2 2.5 9.4 0.3 2.3-1.1 3.5-4.1 4.5-2.8 1-5.9-0.7-10.8-2.1-4.7-1.5-10.1-2.6-14.7-4.1-5.3-1.8-8.7-3.9-10.2-6.4-1.4-2.6 3.5-5.6 9.7-4.8 6.2 0.7 15.1 1.3 15.1 1.3z" class="s8"/><path id="&lt;Path&gt;" d="m764.3 685.3c0 0-1.1 9.3-1.2 11.3-0.1 2-9.1 2.6-10.8-1l-0.3-11.4z" class="s16"/><path id="&lt;Path&gt;" d="m755.2 691l3.2 14.2c0 0 0.3 1.7-7 2.8-7.4 1.1-18.9-3.9-20.9-4.9-2-1-2.2-3 5-2.6 7.3 0.4 9.8 0.4 9.8 0.4l-2.3-6.2z" class="s15"/><path id="&lt;Path&gt;" d="m770.4 456l5.1-1.4c0 0 10.6 33.8 11.8 37 1.2 3.3 2.5 6.7 0.2 10.7-2.7 4.8-17.1 24.1-17.1 24.1l-9.2-9 10.4-19-9.2-18.6z" class="s16"/><path id="&lt;Path&gt;" d="m717.9 412.2c0 0-4-6.6 0.3-14.6 5-9.4 16.4-14 29.8-12.2 6.3 0.8 13.6 5.9 17.7 13.7 4.4 8.6 4.8 25.9 5.9 32.4z" class="s8"/><path id="&lt;Path&gt;" d="m717.7 423.5c0 0-2.2-0.4-2.7-1-0.6-0.5 2.6-6.6 2.6-6.6z" class="s15"/><path id="&lt;Path&gt;" d="m748.9 397.3c6.4 3.8 7.3 17 3 25.9-3.7 7.6-13.8 12.6-17.3 13.5-3.6 0.8-11.8 1.4-13.2 0.3-2.1-1.7-4.1-6.2-3.8-20.3 0.3-13.7 6.3-17.8 9.8-20.1 2.9-1.9 12.5-4.6 21.5 0.7z" class="s15"/><g id="&lt;Group&gt;"><path id="&lt;Path&gt;" d="m764.3 501.6c6.2 9.6 12 18.1 13.3 28.9 2.6 22.8-6 48.8-7.9 65.7 0 0 5.8 7.5 5.8 16.4 0 7-11.2 72.7-11.2 72.7 0 0-8.2 2.5-12.3-1.1l-7.7-120.9 4.1-14.7z" class="s2"/><path id="&lt;Path&gt;" d="m764.3 501.6c6.2 9.6 12 18.1 13.3 28.9 2.6 22.8-6 48.8-7.9 65.7 0 0 5.8 7.5 5.8 16.4 0 7-11.2 72.7-11.2 72.7 0 0-8.2 2.5-12.3-1.1l-7.7-120.9 4.1-14.7z" class="s3"/></g><g id="&lt;Group&gt;"><path id="&lt;Path&gt;" d="m744.3 563.3l4.1-14.7c0 0 11.2-2.7 22-8.7 0 0-4.2 7.5-16.1 11.7l-6.3 18.9-0.5 43.3z" class="s2"/><path id="&lt;Path&gt;" d="m744.3 563.3l4.1-14.7c0 0 11.2-2.7 22-8.7 0 0-4.2 7.5-16.1 11.7l-6.3 18.9-0.5 43.3z" class="s17"/></g><g id="&lt;Group&gt;"><path id="&lt;Path&gt;" d="m764.3 501.6c3.3 5.4 11.2 14.6 9.5 23.5-2 10.7-7.8 18.3-25.4 23.5l-16.6 60c0 0 8.6 8 11.3 15.7 2.6 7.7 12.1 66.7 12.1 66.7 0 0-2.9 4.8-12.2 3.7 0 0-32.5-74.1-34.7-78.9-2.3-4.7-3.8-8.3-2.8-16.1 1-7.7 12.1-92.7 12.1-92.7z" class="s2"/><path id="&lt;Path&gt;" d="m764.3 501.6c3.3 5.4 11.2 14.6 9.5 23.5-2 10.7-7.8 18.3-25.4 23.5l-16.6 60c0 0 8.6 8 11.3 15.7 2.6 7.7 12.1 66.7 12.1 66.7 0 0-2.9 4.8-12.2 3.7 0 0-32.5-74.1-34.7-78.9-2.3-4.7-3.8-8.3-2.8-16.1 1-7.7 12.1-92.7 12.1-92.7z" class="s3"/></g><g id="&lt;Group&gt;"><path id="&lt;Path&gt;" d="m757.7 490.9l6.6 10.7c0 0-4.4 5.5-17.6 9.4-13.1 3.8-29.1-4-29.1-4 0 0-3.4-17.7-4-22.6q-0.3-2.4-0.7-4.2c10.6-6 12.4-31.8 12.4-31.8 1.7 0.5 3 0.8 3.9 1l41.2 6.6c-2.6 12.6-10.9 30.5-12.7 34.9z" class="s2"/><path id="&lt;Path&gt;" d="m757.7 490.9l6.6 10.7c0 0-4.4 5.5-17.6 9.4-13.1 3.8-29.1-4-29.1-4 0 0-3.4-17.7-4-22.6q-0.3-2.4-0.7-4.2c10.6-6 12.4-31.8 12.4-31.8 1.7 0.5 3 0.8 3.9 1l41.2 6.6c-2.6 12.6-10.9 30.5-12.7 34.9z" class="s12"/></g><path id="&lt;Path&gt;" d="m757.7 490.9c-4.1 2.5-9.2 4-15.3 4.3 3.9-1.1 16.9-8.1 17.1-8.5z" class="s2"/><path id="&lt;Path&gt;" d="m750.8 391.4c15.7 3.5 17.5 25.4 20.8 40.1 3.6 16.1 11.3 30.4 5.5 38.5-10.4 14.6-32.7 12.2-41.5 5.2-8.9-7-6.8-24.5-6.4-32.1 0.4-7.9 1.1-17.3 1.1-17.3 0 0 3.4 1.2 6.4-2.1 3.1-3.2 2.9-9-1.5-10-4.4-1-6.1 4.2-6.1 4.2-4.7-7.6-2.8-20.6-2.8-20.6 0 0 8.8-9.5 24.5-5.9z" class="s8"/></g></g><g id="Cloud"><path id="&lt;Path&gt;" d="m792.5 221.7c0 3.9-3.9 9.3-8.7 12l-63.9 36.9c-4.8 2.8-8.7 1.9-8.7-2 0-3.9 3.9-9.3 8.7-12l1.7-1.1q-0.2-1.1-0.2-2.5c0-6.7 4.7-14.8 10.5-18.2 2.1-1.2 4.1-1.6 5.7-1.3q0-0.6 0-1.3c0-9 6.3-20 14.1-24.5 7.8-4.5 14.1-0.8 14.1 8.2q0 0 0 0c1.4-1.6 3-3 4.7-4 5.8-3.3 10.5-0.6 10.5 6.1 0 1.1-0.2 2.3-0.5 3.6l3.3-1.9c4.8-2.8 8.7-1.9 8.7 2z" class="s1"/></g></svg>