<svg xmlns="http://www.w3.org/2000/svg" width="500" height="500" version="1.2" viewBox="0 0 900 900"><title>617-ai</title><style>.s0{fill:#508123}.s1{fill:#36631f}.s2{fill:#352273}.s3{fill:#4f2baa}.s4{fill:#5838ba}.s5{fill:#fff}.s6{fill:#7daf1c}.s7{opacity:.5;fill:#508123}.s8{fill:#6eb530}.s9{fill:#5e9b2f}.s10{fill:#4b722d}.s11{fill:#96d354}.s12{fill:#599441}.s13{fill:#c0f0e8}.s14{fill:#dd3f2a}.s15{fill:#ffecbb}.s16{fill:#edaf7c}.s17{fill:#7f3100}.s18{fill:#8c4431}.s19{fill:#662903}.s20{fill:#f8c878}.s21{fill:#ffe9aa}.s22{fill:#7abe43}.s23{fill:#c2ff66}.s24{fill:#98e54f}.s25{opacity:.3;fill:#508123}.s26{fill:#b1ef58}.s27{fill:#8fd349}.s28{fill:#7ac346}.s29{fill:#9ade48}.s30{fill:#ffda37}.s31{fill:#ce8925}.s32{fill:#fc2}.s33{fill:#dd912c}.s34{fill:#ffe94c}.s35{fill:#ffd937}.s36{fill:#ffe150}.s37{fill:#9b5129}.s38{fill:#e0af1a}.s39{fill:#9b1c2c}.s40{fill:#e23333}.s41{fill:#800004}.s42{fill:none;stroke:#a2d63f;stroke-linecap:round;stroke-width:3.5}.s43{fill:#a2d63f}.s44{fill:#6cab00}.s45{fill:#6a3b03}.s46{fill:#8a4c00}.s47{fill:#ff6f16}.s48{fill:#dc580e}.s49{fill:#41b500}.s50{fill:none;stroke:#fffbb9;stroke-linecap:round;stroke-width:3}.s51{mix-blend-mode:multiply;fill:#e0ccc2}.s52{fill:#ff8223}.s53{mix-blend-mode:multiply;fill:#c0f0e8}.s54{fill:#59913f}.s55{fill:#3d6630}.s56{fill:#ffa005}.s57{fill:#f7c435}.s58{fill:#ffcc13}.s59{fill:#ffee39}.s60{fill:#fff686}.s61{fill:#ffffeb}.s62{fill:#ff8d00}.s63{fill:#ffae15}.s64{fill:#ff9b17}.s65{fill:#5c4c96}.s66{fill:#ffd217}.s67{fill:#ffe236}.s68{fill:none;stroke:#3d8da0;stroke-linecap:round;stroke-width:4.6}.s69{fill:#3d8da0}.s70{fill:#2459ad}.s71{fill:#2187ff}.s72{opacity:.5;fill:#5c4c96}.s73{fill:#afd9bf}.s74{fill:#c0d6d2}.s75{fill:#6b7875}.s76{opacity:.4;fill:#3d8da0}.s77{fill:#96a09e}.s78{fill:#cb192a}.s79,.s80{fill:none;stroke:#0d0d0d;stroke-width:.9}.s80{stroke-width:1}.s81{fill:#0d0d0d}.s82{fill:none;stroke:#ef3333;stroke-linecap:round;stroke-linejoin:round;stroke-width:4.6}.s83{fill:#8fa8ba}</style><g id="Layer 1"><g id="&lt;Group&gt;"><g id="&lt;Group&gt;"><g id="&lt;Group&gt;"><path id="&lt;Path&gt;" d="m816.7 314.9c-10.6 4.3-10.9 3-20.1 11.1-4-7-5.9-10.8-9.3-13q-1-0.7-2.2-1.2c-2.7 4.9 1.4 12.2 3.3 15.2-3.4-0.5-19.6 8.6-25.1 15.7 1.1-7.5-13.9-17.1-21.2-25.2q-0.8-0.9-1.4-1.8 1.6-0.9 2.9-2.2 0.1-0.2 0.3-0.4 0.7-0.7 1.2-1.5c2.5-3.3 3.7-7.3 3.9-9.6 0.1-1 0-1.6-0.3-1.7-5.2-2.5-8.9 1.4-12.1 3.9 0.7-1.7-0.4-4.6-2.3-7.9q-0.5-0.9-1.2-1.9c-3.4-5.2-8.3-11-11.4-14.1 2.9-0.4 6.9-4.2 10.4-8 1.9-2 3.6-4 4.9-5.5q0.3-0.4 0.5-0.7 0.6-0.7 1-1.1 0.2 0.2 0.5 0.4c6.2 3.7 17.1 4.7 17.1 4.7 0 0-5.7-3.7-9.1-6.7 3.1-2.5 4.8-5.6 3.5-11.1 3.9 1.2 13.3 0.5 18.2 0.1 4.1 3.1 6.9 16 6.7 18.2 1.2-3.5 4.8-6.9 9-9 2.9-1.5 6.1-2.4 9-2.3 2.4 4.7 11.6 18.9 11.9 21-3.5-1.4-9.8 1.6-13.3 4.3 2.9 2.9 14.1 8.4 20.3 9.2-0.9 4.2 0.7 17.7 4.4 21.1z" class="s0"/><path id="&lt;Path&gt;" d="m788.4 327c-3.4-0.5-19.6 8.6-25.1 15.7 1.1-7.5-13.9-17.1-21.2-25.2l1.8-4.4 2.1-5.1c0 0 1.3-2.6 3-6 2.3-4.4 5.5-10.1 8.2-12.9 4.8-5 8.7-10.6 12.2-11.6 3.5-1 10.6-2.1 10.6-2.1l-2.3 9c2 3.6 7.2 20.4 9.6 28.6q-1-0.7-2.2-1.2c-2.7 4.9 1.4 12.2 3.3 15.2z" class="s1"/><g id="&lt;Group&gt;"><path id="&lt;Path&gt;" d="m746 344.2c-3.3 4.8-9.8 5.9-14.5 2.6-2.4-1.7-3.9-4.1-4.3-6.8q0 0 0 0-0.3-1.6-0.1-3.3c0.2-1.6 0.8-3.1 1.8-4.5 3.3-4.7 9.8-5.8 14.6-2.5 1.2 0.9 2.2 2 2.9 3.2q0.2 0.3 0.4 0.6c1.7 3.3 1.5 7.5-0.8 10.7z" class="s2"/><path id="&lt;Path&gt;" d="m698.8 308.4c-3.3 4.7-9.8 5.9-14.5 2.6-2.4-1.7-3.8-4.2-4.3-6.8q0 0 0 0-0.3-1.7 0-3.3c0.2-1.6 0.8-3.1 1.7-4.5 3.4-4.7 9.9-5.9 14.6-2.5 1.2 0.8 2.2 1.9 3 3.2q0.2 0.3 0.3 0.6c1.7 3.3 1.5 7.4-0.8 10.7z" class="s2"/><path id="&lt;Path&gt;" d="m719.4 279.8c-3.8 5.4-11.3 6.8-16.8 2.9-2.7-1.9-4.4-4.7-4.9-7.7q0 0 0 0c-0.2-1.3-0.3-2.6-0.1-3.9 0.3-1.8 1-3.5 2.1-5.1 3.8-5.5 11.3-6.8 16.7-3 1.5 1 2.6 2.3 3.5 3.8q0.2 0.3 0.4 0.6c1.9 3.9 1.7 8.6-0.9 12.4z" class="s2"/><path id="&lt;Path&gt;" d="m732.2 273c-3.6 5.2-10.7 6.4-15.9 2.8-2.6-1.8-4.2-4.5-4.7-7.4q0 0 0 0-0.3-1.8 0-3.6c0.2-1.7 0.9-3.4 1.9-4.9 3.6-5.2 10.8-6.4 15.9-2.8 1.4 1 2.5 2.2 3.3 3.5q0.2 0.4 0.3 0.7c1.9 3.6 1.7 8.1-0.8 11.7z" class="s2"/><path id="&lt;Path&gt;" d="m749.7 275.8c-3.9 5.4-11.4 6.8-16.9 2.9-2.7-1.9-4.4-4.8-5-7.8q0 0 0 0c-0.2-1.3-0.2-2.6 0-3.9 0.2-1.8 0.9-3.6 2-5.2 3.9-5.4 11.4-6.8 16.9-2.9 1.5 1 2.6 2.3 3.5 3.7q0.2 0.4 0.4 0.7c1.9 3.9 1.7 8.7-0.9 12.5z" class="s2"/><path id="&lt;Path&gt;" d="m772.9 302.6c-5.2 7.3-15.3 9.1-22.6 3.9-5.3-3.7-7.7-9.9-6.7-15.9 0.4-2.3 1.3-4.6 2.7-6.7 5.2-7.3 15.3-9.1 22.6-3.9 4 2.8 6.3 7 6.8 11.4 0.4 3.8-0.5 7.8-2.8 11.2z" class="s3"/><path id="&lt;Path&gt;" d="m772.9 302.6c-5.2 7.3-15.3 9.1-22.6 3.9-5.3-3.7-7.7-9.9-6.7-15.9 0.4-2.3 1.3-4.6 2.7-6.7q0.8-1.1 1.7-2-0.9 1.7-1.2 3.6c-0.7 4.6 1.1 9.4 5.2 12.2 5.6 4 13.4 2.6 17.4-3 1.8-2.6 2.5-5.7 2.2-8.6-0.3-2.1-1.1-4.1-2.3-5.8 3.7 2.8 5.9 6.8 6.4 11.1 0.4 3.8-0.5 7.8-2.8 11.2z" class="s2"/><path id="&lt;Path&gt;" d="m737.3 313.4c-4.7 6.7-14 8.3-20.6 3.6-4.1-2.8-6.3-7.4-6.3-12q0-0.7 0-1.4c0.3-2.4 1-4.7 2.4-6.7q0.1-0.2 0.3-0.5c4.7-6.6 13.9-8.2 20.5-3.6q1.2 0.8 2.1 1.8c1.7 1.7 2.9 3.9 3.6 6.1q0.4 1.2 0.5 2.5c0.4 3.5-0.4 7.1-2.5 10.2z" class="s2"/><path id="&lt;Path&gt;" d="m715.6 314.4c-3.9 5.6-11.6 6.9-17.2 3-3.4-2.4-5.3-6.2-5.3-10.1q0-0.6 0.1-1.2c0.2-1.9 0.8-3.9 1.9-5.6q0.2-0.2 0.3-0.3c3.9-5.6 11.6-7 17.2-3.1q0.9 0.7 1.7 1.5c1.5 1.5 2.5 3.2 3 5.1q0.4 1.1 0.5 2.1c0.3 2.9-0.4 6-2.2 8.6z" class="s2"/><path id="&lt;Path&gt;" d="m729.5 298.3c-4 5.6-11.7 7-17.3 3.1-3.4-2.4-5.2-6.2-5.2-10.1q0-0.6 0-1.2c0.2-2 0.8-3.9 2-5.6q0.1-0.2 0.2-0.4c3.9-5.6 11.6-6.9 17.2-3q1 0.7 1.8 1.5c1.4 1.4 2.4 3.2 3 5.1q0.3 1 0.4 2.1c0.4 2.9-0.3 5.9-2.1 8.5z" class="s2"/><path id="&lt;Path&gt;" d="m746 308c-3.9 5.6-11.6 7-17.2 3-3.4-2.4-5.2-6.2-5.3-10q0-0.6 0.1-1.2c0.2-2 0.8-3.9 2-5.6q0.1-0.2 0.2-0.4c3.9-5.6 11.6-6.9 17.2-3q1 0.7 1.7 1.5c1.5 1.4 2.5 3.2 3.1 5.1q0.3 1 0.4 2.1c0.3 2.9-0.3 5.9-2.2 8.5z" class="s2"/><path id="&lt;Path&gt;" d="m748.5 293.1c-3.9 5.5-11.6 6.9-17.2 3-3.4-2.4-5.3-6.2-5.3-10.1q0-0.6 0.1-1.2c0.1-2 0.8-3.9 1.9-5.6q0.1-0.2 0.3-0.4c3.9-5.5 11.6-6.9 17.2-3q0.9 0.7 1.7 1.5c1.4 1.5 2.5 3.2 3 5.1q0.3 1 0.5 2.1c0.3 2.9-0.4 6-2.2 8.6z" class="s2"/><path id="&lt;Path&gt;" d="m761.6 320.9c-3.9 5.6-11.7 7-17.2 3-3.5-2.4-5.3-6.2-5.3-10.1q0-0.5 0-1.1c0.2-2 0.9-3.9 2-5.6q0.1-0.2 0.2-0.4c4-5.6 11.7-6.9 17.3-3q0.9 0.7 1.7 1.5c1.4 1.4 2.4 3.2 3 5.1q0.3 1 0.4 2.1c0.4 2.9-0.3 5.9-2.1 8.5z" class="s2"/><path id="&lt;Path&gt;" d="m745.2 329c-4 5.6-11.7 7-17.3 3-3.4-2.4-5.2-6.2-5.2-10q0-0.6 0-1.2c0.2-2 0.9-3.9 2-5.6q0.1-0.2 0.2-0.4c4-5.6 11.7-6.9 17.3-3q0.9 0.7 1.7 1.5c1.4 1.4 2.4 3.2 3 5.1q0.3 1 0.4 2.1c0.4 2.9-0.3 5.9-2.1 8.5z" class="s2"/><path id="&lt;Path&gt;" d="m724.4 331c-3.9 5.6-11.6 6.9-17.2 3-3.4-2.4-5.2-6.2-5.3-10.1q0-0.6 0.1-1.2c0.2-1.9 0.8-3.8 2-5.6q0.1-0.1 0.2-0.3c3.9-5.6 11.6-6.9 17.2-3q1 0.6 1.7 1.4c1.5 1.5 2.5 3.3 3.1 5.2q0.3 1 0.4 2c0.3 3-0.3 6-2.2 8.6z" class="s2"/><path id="&lt;Path&gt;" d="m771.2 324c-3.3 4.7-9.8 5.9-14.6 2.5-2.3-1.6-3.8-4.1-4.3-6.7q0 0 0 0-0.3-1.7 0-3.4c0.2-1.5 0.8-3 1.8-4.4 3.3-4.7 9.8-5.9 14.5-2.6 1.3 0.9 2.3 2 3 3.3q0.2 0.2 0.3 0.5c1.7 3.4 1.6 7.5-0.7 10.8z" class="s2"/><path id="&lt;Path&gt;" d="m716.4 343.8c-3.9 5.6-11.7 6.9-17.2 3-3.5-2.4-5.3-6.2-5.3-10.1q0-0.6 0-1.2c0.2-1.9 0.9-3.8 2-5.6q0.1-0.2 0.2-0.3c4-5.6 11.7-7 17.3-3.1q0.9 0.7 1.7 1.5c1.4 1.5 2.4 3.2 3 5.1q0.3 1.1 0.4 2.1c0.4 2.9-0.3 6-2.1 8.6z" class="s2"/><path id="&lt;Path&gt;" d="m706.4 340.6c-3.9 5.5-11.7 6.9-17.2 3-3.5-2.4-5.3-6.2-5.3-10.1q0-0.6 0-1.2c0.2-2 0.9-3.9 2-5.6q0.1-0.2 0.2-0.4c4-5.5 11.7-6.9 17.3-3q0.9 0.7 1.7 1.5c1.4 1.5 2.5 3.2 3 5.1q0.3 1 0.4 2.1c0.4 2.9-0.3 6-2.1 8.6z" class="s2"/><path id="&lt;Path&gt;" d="m739.8 303.2q-0.3 0.5-0.6 0.9c-5.5 7.9-16.3 9.8-24.1 4.3-1.9-1.4-3.5-3-4.7-4.8 0.3-2.4 1-4.7 2.4-6.7q0.1-0.2 0.3-0.5c4.7-6.6 13.9-8.2 20.5-3.6q1.2 0.8 2.1 1.8c1.7 1.7 2.9 3.9 3.6 6.1q0.4 1.2 0.5 2.5z" class="s4"/><path id="&lt;Path&gt;" d="m757.9 334.1c-4.1 5.9-12.3 7.3-18.1 3.2-2.6-1.8-4.3-4.3-5.1-7.1-1-3.6-0.5-7.7 1.9-11 4.1-5.9 12.2-7.3 18.1-3.2 1.6 1.1 2.8 2.5 3.7 4 2.6 4.3 2.5 9.8-0.5 14.1z" class="s4"/><path id="&lt;Path&gt;" d="m735.8 281c-4.1 5.9-12.3 7.3-18.1 3.2-4.1-2.9-6-7.5-5.5-12.1q0-0.3 0.1-0.6c0.3-1.9 1-3.8 2.2-5.5 4.1-5.9 12.2-7.3 18.1-3.2 1.5 1.1 2.7 2.4 3.6 3.9 1.1 1.7 1.7 3.6 1.9 5.6 0.3 2.9-0.4 6-2.3 8.7z" class="s2"/><path id="&lt;Path&gt;" d="m733.9 272.8c-4.1 5.9-12.2 7.3-18.1 3.1-1.5-1-2.7-2.3-3.6-3.8q0-0.3 0.1-0.6c0.3-1.9 1-3.8 2.2-5.5 4.1-5.9 12.2-7.3 18.1-3.2 1.5 1.1 2.7 2.4 3.6 3.9-0.2 2.1-0.9 4.2-2.3 6.1z" class="s4"/><path id="&lt;Path&gt;" d="m710.3 294.7c-4.2 5.9-12.3 7.3-18.2 3.2-3.4-2.4-5.3-6.1-5.5-10q-0.1-1.6 0.2-3.3c0.4-1.7 1.1-3.4 2.1-4.9 4.2-5.9 12.3-7.3 18.2-3.2 2 1.5 3.5 3.4 4.4 5.5q0.1 0 0.1 0.1c1.7 4 1.3 8.8-1.3 12.6z" class="s2"/><path id="&lt;Path&gt;" d="m709.4 286.9c-4.1 5.9-12.2 7.3-18.1 3.1-2-1.4-3.5-3.3-4.5-5.4 0.4-1.7 1.1-3.4 2.1-4.9 4.2-5.9 12.3-7.3 18.2-3.2 2 1.5 3.5 3.4 4.4 5.5-0.3 1.7-1 3.4-2.1 4.9z" class="s4"/><path id="&lt;Path&gt;" d="m701.9 325.7c-4.1 5.9-12.3 7.3-18.1 3.2-3-2.1-4.8-5.2-5.4-8.4q0 0 0 0c-0.2-1.4-0.3-2.8 0-4.2 0.2-2 1-3.9 2.2-5.6 4.1-5.9 12.2-7.3 18.1-3.2 1.6 1.1 2.8 2.5 3.7 4.1q0.3 0.3 0.4 0.7c2.2 4.2 2 9.3-0.9 13.4z" class="s2"/><path id="&lt;Path&gt;" d="m735.4 347.7c-3.3 4.7-9.8 5.8-14.5 2.5-2.4-1.6-3.8-4.1-4.3-6.7q0 0 0 0-0.3-1.7 0-3.4c0.2-1.5 0.8-3.1 1.7-4.4 3.4-4.8 9.9-5.9 14.6-2.6 1.2 0.9 2.2 2 3 3.2q0.1 0.3 0.3 0.6c1.7 3.4 1.5 7.5-0.8 10.8z" class="s2"/><path id="&lt;Path&gt;" d="m719.5 352.2c-3.3 4.8-9.8 5.9-14.5 2.6-2.4-1.7-3.9-4.1-4.3-6.7q0 0 0-0.1-0.3-1.6-0.1-3.3c0.3-1.6 0.8-3.1 1.8-4.5 3.3-4.7 9.8-5.8 14.6-2.5 1.2 0.9 2.2 2 3 3.2q0.1 0.3 0.3 0.6c1.7 3.3 1.5 7.5-0.8 10.7z" class="s2"/><path id="&lt;Path&gt;" d="m687.5 352.6c-3.3 4.7-9.8 5.8-14.6 2.5-2.3-1.6-3.8-4.1-4.2-6.7q0 0 0 0-0.3-1.7-0.1-3.4c0.2-1.5 0.8-3.1 1.8-4.4 3.3-4.8 9.8-5.9 14.5-2.6 1.3 0.9 2.3 2 3 3.2q0.2 0.3 0.4 0.6c1.6 3.4 1.5 7.5-0.8 10.8z" class="s2"/><path id="&lt;Path&gt;" d="m686.2 343.7c-4 5.7-11.9 7.1-17.6 3.1-2.9-2-4.6-5-5.2-8.2q0 0 0 0c-0.2-1.3-0.3-2.7 0-4.1 0.2-1.8 0.9-3.7 2.1-5.4 4-5.7 11.9-7.1 17.6-3.1 1.6 1.1 2.8 2.5 3.7 4q0.2 0.3 0.4 0.7c2 4 1.8 9-1 13z" class="s2"/><path id="&lt;Path&gt;" d="m700.2 317.1c-4.1 5.9-12.2 7.3-18.1 3.2-1.6-1.1-2.8-2.5-3.7-4 0.2-2 1-3.9 2.2-5.6 4.1-5.9 12.2-7.3 18.1-3.2 1.6 1.1 2.8 2.5 3.7 4.1-0.2 1.9-1 3.8-2.2 5.5z" class="s4"/><path id="&lt;Path&gt;" d="m729.7 341.3c-3.8 5.4-11.2 6.8-16.6 3-3.2-2.3-5-5.7-5.1-9.3-0.1-1.4 0.1-2.7 0.5-4q0.5-1.8 1.6-3.4c3.8-5.4 11.3-6.7 16.7-2.9 1.6 1.1 2.9 2.5 3.7 4.2q0.5 0.8 0.8 1.8c1.2 3.4 0.7 7.4-1.6 10.6z" class="s2"/><path id="&lt;Path&gt;" d="m730.5 328.9q-0.5 1.8-1.6 3.4c-3.8 5.4-11.3 6.7-16.7 2.9-1.6-1.1-2.9-2.6-3.7-4.2q0.5-1.8 1.6-3.4c3.8-5.4 11.3-6.7 16.7-2.9 1.6 1.1 2.9 2.5 3.7 4.2z" class="s4"/><path id="&lt;Path&gt;" d="m703.2 355.8c-4.1 5.9-12.3 7.4-18.3 3.2-2.7-1.9-4.5-4.6-5.2-7.6-0.4-1.6-0.5-3.3-0.3-5 0.3-2 1-4 2.3-5.7 4.2-6 12.4-7.4 18.3-3.2 1.4 0.9 2.5 2.1 3.4 3.4q0.1 0.1 0.1 0.2c2.8 4.3 2.9 10.2-0.3 14.7z" class="s2"/><path id="&lt;Path&gt;" d="m701.2 346.8c-4.1 6-12.4 7.4-18.3 3.2-1.4-1-2.6-2.2-3.5-3.6 0.3-2 1-4 2.3-5.7 4.2-6 12.4-7.4 18.3-3.2 1.4 0.9 2.5 2.1 3.4 3.4q0.1 0.1 0.1 0.2c-0.3 2-1 3.9-2.3 5.7z" class="s4"/><path id="&lt;Path&gt;" d="m726.7 265.9c-0.6 0.8-1.7 1-2.5 0.4-0.8-0.5-0.9-1.6-0.4-2.4 0.6-0.8 1.7-1 2.4-0.5 0.8 0.6 1 1.7 0.5 2.5z" class="s5"/><path id="&lt;Path&gt;" d="m727.6 297.8c-0.8 1-2.2 1.3-3.3 0.5-1.1-0.7-1.3-2.2-0.6-3.2 0.8-1.1 2.2-1.4 3.3-0.6 1.1 0.7 1.3 2.2 0.6 3.3z" class="s5"/><path id="&lt;Path&gt;" d="m700.4 280.9c-0.7 1-2 1.2-3 0.5-0.9-0.7-1.2-2-0.5-3 0.7-0.9 2-1.2 3-0.5 1 0.7 1.2 2 0.5 3z" class="s5"/><path id="&lt;Path&gt;" d="m691.5 309.8c-0.6 0.8-1.9 1.1-2.7 0.4-0.9-0.6-1.2-1.8-0.5-2.7 0.6-0.9 1.8-1.1 2.7-0.5 0.9 0.6 1.1 1.9 0.5 2.8z" class="s5"/><path id="&lt;Path&gt;" d="m720.7 327.1c-0.5 0.7-1.6 0.9-2.4 0.4-0.8-0.6-1-1.7-0.4-2.5 0.5-0.7 1.6-0.9 2.4-0.4 0.8 0.6 1 1.7 0.4 2.5z" class="s5"/><path id="&lt;Path&gt;" d="m691.5 342.3c-0.5 1.2-2.1 1.5-3 0.6-0.7-0.5-0.9-1.5-0.5-2.2 0.5-1.2 2-1.5 3-0.7 0.6 0.6 0.9 1.5 0.5 2.3z" class="s5"/><path id="&lt;Path&gt;" d="m674.1 356.3c-3.8 5.4-11.3 6.7-16.7 2.9-2.4-1.7-4-4.2-4.7-7-0.4-1.4-0.4-2.9-0.2-4.4 0.2-1.9 0.9-3.7 2-5.3 3.8-5.4 11.3-6.7 16.7-2.9 1.2 0.9 2.3 2 3 3.1q0.1 0.1 0.1 0.2c2.6 4 2.7 9.3-0.2 13.4z" class="s2"/><path id="&lt;Path&gt;" d="m672.3 348.1c-3.8 5.4-11.3 6.7-16.7 2.9-1.3-0.9-2.3-2-3.1-3.2 0.2-1.9 0.9-3.7 2-5.3 3.8-5.4 11.3-6.7 16.7-2.9 1.2 0.9 2.3 2 3 3.1q0.1 0.1 0.1 0.2c-0.2 1.8-0.9 3.6-2 5.2z" class="s4"/><path id="&lt;Path&gt;" d="m663.4 344c-0.5 1.1-1.8 1.4-2.7 0.6-0.6-0.5-0.8-1.4-0.5-2 0.5-1.1 1.9-1.4 2.8-0.7 0.6 0.5 0.8 1.4 0.4 2.1z" class="s5"/><path id="&lt;Path&gt;" d="m748.7 319.6c-0.5 0.7-1.6 0.9-2.4 0.4-0.8-0.6-1-1.7-0.4-2.5 0.5-0.7 1.6-0.9 2.4-0.4 0.8 0.6 1 1.7 0.4 2.5z" class="s5"/><path id="&lt;Path&gt;" d="m773.2 284.5l-1.1 0.3c-4.8 5.9-10.6 11.3-13.6 20.1q-0.2 0.6-0.4 1.1l-7.5-1.1c0 0 0.3-0.8 0.5-2.4 0.5-3.1 0.6-9.1-2.8-17.2l20.6-5.3c1.8 1.2 3.2 2.8 4.3 4.5z" class="s2"/></g><path id="&lt;Path&gt;" d="m799.9 302.1c-8.7-0.9-12.7 1.4-21.7 1 0.8-8.6 0.2-12.7-2.9-16.6-4.4 2.6-4.4 10.4-4.3 13.7-2.5-1.9-19.8-2-27.4 1.3q0.4-0.5 0.6-1.2c3.1-7.1-4.6-26.1-5.9-35.4 7.3 0.1 13.5-3.3 12.7-4.4-3-4.3-7.9-2.9-11.5-2.3 3.5-3 0.7-19.3-1.3-26.2 4.6 1.9 17.5-3.7 20.6-4.6 3 6 11.9 12.1 11.9 12.1 0 0-2.9-5.6-4.3-9.6 3.7-0.6 6.5-2.3 7.9-7.3 2.6 2.7 10.5 6.5 14.7 8.3 1.8 4.3-1.4 15.3-2.7 17.6q-0.1 0.1-0.1 0.2c4.3-3.9 14.2-4.4 19.7-0.9-0.2 4.9 3.7 19.6 1.4 22.5-2.2-2.7-10-3.3-14-2.7 1 3.7 7.6 13.2 12.3 16.7-2.8 3-5.1 10.3-5.7 17.8z" class="s6"/><path id="&lt;Path&gt;" d="m757.9 334.1c-4.1 5.9-12.3 7.3-18.1 3.2-2.6-1.8-4.3-4.3-5.1-7.1-0.6-2-0.7-4.2-0.2-6.4 0.9 2 2.4 3.7 4.3 5.1 5.9 4.1 14 2.7 18.1-3.2 1-1.5 1.7-3 2.1-4.7 1.9 4.1 1.7 9.1-1.1 13.1z" class="s2"/><path id="&lt;Path&gt;" d="m786.3 248.5c-6.3 5.3-14.6 10.1-18.6 21.9-5 14.8-16.5 24.2-23.5 29.9 3.1-7.1-4.6-26.1-5.9-35.4 7.3 0.1 13.5-3.3 12.7-4.4-3-4.3-7.9-2.9-11.5-2.3 3.5-3 0.7-19.3-1.3-26.2 4.6 1.9 17.5-3.7 20.6-4.6 3 6 11.9 12.1 11.9 12.1 0 0-2.9-5.6-4.3-9.6 3.7-0.6 6.5-2.3 7.9-7.3 2.6 2.7 10.5 6.5 14.7 8.3 1.8 4.3-1.4 15.3-2.7 17.6z" class="s7"/></g><g id="&lt;Group&gt;"><path id="&lt;Path&gt;" d="m675.8 172.3c-2.7 4-8.2 5.1-12.2 2.4-2.1-1.4-3.4-3.6-3.8-6q-1.3 0.5-2.6 0.7-0.7 0.2-1.3 0.3c-4.6 0.6-9.4-0.4-13.2-3-4.2-2.8-7.1-7.1-8-12q0-0.1-0.1-0.1-1.6 0.7-3.3 1.1-0.5 0.1-1 0.2-1.5 0.4-3.1 0.4-0.8 0-1.7-0.1-4.9-0.3-9.1-3-1.5-1-2.7-2.3c-2.2 1.4-4.6 2.4-7.2 2.9-5.2 1.1-10.7 0-15.2-3-4.4-3-7.6-7.7-8.6-12.9-0.6-2.8-0.5-5.7 0.1-8.5q-2.1-0.7-3.9-1.9c-3.6-2.4-6-6.1-6.9-10.3-0.8-4.1 0.1-8.5 2.4-12 2.4-3.5 6.1-6 10.3-6.8 4.1-0.8 8.5 0 12 2.4q0.6 0.4 1.1 0.8 0.5-1 1.2-2 0.5-0.8 1.1-1.5c2.9-4.3 7.6-7.3 12.5-8.2 5.2-1.1 10.6 0 14.9 2.9 4.4 2.9 7.5 7.5 8.5 12.7 0.9 4.8 0.1 10-2.6 14.2q2.1 0.8 4.1 2c4.1 2.8 7 7.1 8 12q0 0.1 0 0.2 1.9-0.8 4-1.2c4.8-1 9.9 0 14.1 2.8 3.7 2.4 6.4 6.2 7.6 10.5 0.6 2.1 0.9 4.4 0.8 6.5q-0.2 3.3-1.5 6.3c1 0.2 2 0.6 2.9 1.2 4 2.7 5.1 8.3 2.4 12.3z" class="s8"/><path id="&lt;Path&gt;" d="m683.6 177.5c-2.7 4-8.2 5.1-12.2 2.4-2.1-1.4-3.4-3.6-3.8-5.9q-1.3 0.4-2.6 0.7-0.7 0.1-1.3 0.2c-4.6 0.7-9.4-0.4-13.2-3-4.2-2.7-7-7.1-8-11.9q0-0.1 0-0.2-1.6 0.7-3.4 1.1-0.5 0.1-1 0.2-1.5 0.4-3.1 0.4-0.8 0-1.6 0-5-0.3-9.2-3.1-1.5-1-2.7-2.3c-2.2 1.4-4.6 2.4-7.2 2.9-5.2 1.1-10.7 0-15.2-3-4.4-3-7.6-7.7-8.6-12.9-0.6-2.8-0.5-5.7 0.2-8.5q-2.2-0.7-4-1.9c-3.6-2.4-6-6.1-6.8-10.2-0.9-4.2 0-8.6 2.4-12.1 2.3-3.5 6-6 10.2-6.8 4.1-0.8 8.5 0.1 12 2.4q0.6 0.4 1.1 0.8 0.5-1 1.2-2 0.5-0.8 1.2-1.5c2.8-4.3 7.5-7.2 12.4-8.2 5.2-1 10.6 0 15 3 4.3 2.9 7.4 7.5 8.4 12.6 0.9 4.8 0.1 10-2.6 14.2q2.1 0.8 4.1 2.1c4.1 2.7 7 7.1 8 11.9q0 0.1 0 0.2 1.9-0.8 4-1.2c4.8-1 9.9 0 14.1 2.8 3.7 2.5 6.4 6.2 7.6 10.5 0.6 2.1 0.9 4.4 0.8 6.6q-0.2 3.3-1.5 6.2c1 0.2 2 0.6 2.9 1.2 4 2.7 5.1 8.3 2.4 12.3z" class="s9"/><path id="&lt;Path&gt;" d="m578.3 133.6c-4.3 6.3-13 8-19.3 3.8-6.3-4.2-8.1-13-3.9-19.3 4.3-6.3 13-8 19.3-3.8 6.3 4.2 8.1 13 3.9 19.3z" class="s9"/><path id="&lt;Path&gt;" d="m583.1 132.6c-2.9 8.1-13.2 10.4-19.3 4.6-3.2-3.2-4.4-8.1-2.9-12.4 2.8-8.1 13.2-10.4 19.2-4.6 3.3 3.2 4.5 8.1 3 12.4z" class="s9"/><path id="&lt;Path&gt;" d="m682.9 192.8q-1.3 1.9-3.4 2.9-2 1-4.3 0.9c-0.8-0.2-1.7-0.3-2.5-0.5q-1.3-0.4-2.3-1.2c-1.8 0.6-3.7 0.7-5.8 0.2-1.3 0-2.6-0.2-3.8-0.6-2.6-1-5.1-2.3-7.1-4.2-2.7 0.3-5.3-0.3-7.4-2.1-1.9-1.6-4-3-6.2-4.2q-1.8-1.1-3.7-2-0.2-0.1-0.4-0.2-0.7-0.4-1.4-0.7c-5.6-2.6-11.4-5-17-7.4-13.5-5.9-26.2-12.4-38.5-20.4-1.4-0.7-2.7-1.5-3.8-2.5-1.6-1.2-2.8-2.7-3.7-4.4-1.9 0.4-4 0.1-6-1.2-7.6-5.1-2-15.7 5.2-15.1 0.3-2 1-3.9 2.2-5.6 2-2.9 5.1-5 8.6-5.7 3.5-0.7 7.1 0 10.1 2q0.9 0.6 1.6 1.3 0.7-0.9 1.6-1.7 1.3-0.8 2.6-1.7c2.8-1.4 6.3-1.7 9.3-0.6q0 0 0 0c2.3 0.9 3.7 1.8 5.4 3.6 1.6 1.8 2.6 4.2 2.9 6.6q0.2-0.4 0.5-0.8 0-0.1 0-0.1 1.2-1.4 2.5-2.8c2.1-1.6 3.6-2.6 6.3-3.1 3.6-0.7 7.4 0 10.4 2.1 1.9 1.2 3.9 3.4 4.8 5.5 0.5 1.1 0.9 2.3 1.2 3.6q0.5 1.7 0.3 3.6-0.3 3.3-2 6.2c2.5 0.1 4.9 0.9 7 2.3 3 2 5.1 5.1 5.8 8.7 2.4-1.5 5.4-1.5 7.8 0.1 1.7 1.1 2.7 2.8 3.1 4.6q1.9-0.4 4-0.3c3.9 0.2 7.6 2.1 10.1 5q2.5 2.9 3.3 6.7c0.6 3.4 0 6.9-1.6 9.8 1.3 0.5 2.5 1.4 3.4 2.4q1.2 1.4 1.7 3.1 0.7 1.7 0.6 3.6-0.1 2.3-1.4 4.3z" class="s10"/><path id="&lt;Path&gt;" d="m679.8 197.4q-1.3 2-3.4 3-2.1 0.9-4.3 0.8c-0.9-0.1-1.7-0.2-2.6-0.5q-1.2-0.4-2.3-1.1c-1.7 0.5-3.7 0.6-5.7 0.2-1.3 0-2.6-0.2-3.8-0.7-2.6-1-5.1-2.3-7.2-4.1-2.6 0.3-5.3-0.3-7.3-2.1-1.9-1.7-4-3-6.2-4.3q-1.8-1-3.7-1.9-0.2-0.2-0.4-0.3-0.7-0.3-1.5-0.7c-5.6-2.6-11.3-4.9-16.9-7.4-13.6-5.8-26.2-12.4-38.5-20.3-1.4-0.7-2.7-1.6-3.8-2.5-1.6-1.3-2.8-2.8-3.7-4.4-1.9 0.4-4 0.1-6.1-1.3-7.5-5-1.9-15.7 5.3-15 0.3-2 1-3.9 2.1-5.6 2-3 5.1-5 8.7-5.7 3.5-0.7 7.1 0 10.1 2q0.8 0.6 1.6 1.3 0.7-0.9 1.5-1.7 1.4-0.9 2.7-1.7c2.8-1.4 6.3-1.7 9.2-0.6q0.1 0 0.1 0c2.3 0.8 3.7 1.8 5.4 3.6 1.6 1.8 2.6 4.1 2.9 6.5q0.2-0.4 0.5-0.8 0 0 0 0 1.2-1.5 2.4-2.8c2.2-1.7 3.7-2.6 6.4-3.1 3.6-0.7 7.4 0 10.4 2.1 1.9 1.2 3.9 3.3 4.8 5.4 0.5 1.2 0.9 2.4 1.2 3.6q0.5 1.8 0.2 3.6-0.2 3.4-1.9 6.3c2.5 0.1 4.9 0.9 7 2.3 3 2 5.1 5.1 5.8 8.6 2.4-1.4 5.4-1.5 7.8 0.1 1.7 1.1 2.7 2.9 3.1 4.7q1.9-0.4 3.9-0.3c3.9 0.2 7.6 2 10.2 5q2.5 2.9 3.2 6.7c0.7 3.3 0.1 6.8-1.5 9.8 1.3 0.5 2.5 1.3 3.4 2.4q1.2 1.4 1.7 3 0.7 1.8 0.6 3.7-0.2 2.3-1.4 4.2z" class="s8"/><path id="&lt;Path&gt;" d="m568.5 151.1c0 0 47.1-17.1 98.7 48.5-25.1-2.5-48.5 3.4-61.2 29.9l-23.8-14.3c17.1-37.1 2.2-51.7-13.7-64.1z" class="s11"/><g id="&lt;Group&gt;"><g id="&lt;Group&gt;"><path id="&lt;Path&gt;" d="m589.7 150.1q0 0 0.5 0.6 0.5 0.7 1.3 1.8c0.4 0.7 1 1.6 1.6 2.7q0.4 0.8 0.9 1.7 0.5 1 0.9 2c0.4 0.7 0.6 1.4 0.9 2.2 0.3 0.7 0.6 1.5 0.9 2.3 0.4 1.6 1 3.3 1.3 5.1 0.2 0.9 0.5 1.8 0.6 2.8q0.2 1.4 0.3 2.8c0.2 1 0.2 1.9 0.3 2.9q0 1.5 0.1 2.9c-0.1 2-0.2 3.9-0.4 5.8-0.3 1.9-0.5 3.7-0.8 5.5q-0.7 2.6-1.3 5c-0.5 1.6-1 3-1.5 4.4q-0.3 1-0.7 1.9c-0.2 0.6-0.5 1.1-0.7 1.7q-0.7 1.5-1.2 2.7c-0.7 1.5-1.1 2.3-1.1 2.3 0 0 0.3-0.9 0.8-2.4q0.4-1.2 1-2.8c0.1-0.6 0.4-1.1 0.5-1.8q0.2-0.9 0.5-1.9c0.3-1.4 0.7-2.9 1-4.4q0.3-2.4 0.7-5c0.1-1.7 0.2-3.5 0.3-5.4 0-1.8-0.2-3.6-0.3-5.4q-0.2-1.4-0.3-2.7c-0.2-0.9-0.3-1.8-0.5-2.7q-0.3-1.3-0.6-2.6c-0.2-0.8-0.5-1.6-0.8-2.5-0.4-1.6-1.1-3.1-1.7-4.5-0.3-0.7-0.7-1.4-1-2-0.3-0.6-0.6-1.3-1-1.8q-0.5-0.9-0.9-1.7-0.6-0.7-1-1.4c-0.6-0.9-1.2-1.6-1.7-2.2-0.4-0.6-0.8-1-1.1-1.2-0.2-0.3-0.4-0.5-0.4-0.5z" class="s12"/></g></g><g id="&lt;Group&gt;"><g id="&lt;Group&gt;"><path id="&lt;Path&gt;" d="m637.1 182.5q0 0-0.3 0.1-0.3 0-1 0.2c-0.8 0.2-2.1 0.5-3.6 1-1.5 0.5-3.2 1.1-5 1.8-0.9 0.4-1.8 0.8-2.8 1.2-0.9 0.5-1.9 0.9-2.8 1.4-0.9 0.6-1.8 1-2.7 1.6-0.9 0.6-1.7 1.1-2.5 1.7-0.8 0.6-1.6 1.2-2.3 1.8-0.7 0.6-1.4 1.1-1.9 1.7q-0.8 0.9-1.5 1.6c-0.5 0.5-0.8 0.9-1.1 1.3-0.6 0.7-0.9 1.1-0.9 1.1 0 0 0.2-0.4 0.7-1.3 0.2-0.4 0.5-0.9 0.8-1.5q0.6-0.8 1.3-1.8c0.4-0.7 1-1.4 1.6-2.1 0.6-0.8 1.3-1.5 2-2.3 0.7-0.7 1.5-1.4 2.3-2.2 0.8-0.8 1.6-1.4 2.5-2.2q1.3-1 2.6-2c0.9-0.6 1.8-1.2 2.7-1.8 1.8-1.1 3.5-2.1 5-2.9 1.5-0.7 2.7-1.4 3.7-1.8q0.6-0.3 1.1-0.4 0.3-0.2 0.3-0.2z" class="s12"/></g></g><g id="&lt;Group&gt;"><g id="&lt;Group&gt;"><path id="&lt;Path&gt;" d="m650.2 195.8q0 0-0.5 0-0.5-0.1-1.5-0.1c-1.2 0-3.1-0.1-5.3 0.1-4.4 0.2-10.4 1.2-16 3.4-1.4 0.5-2.7 1.1-4.1 1.8q-0.9 0.5-1.9 1.1-0.9 0.5-1.8 1.1-0.9 0.6-1.7 1.2-0.8 0.6-1.6 1.2-0.8 0.7-1.5 1.3c-0.4 0.4-0.8 0.8-1.2 1.2-0.9 0.8-1.5 1.6-2.2 2.3-0.5 0.8-1.1 1.4-1.5 2-0.7 1.1-1.2 1.7-1.2 1.7 0 0 0.4-0.7 1-1.9 0.3-0.6 0.8-1.3 1.3-2.1 0.5-0.8 1.1-1.7 1.8-2.6 0.4-0.5 0.8-1 1.2-1.5q0.6-0.7 1.3-1.4 0.7-0.7 1.5-1.5 0.8-0.7 1.6-1.5 0.9-0.7 1.7-1.4 1-0.7 1.9-1.4c1.3-0.9 2.7-1.7 4.1-2.5 5.6-3.1 11.9-4.9 16.7-5.8 2.3-0.4 4.4-0.6 5.8-0.8q1.1 0 1.7-0.1 0.6 0 0.6 0z" class="s12"/></g></g><path id="&lt;Path&gt;" d="m664.4 208.7c-1.5-1-2.5-2.2-3.2-3.4-2.9 0-5.8-0.7-8.2-2.4q-0.1 0-0.1 0c-3-2.1-5.2-5.2-5.9-8.9q-0.6-3.1 0.2-6c-1.4-0.2-2.8-0.6-4.1-1.2-2.2 2.5-5.3 4.3-8.7 5-4 0.8-8.3-0.1-11.7-2.4-3.5-2.3-5.9-5.9-6.7-9.9-0.5-2.8-0.3-5.7 0.7-8.4q-0.1 0-0.1-0.1c-3.8-2.5-5.6-6.9-5.1-11.1-2 0-4-0.6-5.8-1.8q-0.6-0.4-1.2-0.9-1.3 0.8-2.8 1.1c-1.6 0.3-3.3 0.2-4.9-0.3q-0.7 1-1.7 1.8-2 1.8-4.6 2.3c-2.7 0.5-5.4 0-7.6-1.5-3-2-4.7-5.5-4.5-9q0-0.3 0-0.6c-1.3 0.5-2.7 0.6-4.2 0.1q-0.4 1.8-1.5 3.3-1.6 2.4-4.1 3.6c-3.3 1.6-7.3 1.3-10.3-0.7-3.1-2-4.8-5.6-4.6-9.3q0.2-2.8 1.7-5.1 1.6-2.4 4.1-3.6l0.4-0.2q2.4-1.1 5.1-1 2.7 0.2 5 1.7 0.5 0.4 1 0.8c2-2.6 5.5-4 9.1-1.7 1.9 1.3 2.8 3 2.9 4.8q0.7-0.5 1.4-0.9 2.3-1.1 4.9-1 1.5 0.1 2.8 0.6c1.5-1.8 3.5-3 5.8-3.5 2.5-0.5 5.2 0.1 7.4 1.5q0.1 0.1 0.2 0.2c3.5-2.5 8.3-2.7 12.1-0.2 3.2 2.1 4.8 5.8 4.7 9.4 2.5-0.2 5 0.4 7.2 1.9 3.3 2.1 5.1 5.7 5.2 9.4 1.9 0.4 3.7 1.2 5.4 2.3 1.5 1 2.8 2.2 3.8 3.7 3.3-1.4 7.3-1.2 10.4 0.9 3.2 2.1 4.9 5.8 4.8 9.4q3.1-0.3 6 0.6 1.7 0.9 3.4 1.7 0.1 0.1 0.2 0.1 3.1 2.1 4.7 5.4 0.6 1.7 1.1 3.4 0.4 2.2 0.2 4.3 0.1 0.1 0.2 0.2c10.1 6.7-0.4 22.4-10.5 15.6z" class="s10"/><path id="&lt;Path&gt;" d="m663.1 202.3c-1.5-1-2.5-2.2-3.2-3.5-2.8 0.1-5.7-0.7-8.1-2.3q0 0-0.1 0c-3-2.1-5.1-5.2-5.8-8.8q-0.6-3 0.1-6c-1.3-0.1-2.7-0.5-4-1.2-2.2 2.5-5.2 4.3-8.6 5-4 0.8-8.2-0.1-11.6-2.3-3.4-2.3-5.8-5.9-6.6-9.9-0.5-2.8-0.3-5.7 0.7-8.3q-0.1 0-0.1 0c-3.7-2.5-5.5-6.9-5-11.1-2 0-4-0.5-5.8-1.7q-0.6-0.4-1.1-0.9-1.3 0.7-2.8 1c-1.6 0.3-3.3 0.2-4.9-0.3q-0.7 1-1.7 1.9-2 1.7-4.6 2.2c-2.6 0.5-5.3 0-7.5-1.5-2.9-1.9-4.6-5.4-4.4-8.9q0-0.3 0-0.6c-1.2 0.5-2.7 0.6-4.2 0.1q-0.4 1.8-1.4 3.3-1.6 2.4-4.1 3.6c-3.2 1.6-7.2 1.3-10.2-0.7-3-2-4.8-5.6-4.5-9.2q0.1-2.8 1.7-5.1 1.5-2.3 4-3.5l0.4-0.2q2.4-1.1 5-1 2.7 0.2 5 1.7 0.5 0.3 1 0.8c1.9-2.7 5.5-4.1 9-1.7 1.9 1.2 2.7 3 2.9 4.7q0.6-0.4 1.3-0.8 2.3-1.2 4.9-1 1.5 0.1 2.8 0.6c1.4-1.8 3.4-3.1 5.7-3.5 2.5-0.5 5.2 0 7.3 1.4q0.1 0.1 0.2 0.2c3.5-2.4 8.3-2.6 12-0.2 3.1 2.1 4.8 5.7 4.6 9.3 2.5-0.2 5 0.4 7.2 1.9 3.2 2.1 5 5.7 5.1 9.3 1.9 0.4 3.7 1.2 5.4 2.3 1.4 1 2.7 2.2 3.7 3.6 3.3-1.4 7.2-1.2 10.3 0.9 3.2 2.1 4.9 5.8 4.8 9.4q3-0.4 5.9 0.6 1.7 0.8 3.4 1.6 0.1 0.1 0.1 0.2 3.1 2 4.7 5.3 0.6 1.7 1.1 3.3 0.4 2.2 0.2 4.3 0.1 0.1 0.2 0.1c10 6.7-0.4 22.3-10.4 15.6z" class="s9"/></g><g id="&lt;Group&gt;"><g id="&lt;Group&gt;" style="mix-blend-mode:multiply"><path id="&lt;Path&gt;" d="m431.8 62.4c0.1-0.1 0 0 0 0z" class="s13"/></g><g id="&lt;Group&gt;"><g id="&lt;Group&gt;"><g id="&lt;Group&gt;"><path id="&lt;Path&gt;" d="m417.3 192.2c-15.7 0-30.9-5.7-42.9-15.8-12.1-10.3-20-24.7-22.4-40.4-2.7-17.4-0.2-30.2 7.6-39.1 7.8-9 20.1-12.5 28.6-14.3 3.1-0.7 7-0.8 11.1-0.8h1.9c3.1 0 6 0 8.3-0.3 3.2-0.5 6-1.4 9-2.4 3.7-1.2 7.6-2.5 12.5-3 3.6-0.3 6.8-0.5 9.7-0.5 31.8 0 39.2 21.6 42 40.4 4.7 30.5-12.8 60.7-41.5 71.7-4.1 1.6-12.3 2-14 2.1-1.3 0.5-6.2 2.3-9.2 2.4z" class="s14"/><path id="&lt;Compound Path&gt;" fill-rule="evenodd" d="m468.9 82.6c8.1 6.8 13.1 17.6 15.5 33.1 2.4 15.4-0.7 31.3-8.5 44.7-7.8 13.1-19.9 23.4-34.1 28.9-4.2 1.6-11.9 2.1-14.3 2.2-1.7 0.6-6.4 2.3-9.4 2.3q-0.4 0-0.8 0c-16.1 0-31.7-5.7-43.9-16.2-12.5-10.5-20.6-25.2-23.1-41.3-6.2-40.6 16.8-50.9 37.5-55.4 3.3-0.7 7.3-0.8 11.5-0.8h1 0.9c3 0 5.9 0 8.1-0.3 3.1-0.4 5.8-1.3 8.7-2.3 3.8-1.2 7.7-2.5 12.9-3 3.6-0.4 6.8-0.5 9.8-0.5 12.3 0 21.2 2.7 28.2 8.6zm-37.7-4.8c-8.7 0.8-14 4.3-21.4 5.3-2.4 0.4-5.5 0.4-8.6 0.4q-0.9 0-1.9 0c-3.9 0-7.8 0.1-10.8 0.7-21.7 4.7-40.5 14.9-34.9 51.5 4.9 31.9 32.4 54.8 63.7 54.8q0.3 0 0.7 0c3-0.1 8.9-2.4 8.9-2.4 0 0 9.4-0.3 13.7-1.9 27.6-10.7 45.1-39.5 40.5-69.9-4.7-31-20-39-40.4-39q-4.6 0-9.5 0.5z" class="s14"/></g></g><path id="&lt;Path&gt;" d="m418.2 188.1q-0.1 0-0.2 0c-30.7 0.3-57.4-22.3-62-52.7-6.1-39.8 15.7-49.6 37-48.5 5.2 0.3 19.7 8.5 19.7 8.5 0 0 13.5-22.8 43.6-14.5 9.5 2.6 19.6 17.4 22.4 35.7 2.2 14.1-0.6 28.6-7.8 40.8-7.1 12.1-18.2 21.5-31.2 26.5q-0.5 0.2-1.4 0.4c-3.5 0.5-9.4-0.3-11.3-0.7l-1.1-0.2-0.9 0.7c-1.8 1.5-5.2 3.7-6.8 4z" class="s15"/><path id="&lt;Path&gt;" d="m478.7 116.6c2.2 14.1-0.6 28.6-7.8 40.8-7.1 12.1-18.2 21.5-31.2 26.5q-0.5 0.2-1.4 0.4c-3.5 0.5-9.4-0.3-11.3-0.7l-13.7-89.2c3.1-4.3 16.7-20.7 43-13.5 9.5 2.6 19.6 17.4 22.4 35.7z" class="s16"/><path id="&lt;Path&gt;" d="m431.2 184.9c0.5 2.2-3.7 1.9-4.8 1.9-1.1 0-1.6 0.8-3.1 0.5-3-0.8 2.6-3.9 2.6-3.9 0 0 4.7-0.8 5.3 1.5z" class="s17"/><path id="&lt;Path&gt;" d="m411 91.9q0.1-0.2 0-0.3c0-0.2-0.1-0.5-0.1-0.7-0.3-1-0.5-2.4-0.8-4.1-0.4-3.4-0.7-8-0.2-12.7q0.2-1.7 0.6-3.5c0.3-1.1 0.5-2.3 0.9-3.4 0.4-1.1 0.9-2.2 1.4-3.2q0.8-1.4 1.7-2.7c0.6-0.8 1.2-1.5 1.9-2.1 0.6-0.6 1.2-1 1.7-1.4 0.5-0.4 0.9-0.6 1.2-0.8q0.4-0.3 0.4-0.3l2.1 7.2c0 0 0.2-0.1 0 0-0.2 0.1 0.3-0.1 0 0-0.3 0.2-0.8 0.3-1.2 0.6q-0.7 0.4-1.4 1-0.8 0.7-1.5 1.6c-0.3 0.3-0.6 0.7-0.8 1q-0.4 0.6-0.7 1.2-0.7 1.2-1.3 2.6-0.5 1.5-1 3c-0.6 2-0.9 4.2-1.2 6.2q-0.2 1.5-0.2 2.9-0.1 1.4-0.1 2.6c0 1.7 0.1 3 0.2 4q0 0.3 0.1 0.6 0.1 0.1 0.1 0.2 0.1 0 0.1 0c-1.1 1.1-1.9 0.5-1.9 0.5z" class="s18"/><path id="&lt;Path&gt;" d="m423.4 59.5c0.6 2-0.2 3.9-1.7 4.4-1.4 0.4-3.1-0.9-3.7-2.9-0.5-1.9 0.2-3.9 1.7-4.3 1.5-0.4 3.2 0.8 3.7 2.8z" class="s19"/><g id="&lt;Group&gt;"><path id="&lt;Path&gt;" d="m402.3 130.4c1.2-5.6 7.5-9 7.5-9 0 0 2.8 3.7 3.3 8 0.1 1 0.1 2.2-0.2 3.3-1.2 5.6-4.6 9.6-7.5 9-1.4-0.3-2.4-1.5-3-3.2-0.7-2.1-0.8-5-0.1-8.1z" class="s20"/><path id="&lt;Path&gt;" d="m401.7 126.7c1.2-5.6 7.6-8.9 7.6-8.9 0 0 2.7 3.6 3.2 7.9 0.1 1.1 0.1 2.2-0.1 3.4-1.3 5.6-4.7 9.6-7.6 8.9-1.3-0.3-2.3-1.5-2.9-3.2-0.8-2.1-0.9-5-0.2-8.1z" class="s19"/><path id="&lt;Path&gt;" d="m401.8 126.7c1.2-5.6 7.5-9 7.5-9 0 0 1.8 2.3 2.7 5.5 0.2 1.1 0.1 2.2-0.1 3.3-1.3 5.6-4.6 9.7-7.6 9-1.3-0.3-2.3-1.5-2.9-3.2-0.2-1.7-0.1-3.6 0.4-5.6z" class="s18"/></g><g id="&lt;Group&gt;"><path id="&lt;Path&gt;" d="m436.4 132.6c0 1.9-0.7 3.3-1.8 4-2.6 1.5-7.1-1.4-9.9-6.3-0.6-1-1-2.1-1.2-3.2-0.8-4.3 0.7-8.5 0.7-8.5 0 0 7.1 1.3 9.9 6.2 1.6 2.8 2.4 5.6 2.3 7.8z" class="s21"/><path id="&lt;Path&gt;" d="m434.8 129.8c-0.1 1.8-0.7 3.2-1.9 3.9-2.6 1.5-7-1.3-9.9-6.3-0.5-1-0.9-2.1-1.1-3.2-0.8-4.2 0.7-8.5 0.7-8.5 0 0 7 1.3 9.9 6.3 1.6 2.7 2.3 5.6 2.3 7.8z" class="s19"/><path id="&lt;Path&gt;" d="m434.5 127.3c-0.1 1.8-0.7 3.2-1.9 3.9-2.6 1.5-7-1.3-9.9-6.3-0.6-1-0.9-2.1-1.1-3.2 0-3.3 0.9-6 0.9-6 0 0 7.1 1.3 9.9 6.3 1 1.8 1.7 3.6 2.1 5.3z" class="s18"/></g></g><path id="&lt;Path&gt;" d="m407.3 125.1c-1.1 1.1-1.6 2.6-1.5 4.1 0.2 1.4-2 1.7-2.2 0.3-0.2-2.3 0.6-4.5 2.2-6.1 1.1-1.1 2.5 0.7 1.5 1.7z" class="s21"/></g><g id="&lt;Group&gt;"><path id="&lt;Path&gt;" d="m153.8 176.6c0 0-27.1 9.7-17.6 34.5 10.1 1.5 33.3-18.4 17.6-34.5z" class="s0"/><path id="&lt;Path&gt;" d="m155.4 172.7c0 0-4-21.7 15.5-33.7 10.6-6.6 11.4 2.3 16.4 0 4.9-2.2 19.3-5.7 23.1 0 3.7 5.8-37.1 40.2-55 33.7z" class="s22"/><path id="&lt;Path&gt;" d="m245.5 164.6c0 0 7.7-15 19.4-10.4-3.7 7.9 0 10.4 0 10.4v9.6c0 0-14.9 9.7-19.4-9.6z" class="s0"/><path id="&lt;Path&gt;" d="m234.2 152.1c-9.2 17.4-34.9 47.3-34.9 47.3l-19.2-47.3 15.4-9.3 0.8-0.5q0.8-0.5 1.7-1c10.3-5.2 26.1-2.8 36.2 10.8z" class="s23"/><path id="&lt;Path&gt;" d="m216.7 158.9q0 0.8 0 1.3-0.1 0.4-0.1 0.4l-2.1-0.4q0 0 0.1-0.3 0.1-0.4 0.2-1.1c0-0.8 0.1-2.2-0.8-3.1-0.4-0.5-1.1-0.8-1.9-0.9-0.9-0.2-1.9-0.2-2.9-0.1-1 0-2.1 0.1-3.3 0-0.3 0-0.6 0-1-0.2l-0.3-0.1-0.2-0.1c-0.2-0.1-0.3-0.2-0.5-0.3-0.5-0.4-0.9-1.2-1-1.9-0.2-1.4 0.1-2.6 0.2-3.6 0.1-1.1 0.3-2.1 0.3-2.9 0-0.2 0-0.5-0.1-0.8q0-0.1 0-0.3-0.1-0.2-0.4-0.5c-0.5-0.3-1.3-0.6-2-0.7-0.8-0.2-1.5-0.3-2.2-0.3q-1-0.1-1.7-0.2c-0.8 0-1.3 0-1.5 0l0.8-0.5q0.8-0.5 1.7-1c0.8-0.1 1.9-0.2 3.1-0.2 0.9 0 2 0.1 3.1 0.8 0.6 0.3 1.2 0.9 1.6 1.6q0.2 0.6 0.2 1.2c0 0.3 0.1 0.5 0.1 0.8-0.1 1.3-0.4 2.4-0.8 3.5-0.4 1.1-0.8 2.1-0.8 2.9 0 0.4 0.1 0.7 0.4 1 0.1 0 0.2 0.2 0.2 0.2l0.2 0.1q0 0 0.1 0c0.1 0 0.4 0.1 0.6 0.1 1 0.1 2.1 0 3.1-0.1 1.1 0 2.2 0 3.2 0.1 1 0.1 2.1 0.5 2.9 1.2 0.7 0.8 1.1 1.7 1.3 2.5 0.2 0.7 0.2 1.4 0.2 1.9z" class="s24"/><path id="&lt;Path&gt;" d="m244.2 154.7l-45.7 33.8c0 0-6.5-4.5-5.5-9.8 1.1-5.3 11.2-8 13.1-11.2 1.9-3.2-0.3-10.2 4.5-10.9 4.8-0.7 5.9 0.4 12.1-5.8 6.1-6.1 13-1.5 13-1.5z" class="s25"/><path id="&lt;Path&gt;" d="m218.4 240.9c0 0-20.6-27.8-25.4-46.5 2.2-22.9 11.2-21.6 13.9-22.9 2.7-1.3 1.3-7.5 4.3-11 2.9-3.4 8.2-1.3 11.2-2.1 2.9-0.8 1.1-6.9 5.1-9.3 4-2.4 9.5 0 9.5 0 9.9 6.1 20.6 32.2 20.6 32.2z" class="s22"/><path id="&lt;Path&gt;" d="m220.8 242.2c0 0-20.6-27.7-25.4-46.4 2.2-23 11.2-21.6 13.9-23 2.7-1.3 1.3-7.5 4.3-10.9 2.9-3.5 8.3-1.4 11.2-2.2 2.9-0.8 1.1-6.9 5.1-9.3 4-2.4 9.5 0 9.5 0 9.9 6.1 20.6 32.2 20.6 32.2z" class="s23"/><path id="&lt;Path&gt;" d="m147.7 199c0 0 7.5-47.3 32.4-51.9 17.9-3.3 6.5 12.4 8.7 17.7 2.1 5.4 8.5 4.3 9.6 11.8 1 7.4-1.9 9.6 1.4 14.4 3.4 4.8 10.3 5.6 11.4 14.3 1 8.6-4.3 9.7 0 12.4 4.2 2.6 9 1.6 12.8 12.8 3.7 11.2 3.7 20.8 3.7 20.8z" class="s0"/><path id="&lt;Path&gt;" d="m233.1 178.4c2.5 5.7 4.5 13.1 4.8 21.8 0 1.2-0.9 2.2-2.1 2.2q0 0-0.1 0c-1.1 0-2.1-0.9-2.1-2.1q-0.1-2.9-0.5-5.6-0.7 0-1.4 0c-11.1 0-17.7-10.5-18-11-0.6-1-0.3-2.3 0.7-2.9 1-0.6 2.4-0.3 3 0.7 0 0.1 5.9 9.3 15 8.9-3.2-15.1-11.7-23.8-11.8-23.9-0.8-0.8-0.8-2.2 0-3 0.8-0.9 2.2-0.9 3 0 0.3 0.3 4.1 4.1 7.6 11 4.1-2.2 4.7-10.9 4.5-13.8 0-1.2 0.9-2.2 2.1-2.2 1.1-0.1 2.1 0.8 2.2 2 0.1 1.5 0.4 14.2-6.9 17.9z" class="s26"/><path id="&lt;Path&gt;" d="m225.2 255.6l-8.9-5.8-71.1-46.5c0 0 2.1-10.7 7.3-22.3 5.5-12.3 14.4-25.7 27.6-28.9 17.7-4.2 4 11.6 6.2 17 2.1 5.3 8.5 4.3 9.6 11.7 1 7.5-1.9 9.6 1.4 14.4 3.4 4.8 10.3 5.7 11.4 14.3 1.1 8.7-4.3 9.8 0 12.4 4.3 2.7 9.1 1.6 12.8 12.8 3.7 11.3 3.7 20.9 3.7 20.9z" class="s24"/><path id="&lt;Path&gt;" d="m274.5 202.8c6.5 34.7-26.6 59.2-26.6 59.2 0 0-23 3.8-28.3-8-5.4-11.7-5.4-28.8 0-33.6 5.3-4.8 6.4-6.4 7.4-13.4 1.1-6.9 8.6-5.3 13.9-9 5.4-3.8-2.1-9.6 0-17 2.2-7.4 6.4-8.7 11.8-8.7 5.3 0 7.4 0.6 5.9-11-1.1-8.7 4.8-7.6 4.8-7.6-1.1 16 4.7 14.4 11.1 49.1z" class="s0"/><path id="&lt;Path&gt;" d="m190.5 192.5c-0.4 0.2-9.6 3.9-18.3 3.9q-1.1 0-2.1-0.1c-0.6 4.2-1 8.6-1 13.4 0 1.2-1 2.2-2.1 2.2-1.2 0-2.2-1-2.2-2.2 0-11.4 1.9-21.1 4.4-28.9-5.5-5.4-6.3-13.9-6.3-14.3-0.2-1.2 0.7-2.2 1.9-2.3 1.2-0.1 2.2 0.8 2.3 1.9 0 0.1 0.6 5.8 3.8 10 4.5-11.7 9.9-18.3 10.3-18.7 0.8-0.9 2.1-1 3-0.3 0.9 0.8 1 2.2 0.2 3.1-0.1 0.1-9.6 11.6-13.6 31.9 8.1 0.5 18-3.5 18.1-3.6 1.1-0.4 2.4 0.1 2.8 1.2 0.5 1.1-0.1 2.4-1.2 2.8z" class="s27"/><path id="&lt;Path&gt;" d="m261.8 182.6c0 0-19.4 36.9-45.1 55.9-8.1-10.9-2.2-19.2 1-24.8 3.1-5.6 9.5-1.7 13.7-8.7 4.2-7-0.9-17 5-25.8 5.8-8.7 17.2 4.2 12.9-2.1-11-15.6-0.7-16.5-0.7-16.5z" class="s25"/><path id="&lt;Path&gt;" d="m271.4 243.5c-1.6 2.1-3.2 4-4.8 5.8-7.5 8.2-15 12.7-15 12.7 0 0-23 3.8-28.3-8-5.3-11.7-5.3-28.8 0-33.6 5.3-4.8 6.4-6.4 7.5-13.4 1-6.9 8.5-5.3 13.9-9 5.3-3.8-2.2-9.6 0-17 2.1-7.4 6.4-8.7 11.7-8.7 5.3 0 7.5 1.1 4.8-10.2-2.7-11.4 3.7-7.9 3.7-7.9-0.9 14.8 8.3 16.4 14.8 43.9q0.8 3.4 1.5 7.4 0.5 2.5 0.6 4.9c1 13.3-4.1 24.5-10.4 33.1z" class="s24"/><path id="&lt;Path&gt;" d="m221.1 248q-2.4 1.1-4.8 1.8l-71.1-46.5c0 0 2.1-10.7 7.3-22.3 0.3 2.2 1.4 10.6 2.6 12.9 1.4 2.7 6.9 3.1 14.3 8.5 7.3 5.4 6.6 18.5 10.7 17.8 4.1-0.7 28.1-10.9 41 27.8z" class="s25"/><path id="&lt;Path&gt;" d="m139.9 207.9c0 0 8-12.2 20.8-5.8 12.8 6.4 13.4 20.3 17.6 23 4.3 2.7 12.3-6.4 24.1 0 11.7 6.4 13.3 21.3 18.6 22.9 5.4 1.6 18.7-10.3 27.3-5.7 8.5 4.7 6.5 13.2 8.1 19.6-9.7 6.4-36.4 21.3-69.5 9-33.1-12.2-46.5-56.7-47-63z" class="s0"/><path id="&lt;Path&gt;" d="m256.4 261.9c-4.9 3.3-15.9 9.7-29.9 13.7q-4.2 1.3-8.8 2.1c-4.2 0.8-8.5 1.3-12.9 1.4q-4.9 0.1-9.9-0.5c-4.9-0.6-9.8-1.7-14.8-3.5-19.3-7.1-27.9-22.7-33.6-37.4q-1.1-2.8-2-5.6c-2.9-8.4-5.2-16-8.2-21 0 0 8-12.2 20.8-5.8 12.8 6.4 13.3 20.3 17.6 23 4.3 2.7 12.3-6.4 24 0 11.7 6.4 13.4 21.3 18.7 22.9 5.3 1.6 18.7-10.3 27.2-5.7 8.6 4.7 10.2 10 11.8 16.4z" class="s28"/><path id="&lt;Path&gt;" d="m207.8 248.4c-0.3 0.4-7.3 9.6-17 9.6q-0.5 0-0.9-0.1c-0.6 3.9-0.7 8.1-0.2 12.4 4.4 3 9.4 6 15.1 8.8q-4.9 0.1-9.9-0.5c-17.5-10.1-27.5-21.8-33.3-31.5q0-0.1-0.1-0.3-1.7-2.9-2.9-5.6-0.3-0.5-0.5-1.1-0.3 0-0.5 0c-3.9 0-7.8-1.1-11.1-2.4q-1.1-2.8-2-5.6c2.9 1.5 7.5 3.4 11.8 3.7-4.1-11.5-3.4-19.8-3.4-20.2 0.2-1.2 1.2-2 2.4-1.9 1.1 0.1 2 1.1 1.9 2.3 0 0.1-0.8 10.5 5.4 23.7q0 0.1 0.1 0.3c1.6-10-1.6-19.1-1.7-19.2-0.4-1.1 0.2-2.3 1.3-2.7 1.1-0.4 2.3 0.1 2.8 1.2 0.1 0.6 4.7 13.4 0.7 26.3 4 6.6 10.1 14.1 19.3 21.3-0.9-19.9 10.8-35.5 11.3-36.2 0.7-1 2.1-1.1 3-0.4 1 0.7 1.1 2 0.4 3-0.1 0.1-6.3 8.5-9.1 20.4 7.7 0 13.6-7.8 13.7-7.9 0.7-0.9 2-1.1 3-0.4 0.9 0.7 1.1 2 0.4 3z" class="s29"/><path id="&lt;Path&gt;" d="m271 226.6c0.5 5.2 0.7 10.9 0.4 16.9-1.6 2.1-3.2 4-4.8 5.8q0.6-5.9 0.6-11.4c-2.9 1-6.4 1.4-10 1.4-8.9 0-18.3-2.3-19.9-2.8-1.1-0.2-1.8-1.4-1.5-2.6 0.3-1.1 1.5-1.8 2.6-1.5 5.8 1.5 21.8 4.5 28.7 0.9-0.2-5.8-0.9-11.3-2-16.3q-1 0.1-2 0.1c-9.3 0-22.4-6.2-24.1-7.1-1.1-0.5-1.5-1.8-1-2.8 0.5-1.1 1.8-1.5 2.9-1 4.5 2.2 16.5 7.2 23.3 6.6-5.2-20.3-15.1-32.5-15.2-32.7-0.8-0.9-0.6-2.2 0.3-3 0.9-0.7 2.2-0.6 3 0.3 0.4 0.5 4.9 6 9.4 15.5 4.6-8.3 3.2-19 3.2-19.1-0.2-1.1 0.6-2.2 1.8-2.4 1.1-0.2 2.2 0.6 2.4 1.8 0.1 0.6 2 14.5-5.4 24.4 2.8 6.7 5.3 14.8 6.7 24.2 6.9-5.5 8.8-17.7 9.3-23.7q0.8 3.4 1.5 7.4 0.5 2.5 0.6 4.9c-1.8 6.2-5 12.8-10.8 16.2z" class="s22"/><g id="&lt;Group&gt;"><path id="&lt;Path&gt;" d="m226.5 275.6q-4.2 1.3-8.8 2.1 0.1-0.2 0.3-0.3c14.3-10.6 14.1-21.6 14.1-21.8-0.1-1.1 0.9-2.1 2-2.2 1.2 0 2.2 0.9 2.2 2.1 0.1 0.5 0.3 9.9-9.8 20.1z" class="s29"/></g></g><g id="&lt;Group&gt;"><g id="&lt;Group&gt;" style="mix-blend-mode:multiply"><path id="&lt;Path&gt;" d="m77.9 347.4q-0.5 0.1-0.9 0.4z" class="s13"/></g><g id="&lt;Group&gt;"><g id="&lt;Group&gt;"><path id="&lt;Path&gt;" d="m76.4 330.4l0.8-0.4q-0.5 0.1-0.8 0.4z" class="s30"/><path id="&lt;Path&gt;" d="m230.9 394.4c0 0 0 13.6-17.3 23.7q-0.7 0.4-1.5 0.8c-18.7 10.1-51.9 8-64.6 4.2-35.4-10.7-58.8-36.2-57.7-56.4q-0.1 0-0.1 0 0 0 0.1-0.1 0.1-2.7 0.9-5.4 0.5-1.7 1.3-3.3c0.7-4-0.1-8.5-1.3-12.7-0.9-3.1-2.5-6-4.2-8.4-1.1-1.5-2.2-2.7-3.4-3.8-0.9-0.8-1.8-1.6-2.7-2.1 0.4-0.8 0.6-1.7 0.9-2.6l9.2-3.9 3.1-1.2 0.1-0.1q0 0 0 0.2 0.1 0.3 0.2 1 0 0.1 0 0.1c0.5 3.8 2.4 15.6 6.5 23.7q0.3 0.8 0.7 1.6 0.2 0.3 0.4 0.7c8 15.9 27.7 33 54.4 41.1 16 4.8 32.8 4.6 46.4 2.8q0-0.1 0 0 1.5-0.2 2.8-0.5 1.4-0.2 2.8-0.4 0 0 0.1 0c1-0.2 17.7-2.3 19.1-2.4 0 0 0.4 0.9 0.7 1.2 1.4 1.3 3.1 2.2 3.1 2.2z" class="s31"/><path id="&lt;Path&gt;" d="m78 334.6l0.7-0.5q-0.5 0.1-0.7 0.5z" class="s30"/><path id="&lt;Path&gt;" d="m227.8 392.2c-8.1 9.3-40.6 21.7-67.4 14.1-34.6-9.8-47.9-29.9-56-40.4-9.5-12.5-12.5-34.6-13.9-41.5l3.2-1.3c0 0 1.8 15.2 6.7 25 0.1-0.1-0.1 0.1 0 0 7.2 16.5 28.1 34.6 56.1 43.1 18.4 5.5 37 4.8 51.4 2.2q0 0 0.1 0c1-0.2 17.7-2.3 19.1-2.4z" class="s32"/></g><g id="&lt;Group&gt;"><path id="&lt;Path&gt;" d="m69.8 338l0.9-0.4q-0.5 0.1-0.9 0.4z" class="s30"/><path id="&lt;Path&gt;" d="m245.2 420c0 0-0.8 16.6-23.1 27.3-22.1 10.6-60.4 6.5-74.8 1.5-40.4-14.2-66.1-44.9-63.9-68.2q0 0 0 0 0 0 0-0.1 0.3-3.1 1.3-6.2 0.7-1.9 1.7-3.7c1-4.6-0.3-10.2-1.5-15.1-1.2-4.9-3.6-9.5-6.3-12.7-1.7-2.1-3.5-3.7-5.1-4.5q0.9-0.7 1.7-1.5 0.6-0.7 1.4-1.4l6.5-2.4 7.1-2.6q0 0 0.1 0.8c0.3 3.5 1.8 18.3 6.3 28.5q0.2-0.1 0.3-0.3c7.5 19.5 29.7 42 61.6 53.2 18.9 6.7 39 7.1 55.1 5.5q2.6-0.3 5-0.6 0 0 0 0c1.3-0.1 20.7-1.7 22.3-1.7l1.2 0.8z" class="s33"/><path id="&lt;Path&gt;" d="m71.4 342.9l0.9-0.6q-0.6 0.2-0.9 0.6z" class="s30"/><path id="&lt;Path&gt;" d="m243.1 417.4c-9.8 10.4-50.3 27.8-81 17.6-39.4-13.1-56.6-39.8-62.6-49.5-4.5-7.5-9.1-27.6-10.4-35.6l0.5-16.1c0 0 2 17.1 7.2 28.7q0.1-0.1 0.3-0.2c7.4 19.4 31.4 39.5 63.3 50.7 21 7.4 41.6 9.6 58.3 7.4q0 0 0.1 0c1.2-0.1 21.6-3.7 23.3-3.8z" class="s34"/><path id="&lt;Path&gt;" d="m127.2 416.6c-4.5-3.5-8.4-7-11.7-10.4 3.6-3.5 7.4-6.7 10.9-10.4 4.1 2.9 8.6 5.6 13.4 8.2q-1.7 1.6-3.4 3.2c-3.2 3-6.2 6.2-9.2 9.4z" class="s5"/><path id="&lt;Path&gt;" d="m242.1 416.6c-9.8 10.4-48.5 23.6-79.1 13.4-39.4-13.1-53.8-37-62.6-49.6-7.6-10.8-13.6-39.7-14.9-47.7l3.7-1.8c0 0 2.3 17.2 7.4 28.8 0.1-0.1-0.1 0 0 0 7.5 19.4 30.8 41.4 62.7 52.6 20.9 7.4 42.5 7.5 59.3 5.2q0 0 0 0c1.3-0.1 20.7-1.7 22.3-1.7z" class="s35"/></g><g id="&lt;Group&gt;"><path id="&lt;Path&gt;" d="m66.6 344.6l1-0.2q-0.5 0-1 0.2z" class="s30"/><path id="&lt;Path&gt;" d="m227.2 453.7c0 0-3.6 15.7-27.3 22.8-23.6 7-60.7-3-74.1-10.3-37.7-20.3-58.3-54.7-52.4-77.4q-0.1 0-0.1 0 0 0 0.1 0 0.8-3.1 2.3-6 1-1.8 2.2-3.4c1.7-4.4 0.7-9.8 0.3-14.8-0.8-10.3-6.4-20.1-10.6-20.2l16.7-2.5c0 0 2.2 16.1 5.4 28.3 0.2 0-0.1 0.1 0 0 4.4 20.4 23 46 52.8 62.1 19.5 10.5 41.7 13.8 58.6 14.2q0 0 0 0c1.2 0.1 20.7 1.6 22.3 1.9l1 1z" class="s32"/><path id="&lt;Path&gt;" d="m225.3 450.3c-11.3 8.7-54.1 19.5-82.8 4.6-36.8-19.1-49.9-47.5-54-58.7-3-8.5-3.7-16-5.8-31-0.7-4.7 1.6-8.5 1.6-11.1l-3.6-8c0 0 5.4 14.7 8.7 27q0.2-0.1 0.4-0.2c4.3 20.4 24.8 44 54.6 60.1 19.5 10.5 39.4 16 56.4 16.4q0 0 0 0c1.2 0.1 22-0.3 23.6 0z" class="s34"/><path id="&lt;Path&gt;" d="m96.9 413.4c-3.8-6.3-6.3-11.8-7.8-15.8 2.2-1.8 4.4-3.6 6.8-5.2q0.9-0.7 1.3-1.5c2.8 4.5 6.2 9.1 10.2 13.5q-0.3 0.2-0.5 0.4c-3.5 2.7-6.9 5.5-10 8.6z" class="s5"/><path id="&lt;Path&gt;" d="m224.4 449.4c-11.3 8.7-51.5 15.6-80.2 0.7-36.9-19.1-47.3-44.9-54-58.7-5.8-12-10.7-41.3-10.7-49.4l4.6-2.6c0 0 2.4 18.6 5.6 30.8 0.2 0-0.1 0.1 0 0 4.4 20.4 23.9 45.8 53.7 61.9 19.5 10.5 40.8 14 57.7 14.4q0 0 0 0c1.2 0.1 20.7 1.6 22.3 1.9z" class="s36"/></g><path id="&lt;Path&gt;" d="m93.9 324.3q0 0.1 0 0.1 0 0 0 0c-0.4 1.2-1.3 2.6-2.5 4.7q-0.5 1-1.1 2.1c-1.1 1.9-2.3 3.8-3.8 5.6-2 2.4-4.4 4.5-7.2 5.9q-0.4 0-0.7 0.1c-3.6 0.5-7.8 1.7-11.3 1.7 1-2.6 3.9-4.4 6.2-6.2q0.9-0.7 1.7-1.5 0.6-0.7 1.4-1.4c1.1-1.1 2.3-2.1 3.2-3.4q0.3-0.5 0.6-1.1c0.4-0.8 0.6-1.7 0.9-2.6 0.5-1.2 1-2.4 2-3.2 0.9-0.6 2.5-0.9 3.6-1.2 0.7-0.2 5.3-1.6 6.7-0.7q0.1 0 0.1 0.1 0.4 0.3 0.2 1z" class="s31"/><path id="&lt;Path&gt;" d="m227 451.9c0.7 0.9 0.4 2.2-0.6 2.9-0.9 0.6-2.3 0.3-2.9-0.6l-1.7-2.7c-0.7-1-0.4-2.3 0.6-3 0.9-0.6 2.2-0.3 2.9 0.7z" class="s37"/><path id="&lt;Path&gt;" d="m244.9 419.4c0.6 1 0.4 2.3-0.6 2.9-1 0.7-2.3 0.4-2.9-0.6l-1.8-2.7c-0.6-0.9-0.4-2.2 0.6-2.9 1-0.6 2.3-0.3 2.9 0.6z" class="s37"/><path id="&lt;Path&gt;" d="m227.1 391c0 0 3.9 2.6 3.8 3.4-1.2 0.6-4.1-2.2-3.8-3.4z" class="s38"/></g></g><g id="&lt;Group&gt;"><g id="&lt;Group&gt;"><path id="&lt;Path&gt;" d="m154.4 648.4c-1.3 14.9-16 25.7-32.7 24.2-12.4-1.2-22.5-8.9-26.2-18.9-1.3-3.4-1.8-7.1-1.5-10.9 1.4-14.9 16-25.7 32.7-24.2 9.2 0.9 17 5.3 22.1 11.6 4.1 5.1 6.3 11.5 5.6 18.2z" class="s39"/><path id="&lt;Path&gt;" d="m150.2 641c-1.4 14.9-16 25.7-32.7 24.2-9.2-0.9-17-5.3-22-11.5-1.3-3.4-1.8-7.1-1.5-10.9 1.4-14.9 16-25.7 32.7-24.2 9.2 0.9 17 5.3 22.1 11.6 1.2 3.3 1.7 7 1.4 10.8z" class="s40"/><path id="&lt;Path&gt;" d="m110.4 637.7c-0.1 1.7-1.7 3-3.4 2.8-1.7-0.2-3-1.7-2.8-3.4 0.1-1.8 1.6-3 3.4-2.9 1.7 0.2 3 1.7 2.8 3.5z" class="s5"/><path id="&lt;Path&gt;" d="m128.7 630.4c-0.2 1.4-2.3 2.4-4.8 2.2-2.5-0.3-4.4-1.6-4.3-3.1 0.1-1.4 2.3-2.4 4.8-2.2 2.5 0.3 4.4 1.6 4.3 3.1z" class="s41"/></g><g id="&lt;Group&gt;"><path id="&lt;Path&gt;" d="m208.6 685.7c-1.4 14.9-16 25.7-32.7 24.2-12.5-1.1-22.6-8.9-26.3-18.9-1.3-3.4-1.8-7.1-1.5-10.8 1.4-14.9 16.1-25.8 32.7-24.2 9.2 0.8 17.1 5.2 22.1 11.5 4.1 5.1 6.3 11.5 5.7 18.2z" class="s39"/><path id="&lt;Path&gt;" d="m204.3 678.3c-1.3 14.9-16 25.7-32.7 24.2-9.1-0.9-17-5.2-22-11.5-1.3-3.4-1.8-7.1-1.5-10.8 1.4-14.9 16.1-25.8 32.7-24.2 9.2 0.8 17.1 5.2 22.1 11.5 1.2 3.4 1.8 7 1.4 10.8z" class="s40"/><path id="&lt;Path&gt;" d="m170.2 675.5c-0.3 2.9-2.8 5-5.7 4.7-2.8-0.3-4.9-2.8-4.7-5.6 0.3-2.9 2.8-5 5.7-4.7 2.8 0.2 4.9 2.8 4.7 5.6z" class="s5"/><path id="&lt;Path&gt;" d="m182.8 667.7c-0.1 1.5-2.3 2.4-4.8 2.2-2.5-0.2-4.4-1.6-4.3-3 0.2-1.5 2.3-2.5 4.8-2.2 2.5 0.2 4.4 1.6 4.3 3z" class="s41"/></g><path id="&lt;Path&gt;" d="m124.1 630c0 0 20.7-0.6 54-64.9 8.4 0.4 8.4 0.4 8.4 0.4 0 0 23.2 32.4-8.2 101.8" class="s42"/><g id="&lt;Group&gt;"><path id="&lt;Path&gt;" d="m240 646.1c-20.2-21.1-46.2-66-54.9-81.5-1 8.5-4.4 59 54.9 81.5z" class="s43"/><path id="&lt;Path&gt;" d="m240 646.1c-20.2-21.1-46.2-66-54.9-81.5 0.1-0.8 0.2-1.2 0.2-1.2 60.1 22.7 46.4 61 54.7 82.7z" class="s44"/></g><path id="&lt;Path&gt;" d="m214.4 565c-0.3 3.2-3.2 5.7-6.5 5.4l-23.7-2.3-22.8-2.1c-3.3-0.3-5.7-3.2-5.4-6.5 0.3-3.3 3.3-5.7 6.5-5.4l46.5 4.3c3.3 0.3 5.7 3.3 5.4 6.6z" class="s45"/><path id="&lt;Path&gt;" d="m167.2 560.9c-0.3 3.1-3 5.4-6.1 5.1-3.1-0.3-5.4-3.1-5.1-6.2 0.3-3.1 3.1-5.4 6.2-5.1 3.1 0.3 5.3 3 5 6.2z" class="s46"/></g><g id="&lt;Group&gt;"><g id="&lt;Group&gt;"><path id="&lt;Path&gt;" d="m296.5 751.3c0.2-5.6 1.9-11.1 5.2-15.8q1.6-2.3 3.5-4.1 0.5-0.6 1.2-1.1c10.6-9.4 27.6-9.6 44 1.7 4.3 2.9 11.5 9.4 20.1 17.6q1.3 1.3 2.6 2.5c2.7 2.6 5.5 5.4 8.4 8.3q1.3 1.3 2.6 2.7c5.9 5.9 12 12.2 17.9 18.5q1.1 1.1 2.1 2.2c10.2 10.9 19.9 21.8 27.3 30.7 9.1 11 14.7 19 13.5 20.8-2 3-20.3-2.7-42.7-11.3q-1.5-0.6-2.9-1.1c-31.8-12.4-70.5-30.3-83.2-38.4q-0.7-0.4-1.3-0.8-0.6-0.5-1.3-0.9c-11.8-8.7-17.4-20.5-17-31.5z" class="s47"/><path id="&lt;Path&gt;" d="m301.7 735.5q2.1-3 4.7-5.2c1.1-0.3 2.2-0.1 3.1 0.4 2.8 2 1.9 8.1-1.9 13.6-3.5 5-8.1 7.9-11.1 7 0.2-5.6 2-11.1 5.2-15.8z" class="s48"/><path id="&lt;Path&gt;" d="m291.2 727.4l6.7-6.5 9.8 8.7c2.4 1.6 2.9 4.7 1.3 7l-3.4 5.1c-1.6 2.3-4.8 2.9-7.1 1.3l-17.4-9.2 5.6-10.3z" class="s49"/><path id="&lt;Path&gt;" d="m324 734.4c0 0 11.1-5 27.8 11.9" class="s50"/><g id="&lt;Group&gt;"><path id="&lt;Path&gt;" d="m361 770.6q0.9-1.1 1.7-2.3c4.9-7.1 6.9-14.2 7.8-18.6q1.3 1.2 2.6 2.4c-1.1 4.7-3.4 11.3-7.9 17.9q-0.9 1.2-1.9 2.5c-0.5 0.6-1.4 0.7-2.1 0.2-0.6-0.5-0.7-1.4-0.2-2.1z" class="s48"/></g><g id="&lt;Group&gt;"><path id="&lt;Path&gt;" d="m371.5 784q0.9-1.2 1.7-2.4c6-8.6 7.8-17.3 8.3-21.2q1.3 1.3 2.6 2.7c-0.8 4.7-3 12.4-8.4 20.2q-0.8 1.2-1.8 2.5c-0.5 0.7-1.5 0.8-2.1 0.3-0.7-0.6-0.8-1.5-0.3-2.1z" class="s48"/></g><g id="&lt;Group&gt;"><path id="&lt;Path&gt;" d="m399 786q0.9-1.2 1.7-2.4 0.7-1 1.3-2 1.1 1.1 2.1 2.2-0.4 0.8-0.9 1.5-0.9 1.2-1.9 2.5c-0.5 0.6-1.4 0.8-2.1 0.3-0.6-0.6-0.7-1.5-0.2-2.1z" class="s48"/></g><g id="&lt;Group&gt;"><path id="&lt;Path&gt;" d="m313.5 782.8c4.4-3.6 7.5-7.3 9.6-10.4 2.5-3.6 3.6-6.2 3.6-6.3 0.3-0.8 1.2-1.1 2-0.8 0.7 0.3 1.1 1.2 0.8 1.9-0.1 0.3-1.3 3.1-3.9 6.9-2.1 3.1-5.2 6.9-9.5 10.4q-0.7-0.4-1.3-0.8-0.6-0.5-1.3-0.9z" class="s48"/></g><g id="&lt;Group&gt;"><path id="&lt;Path&gt;" d="m329.3 785.4c-0.7 0.5-1.6 0.4-2.1-0.3-0.5-0.7-0.3-1.6 0.3-2.1 12.6-9.3 16.7-21.8 16.8-22 0.2-0.8 1.1-1.2 1.9-1 0.7 0.3 1.2 1.1 0.9 1.9-0.1 0.3-1.6 5-5.7 10.9-2.7 4-6.7 8.6-12.1 12.6z" class="s48"/></g><g id="&lt;Group&gt;"><path id="&lt;Path&gt;" d="m314.5 760.8c-0.6 0.5-1.5 0.5-2.1-0.1-0.5-0.6-0.5-1.6 0.1-2.1 7.4-6.8 11.2-16.3 11.2-16.4 0.3-0.8 1.2-1.1 2-0.8 0.7 0.3 1.1 1.1 0.8 1.9-0.1 0.2-1.9 4.7-5.4 9.8-1.7 2.5-3.9 5.2-6.6 7.7z" class="s48"/></g><g id="&lt;Group&gt;"><path id="&lt;Path&gt;" d="m399.7 822.2c4-5.7 5.4-10.3 5.4-10.4 0.3-0.8 1.1-1.3 1.9-1 0.8 0.2 1.2 1.1 1 1.9-0.1 0.3-1.6 5.2-5.8 11.2v0.1q-1.5-0.6-2.9-1.1 0.2-0.3 0.4-0.7z" class="s48"/></g></g><path id="&lt;Path&gt;" d="m316.8 748.6c-5.7-5.2-9.5-11.2-11.6-17.2-0.3-1.7-0.1-4.2-0.1-4.2l2.4 2.1c10.7-8.4 27.1-8.2 42.9 2.7 4.3 2.9 11.5 9.4 20.1 17.6q1.3 1.3 2.6 2.5c2.7 2.6 5.5 5.4 8.4 8.3q1.3 1.3 2.6 2.7c5.9 5.9 12 12.2 17.9 18.5q1.1 1.1 2.1 2.2c10.2 10.9 19.9 21.8 27.3 30.7-7.6-2.8-18.8-8.1-31.3-14.7q-1.4-0.7-2.8-1.5c-30.1-15.9-66.5-38.1-78.1-47.6q-0.7-0.5-1.2-1-0.6-0.5-1.2-1.1z" class="s51"/><path id="&lt;Path&gt;" d="m320.9 741.6c-10.8-10-15-22.3-13.3-33.1 0.8-5.6 3.2-10.9 7-15.2q2.4-2.7 5.2-4.7c11.7-8 28.6-6.2 43.5 6.9 3.9 3.4 10.4 10.6 18 19.8q1.1 1.3 2.2 2.7c2.4 3 4.9 6.1 7.4 9.3q1.2 1.4 2.3 2.9c5.2 6.5 10.5 13.5 15.7 20.5q0.9 1.2 1.8 2.4c19.8 26.8 37.2 53 34.6 55.9-2.4 2.7-19.9-5-41.2-16.2q-1.3-0.7-2.7-1.4c-30.1-16-66.6-38.2-78.2-47.7q-0.6-0.5-1.2-1-0.6-0.5-1.1-1.1z" class="s52"/><path id="&lt;Path&gt;" d="m314.6 693.3q2.4-2.7 5.2-4.7c1.2 0 2.2 0.2 3 0.9 2.6 2.2 1 8.2-3.4 13.3-4 4.5-9 6.8-11.8 5.7 0.8-5.6 3.2-10.9 7-15.2z" class="s48"/><path id="&lt;Path&gt;" d="m308.2 673.6l13 14.5c2.2 1.9 2.4 5.1 0.5 7.2l-4 4.6c-1.8 2.1-5.1 2.3-7.2 0.5l-16.3-10.9z" class="s49"/><path id="&lt;Path&gt;" d="m293.1 682.8l8.2-9.4c1.6-1.8 4.4-2 6.2-0.4 1.8 1.6 2 4.3 0.4 6.1l-8.2 9.5c-1.6 1.8-4.4 2-6.2 0.4-1.8-1.6-2-4.4-0.4-6.2z" class="s43"/><path id="&lt;Path&gt;" d="m336.8 694.7c0 0 11.7-3.6 26.3 15.1" class="s50"/><g id="&lt;Group&gt;"><path id="&lt;Path&gt;" d="m369.4 735.1q1-1.1 1.9-2.2c5.7-6.4 8.6-13.2 10-17.6q1.1 1.3 2.2 2.7c-1.6 4.6-4.6 10.8-9.9 16.9q-1 1.1-2.1 2.3c-0.6 0.5-1.5 0.5-2.1 0-0.6-0.6-0.6-1.6 0-2.1z" class="s48"/></g><g id="&lt;Group&gt;"><path id="&lt;Path&gt;" d="m378.3 749.5q1.1-1.1 2-2.1c6.9-7.9 9.7-16.3 10.6-20.1q1.2 1.4 2.3 2.9c-1.4 4.6-4.4 12-10.6 19.1q-1 1.2-2.2 2.3c-0.5 0.6-1.5 0.6-2.1 0-0.6-0.6-0.6-1.5 0-2.1z" class="s48"/></g><g id="&lt;Group&gt;"><path id="&lt;Path&gt;" d="m405.4 754.7q1-1.1 1.9-2.2 0.8-0.9 1.6-1.8 0.9 1.2 1.8 2.4-0.5 0.7-1.1 1.3-1 1.2-2.1 2.3c-0.6 0.6-1.5 0.6-2.1 0.1-0.6-0.6-0.6-1.6 0-2.1z" class="s48"/></g><g id="&lt;Group&gt;"><path id="&lt;Path&gt;" d="m320.9 741.6c4.7-3 8.2-6.4 10.7-9.2 2.9-3.3 4.3-5.7 4.3-5.8 0.4-0.7 1.3-1 2-0.6 0.7 0.4 1 1.3 0.6 2-0.1 0.3-1.6 2.9-4.7 6.4-2.5 2.9-6 6.2-10.6 9.3q-0.6-0.5-1.2-1-0.6-0.5-1.1-1.1z" class="s48"/></g><g id="&lt;Group&gt;"><path id="&lt;Path&gt;" d="m336.2 746.1c-0.7 0.4-1.6 0.1-2-0.6-0.4-0.7-0.2-1.6 0.5-2 13.6-7.8 19.1-19.7 19.2-19.9 0.4-0.8 1.2-1.1 2-0.8 0.7 0.4 1.1 1.2 0.7 2-0.1 0.3-2.2 4.8-6.9 10.2-3.2 3.6-7.6 7.7-13.5 11.1z" class="s48"/></g><g id="&lt;Group&gt;"><path id="&lt;Path&gt;" d="m324.4 719.9c-0.7 0.5-1.6 0.3-2.1-0.4-0.5-0.6-0.3-1.5 0.3-2 8.2-5.9 13-14.9 13.1-15 0.4-0.7 1.3-1 2-0.6 0.7 0.4 1 1.3 0.6 2-0.1 0.3-2.4 4.4-6.5 9.1-2 2.3-4.5 4.8-7.4 6.9z" class="s48"/></g><g id="&lt;Group&gt;"><path id="&lt;Path&gt;" d="m401.9 790.8c4.6-5.3 6.6-9.7 6.6-9.8 0.3-0.7 1.2-1.1 2-0.8 0.7 0.4 1.1 1.3 0.8 2-0.2 0.3-2.3 5-7.1 10.5l-0.1 0.1q-1.3-0.7-2.7-1.4 0.2-0.3 0.5-0.6z" class="s48"/></g><g id="&lt;Group&gt;"><g id="&lt;Group&gt;"><path id="&lt;Path&gt;" d="m299.7 683.2l15.6 14.6-17.7-12z" class="s43"/></g></g><g id="&lt;Group&gt;"><g id="&lt;Group&gt;"><path id="&lt;Path&gt;" d="m302.1 676.9l11.9 17.1-14.4-15z" class="s43"/></g></g><g id="&lt;Group&gt;"><g id="&lt;Group&gt;"><path id="&lt;Path&gt;" d="m295.5 725.3l11.9 12.4-13.9-10.1z" class="s43"/></g></g><path id="&lt;Path&gt;" d="m291.1 730.8l14 9.6-14.3-6.6z" class="s43"/><path id="&lt;Path&gt;" d="m279.5 729l2-4.1c0.9-1.7 3.1-2.5 4.8-1.6 1.8 0.9 2.5 3.1 1.6 4.8l-2 4.1c-0.9 1.7-3 2.5-4.8 1.6-1.8-0.9-2.5-3.1-1.6-4.8z" class="s43"/><path id="&lt;Path&gt;" d="m290.8 733.8c-1.8-0.9-2.3-2.9-1.4-4.7l3.3-6.8c0.9-1.8 3-2.5 4.8-1.6 1.8 0.9 2.5 3 1.6 4.8l-3.3 6.9c-0.9 1.7-3 2.4-4.8 1.6z" class="s43"/></g><g id="&lt;Group&gt;"><path id="&lt;Compound Path&gt;" fill-rule="evenodd" d="m613.8 761.7q0 0-0.1 0l-1.2-1.3-4.9-5q0.1 0 0.1 0zm54.1-69l-9-9.4z" class="s53"/><g id="&lt;Group&gt;"><path id="&lt;Path&gt;" d="m648.9 647.2c0 0-104.6 56.1-101 114.2 34.7-27.3 101-114.2 101-114.2z" class="s54"/><path id="&lt;Path&gt;" d="m548.4 760.6c-1.7-2.5 7.9-44.8 100.5-113.4-0.4 8.4-23.2 64.2-39.5 91.6-16.2 27.4-61 21.8-61 21.8z" class="s55"/><path id="&lt;Path&gt;" d="m716.2 708.4l-92.1 78.2c0 0-27.5 1.5-33-13.1 72.2-78.1 145.9-71.3 145.9-71.3z" class="s55"/><g id="&lt;Group&gt;"><path id="&lt;Path&gt;" d="m699.1 677.2c-1.9 1.9-5.3 1.6-7.5-0.8l-12.1-12.5c-2.2-2.3-2.4-5.7-0.4-7.6 1.9-1.9 5.3-1.6 7.5 0.7l12.1 12.6c2.2 2.3 2.4 5.7 0.4 7.6z" class="s56"/><path id="&lt;Path&gt;" d="m695.9 691.1c-2.9 2.7-7.2 3.1-9.5 0.6l-22.4-23.3c-2.3-2.4-1.8-6.6 1.1-9.4 2.9-2.8 7.1-3.1 9.4-0.7l22.4 23.4c2.4 2.4 1.9 6.6-1 9.4z" class="s56"/><path id="&lt;Path&gt;" d="m690.3 706.8c-3.5 3.4-9.1 3.3-12.5-0.2l-29-30.2c-3.3-3.5-3.2-9.1 0.3-12.5 3.5-3.4 9.1-3.2 12.5 0.3l29 30.2c3.3 3.5 3.2 9.1-0.3 12.4z" class="s56"/><path id="&lt;Path&gt;" d="m677.7 725.5c-3.6 3.4-9.1 3.4-12.5-0.1l-37.3-38.8c-3.3-3.5-3.2-9.1 0.4-12.5l3.1-3c3.6-3.4 9.1-3.3 12.5 0.1l37.3 38.9c3.3 3.5 3.2 9-0.4 12.4z" class="s56"/><path id="&lt;Path&gt;" d="m662.7 741.9c-3.6 3.4-9.2 3.3-12.6-0.3l-38.2-39.7c-3.4-3.6-3.3-9.2 0.2-12.6l3.2-3c3.5-3.4 9.2-3.3 12.6 0.2l38.2 39.8c3.4 3.5 3.2 9.2-0.3 12.6z" class="s56"/><path id="&lt;Path&gt;" d="m646.7 757.2c-3.6 3.4-9.2 3.3-12.6-0.2l-38.2-39.8c-3.4-3.5-3.3-9.2 0.3-12.6l3.1-3c3.6-3.4 9.2-3.3 12.6 0.3l38.2 39.7c3.4 3.6 3.3 9.2-0.3 12.6z" class="s56"/><path id="&lt;Path&gt;" d="m632.4 771.7c-3.5 3.4-9.2 3.3-12.6-0.2l-38.2-39.8c-3.4-3.5-3.2-9.2 0.3-12.6l3.1-3c3.6-3.4 9.2-3.3 12.6 0.3l38.2 39.7c3.4 3.6 3.3 9.2-0.2 12.6z" class="s56"/><path id="&lt;Path&gt;" d="m616.4 787.1c-3.6 3.4-9.2 3.3-12.6-0.2l-38.2-39.8c-3.4-3.5-3.3-9.2 0.3-12.6l3.1-3c3.5-3.4 9.2-3.3 12.6 0.3l38.2 39.7c3.4 3.6 3.3 9.2-0.3 12.6z" class="s56"/><path id="&lt;Path&gt;" d="m600.5 802.4c-3.6 3.4-9.2 3.3-12.6-0.2l-35.6-27.7-2.6-12.1c-3.4-3.5-3.3-9.2 0.2-12.6l3.2-3c3.5-3.4 9.2-3.3 12.6 0.3l38.2 39.7c3.4 3.6 3.2 9.2-0.3 12.6z" class="s56"/><path id="&lt;Path&gt;" d="m598.9 795.8c-3.5 3.4-9.1 3.3-12.5-0.2l-10.4-10.8c-3.4-3.5-3.2-9.1 0.3-12.5l0.6-0.7c3.6-3.4 9.2-3.2 12.6 0.3l10.3 10.7c3.4 3.6 3.3 9.2-0.2 12.6z" class="s57"/><path id="&lt;Path&gt;" d="m614.9 780.6c-3.6 3.4-9.2 3.2-12.6-0.3l-10.3-10.7c-3.4-3.6-3.3-9.2 0.2-12.6l0.7-0.6c3.5-3.4 9.1-3.3 12.5 0.2l10.4 10.8c3.4 3.5 3.2 9.1-0.3 12.5z" class="s58"/><path id="&lt;Path&gt;" d="m630.9 765.2c-3.5 3.4-9.2 3.2-12.6-0.3l-10.3-10.7c-3.4-3.6-3.3-9.2 0.3-12.6l0.6-0.6c3.5-3.4 9.2-3.3 12.6 0.2l10.3 10.8c3.4 3.5 3.3 9.1-0.3 12.5z" class="s58"/><path id="&lt;Path&gt;" d="m646.5 750.2c-3.5 3.4-9.2 3.2-12.6-0.3l-10.3-10.7c-3.4-3.6-3.3-9.2 0.3-12.6l0.6-0.6c3.6-3.4 9.2-3.3 12.6 0.2l10.3 10.8c3.4 3.5 3.3 9.1-0.2 12.5z" class="s58"/><path id="&lt;Path&gt;" d="m662.3 735c-3.5 3.4-9.1 3.2-12.5-0.3l-10.4-10.7c-3.4-3.6-3.3-9.2 0.3-12.6l0.6-0.6c3.6-3.4 9.2-3.3 12.6 0.2l10.3 10.8c3.4 3.5 3.3 9.1-0.2 12.5z" class="s58"/><path id="&lt;Path&gt;" d="m675.3 718c-3.6 3.4-9.2 3.3-12.6-0.2l-10.3-10.8c-3.4-3.5-3.3-9.1 0.2-12.5l0.7-0.7c3.5-3.4 9.1-3.2 12.5 0.3l10.4 10.7c3.4 3.6 3.3 9.2-0.3 12.6z" class="s58"/><g id="&lt;Group&gt;"><path id="&lt;Path&gt;" d="m643.4 715.3c-3.5 3.4-9.1 3.3-12.5-0.3l-10.4-10.7c-3.4-3.6-3.2-9.2 0.3-12.6l0.6-0.6c3.6-3.4 9.2-3.3 12.6 0.2l10.3 10.8c3.4 3.5 3.3 9.2-0.2 12.6z" class="s58"/></g><g id="&lt;Group&gt;"><path id="&lt;Path&gt;" d="m658.6 700.7c-3.5 3.4-9.1 3.3-12.5-0.2l-10.4-10.8c-3.4-3.5-3.3-9.2 0.3-12.6l0.6-0.6c3.6-3.4 9.2-3.3 12.6 0.3l10.3 10.7c3.4 3.6 3.3 9.2-0.2 12.6z" class="s58"/></g><g id="&lt;Group&gt;"><path id="&lt;Path&gt;" d="m668.8 711.2c-3.6 3.4-9.2 3.3-12.6-0.2l-10.3-10.8c-3.4-3.5-3.3-9.1 0.2-12.5l0.6-0.6c3.6-3.5 9.2-3.3 12.6 0.2l10.3 10.8c3.4 3.5 3.3 9.1-0.2 12.5z" class="s59"/><path id="&lt;Path&gt;" d="m660.3 696.7c-0.6 0.6-1.5 0.5-2.1 0l-3.7-3.9c-0.6-0.6-0.6-1.6 0-2.1 0.6-0.6 1.5-0.6 2.1 0l3.7 3.9c0.6 0.6 0.6 1.5 0 2.1z" class="s5"/></g><g id="&lt;Group&gt;"><path id="&lt;Path&gt;" d="m653.6 725.8c-3.6 3.4-9.2 3.3-12.6-0.2l-10.3-10.8c-3.4-3.5-3.3-9.1 0.2-12.5l0.7-0.7c3.5-3.4 9.1-3.3 12.5 0.3l10.4 10.7c3.4 3.6 3.3 9.2-0.3 12.6z" class="s59"/><path id="&lt;Path&gt;" d="m645.1 711.3c-0.6 0.5-1.5 0.5-2.1-0.1l-3.7-3.9c-0.6-0.5-0.6-1.5 0-2.1 0.6-0.5 1.6-0.5 2.1 0.1l3.8 3.9c0.5 0.6 0.5 1.5-0.1 2.1z" class="s5"/></g><g id="&lt;Group&gt;"><path id="&lt;Path&gt;" d="m627.6 730.5c-3.5 3.4-9.2 3.3-12.6-0.3l-10.3-10.7c-3.4-3.6-3.3-9.2 0.3-12.6l0.6-0.6c3.6-3.4 9.2-3.3 12.6 0.2l10.3 10.8c3.4 3.5 3.3 9.2-0.2 12.6z" class="s58"/></g><g id="&lt;Group&gt;"><path id="&lt;Path&gt;" d="m637.7 741c-3.5 3.4-9.1 3.3-12.5-0.2l-10.4-10.8c-3.4-3.5-3.2-9.1 0.3-12.6l0.6-0.6c3.6-3.4 9.2-3.3 12.6 0.3l10.3 10.7c3.4 3.6 3.3 9.2-0.2 12.6z" class="s59"/><path id="&lt;Path&gt;" d="m629.3 726.5c-0.6 0.5-1.5 0.5-2.1-0.1l-3.7-3.9c-0.6-0.5-0.6-1.5 0-2.1 0.6-0.5 1.5-0.5 2.1 0.1l3.7 3.9c0.6 0.6 0.6 1.5 0 2.1z" class="s5"/></g><g id="&lt;Group&gt;"><path id="&lt;Path&gt;" d="m612 745.5c-3.5 3.4-9.2 3.3-12.6-0.3l-10.3-10.7c-3.4-3.6-3.3-9.2 0.3-12.6l0.6-0.6c3.5-3.4 9.2-3.3 12.6 0.2l10.3 10.8c3.4 3.5 3.3 9.2-0.3 12.6z" class="s58"/></g><g id="&lt;Group&gt;"><path id="&lt;Path&gt;" d="m622.1 756c-3.5 3.4-9.1 3.3-12.5-0.2l-10.4-10.8c-3.4-3.5-3.3-9.2 0.3-12.6l0.6-0.6c3.6-3.4 9.2-3.3 12.6 0.3l10.3 10.7c3.4 3.6 3.3 9.2-0.2 12.6z" class="s59"/><path id="&lt;Path&gt;" d="m613.7 741.5c-0.6 0.5-1.5 0.5-2.1-0.1l-3.7-3.9c-0.6-0.6-0.6-1.5 0-2.1 0.6-0.5 1.5-0.5 2.1 0.1l3.7 3.9c0.6 0.6 0.6 1.5 0 2.1z" class="s5"/></g><g id="&lt;Group&gt;"><path id="&lt;Path&gt;" d="m596 760.9c-3.6 3.4-9.2 3.3-12.6-0.3l-10.3-10.7c-3.4-3.6-3.3-9.2 0.2-12.6l0.7-0.6c3.5-3.4 9.1-3.3 12.5 0.2l10.4 10.8c3.4 3.5 3.3 9.2-0.3 12.6z" class="s58"/></g><path id="&lt;Path&gt;" d="m671.7 685.7c-2.7 2.6-7.1 2.6-9.7-0.2l-8-8.3c-2.6-2.8-2.5-7.1 0.2-9.7l0.5-0.5c2.7-2.7 7.1-2.6 9.7 0.2l8 8.3c2.7 2.7 2.6 7.1-0.2 9.7z" class="s58"/><path id="&lt;Path&gt;" d="m682.9 675.2c-2.1 1.9-5.3 1.9-7.3-0.2l-5.9-6.2c-2-2-1.9-5.3 0.1-7.2l0.4-0.4c2.1-1.9 5.3-1.9 7.3 0.2l5.9 6.2c2 2 1.9 5.2-0.1 7.2z" class="s58"/><path id="&lt;Path&gt;" d="m693.9 686.6c-2 2-5.3 1.9-7.2-0.1l-6-6.2c-1.9-2-1.9-5.3 0.2-7.3l0.3-0.3c2.1-2 5.3-1.9 7.3 0.1l5.9 6.2c2 2.1 1.9 5.3-0.1 7.3z" class="s58"/><path id="&lt;Path&gt;" d="m689.4 681.9c-2 2-5.3 1.9-7.2-0.1l-6-6.2c-1.9-2-1.9-5.3 0.2-7.2l0.3-0.4c2.1-2 5.3-1.9 7.3 0.2l5.9 6.1c2 2.1 1.9 5.3-0.1 7.3z" class="s59"/><path id="&lt;Path&gt;" d="m684.5 673.6c-0.3 0.3-0.8 0.3-1.2-0.1l-2.1-2.2c-0.3-0.3-0.3-0.9 0-1.2 0.4-0.3 0.9-0.3 1.2 0l2.2 2.3c0.3 0.3 0.3 0.8-0.1 1.2z" class="s5"/><path id="&lt;Path&gt;" d="m676.9 665.1c-0.4 0.4-0.9 0.3-1.2 0l-2.2-2.2c-0.3-0.4-0.3-0.9 0.1-1.2 0.3-0.4 0.8-0.4 1.2 0l2.1 2.2c0.3 0.4 0.3 0.9 0 1.2z" class="s60"/><g id="&lt;Group&gt;"><path id="&lt;Path&gt;" d="m606.1 771.4c-3.6 3.4-9.2 3.3-12.6-0.2l-10.3-10.8c-3.4-3.5-3.3-9.2 0.2-12.6l0.7-0.6c3.5-3.4 9.2-3.3 12.6 0.3l10.3 10.7c3.4 3.6 3.3 9.2-0.3 12.6z" class="s59"/><path id="&lt;Path&gt;" d="m597.6 756.9c-0.5 0.5-1.5 0.5-2.1-0.1l-3.7-3.9c-0.6-0.6-0.5-1.5 0.1-2.1 0.5-0.5 1.5-0.5 2.1 0.1l3.7 3.9c0.6 0.6 0.5 1.5-0.1 2.1z" class="s5"/></g><path id="&lt;Path&gt;" d="m580.4 776.5c-3.6 3.4-9.2 3.3-12.6-0.3l-10.3-10.7c-3.4-3.6-3.3-9.2 0.2-12.6l0.7-0.6c3.5-3.4 9.1-3.3 12.5 0.3l10.4 10.7c3.4 3.5 3.2 9.2-0.3 12.6z" class="s58"/><g id="&lt;Group&gt;"><path id="&lt;Path&gt;" d="m590.2 786.7c-3.6 3.4-9.2 3.3-12.6-0.2l-10.3-10.8c-3.4-3.5-3.3-9.2 0.2-12.6l0.7-0.6c3.5-3.4 9.1-3.3 12.5 0.3l10.4 10.7c3.4 3.6 3.3 9.2-0.3 12.6z" class="s59"/><path id="&lt;Path&gt;" d="m581.7 772.2c-0.6 0.5-1.5 0.5-2.1-0.1l-3.7-3.9c-0.6-0.6-0.5-1.5 0-2.1 0.6-0.5 1.6-0.5 2.1 0.1l3.8 3.9c0.5 0.6 0.5 1.5-0.1 2.1z" class="s5"/></g><g id="&lt;Group&gt;"><path id="&lt;Path&gt;" d="m687 701.6c-2.7 2.7-7.1 2.6-9.7-0.2l-8-8.3c-2.6-2.7-2.6-7.1 0.2-9.7l0.5-0.5c2.7-2.6 7.1-2.5 9.7 0.2l8 8.3c2.7 2.8 2.6 7.1-0.2 9.8z" class="s58"/><path id="&lt;Path&gt;" d="m680.5 694.8c-2.7 2.7-7.1 2.6-9.7-0.2l-8-8.3c-2.7-2.7-2.6-7.1 0.2-9.7l0.5-0.5c2.7-2.6 7.1-2.5 9.7 0.2l8 8.3c2.6 2.8 2.5 7.1-0.2 9.8z" class="s59"/><path id="&lt;Path&gt;" d="m672.8 680.9c-0.5 0.5-1.2 0.4-1.6 0l-2.9-3c-0.5-0.5-0.4-1.2 0-1.7 0.5-0.4 1.2-0.4 1.6 0.1l2.9 3c0.5 0.4 0.5 1.2 0 1.6z" class="s5"/><path id="&lt;Path&gt;" d="m664.2 672.2c-0.5 0.4-1.2 0.4-1.6-0.1l-2.9-3c-0.5-0.4-0.5-1.2 0-1.6 0.4-0.5 1.2-0.4 1.6 0l2.9 3c0.4 0.5 0.4 1.2 0 1.7z" class="s60"/><path id="&lt;Path&gt;" d="m647.6 681.6c-0.4 0.5-1.1 0.4-1.6 0l-2.9-3c-0.4-0.5-0.4-1.2 0.1-1.7 0.4-0.4 1.1-0.4 1.6 0.1l2.9 3c0.4 0.4 0.4 1.2-0.1 1.6z" class="s60"/><path id="&lt;Path&gt;" d="m631.4 697.6c-0.5 0.5-1.2 0.5-1.7 0l-2.8-3c-0.5-0.5-0.5-1.2 0-1.6 0.4-0.5 1.2-0.5 1.6 0l2.9 3c0.4 0.5 0.4 1.2 0 1.6z" class="s60"/><path id="&lt;Path&gt;" d="m616.5 711.3c-0.5 0.4-1.2 0.4-1.6 0l-2.9-3c-0.5-0.5-0.5-1.2 0-1.7 0.5-0.4 1.2-0.4 1.6 0.1l2.9 3c0.4 0.4 0.4 1.2 0 1.6z" class="s60"/><path id="&lt;Path&gt;" d="m599.8 725.7c-0.5 0.5-1.2 0.4-1.6 0l-2.9-3c-0.5-0.5-0.5-1.2 0-1.7 0.5-0.4 1.2-0.4 1.6 0.1l2.9 3c0.5 0.5 0.4 1.2 0 1.6z" class="s60"/><path id="&lt;Path&gt;" d="m583.2 743.1c-0.4 0.4-1.2 0.4-1.6 0l-2.9-3c-0.4-0.5-0.4-1.2 0-1.7 0.5-0.4 1.2-0.4 1.7 0.1l2.9 3c0.4 0.4 0.4 1.2-0.1 1.6z" class="s60"/><path id="&lt;Path&gt;" d="m567.3 758.2c-0.4 0.4-1.1 0.4-1.6-0.1l-2.9-3c-0.4-0.4-0.4-1.2 0.1-1.6 0.4-0.4 1.1-0.4 1.6 0l2.9 3c0.4 0.5 0.4 1.2-0.1 1.7z" class="s60"/></g><g id="&lt;Group&gt;"><path id="&lt;Path&gt;" d="m692.1 668.3c-1.5 1.4-3.7 1.3-5-0.1l-4.1-4.3c-1.4-1.4-1.3-3.6 0.1-5l0.2-0.2c1.4-1.4 3.7-1.3 5 0.1l4.1 4.3c1.4 1.4 1.3 3.6-0.1 5z" class="s58"/></g><g id="&lt;Group&gt;"><path id="&lt;Path&gt;" d="m698.1 674.5c-1.4 1.4-3.7 1.4-5-0.1l-4.1-4.2c-1.4-1.4-1.3-3.7 0.1-5l0.2-0.3c1.4-1.3 3.7-1.3 5 0.1l4.1 4.3c1.4 1.4 1.3 3.7-0.1 5z" class="s58"/></g><g id="&lt;Group&gt;"><path id="&lt;Path&gt;" d="m694.9 671.2c-1.4 1.4-3.7 1.4-5-0.1l-4.1-4.2c-1.4-1.4-1.3-3.7 0.1-5l0.2-0.3c1.5-1.3 3.7-1.3 5 0.1l4.1 4.3c1.4 1.4 1.3 3.6-0.1 5z" class="s59"/><path id="&lt;Path&gt;" d="m691.5 665.5c-0.2 0.2-0.6 0.2-0.8-0.1l-1.5-1.5c-0.2-0.2-0.2-0.6 0-0.8 0.3-0.3 0.6-0.2 0.9 0l1.4 1.5c0.3 0.3 0.3 0.6 0 0.9z" class="s5"/></g></g><path id="&lt;Path&gt;" d="m547.1 758c0 0 21.2 64.3 90.5 16.1 35.4-24.6 65.5-73.5 99.4-71.9-33.8 7.7-93.8 107.9-138 106.7-45.4-1.3-51.9-50.9-51.9-50.9z" class="s54"/></g></g><g id="&lt;Group&gt;"><g id="&lt;Group&gt;"><g id="&lt;Group&gt;"><path id="&lt;Path&gt;" d="m782.9 609.2c-7.1 0-14.1-1.2-20.9-3.6-12.5-4.4-23.2-12.5-30.8-23.3-11.6-16.6-14.5-38-7.8-57.1 8-23 29-39.4 53.3-41.9q3.1-0.3 6.2-0.3c7.1 0 14.1 1.2 20.8 3.6 32.8 11.5 50.2 47.5 38.7 80.3-8.9 25.3-32.8 42.3-59.5 42.3z" class="s61"/><path id="&lt;Compound Path&gt;" fill-rule="evenodd" d="m804.5 484.4c34 11.9 52 49.3 40 83.3-9.1 26.2-33.9 43.8-61.6 43.8-7.4 0-14.6-1.3-21.6-3.7-13.1-4.6-24.1-13-32-24.2-12-17.2-15-39.3-8.1-59.1 8.4-23.9 30-41 55.2-43.5q3.2-0.3 6.5-0.3c7.3 0 14.6 1.3 21.6 3.7zm-27.6 1.2c-22.8 2.3-43.3 17.4-51.4 40.4-6.7 19.2-3.2 39.5 7.6 55 7.1 10 17.2 18 29.7 22.4 6.6 2.4 13.4 3.5 20.1 3.5 25.1 0 48.5-15.7 57.3-40.7 11.1-31.7-5.6-66.3-37.2-77.4-6.7-2.4-13.5-3.5-20.1-3.5q-3 0-6 0.3z" class="s62"/></g><path id="&lt;Path&gt;" d="m734 525.7c0.2-2.6 1.1-12.3 8-19.5 6.5-6.9 17.5-8.1 20.4-8.4l16.8 46.9z" class="s63"/><path id="&lt;Path&gt;" d="m735.8 567.3c-6.9-8.3-9.5-25.4-2.8-38.9l45.4 19z" class="s63"/><path id="&lt;Path&gt;" d="m765.8 496.9c1.5-1.3 7-5.5 18.6-5.7h0.3c8.3 0 14.9 5.3 16.8 6.9l-19.3 44.6z" class="s64"/><path id="&lt;Path&gt;" d="m804.9 499.6c12 0.9 22.2 10.9 24.5 24.1l-43.8 20.5z" class="s64"/><path id="&lt;Path&gt;" d="m786.7 547.1l44-20.5c11.1 12.1 9.8 30.1 1.6 39.8z" class="s64"/><path id="&lt;Path&gt;" d="m801.2 593.2l-15.5-43.1 44.7 18.8c-2 15.2-12.7 24.3-28.8 24.3q-0.2 0-0.4 0z" class="s64"/><path id="&lt;Path&gt;" d="m782.2 600.1c-6.1 0-12.3-2.3-18.1-6.7l18.3-42.4 15.5 43.3c-4.6 3.8-10.1 5.8-15.7 5.8z" class="s64"/><path id="&lt;Path&gt;" d="m761.2 592.3c-12.2-1.4-21-9.5-24.4-22.5l42.4-19.2z" class="s64"/><g id="&lt;Group&gt;" style="opacity:.5"><path id="&lt;Path&gt;" d="m785.7 518c0 31.5-22.7 57.6-52.6 63-10.8-15.5-14.3-35.8-7.6-55 8.1-23 28.6-38.1 51.4-40.4 5.6 9.5 8.8 20.6 8.8 32.4z" class="s65"/></g></g><g id="&lt;Group&gt;"><path id="&lt;Path&gt;" d="m721.8 559.3c-28.7 0-52-23.3-52-51.9 0-28.7 23.3-52 52-52 28.6 0 52 23.3 52 52 0 28.6-23.4 51.9-52 51.9z" class="s61"/><path id="&lt;Compound Path&gt;" fill-rule="evenodd" d="m775.7 507.4c0 29.7-24.2 53.8-53.9 53.8-29.7 0-53.9-24.1-53.9-53.8 0-29.7 24.2-53.9 53.9-53.9 29.7 0 53.9 24.2 53.9 53.9zm-104 0c0 27.6 22.4 50 50.1 50 27.6 0 50.1-22.4 50.1-50 0-27.7-22.5-50.1-50.1-50.1-27.7 0-50.1 22.4-50.1 50.1z" class="s66"/></g><path id="&lt;Path&gt;" d="m681 504c-0.7-2.6-1.8-9.1 1-15.3 2.6-6 9.1-9.5 11.9-10.8l22.9 28.3z" class="s67"/><path id="&lt;Path&gt;" d="m692.4 534.5c-6.6-4.4-12.3-15.3-11.3-26.1l35.7 2.2z" class="s67"/><path id="&lt;Path&gt;" d="m697.7 474.9c1.1-1.7 4.2-5.4 11.6-8.1q2.6-0.9 5.6-0.9c3.3 0 6.1 0.8 7.6 1.3l-2.5 35.2z" class="s67"/><path id="&lt;Path&gt;" d="m727.5 467.6q2-0.5 4-0.5c7.4 0 14.4 4.2 18.5 11.1l-25 24.5z" class="s67"/><path id="&lt;Path&gt;" d="m727.9 506.3l25.3-24.8c10.3 6 13.8 18.3 10.8 27.1z" class="s67"/><path id="&lt;Path&gt;" d="m727.8 510.9l35.3 2.2c2 11-3.3 19.7-14.3 23.7z" class="s67"/><path id="&lt;Path&gt;" d="m729.1 548.4q-3.5-0.1-7.4-1.2l2.3-33.2 21 25.8c-3.6 5.5-9.2 8.6-15.9 8.6z" class="s67"/><path id="&lt;Path&gt;" d="m712.9 547.5c-6.9 0-13-3.4-17.6-9.9l24.2-23.1-2.4 32.6q-2.1 0.4-4.2 0.4z" class="s67"/><path id="&lt;Path&gt;" d="m719.7 493.4c0.4 1.6-0.8 3.4-0.8 3.4 0 0-1.9-1-2.3-2.6-0.5-1.7-0.1-3.2 0.8-3.4 0.8-0.2 1.8 1 2.3 2.6z" class="s61"/><path id="&lt;Path&gt;" d="m702.6 499.2c1.5 0.6 2.2 2.6 2.2 2.6 0 0-1.8 1-3.4 0.4-1.6-0.6-2.6-1.8-2.3-2.6 0.3-0.8 1.9-1 3.5-0.4z" class="s61"/></g></g><g id="&lt;Group&gt;"><g id="&lt;Group&gt;"><g id="&lt;Group&gt;"><g id="&lt;Group&gt;"><g id="&lt;Group&gt;"><g id="&lt;Group&gt;"><g id="&lt;Group&gt;"><path id="&lt;Path&gt;" d="m504.8 159c13.9 1.8 27.4 4.6 40.5 8.4" class="s68"/><g id="&lt;Group&gt;"><path id="&lt;Path&gt;" d="m558.7 171.6l-21.4 1.9 6.9-6.3-2.1-9.2z" class="s69"/></g></g></g></g></g></g><g id="&lt;Group&gt;"><g id="&lt;Group&gt;"><g id="&lt;Group&gt;"><path id="&lt;Path&gt;" d="m634.1 222.8c10.9 8.7 21 18.2 30.2 28.2" class="s68"/><g id="&lt;Group&gt;"><path id="&lt;Path&gt;" d="m673.6 261.5l-19.2-9.4 9.2-1.9 2.9-8.9z" class="s69"/></g></g></g></g><g id="&lt;Group&gt;"><g id="&lt;Group&gt;"><g id="&lt;Group&gt;"><path id="&lt;Path&gt;" d="m729.4 376c3.2 13.6 5.4 27.2 6.5 40.8" class="s68"/><g id="&lt;Group&gt;"><path id="&lt;Path&gt;" d="m736.8 430.9l-9.4-19.3 8.4 4.2 7.8-5.3z" class="s69"/></g></g></g></g><g id="&lt;Group&gt;"><g id="&lt;Group&gt;"><g id="&lt;Group&gt;"><path id="&lt;Path&gt;" d="m698.5 581.6c-7.1 12-15 23.4-23.5 34" class="s68"/><g id="&lt;Group&gt;"><path id="&lt;Path&gt;" d="m665.9 626.3l6.5-20.4 3.2 8.8 9.3 1.6z" class="s69"/></g></g></g></g><g id="&lt;Group&gt;"><g id="&lt;Group&gt;"><g id="&lt;Group&gt;"><path id="&lt;Path&gt;" d="m516.3 712.5c-13.7 2.8-27.4 4.6-41 5.5" class="s68"/><g id="&lt;Group&gt;"><path id="&lt;Path&gt;" d="m461.2 718.4l19.5-8.9-4.4 8.3 5.1 8z" class="s69"/></g></g></g></g><g id="&lt;Group&gt;"><g id="&lt;Group&gt;"><g id="&lt;Group&gt;"><path id="&lt;Path&gt;" d="m287.9 657.5c-10.9-8.9-20.9-18.4-30.1-28.4" class="s68"/><g id="&lt;Group&gt;"><path id="&lt;Path&gt;" d="m248.6 618.5l19.2 9.5-9.2 1.8-3 8.9z" class="s69"/></g></g></g></g><g id="&lt;Group&gt;"><g id="&lt;Group&gt;"><g id="&lt;Group&gt;"><path id="&lt;Path&gt;" d="m207 542.3c-5-13-9-26.2-12-39.5" class="s68"/><g id="&lt;Group&gt;"><path id="&lt;Path&gt;" d="m192.2 489l12 17.8-8.9-3-7 6.3z" class="s69"/></g></g></g></g><g id="&lt;Group&gt;"><g id="&lt;Group&gt;"><g id="&lt;Group&gt;"><path id="&lt;Path&gt;" d="m199.6 359.5c4.1-13.4 9.1-26.3 14.9-38.6" class="s68"/><g id="&lt;Group&gt;"><path id="&lt;Path&gt;" d="m220.9 308.3l-1.6 21.4-5.2-7.8-9.4 0.6z" class="s69"/></g></g></g></g></g><g id="&lt;Group&gt;"><g id="&lt;Group&gt;"><g id="&lt;Group&gt;"><g id="&lt;Group&gt;"><g id="&lt;Group&gt;"><g id="&lt;Group&gt;"><path id="&lt;Path&gt;" d="m504.8 159c13.9 1.8 27.4 4.6 40.5 8.4" class="s68"/><g id="&lt;Group&gt;"><path id="&lt;Path&gt;" d="m558.7 171.6l-21.4 1.9 6.9-6.3-2.1-9.2z" class="s69"/></g></g></g></g></g></g><g id="&lt;Group&gt;"><g id="&lt;Group&gt;"><g id="&lt;Group&gt;"><path id="&lt;Path&gt;" d="m634.1 222.8c10.9 8.7 21 18.2 30.2 28.2" class="s68"/><g id="&lt;Group&gt;"><path id="&lt;Path&gt;" d="m673.6 261.5l-19.2-9.4 9.2-1.9 2.9-8.9z" class="s69"/></g></g></g></g><g id="&lt;Group&gt;"><g id="&lt;Group&gt;"><g id="&lt;Group&gt;"><path id="&lt;Path&gt;" d="m729.4 376c3.2 13.6 5.4 27.2 6.5 40.8" class="s68"/><g id="&lt;Group&gt;"><path id="&lt;Path&gt;" d="m736.8 430.9l-9.4-19.3 8.4 4.2 7.8-5.3z" class="s69"/></g></g></g></g><g id="&lt;Group&gt;"><g id="&lt;Group&gt;"><g id="&lt;Group&gt;"><path id="&lt;Path&gt;" d="m698.5 581.6c-7.1 12-15 23.4-23.5 34" class="s68"/><g id="&lt;Group&gt;"><path id="&lt;Path&gt;" d="m665.9 626.3l6.5-20.4 3.2 8.8 9.3 1.6z" class="s69"/></g></g></g></g><g id="&lt;Group&gt;"><g id="&lt;Group&gt;"><g id="&lt;Group&gt;"><path id="&lt;Path&gt;" d="m516.3 712.5c-13.7 2.8-27.4 4.6-41 5.5" class="s68"/><g id="&lt;Group&gt;"><path id="&lt;Path&gt;" d="m461.2 718.4l19.5-8.9-4.4 8.3 5.1 8z" class="s69"/></g></g></g></g><g id="&lt;Group&gt;"><g id="&lt;Group&gt;"><g id="&lt;Group&gt;"><path id="&lt;Path&gt;" d="m287.9 657.5c-10.9-8.9-20.9-18.4-30.1-28.4" class="s68"/><g id="&lt;Group&gt;"><path id="&lt;Path&gt;" d="m248.6 618.5l19.2 9.5-9.2 1.8-3 8.9z" class="s69"/></g></g></g></g><g id="&lt;Group&gt;"><g id="&lt;Group&gt;"><g id="&lt;Group&gt;"><path id="&lt;Path&gt;" d="m207 542.3c-5-13-9-26.2-12-39.5" class="s68"/><g id="&lt;Group&gt;"><path id="&lt;Path&gt;" d="m192.2 489l12 17.8-8.9-3-7 6.3z" class="s69"/></g></g></g></g><g id="&lt;Group&gt;"><g id="&lt;Group&gt;"><g id="&lt;Group&gt;"><path id="&lt;Path&gt;" d="m199.6 359.5c4.1-13.4 9.1-26.3 14.9-38.6" class="s68"/><g id="&lt;Group&gt;"><path id="&lt;Path&gt;" d="m220.9 308.3l-1.6 21.4-5.2-7.8-9.4 0.6z" class="s69"/></g></g></g></g></g><g id="&lt;Group&gt;"><g id="&lt;Group&gt;"><g id="&lt;Group&gt;"><path id="&lt;Path&gt;" d="m304.5 206.6c11.7-7.7 23.8-14.4 36.2-20.2" class="s68"/><g id="&lt;Group&gt;"><path id="&lt;Path&gt;" d="m353.6 180.8l-14.9 15.5 1.1-9.4-7.6-5.5z" class="s69"/></g></g></g></g><g id="&lt;Group&gt;"><g id="&lt;Group&gt;"><g id="&lt;Group&gt;"><path id="&lt;Path&gt;" d="m304.5 206.6c11.7-7.7 23.8-14.4 36.2-20.2" class="s68"/><g id="&lt;Group&gt;"><path id="&lt;Path&gt;" d="m353.6 180.8l-14.9 15.5 1.1-9.4-7.6-5.5z" class="s69"/></g></g></g></g></g><g id="&lt;Group&gt;"><g id="&lt;Group&gt;"><path id="&lt;Path&gt;" d="m311.4 332c-1.2-4 1.1-8.2 5-9.3l196.1-53.7c3.9-1.1 3.9 3.6 5 7.6l79.1 275.5c1.1 4-1.4 6.8-5.3 7.9l-192.1 53.2c-3.9 1.1-8-1.2-9.1-5.2z" class="s70"/><path id="&lt;Path&gt;" d="m359.7 331.6l-4.4-15.5c-1.1-3.9 1.1-8 5.1-9.1l95.2-27.2c4-1.2 8 1.1 9.2 5l4.4 15.5z" class="s69"/><path id="&lt;Path&gt;" d="m317.4 330.2c-1.1-4 1.1-8 5-9.2l189.3-52c3.9-1.2 8 1.1 9.1 5l79 276.5c1.1 3.9-1.2 8-5.1 9.1l-189.2 52.1c-3.9 1.1-8-1.2-9.1-5.1z" class="s71"/><path id="&lt;Path&gt;" d="m366.7 329.5l-5.6-19.6 109.7-31.4 6.8 19.3z" class="s72"/><path id="&lt;Path&gt;" d="m587.3 524.8l-200.3 58.6-62.3-220.5 8.5-30.6 183.7-52.2z" class="s72"/><path id="&lt;Path&gt;" d="m396.5 571.6l-63.3-237.7 182.8-52.2 42.6 148.7c5 17.7 13.7 46 21.3 63l8.5 15.8 1.7-0.9c-19.9 10.1-44 20.6-62.8 26z" class="s73"/><path id="&lt;Path&gt;" d="m400.4 565.4l-66.9-233.9 182.9-52.3 43.8 153.3c2.2 7.6 11.7 38.4 16.4 45 5.2 7.4 15.1 16.6 15.1 16.6 0 0-7.3 8.7-17.2 14.1-31.3 17.1-88.8 32.8-111.5 39.3z" class="s5"/><path id="&lt;Path&gt;" d="m382 294.4c-1.7-3.7 1.2-8 5.1-9.1l39.7-11.4c3.9-1.1 8 1.2 9.1 5.1l3.7 12.8c1.1 3.9-1.2 8-5.1 9.1l-39.7 11.4c-3.9 1.1-3.5-1.6-4.6-5.6 0 0-6.6-9-8.2-12.3z" class="s69"/><path id="&lt;Path&gt;" d="m390.3 287.4c-1.2-4 1.1-8 5-9.2l39.7-11.3c3.9-1.1 8 1.1 9.1 5.1l3.7 12.8c1.1 3.9-1.2 8-5.1 9.1l-39.7 11.3c-3.9 1.2-8-1.1-9.1-5z" class="s74"/><path id="&lt;Path&gt;" d="m372 301.9l95.3-27.2c3.9-1.1 8 1.1 9.1 5l4.4 15.5-109.4 31.3-4.4-15.5c-1.2-3.9 1.1-8 5-9.1z" class="s74"/><path id="&lt;Path&gt;" d="m416 275.4c1.8-0.5 3.7 0.5 4.2 2.4 0.6 1.8-0.5 3.7-2.3 4.2-1.9 0.5-3.8-0.5-4.3-2.3-0.5-1.9 0.6-3.8 2.4-4.3z" class="s75"/><path id="&lt;Path&gt;" d="m480.2 293.1l0.6 2.1-109.4 31.3-0.6-2.1z" class="s76"/><path id="&lt;Path&gt;" d="m377 310.8l89.3-25.5c0.6-0.2 1.2 0.2 1.4 0.8 0.1 0.5-0.2 1.2-0.8 1.3l-89.3 25.5c-0.6 0.2-1.2-0.1-1.4-0.7-0.1-0.6 0.2-1.2 0.8-1.4z" class="s77"/><path id="&lt;Path&gt;" d="m392.1 293.2c-0.5-2 0.6-4 2.6-4.6l46.6-13.3c1.9-0.5 4 0.6 4.5 2.6l0.6 2c0.5 1.9-0.6 4-2.5 4.5l-46.6 13.3c-2 0.6-4-0.5-4.6-2.5z" class="s74"/><g id="&lt;Group&gt;"><path id="&lt;Compound Path&gt;" fill-rule="evenodd" d="m380.5 358.7q-0.1-0.1-0.2-0.4-0.1-0.4-0.2-0.8 0-0.5-0.2-1-0.2-0.6-0.3-1.6-0.1-0.1-0.3-1.4 0-0.3-0.1-0.7-0.2-0.5-0.3-0.7-0.4-1.4-0.4-1.6 0-0.2-0.2-0.7 0.1-0.2-0.1-1.5-1 0.3-1.7-0.1-0.7-0.4-1.4-1.4 0-0.2 0-0.4 0-0.2 0-0.3 0-0.1 0-0.3 0-0.2 0.1-0.3 0 0 0.1-0.2 0.1-0.2 0.2-0.3 0 0 0.2-0.2 0.1-0.2 0.2-0.3 0-0.1 0.3-0.3 0.2-0.3 0.2-0.3 0.1-0.2 0.4-0.4 0.4-0.2 1.1-0.8 0.1-0.2 1.3-0.8 1.2-0.7 2.6-0.6 0.7-0.2 1.1-0.2 0.3 0.2 0.9 0.2l1.8 0.3q0.4 0.2 1.8 1.2 1.8 1.6 2.7 3.6 0.2 0.6 0.7 2 0.5 2.9 0.2 4.3 0 0.4-0.1 1.1 0 0-0.2 0.8-0.2 0.8-0.5 1.6-0.3 0.8-0.4 1.1-0.9 1.5-1 1.7-0.5 0.7-0.6 0.8-2 1.9-2.1 2-0.1 0.1-0.6 0.4-0.9 0.4-1.2 0.3-0.5-0.1-1-0.4-0.2 0-0.7-0.3-0.6-0.3-0.7-0.3-0.5-0.5-1.2-2-0.1-0.1-0.2-0.8zm7.3-7.3q0.1-0.4-0.1-1.4-0.3-1-0.3-1.4-1.1-3.5-3.4-4-0.9-0.2-1.6 0.2-0.3 0.1-0.9 0.7 0.1 0.5 0.4 1.5l0.2 1.2 0.6 2.8q0 0.1 0.2 0.9 1 4.9 1.7 7.3 0.5-0.3 0.8-0.8 0.8-1.2 0.9-1.3l0.3-0.5q0.2-0.1 0.6-1l0.3-1 0.2-1.4q0.2-0.4 0.1-1.8z" class="s78"/><path id="&lt;Compound Path&gt;" d="m400.9 339.2q-0.2 0.3-0.4 0.3-0.3 0.1-1.4 0.5-0.6 0.4-1.2 0.8h-0.1q0.2 0.6 0.2 1.7 0.1 0.4 0.2 1.3 0.1 0.2 0.1 0.5 0 0.3 0.1 0.8 0.2 1.3 0.3 1.4 0 0.1 0.1 0.3 0 0.2 0 0.7 0.1 0.4 0.2 1 0.2 0.6 0.2 1.1l0.1 0.3q0.4 1.1 0.4 1.6 0 0.5 0.1 0.8 0.1 0.3 0.2 1.1 0 0.7 0.3 1.6l0.2-0.1q0.8-0.3 0.8-0.3 0.1 0 0.4-0.2l0.5-0.1 0.3-0.1q0.1 0 0.5 0.1 0.3 0.1 0.5 0.3 0.3 0.2 0.3 0.4 0 0.2-0.5 0.8l-0.5 0.4q-0.1 0.1-0.4 0.3-0.3 0.3-0.5 0.3-0.7 0.4-0.7 0.8 0 0.3-1.4 0.6l-1 0.4-0.5 0.3q-0.7 0.5-1.3 0.6-0.6 0-0.9 0-0.2 0-0.5-0.2-0.4-0.1-0.4-0.4-0.1-0.3-0.1-0.9 0.4-0.6 0.6-0.8 1.3-0.9 1.7-1.2-0.3-1-0.5-1.1 0.1-0.1-0.1-1.4-0.1-0.1-0.4-0.5v-0.2q-0.2-0.9-0.5-1.5 0-0.1-0.2-1.1 0.1-0.3-0.3-1-0.1-0.6-0.1-1l-0.1-0.4q-0.1-0.2-0.1-1.2l-0.1-0.3-0.1-0.2q-0.1-2.5-0.2-3.5-0.2 0.1-0.3 0.1l-1 0.5q-1 0.6-2.2 0.1-1-0.8-0.5-1.8 0.3-0.5 1.2-0.9 0.7-0.6 0.9-0.8 0.4-0.1 1.3-1.1 1-0.5 1.2-0.5l1.4-0.6q0.3-0.1 0.7-0.2 0.5-0.1 0.6 0 0.5 0 1.1 0.1l1 0.4q0.6 0.5 0.8 0.8 0.2 0.3 0 0.5z" class="s78"/><path id="&lt;Compound Path&gt;" d="m407.4 334.4l0.5-0.4q0.1 0 0.3-0.2 0.5-0.5 1.5-1 0.2-0.3 0.8 0 0.3 0 0.3 0 0.1 0 0.4 0.1 0.3 0.2 0.4 0.3l0.4 0.2q0.4 0.1 0.5 0.2 0.1 0.1 0.2 0.5 0 0.4-0.1 0.7-0.1 0.4-0.4 0.5-0.9 0.8-1.2 0.9-0.4 0.1-0.8 0.5-0.4 0.5-0.8 0.7-0.3 0.1-0.4 0.3-0.2 0.1-0.4 0.4-0.6 0.7-1.3 1 0.1 0 0.1 0.3-0.1 0.4 0 0.9 0.1 0.5 0 1.3l0.2 1.7q0 0.6 0.1 0.6 0.1-0.1 0.1-0.2 1.5-1.2 1.7-1.6 0.2-0.5 0.9-0.6l0.3-0.2q0.1-0.1 0.4-0.2 0.5-0.3 1.6 0.3v0.3q0 0.4-0.3 0.8-0.2 0.5-0.3 0.7-0.2 0.1-0.3 0.2-0.1 0.1-0.1 0.1h-0.1q-0.1 0.2-0.3 0.4-0.1 0.3-0.3 0.5-0.2 0.2-0.4 0.4-0.2 0.2-0.3 0.3-0.1 0.1-0.2 0.2-0.1 0.2-0.3 0.4-0.1 0.1-0.2 0.2-0.1 0-0.5 0.7-0.2 0.1-0.6 0-0.3-0.1-0.5-0.2-0.2 0.1 0.1 0.8 0.1 0.2 0.2 0.8 0.2 1.2 0.6 2.3 0.4 1.1 0.7 1.3 0.3 0.2 0.5 0.1 0.4-0.2 0.6-0.5 0.2-0.2 0.4-0.3 0.2-0.1 0.4-0.4 0.2-0.3 0.3-0.3 0.1-0.1 0.6-1 0.1-0.2 0.4-0.5 0.2-0.2 0.2-0.3 0-0.2 0.3-0.5 0.3-0.3 0.8-0.6 0.6-0.2 0.9-0.2 0.5 0.2 1.5 0.7 0.2 0.2 0.3 1 0 0.9-0.2 1.3l-0.2 0.4q-0.3 0.8-1.1 1.7-0.7 0.7-0.7 0.7-0.2 0.2-0.2 0.2 0 0.4-0.2 0.3-0.1 0-0.5 0.2-0.4 0.2-0.8 0.2-0.2 0-0.5 0.1-0.2 0.2-2.3-0.4-0.3-0.1-0.4-0.1-0.1 0-0.4 0.1-0.3-0.1-0.7-0.1-1.2-0.3-1.4-0.5-0.3-0.1-0.5-0.2-0.3-0.1-0.4-0.2-0.1-0.2-0.3-0.4 0 0-0.4-0.5-0.3-0.3-0.3-0.5 0-0.2-0.1-0.3-0.1-0.1-0.7-1.7-0.5-1.6-0.5-1.8 0.1-0.2-0.1-0.8-0.2-0.5 0-0.9 0.1-0.3-0.1-0.7-0.1-0.5-0.1-0.8 0.1-0.1-0.1-1v-0.5q0.1-0.9 0.1-1.1-0.1-0.3-0.1-0.7 0-0.1 0-1.1l0.1-0.5v-0.4q0.3-1.8 0.4-2.1 0-0.1 0-1.2-0.1-0.5 0.3-0.8 0.5-0.4 1-0.3 0.5 0.1 0.6 0.2 0.2 0 0.5 0.1 0.1 0.1 0.9-0.3z" class="s78"/><path id="&lt;Compound Path&gt;" d="m420.7 339.7q-0.2-0.7-0.2-0.9-0.1-0.1-0.1-0.2l-0.2-0.8q-0.1-0.5-0.3-0.7 0-0.1-0.1-0.5 0-0.1 0-0.4-0.1-0.2-0.4-1.7-0.6 0.3-0.8 0.4l-1.2 0.5q-0.8 0.5-1.1 0.6-0.8 0.5-1 0.5-0.7 0.3-1 0.2-0.5-0.3-0.7-1-0.3-0.6-0.3-0.9 0.2-0.5 0.3-0.7 0.1-0.1 0.5-0.3 0.4-0.2 0.7-0.7l1.4-1.1q1.4-0.7 1.7-1 0.1-0.1 0.6-0.3 0.5-0.3 0.6-0.3 0.1 0 0.4-0.3l1.9-0.8q0 0.1 0.3 0 0.5-0.1 1.1-0.5 0.5-0.1 0.8-0.2 0.2 0 0.9-0.5 0.2 0 0.3-0.1 0.2-0.1 0.7-0.4 0.3-0.1 0.6 0 0.1-0.1 0.4 0.1 0.2 0.1 0.5 0.4 0.8 0.6 0.9 0.7 0.6 0.5 0.9 1.1 0.2 0.2 0.2 0.3-0.1 0.2-0.4 0.3-0.2 0-0.4 0-0.2 0.1-1.3 0.6l-0.5 0.1q-0.7 0.4-1.8 0.8l-1.9 0.6-0.1 0.1q0.5 2.4 0.8 3 0.5 1.1 0.4 1.2l0.2 0.6q2 5.4 2.1 5.6 0.1 0.2 0.3 0.8l1 2.4q0.2 0.1 0.4 0.6 0.2 0.6-0.1 0.9-0.6 0.4-0.9 0.7-0.4 0.3-1.3 0.4 0-0.1-0.8-0.1 0 0-0.5-0.3-0.2-0.1-0.2-0.4-0.5-0.7-0.8-1.9-0.5-0.8-0.5-1.3 0 0-0.5-0.9l-0.3-1.1q-0.1-0.3-0.3-0.5l-0.4-0.9z" class="s78"/><path id="&lt;Compound Path&gt;" fill-rule="evenodd" d="m444.6 338q1.5 4.9 1.8 5.2 0.5 1.5 0 2.1-0.5 0.5-1.5 0.5-0.5-0.1-0.9-0.3l-0.4-1q0-0.1-0.4-0.5-0.2-0.1-0.6-0.8l-1-2.8-0.2-1q-1.8 0.6-2.4-0.4-0.5-0.5-0.4-0.7l0.1-0.5q0.2-0.6 1.2-1l0.7-0.1q-0.1-0.1-0.2-0.4l-0.3-0.9-0.5-1.3q0-0.3-0.2-0.6v-0.2l-0.3-0.8-0.2-0.8q-0.6-2.2-1-2.7-0.7 0.6-0.9 0.8-0.6 0.4-1.5 0-0.5-0.2-0.6-0.5-0.5-0.4-0.6-0.6-0.1-0.3-0.1-0.6-0.1-0.6 0.9-1.6 0.3-0.7 1.9-1.4 0.1 0 0.4-0.2l0.3-0.1q0.5-0.2 0.7-0.3l2.2-0.8 1.2-0.1q0.2 0.1 0.6 0 0.9-0.3 2.7 0.4 0.4 0 0.7 0.2l1.6 1.1q0.6 0.7 0.7 0.8 0 0 0.2 0.2 0.6 0.6 0.6 0.7 0.2 0.1 0.5 0.7 0.3 0.6 0.3 0.9 0.3 0.1 0.2 2.4 0 0.1-0.2 0.7l-0.2 0.9-0.4 1.1q-0.9 1.4-1.4 2-0.4 0.5-1.1 1.1-0.1 0.1-0.2 0.1-0.5 0.4-1.8 1.1zm-0.4-3.1q0.6-0.3 0.9-0.9 0.7-1.1 1-1.7l0.7-1.4q0.1-0.1 0.1-0.8 0.1-0.7 0-1.2-0.2-0.9-0.4-0.9 0-0.1-0.6-0.7l-0.2-0.1q-0.2 0-0.6-0.1l-1-0.1q-0.7-0.2-2.7 0.2-0.5 0.2-0.6 0.2l0.7 1.8q0.7 1.5 1.7 4.7l0.4 1.4q0.1-0.1 0.6-0.4z" class="s78"/><path id="&lt;Compound Path&gt;" d="m456.3 333.2q0 0.1 0.2 0.5 0.1 0.3 0.1 0.6 0 0.3 0.2 0.7 0.3 0.5 0.9 1.2 0 0 0.6 0.3 0.2 0 0.3 0 0.1 0 0.3 0 0.1 0 0.4-0.2 0.3-0.1 0.4-0.3 0-0.1 0.3-0.4 0.2-0.6 0.5-0.8 0.5-0.8 0.9-1.3 0.4-0.2 0.6-0.3 0.1 0 0.4 0.2 0.5 0.3 0.6 1.1 0 1-0.4 1.9-0.1 0.3-0.4 0.6 0 0-0.1 0.3l-0.4 0.7q-0.1 0.1-0.1 0.3 0 0.2-0.7 0.7-0.9 0.3-1.7 0.3-1.6 0.1-2.4-0.2l-0.6-0.1q-0.1-0.1-0.7-0.2l-0.6-0.4-0.6-0.3-0.4-0.5q-0.2-0.1-0.3-0.4-0.1-0.3-0.3-0.6 0-0.1-0.2-0.6 0-0.3-0.1-0.7 0-0.1-0.2-0.7v-0.2l-0.2-0.5q-0.1-0.5-0.2-1 0-0.6-0.1-1.3-0.1-0.4-0.1-0.7-0.2-0.2-0.4-1.3v-0.2q-0.1-0.3-0.1-0.5l-0.1-0.2-0.5-1.9q0-0.1-0.1-0.8-0.1-0.4-0.1-1.3 0.1-0.4 0-0.6 0-0.1-0.1-0.6 0.1-0.2 0-0.9 0 0-0.1-0.7-0.1-0.4 0.1-0.9 0-0.2 0.5-0.6 0.1-0.1 0.8-0.5 0.4-0.1 1.1 0 0.1 0 0.9 0.2 0.5 0.3 0.4 2 0.1 0.3 0 0.9 0.1 0.3 0.1 0.7 0.1 0.2 0.3 2.3 0.2 2 1.4 7.2z" class="s78"/><path id="&lt;Compound Path&gt;" fill-rule="evenodd" d="m463.3 328.6q-0.1-1.3-0.2-1.5-0.2-0.9 0.1-2.5-0.1 0 0-0.8 0-0.2 0-1 0.1-0.5 0.1-1.2 0.1-0.8 0.1-1 0.1-0.2 0.1-0.5 0-0.2 0-0.6-0.1-0.6 0.3-1.8 0.3-1.2 0.8-1.6 0.5-0.5 1.4-0.7l1-0.2q0.1 0.1 0.3 0.1 0.8 0 1.3 0.1 0.7 0.1 1.1 0.3 0.3 0.3 0.5 1 0.4 1.1 0.8 2.4l0.2 0.6q0.8 2.7 0.9 3l0.5 1.3q0 0.1 1.9 4.2l0.6 1q1.6 2.4 1.8 2.6 0.1 0.1 0.5 0.9 0.3 0.2 0.2 0.6-0.1 0.3-0.5 0.6-0.8 0.3-1.3 0.2-0.2 0-0.8-0.1-0.1-0.2-0.4-0.2-0.3-0.1-0.4-0.2-0.4 0-0.9-0.7-0.2-0.1-0.5-0.5-0.3-0.3-0.3-0.6-0.3-0.3-0.5-1.1-0.5-0.5-0.7-1.7-0.2-0.6-0.7-1.1-0.5 0.4-1.1 0.8-0.6 0.4-1.5 0.7-0.9 0.2-0.8 0.4 0.1 0.3 0.1 1 0 0.4 0.2 2.7 0.1 0.7 0.1 0.8 0.9 2.2 0.1 2.5-0.2 0.1-0.8 0.4-0.5 0.2-0.9 0-0.8-0.2-1.3-0.5-0.5-0.5-0.6-1.8l-0.3-1.7q-0.2-0.5-0.2-0.9-0.1-1.5 0-2.1 0-0.1 0-0.4 0-0.4 0-0.6-0.1 0-0.2-0.3zm6-3.2l-0.2-0.6q-0.1-0.6-0.5-1.3 0-0.8-0.6-1.7-0.1-0.7-0.8-1.7 0-0.2-0.3-0.6l-0.1 4.9q0.1 2 0.3 2.5l0.1-0.3q1.4-0.6 2.1-1.2z" class="s78"/><path id="&lt;Compound Path&gt;" d="m475.7 318.4q-0.3-2.4 0-2.9 0 0 0-0.2 0.2-0.8 0.2-0.8 0 0 0.3-0.4 0.2-0.4 0.5-0.6 1-0.4 1-0.4 0.1 0 0.6-0.1 0.4-0.2 0.6-0.2 0.2 0 0.5 0 0.3 0 0.7 0 0.4 0 0.6 0.1 0.2 0.1 0.5 0.8 0.4 0.6 0.6 0.8 0.2 0.6 0.3 0.7 0.1 0.1 0.2 0.3 0.2 0.6 0.6 1.6 1.2 2.5 1.4 3.1 0.3 0.2 0.5 0.5 0.2 0.7 0.8 2 0 0 0.5 0.8 0.5 0.9 0.5 1.1 0.2 0 0.3 0.3 0.4 0.4 0.4 0 0-0.4 0-2.4-0.3-0.7-0.1-0.7 0.1-0.1-0.1-0.4-0.1-0.6 0-1.2 0.1-1 0.1-2-0.1-0.2-0.2-0.5 0.1-1 0-1.6-0.2-0.4-0.2-0.7 0-0.3 0-0.4l-0.1-1q-0.1-0.4-0.2-1.2-0.1-0.8 0-1.1-0.1-0.3-0.1-0.5 0.1-0.2 0.1-0.5 0.1-0.2 0.2-0.4-0.1-0.7 1.2-0.6 0.6 0.1 0.7 0.1 0.2 0.1 0.4 0.3 0.5 0.3 0.6 0.6-0.2 0-0.1 0.2 0.1 0.1 0.1 0.1 0.1 0 0.2 0.4 0.1 0.4 0.1 0.6 0 0.2 0 0.5 0 0.1 0 0.5 0 0.5 0.2 0.9 0.1 0.4 0 2.1-0.1 0.2 0 1.2 0.1 1 0.1 1.3 0.1 0.1-0.1 0.7 0.2 0.4 0.1 0.6-0.1 0.1 0 0.5 0 0.3 0.1 0.4 0.1 0 0.1 0.6 0.1 0.6 0.1 0.7-0.1 0.1-0.1 0.3 0.1 0.2 0.2 1.1 0 0.9 0 1 0.1 0.1 0.1 1.1 0 0.9 0 1.3 0.1 1.1 0.1 1.4 0 0.3-0.3 0.4 0-0.1-0.4 0-0.5 0.1-0.7 0.2-0.1 0.1-0.4 0.1-0.2 0-0.4 0-0.2 0.1-0.4 0-0.2 0-0.3 0-0.1 0-0.1 0l-0.4-0.1q0 0.2-0.8 0.3-0.4 0.1-0.8-0.2-0.2-0.1-0.3-0.4-0.2 0.1-0.9-0.9-0.7-0.9-1.1-1.6-0.3-0.7-0.6-1-0.2-0.4-0.5-1.1-0.3-0.7-0.4-0.7 0-0.2-0.1-0.4-0.1-0.3-1.4-2.9-0.2-0.6-0.2-0.6-0.2 0-0.3-0.3l-0.1-0.4q-0.1 0.2 0 0.8 0.2 0.7 0.2 1.5 0.1 0.7 0.2 0.8l0.4 2.1q0.2 0.7 0.1 1.1 0.1 0 0.1 0 0 0.2 0 0.5 0.1 0.3 0.4 1.5 0.4 1.3 0.6 2.2 0.2 1 0.3 1.1 0.1 0.1 0 0.4 0.1 0.3-0.2 0.6-0.3 0.6-1 0.3-0.6 0-0.7 0.1-0.1 0-0.3 0-0.2 0.1-0.5 0.1 0 0.1-0.3 0-0.1 0-0.2-0.3 0-0.3-0.1-0.3-0.2 0.1-0.2 0.2l-0.1-0.4q0.1-0.1-0.1-0.3l-0.3-0.9q-0.1-0.2-0.3-0.7-0.1-0.5-0.1-0.6l-0.1-0.5q0-0.2-0.4-1.4-0.3-0.8-0.3-1.7 0-0.1-0.1-0.8-0.2-0.1-0.3-0.8l-0.2-1-0.2-1q0-0.3-0.1-0.8 0-1-0.4-2z" class="s78"/></g></g><path id="&lt;Path&gt;" d="m359.3 388.6c10-2.9 10-2.9 20-5.7 10-2.9 10-2.9 19.9-5.8 10-2.8 10-3 20-5.8 10-2.9 10.1-2.6 20.1-5.5 9.9-2.8 9.8-3.2 19.8-6.1 10-2.8 10-3 20-5.8 10-2.9 10.1-2.6 20.1-5.4 9.9-2.9 10-2.8 20-5.7" class="s79"/><path id="&lt;Path&gt;" d="m365.1 408.9c10-2.8 9.9-3.1 19.9-6 10-2.9 10.1-2.6 20-5.5 10-2.8 10-3.1 20-6 9.9-2.8 10-2.6 20-5.5 10-2.8 10-2.8 20-5.7 10-2.9 10-2.8 20-5.7 10-2.8 10-2.7 20-5.5 10-2.9 10-3 20-5.9" class="s79"/><path id="&lt;Path&gt;" d="m370.9 429.1c10-2.9 10-2.6 20-5.5 10-2.8 9.9-3.3 19.9-6.2 10-2.8 10-2.6 20-5.5 10-2.8 10-2.8 20-5.7 10-2.8 10-2.9 20-5.7 10-2.9 9.9-3 19.9-5.8 10-2.9 10.1-2.5 20.1-5.4 10-2.8 10-3 20-5.9" class="s79"/><path id="&lt;Path&gt;" d="m536.5 403.4c-10 2.9-9.9 3.2-19.9 6-10 2.9-10.1 2.5-20.1 5.4-10 2.9-9.9 3.2-19.9 6.1-10 2.8-9.9 3.1-19.9 5.9-10 2.9-10.1 2.4-20.1 5.2-10 2.9-9.9 3.2-19.9 6.1-10 2.8-10.1 2.5-20.1 5.4-10 2.8-10 2.8-20 5.6" class="s79"/><path id="&lt;Path&gt;" d="m542.3 423.9c-9.9 2.9-9.8 3.3-19.8 6.1-10 2.9-10.1 2.7-20.1 5.6-10 2.9-10 2.8-20 5.6-10 2.9-10 2.7-20 5.5-10 2.9-10.1 2.8-20 5.6-10 2.9-10 3.1-20 5.9-10 2.9-9.9 2.9-19.9 5.8-10 2.9-10 2.8-20 5.7" class="s79"/><path id="&lt;Path&gt;" d="m548.1 444.1c-10 2.8-9.9 3.3-19.8 6.2-10 2.8-10 2.8-20 5.7-10 2.8-10.1 2.6-20.1 5.5-10 2.8-10 2.6-20 5.5-10 2.9-9.9 3.2-19.9 6-10 2.9-10 2.8-20 5.6-10 2.9-10.1 2.6-20.1 5.4-10 2.9-10 3.1-19.9 5.9" class="s79"/><path id="&lt;Path&gt;" d="m554 464.7c-10 2.9-10 2.9-20 5.8-10 2.9-10 2.6-20 5.4-10 2.9-10 3-20 5.8-10 2.9-9.9 3.1-19.9 5.9-10 2.9-10.1 2.7-20.1 5.6-10 2.8-10 2.8-20 5.6-10 2.9-9.9 3.2-19.9 6.1-9.9 2.8-10 2.5-20 5.4" class="s79"/><path id="&lt;Path&gt;" d="m559.5 491.1c-11.7 3.3-11.6 3.5-23.3 6.8-11.7 3.3-11.7 3.5-23.4 6.8-11.7 3.3-11.6 3.4-23.3 6.7-11.7 3.3-11.8 3.2-23.5 6.5-11.7 3.3-11.8 2.8-23.5 6.1-11.7 3.3-11.6 3.6-23.3 6.9-11.7 3.3-11.8 3.1-23.5 6.4" class="s80"/><path id="&lt;Path&gt;" d="m429.1 531.7c-3.3-11.4-3.4-11.3-6.7-22.7-3.2-11.4-3.3-11.3-6.6-22.7-3.2-11.4-2.6-11.6-5.9-22.9-3.2-11.4-3.7-11.3-7-22.7-3.2-11.3-3.3-11.3-6.5-22.7-3.3-11.4-2.8-11.5-6.1-22.9-3.2-11.4-3.5-11.3-6.8-22.6" class="s80"/><path id="&lt;Path&gt;" d="m424.4 360.6c3.2 11.4 3.7 11.3 6.9 22.6 3.3 11.4 3.1 11.5 6.3 22.9 3.3 11.3 3.2 11.3 6.5 22.7 3.2 11.4 3.3 11.4 6.6 22.7 3.2 11.4 3 11.5 6.2 22.9 3.3 11.3 3.4 11.3 6.6 22.7 3.3 11.4 3.1 11.4 6.3 22.8" class="s80"/><path id="&lt;Path&gt;" d="m510.7 507.3c-3.2-11-3.2-11-6.4-22.1-3.1-11-3.2-11-6.3-22.1-3.2-11-3.1-11.1-6.3-22.1-3.1-11.1-3.5-11-6.7-22-3.1-11.1-3-11.1-6.1-22.2-3.2-11-3.3-11-6.5-22-3.2-11.1-2.8-11.2-5.9-22.2" class="s79"/><path id="&lt;Path&gt;" d="m545.9 497.9c-3.2-11.2-3.3-11.2-6.5-22.4-3.1-11.2-3.5-11.1-6.7-22.3-3.1-11.2-3.1-11.2-6.2-22.4-3.2-11.2-2.7-11.3-5.9-22.5-3.2-11.2-3.4-11.1-6.6-22.3-3.1-11.2-3.3-11.2-6.5-22.4-3.2-11.2-3.1-11.2-6.3-22.4" class="s79"/><g id="&lt;Group&gt;"><path id="&lt;Compound Path&gt;" d="m367.4 394.3q0 0.2 0.3 0.9 0.5 1.2 0.6 1.4l0.3 0.6 0.2 0.5q0.1-0.6 0.1-0.7-0.1-0.1 0-0.6 0.1-0.6 0.1-1 0-0.1 0-0.4 0 0 0-0.2 0.1-0.2 0.1-0.4-0.1-0.3-0.1-0.3 0 0 0.1 0 0-0.1 0-0.2 0-0.2-0.1-0.3l-0.1-0.4q0 0 0-0.2v-0.3q-0.1-0.2 0-0.8l0.2-0.2q0-0.1 0.1-0.2 0.2-0.1 0.3-0.1 0.2 0.1 0.2 0 0.1 0.1 0.4 0.1 0.1 0 0.2 0.1 0.1 0.1 0.2 0.3l0.1 0.9q0.1 0.1 0.3 1.1l0.1 0.4q0 0 0.1 0.4l0.2 0.6q0 0.2 0 0.2l0.2 0.4q-0.1 0 0.4 1 0.1 0.2 0.3 0.6 0.3 0.5 0.3 0.9 0.1 0.2-0.2 0.4-0.3 0.1-0.3 0-0.2-0.1-0.2-0.1l-0.1-0.1q-0.2-0.1-0.4-0.2-0.1-0.1-0.2-0.2-0.2-0.2-0.2-0.4-0.1-0.2-0.2-0.3-0.1-0.1-0.2-0.2-0.1-0.1-0.3-0.4-0.1-0.3-0.2-0.5 0-0.1 0-0.2-0.1-0.1-0.1-0.1 0-0.1-0.1-0.1l0.1 0.2q-0.1 0.1-0.1 0.5v0.8 0.8q0 0-0.1 0.3 0 0.3 0 0.3 0 0 0 0.1-0.1 0.2-0.1 0.3-0.3 0.4-0.6 0.4-0.4-0.1-0.6-0.4-0.2-0.1-0.2-0.2-0.1-0.1-0.2-0.3-0.2-0.2-0.3-0.5-0.1-0.1-0.2-0.3-0.1-0.1-0.2-0.3 0-0.2-0.1-0.3-0.1-0.2-0.2-0.5-0.1-0.2-0.4-0.7-0.1 0-0.2-0.2 0 0.2 0.1 0.2 0 0.1 0 0.6 0 0 0.1 0.4 0 0.2 0.1 0.4 0 0.7 0.1 1 0.1 0.1 0.1 0.2 0 0.2 0.1 0.3 0 0.2 0 0.3v0.1q0.1 0.3 0.1 0.4 0 0.1 0 0.3-0.1 0.2-0.3 0.2-0.4 0-0.4 0-0.2-0.2-0.3-0.3l-0.1-0.6-0.1-0.2q0 0 0-0.2 0 0-0.1-0.2 0-0.2-0.1-0.3v-0.1q-0.2-0.4-0.2-0.4 0-0.1 0-0.3 0 0 0-0.2-0.1-0.2-0.1-0.4h0.1q-0.1-0.1-0.1-0.4-0.1 0-0.1-0.4-0.1-0.3-0.1-0.5 0-0.1 0-0.4 0.1-0.7 0-0.9 0-0.2 0-0.4-0.1-0.4 0-0.7 0-0.3 0.2-0.4l0.1-0.1q0.2-0.2 0.8-0.3 0.5 0.1 0.7 0.4 0 0.2 0.3 1.1z" class="s81"/><path id="&lt;Compound Path&gt;" fill-rule="evenodd" d="m373 395.8l-0.1-0.6q-0.2-0.8 0-1.5 0.3-0.5 1-0.8h0.1q0.6-0.2 1 0 0.4 0.2 0.6 0.4 0.3 0.3 0.4 0.4 0 0.1 0.1 0.4 0.2 0.5 0 0.6 0.5 1 0.3 1.8-0.1 0.3-0.2 0.6-0.1 0.3-0.5 0.4-0.4 0.2-0.7 0.2-0.3 0-0.8-0.1-0.4-0.1-0.7-0.7-0.3-0.4-0.5-1.1zm1.7-1.7q-0.2-0.4-0.5-0.3-0.2 0.1-0.3 0.4-0.1 0.5 0.1 1.1 0.2 0.6 0.4 0.9 0.1 0.2 0.3 0.4 0.2 0.1 0.4 0.1 0.3-0.1 0.3-0.7v-0.3q0-0.1 0-0.1 0-0.3-0.1-0.7-0.1-0.1-0.2-0.1-0.1-0.2-0.1-0.3-0.1 0-0.2-0.2 0-0.1-0.1-0.2z" class="s81"/></g><g id="&lt;Group&gt;"><path id="&lt;Compound Path&gt;" d="m374.1 413.6q0 0.2 0.1 0.4 0.1 0.4 0.1 0.7 0.1 0.4 0.1 0.5 0 0.1 0 0.3h0.1q0 0.2 0 0.5l0.1 0.5 0.3 1.1 0.1 0.5q0.1 0.5 0.1 0.5l0.1 0.3v0.1l0.1 0.2q0 0 0 0 0 0.2-0.1 0.4-0.1 0.1-0.2 0.2l-0.2 0.1q-0.1 0.1-0.2 0.1 0 0-0.1 0-0.1 0-0.1 0-0.2-0.1-0.3-0.2 0-0.1-0.3-0.7 0-0.1-0.1-0.3l-0.1-0.3v-0.2q-0.1-0.2-0.1-0.3 0-0.1 0-0.3-0.1-0.1-0.1-0.5-0.1-0.1-0.1-0.2 0-0.1 0-0.3v-0.1q-0.1-0.4-0.1-0.6-0.1-0.1-0.1-0.2 0-0.2-0.1-0.4v-0.1q0-0.1-0.1-0.3v-0.1q0-0.1 0-0.3-0.1-0.2-0.1-0.5-1.2 0.7-1.4 0.8l-0.2 0.1q-0.2 0-0.4 0-0.1 0-0.2-0.2-0.1-0.4 0-0.6 0.1-0.2 0.5-0.5 0.2 0 1.3-0.9l0.5-0.2q0.1-0.1 0.4-0.2 0.3-0.1 0.5-0.2 0.1-0.1 0.4-0.2 0.2-0.2 0.4-0.3 0.2-0.1 0.5-0.1 0.1 0 0.5 0.2l0.1 0.1q0 0.1 0.1 0.1 0.1 0.3-0.1 0.4 0 0.1-0.2 0.2-0.2 0.1-1 0.5-0.1 0.1-0.5 0.2v0.2z" class="s81"/><path id="&lt;Compound Path&gt;" d="m379.6 415.2l0.1 0.2q0 0.1 0.3 0.7v0.2q0.1 0.2 0.3 0.8 0.1 0.2 0.5 0.7 0.1 0 0.1 0.2l0.1 0.1q0 0-0.1 0.1 0.1 0.1-0.1 0.2-0.3 0-0.3 0.1-0.1 0-0.2 0 0 0-0.3 0-0.1 0-0.2-0.2l-0.2-0.2q0-0.2-0.2-0.3 0-0.1-0.1-0.2-0.1-0.1-0.1-0.1 0 0.4-0.1 0.7 0 0.1 0 0.2l-0.1 0.3q0 0 0 0.1-0.1 0.2-0.3 0.2-0.2 0.1-0.6 0.1 0 0-0.3 0-0.1 0-0.2 0-0.2 0-0.2 0-0.1 0-0.2-0.1l-0.3-0.1q0 0 0-0.1-0.1-0.1-0.1-0.2 0 0 0-0.1 0-0.1-0.1-0.1 0-0.3 0-0.6-0.1 0-0.1 0 0-0.1 0-0.2 0-0.1 0-0.1l-0.1-0.5q0-0.1 0-0.2l-0.1-0.2q0 0 0-0.1l-0.1-0.5q-0.1-0.2 0-0.2l-0.1-0.1q0-0.1 0-0.2v-0.4-0.1q0-0.1 0.1-0.2 0.2-0.1 0.5-0.2 0.2 0 0.4 0 0 0 0.1 0 0.3 0 0.2 0.6 0.1 0.3 0.1 0.3-0.1 0.1 0 0.2 0 0.4 0 0.4 0-0.1 0 0.1l0.1 0.5q0 0.3 0.1 0.6v0.1q0 0.1 0.1 0.4 0 0 0 0.1l0.1 0.1q0 0 0 0 0 0 0.1 0 0.1 0 0.2-0.1 0.1-0.2 0.1-0.5 0-0.2 0-0.2 0-0.6 0.1-0.7-0.1-0.3-0.1-0.7 0-0.1 0-0.2v-0.7q0-0.2 0-0.2 0-0.1 0-0.4 0 0 0.1-0.2 0-0.1 0.2-0.3 0.3-0.1 0.5-0.1 0 0.1 0 0.2 0.1 0.1 0.2 0.4v0.1l0.1 0.3q0.1 0.2 0.1 0.5z" class="s81"/></g><g id="&lt;Group&gt;"><path id="&lt;Compound Path&gt;" d="m380.4 432.8q0.1 0.3 0.2 0.7 0 0.2 0 0.3 0 0.3 0.1 0.5 0 0.1 0.1 0.7 0.1 0.4 0.3 1.2 0.2 0.8 0.5 1.3 0.2 0.6 0.3 0.6 0.1 0 0.2-0.2-0.1-0.1-0.1-0.3 0-0.7 0-1.2 0-0.5-0.1-0.6 0-0.1 0-0.5 0-0.3-0.1-0.7v-0.1q-0.2-0.7-0.2-0.9-0.1-0.3-0.2-0.4l-0.1-0.5q0-0.1 0-0.2 0.1 0 0.1-0.1 0.1-0.1 0.2-0.1 0 0 0.2-0.1 0.2 0 0.3 0.1 0 0 0.1 0 0 0.1 0.1 0.1 0 0 0 0.1 0.1 0.2 0.3 0.8 0.2 0.5 0.3 0.7 0 0.1 0.1 0.4v0.2q0 0.1 0.2 0.8 0.1 0.7 0.1 0.8 0 0.3 0.1 0.3v0.2q0 0 0 0.1 0 0 0 0.3 0 0.2 0 0.2v0.3q-0.1 0.6-0.1 0.7 0 0-0.1 0.3l-0.2 0.3v0.1q-0.3 0.6-1 0.4l-0.3-0.1q-0.1-0.1-0.3-0.2 0 0-0.1-0.1-0.1-0.1-0.2-0.2-0.1 0-0.2-0.1 0 0-0.1-0.2-0.1-0.1-0.2-0.2-0.1 0-0.2-0.2-0.1-0.1-0.1-0.3v0.5q0 0.1 0 0.3v0.3q-0.2 1.2-0.2 1.3-0.1 0.3-0.3 0.4-0.1 0.2-0.4 0.2-0.2 0-0.7 0l-0.2-0.1q-0.2-0.1-0.3-0.2-0.1-0.3-0.2-0.4-0.1 0-0.2-0.3l-0.1-0.3q0 0-0.2-0.5 0-0.1 0-0.2h-0.1q0-0.1-0.2-0.6l-0.1-0.1q0-0.1 0-0.1 0-0.1-0.2-0.4l-0.2-0.6q0-0.1 0-0.3l-0.1-0.2q-0.2-0.6-0.2-0.9v-0.3q0 0 0-0.1 0-0.2 0-0.3 0-0.2 0-0.4-0.1-0.2 0-0.3 0-0.1 0.1-0.3 0.1-0.1 0.1-0.2 0.2-0.1 0.3-0.1 0.1-0.1 0.4-0.1 0.1 0 0.3 0 0.2 0.1 0.2 0.2 0.1 0.2 0.1 0.6 0.1 0.4 0.1 0.4 0 0.1 0.1 0.3 0 0.3 0.1 0.6 0.1 0.3 0.1 0.4v0.1q0 0.1 0.1 0.3 0 0.2 0.1 0.6 0.1 0.2 0.1 0.3v0.2l0.1 0.2q0 0.1 0 0.2 0.1 0.2 0.2 0.7 0.2 0.4 0.2 0.4l0.2-0.8q0-0.1 0-0.6l0.2-0.9q0-0.4 0-0.4l0.1-0.2q0-0.1 0-0.2 0-0.1 0-0.3 0-0.2-0.1-0.6-0.1-0.3 0-0.5-0.1-0.3-0.1-0.9-0.1-0.2-0.1-0.3 0-0.3 0.1-0.5 0.1-0.1 0.5-0.1 0.3-0.1 0.5 0.1z" class="s81"/><path id="&lt;Compound Path&gt;" fill-rule="evenodd" d="m386.9 436.2l-0.4 0.1q-0.4 0.1-0.6 0.1l0.1 0.2q0.3 1 0.9 1.1 0.1 0 0.2 0 0.1 0 0.2-0.1 0.1-0.1 0.1-0.2 0-0.1 0.1-0.1 0.3-0.7 0.5-0.7 0.3 0.1 0.4 0.2 0 0-0.1 0.1v0.1q0.1 0.1 0 0.4 0 0.4-0.1 0.6-0.1 0.2-0.2 0.3-0.3 0.4-0.7 0.4-0.1 0-0.1 0-0.1 0-0.2 0l-0.1 0.1q-0.1 0-0.1 0-0.2-0.1-0.2-0.1-0.4 0-0.4 0-0.1-0.1-0.2-0.1 0 0-0.2-0.2-0.2 0-0.3-0.1-0.1 0-0.1-0.1-0.1 0-0.1-0.2-0.1 0-0.1-0.1l-0.1-0.1q0-0.1-0.1-0.1-0.1 0-0.1-0.1l-0.1-0.1q0 0 0-0.2l-0.1-0.3v-0.1h-0.1q0-0.1 0-0.2v-0.1q0 0-0.1-0.2 0-0.3 0.1-0.3l-0.1-0.1q0-0.1 0-0.1 0-0.1 0-0.2 0-0.1 0-0.5l0.1-0.5q0-0.2 0.2-0.4-0.1-0.1 0-0.3l0.1-0.1q0-0.2 0.2-0.2 0.1-0.2 0.2-0.2l0.3-0.1q0 0 0.1 0l0.1-0.1q0.3 0 0.4 0 0.4 0 0.6 0.1 0.5 0.3 0.6 0.7 0.1 0.3 0.1 0.6-0.1 0.8-0.2 1-0.1 0.4-0.4 0.5zm-0.4-1.7q0-0.1-0.2-0.4-0.1 0-0.2 0-0.2 0.1-0.2 0.4-0.1 0.3-0.1 0.7 0 0.5 0 0.5 0.2 0 0.3 0 0.1 0 0.2-0.2 0.2-0.3 0.2-1z" class="s81"/></g><g id="&lt;Group&gt;"><path id="&lt;Compound Path&gt;" d="m385.3 454.7q0.1 0.3 0.1 0.5 0.2 0.4 0.2 0.7 0.1 0.4 0.1 0.5 0 0.1 0 0.2v0.1q0.1 0.2 0.1 0.4l0.1 0.6 0.2 1.1 0.2 0.5q0.1 0.5 0.1 0.5l0.1 0.3v0.1 0.2q0.1 0 0 0 0.1 0.1 0 0.3-0.1 0.2-0.3 0.3l-0.2 0.1q0 0-0.1 0.1-0.1 0-0.1 0-0.1 0-0.2 0-0.1-0.1-0.2-0.3 0 0-0.3-0.6-0.1-0.1-0.1-0.3l-0.1-0.3v-0.2q-0.1-0.2-0.1-0.3 0-0.1 0-0.4-0.1 0-0.1-0.4-0.1-0.1-0.1-0.2 0-0.1 0-0.3l-0.1-0.1q-0.1-0.4-0.1-0.7 0 0 0-0.1 0-0.2-0.1-0.4v-0.1q-0.1-0.2-0.1-0.4v-0.1q0 0-0.1-0.2 0-0.3 0-0.5h-0.1q-1.1 0.7-1.4 0.8h-0.1q-0.2 0.1-0.4 0.1-0.1 0-0.2-0.2-0.1-0.4 0-0.6 0.1-0.2 0.5-0.5 0.1-0.1 1.3-0.9l0.4-0.2q0.2-0.1 0.5-0.2 0.3-0.1 0.4-0.2 0.2-0.2 0.4-0.3 0.3-0.1 0.5-0.2 0.1-0.1 0.5-0.1 0.1 0 0.5 0.1l0.1 0.2q0 0.1 0 0.1 0.2 0.3 0 0.4 0 0.1-0.2 0.2-0.2 0-1.1 0.5 0 0-0.4 0.2v0.2z" class="s81"/><path id="&lt;Compound Path&gt;" d="m389.4 455.4l0.3 1.6 0.1-0.1q0-0.2 0.1-0.6 0-0.1 0.2-0.7l0.2-0.3v-0.2q0.2-0.2 0.3-0.3 0.3-0.1 0.7 0 0.1 0 0.3 0.1 0.2 0.1 0.3 0.4 0 0 0 0.1 0.3 1.8 0.5 2.5 0.2 0.7 0.4 1.2 0.2 0.4-0.1 0.6-0.1 0.1-0.3 0.1-0.2 0.1-0.3 0.1-0.1-0.1-0.3-0.2l-0.1-0.2q-0.1-0.1-0.1-0.3l-0.2-0.3q0 0 0-0.3l-0.1-0.3q-0.1-0.1-0.2-0.6l-0.1-0.5-0.1-0.3q0 0-0.1-0.1-0.2 0.3-0.2 1.7l-0.1 1q0 0.8-0.2 0.9l-0.1 0.1q-0.2 0-0.5 0-0.2-0.2-0.3-0.4 0-0.1 0-0.1-0.1-0.2-0.1-0.4 0-0.1-0.1-0.1v-0.2q0-0.1-0.1-0.3-0.1-0.3-0.1-0.4-0.1-0.1-0.1-0.3-0.1-0.2-0.2-0.3-0.1-0.5-0.2-0.7 0-0.3-0.1-0.5-0.1-0.2-0.1-0.4l-0.2-1-0.1-0.7q-0.1 0-0.2-0.2-0.1-0.1-0.1-0.4 0-0.2 0-0.3 0-0.1 0-0.3-0.1-0.3-0.1-0.4v-0.2q0-0.1 0.2-0.4h0.2q0.4-0.1 0.7 0 0.1 0 0.1 0.3 0.1 0.5 0.2 0.6 0 0.2 0.2 1 0.2 0.9 0.2 1z" class="s81"/></g><g id="&lt;Group&gt;"><path id="&lt;Compound Path&gt;" d="m391.5 475.8l0.3 1.4q0-0.1 0.4-0.2 0.4-0.1 0.5-0.1h0.5q0.2 0.1 0.5 0.3 0.2 0.2-0.2 0.5-0.4 0.2-0.6 0.3l-0.9 0.3 0.2 0.5q0.5 1.4 0.5 1.6 0.2 0.3 0.2 0.4l0.1 0.2q0 0.3 0 0.3-0.1 0.2-0.1 0.3-0.4 0.3-1.1 0l-0.2-0.2q0 0-0.2-0.3 0 0-0.2-0.3 0-0.1 0-0.2 0-0.1 0-0.3-0.1-0.1-0.2-0.2 0-0.2-0.1-0.3v-0.1q0-0.1-0.1-0.2 0-0.2 0-0.3 0-0.2-0.1-0.3-0.2-0.1-0.2 0-0.1 0-0.2-0.1-0.1 0-0.2-0.1 0-0.1 0.2-0.4 0-0.1 0.2-0.2l-0.1-0.3-0.1-0.6q-0.1-0.3-0.1-0.5 0-0.2-0.1-0.2v-0.3q-0.5 0.3-0.8 0.3-0.2-0.1-0.3-0.3 0 0 0-0.3-0.1-0.2 0.1-0.5 0.2-0.2 0.5-0.3 0.3-0.3 0.7-0.4 0.6-0.3 1-0.5l0.5-0.4q0.1-0.1 0.2-0.1 0.1-0.1 0.2-0.2 0 0 0.2-0.1 0.5-0.3 0.6-0.1 0.1 0 0.4 0.1 0 0 0.3 0.4 0.1 0 0.1 0.2-0.1 0.1-0.2 0.1l-0.3 0.2q-0.1 0.1-0.3 0.3-0.5 0.2-0.5 0.2-0.1 0.1-0.1 0.1-0.2 0.1-0.4 0.2-0.2 0.1-0.3 0.1-0.3 0.2-0.3 0.3 0 0 0 0.1v0.1z" class="s81"/><path id="&lt;Compound Path&gt;" d="m395.2 477.3q-0.1-0.1-0.1-0.3-0.1-0.1-0.1-0.2 0-0.1 0-0.2-0.1-0.2-0.1-0.3 0-0.1 0.1-0.3 0-0.1 0.1-0.2 0.2-0.1 0.3-0.2 0 0 0.3 0 0.1 0 0.4 0 0 0 0.2 0.1 0 0 0 0.3 0.1 0.3 0.1 0.5 0.1-0.1 0.2-0.3 0.1-0.2 0.1-0.2 0.3-0.3 0.6-0.4 0.4-0.1 0.5-0.1 0.1 0 0.2 0.1 0.1 0 0.3 0.2 0.1 0.2 0 0.3 0 0.1-0.4 0.2 0 0-0.1 0.2l-0.5 0.6q-0.2 0.1-0.2 0.2l-0.1 0.5q0 0 0.1 0.3 0 0.3 0.1 0.4 0 0.1 0.2 0.8l0.1 0.4q0.1 0.4 0.2 0.5 0 0.1-0.1 0.3 0 0-0.2 0.1-0.3 0.4-0.6 0.1h-0.1q-0.1-0.1-0.2-0.1-0.1-0.1-0.1-0.1l-0.1-0.2-0.1-0.1q0 0-0.2-0.4-0.1-0.5-0.2-0.5 0-0.1 0-0.3 0-0.1 0-0.2-0.1-0.2-0.2-0.3 0-0.1 0-0.2 0 0-0.1-0.3 0 0-0.1-0.2z" class="s81"/></g><g id="&lt;Group&gt;"><path id="&lt;Compound Path&gt;" d="m398.3 501.8q0 0.1-0.4 0.3-0.3 0.1-0.7 0.1l-0.3-0.1h-0.4q-0.1 0-0.1 0 0 0 0 0-0.1-0.1-0.2-0.1-0.3-0.1-0.4-0.2-0.5-0.4-0.6-0.8-0.1-0.1 0-0.2 0.2-0.4 0.5-0.5 0.1 0 0.2 0.1l0.6 0.4q0.1 0 0.2 0.1l0.2 0.1 0.3 0.1q0 0 0.1 0 0 0 0.3 0 0.2-0.1 0.3-0.2 0.1-0.2 0.1-0.2l0.2-0.3q0 0 0-0.2-0.1-0.1-0.1-0.2 0 0-0.1-0.2 0-0.1-0.2-0.2-0.1-0.1-0.3-0.2-0.1-0.1-0.7-0.2l-0.3-0.1-0.3-0.1q-0.1 0-0.5-0.2-0.1 0-0.2 0 0 0-0.5-0.3 0 0-0.3-0.4l-0.2-0.4v-0.3q-0.2-0.3-0.2-0.4 0-0.1 0-0.4-0.1-0.1 0.1-0.7 0-0.1 0.4-0.7l0.3-0.3 0.2-0.1q0.1-0.1 0.2-0.2 0.2 0 0.6-0.1 0.3-0.1 0.4 0 0.1 0 0.6 0.1 0.6 0.3 0.8 0.7 0.3 0.5 0.3 1.2 0 0-0.2 0.3h-0.3q-0.4 0.1-0.8-0.1-0.1-0.1-0.2-0.3-0.1-0.3-0.3-0.3 0 0-0.1-0.2-0.3-0.2-0.3-0.2-0.1 0.1-0.2 0.1-0.3 0.5-0.2 0.9 0 0.3 0.4 0.7 0.2 0.2 0.3 0.2 0.1 0.1 0.3 0.2l0.2 0.1 0.6 0.2 0.2 0.1 0.3 0.1q0.2 0 0.4 0.1 0.3 0.1 0.7 0.5 0.1 0.1 0.4 0.6l0.1 0.4v0.3q0 0.1 0 0.3 0 0-0.1 0.3 0 0.1-0.2 0.3-0.2 0.4-0.6 0.6-0.1 0.1-0.3 0.1z" class="s81"/><path id="&lt;Compound Path&gt;" fill-rule="evenodd" d="m402.9 499v0.5q0 0-0.2 0.6 0 0.2-0.3 0.3-0.3 0.1-0.6 0.1-0.4 0-0.6-0.1-0.2-0.1-0.5-0.5-0.3-0.3-0.4-0.6-0.2-0.4-0.2-0.5l-0.1-0.2q-0.1-0.4-0.1-0.5 0-0.1 0-0.3-0.1-0.5 0-1 0.2-0.9 0.7-1.1 0 0 0.1 0h0.1q0.4-0.1 0.5-0.1 0.2 0 0.3 0l0.4-0.1q0.1 0 0.3 0 0.3 0 0.3 0 0 0.1 0.1 0.3 0.1 0.2 0.2 0.3 0 0 0.1 0.1 0.3 0.8 0.7 1.5 0 0 0.1 0.1 0 0.1 0.1 0.2 0.1 0.2 0.2 0.3 0.1 0.2 0.2 0.4 0.2 0.1 0.4 0.3 0.3 0.3-0.1 0.6-0.1 0.1-0.3 0.1 0 0-0.2 0-0.1 0-0.3-0.1h-0.1q-0.1 0-0.1 0-0.1 0-0.7-0.8 0 0.1 0 0.2zm-0.9-2.1q-0.1-0.2-0.3-0.3-0.1-0.1-0.4-0.1 0 0.1-0.1 0.5 0 0.3 0 0.7 0.1 0.6 0.2 1.1 0.2 0.6 0.5 0.8 0 0 0 0 0.1 0 0.1-0.3 0.3-1.2 0-2.4z" class="s81"/></g><g id="&lt;Group&gt;"><path id="&lt;Compound Path&gt;" d="m405.5 525.8q0 0.1-0.4 0.2-0.3 0.2-0.7 0.1h-0.3-0.4q0 0 0 0 0 0-0.1 0-0.1-0.1-0.2-0.1-0.3-0.1-0.4-0.2-0.5-0.4-0.6-0.8 0-0.1 0-0.2 0.2-0.4 0.5-0.5 0.2 0 0.3 0.1l0.5 0.3q0.1 0.1 0.2 0.2l0.2 0.1 0.3 0.1q0.1 0 0.1 0 0.1 0 0.3 0 0.2-0.1 0.3-0.2 0.1-0.2 0.2-0.3l0.1-0.2q0 0 0-0.2 0-0.1 0-0.2-0.1 0-0.2-0.3 0 0-0.2-0.1-0.1-0.1-0.3-0.2 0-0.1-0.7-0.2l-0.3-0.1-0.2-0.1q-0.2 0-0.5-0.2-0.2 0-0.2-0.1-0.1 0-0.5-0.2 0-0.1-0.3-0.4l-0.3-0.4v-0.3q-0.2-0.3-0.2-0.5 0 0 0.1-0.3-0.1-0.1 0.1-0.7-0.1-0.1 0.3-0.7l0.3-0.3 0.2-0.2q0.1 0 0.3-0.1 0.1-0.1 0.5-0.1 0.4-0.1 0.5-0.1 0.1 0 0.5 0.2 0.6 0.3 0.8 0.7 0.3 0.5 0.4 1.2 0 0-0.3 0.3h-0.3q-0.4 0.1-0.8-0.1-0.1-0.1-0.2-0.3-0.1-0.3-0.2-0.3 0 0-0.2-0.2-0.2-0.2-0.3-0.2-0.1 0-0.1 0.1-0.4 0.4-0.3 0.9 0.1 0.3 0.5 0.7 0.1 0.1 0.2 0.1 0.1 0.1 0.3 0.2l0.2 0.2 0.6 0.2 0.3 0.1 0.2 0.1q0.2 0 0.4 0.1 0.3 0.1 0.8 0.5 0.1 0.1 0.3 0.6l0.2 0.4v0.3q-0.1 0-0.1 0.2 0 0.1 0 0.4 0 0-0.2 0.3-0.3 0.4-0.7 0.6-0.1 0.1-0.3 0.1z" class="s81"/><path id="&lt;Compound Path&gt;" d="m410.7 520.6v0.2q0 0.1 0.3 0.7l0.1 0.2q0 0.2 0.3 0.8 0 0.2 0.5 0.7 0 0 0.1 0.2v0.1q0 0 0 0.1 0 0.1-0.2 0.2-0.2 0-0.3 0.1 0 0-0.2 0 0 0-0.3 0-0.1 0-0.2-0.2l-0.1-0.2q-0.1-0.2-0.3-0.3 0-0.1-0.1-0.2-0.1-0.1-0.1-0.1 0 0.4-0.1 0.7 0 0.1 0 0.2l-0.1 0.2q0.1 0.1 0 0.2 0 0.2-0.3 0.2-0.2 0.1-0.5 0.1-0.1 0-0.4 0 0 0-0.2 0-0.2 0-0.2 0 0 0-0.2-0.1l-0.2-0.1q0 0-0.1-0.1-0.1-0.1-0.1-0.2 0 0 0-0.1 0-0.1 0-0.1-0.1-0.3-0.1-0.6 0 0-0.1 0 0-0.1 0-0.2 0-0.1 0-0.1l-0.1-0.5q0-0.1 0-0.2l-0.1-0.2q0 0 0-0.1l-0.1-0.5q0-0.2 0-0.2l-0.1-0.1q0.1-0.1 0-0.2v-0.4l0.1-0.1q0-0.1 0.1-0.2 0.1-0.1 0.5-0.2 0.1 0 0.3 0 0 0 0.2 0 0.2 0 0.1 0.6 0.1 0.3 0.1 0.3 0 0.1 0 0.2 0 0.4 0 0.4 0.1-0.1 0 0.1l0.1 0.5q0 0.3 0.1 0.6v0.1q0 0.1 0.1 0.4 0 0 0 0.1l0.1 0.1q0 0 0 0 0 0 0.1 0 0.2 0 0.2-0.1 0.1-0.2 0.1-0.5 0-0.2 0-0.2 0.1-0.6 0.1-0.7 0-0.3 0-0.7-0.1-0.1-0.1-0.2v-0.7q0-0.2 0-0.2 0-0.1 0.1-0.4 0 0 0-0.2 0-0.1 0.2-0.3 0.3-0.1 0.5-0.1 0 0.1 0.1 0.2 0 0.1 0.1 0.4l0.1 0.1v0.3q0.2 0.2 0.2 0.5z" class="s81"/></g><path id="&lt;Path&gt;" d="m520 342.6l-5.7 19.2-7.4-5.9" class="s82"/><path id="&lt;Path&gt;" d="m526.4 363.2l-5.7 19.3-7.4-6" class="s82"/><path id="&lt;Path&gt;" d="m531.4 384.5l-5.7 19.3-7.3-6" class="s82"/><path id="&lt;Path&gt;" d="m461 366.2l-28 8-1.1-3.9 28-8z" class="s83"/><path id="&lt;Path&gt;" d="m470.6 394.5l-28.1 8-1.1-3.9 28.1-8z" class="s83"/><path id="&lt;Path&gt;" d="m473.6 408.1l-28.1 8-1.1-3.8 28.1-8z" class="s83"/><path id="&lt;Path&gt;" d="m434.8 420.4l-28.1 8-1.1-3.8 28.1-8.1z" class="s83"/><path id="&lt;Path&gt;" d="m426.1 400.8l-28.1 8-1.1-3.8 28.1-8z" class="s83"/><path id="&lt;Path&gt;" d="m443.8 463l-28.1 8-1.1-3.8 28.1-8.1z" class="s83"/><path id="&lt;Path&gt;" d="m502 497.4l-28.1 8-1.1-3.8 28.1-8.1z" class="s83"/><path id="&lt;Path&gt;" d="m449.9 483.2l-28.1 8-1.1-3.8 28.1-8z" class="s83"/><path id="&lt;Path&gt;" d="m453.9 489.2l-28.1 8-1.1-3.8 28.1-8z" class="s83"/><path id="&lt;Path&gt;" d="m477.4 453.4l-18.8 5.4-1.1-3.9 18.8-5.4z" class="s83"/><path id="&lt;Path&gt;" d="m486.9 456.8l-17.5 5-1-3.6 17.5-5z" class="s83"/><path id="&lt;Path&gt;" d="m467.5 371.1l-31.7 9.1-1.1-3.9 31.7-9z" class="s83"/><path id="&lt;Path&gt;" d="m492.9 469l-29.5 8.5-1-3.6 29.5-8.5z" class="s83"/><path id="&lt;Path&gt;" d="m480.4 414.1l-31.8 9-1.1-3.8 31.8-9.1z" class="s83"/><path id="&lt;Path&gt;" d="m458.4 379.9l-15.9 4.5-1.1-3.8 15.9-4.6z" class="s83"/><path id="&lt;Path&gt;" d="m488.7 477.2l-15.8 4.5-1.1-3.8 15.8-4.6z" class="s83"/><path id="&lt;Path&gt;" d="m407.9 383.4l-14 4-1.1-3.8 14-4z" class="s83"/><path id="&lt;Path&gt;" d="m463 388.2l-14 4-1.1-3.9 14-4z" class="s83"/><path id="&lt;Path&gt;" d="m435.5 449.6l-14 4-1.1-3.8 14-4z" class="s83"/><path id="&lt;Path&gt;" d="m518.1 444.3l-13 3.7-1.1-3.6 13.1-3.7z" class="s83"/><path id="&lt;Path&gt;" d="m522.2 460.6l-13 3.8-1.1-3.6 13.1-3.7z" class="s83"/><path id="&lt;Path&gt;" d="m452.4 508.5l-14.1 4-1.1-3.8 14.1-4z" class="s83"/><path id="&lt;Path&gt;" d="m524.9 467.9l-13.1 3.7-1-3.6 13-3.7z" class="s83"/><path id="&lt;Path&gt;" d="m515.1 421l-13.1 3.7-1-3.6 13-3.7z" class="s83"/><path id="&lt;Path&gt;" d="m472.4 430.9l-14 4-1.1-3.8 14-4z" class="s83"/><path id="&lt;Path&gt;" d="m471.5 439.5l-14 4.1-1.1-3.9 14-4z" class="s83"/><path id="&lt;Path&gt;" d="m485.1 435.4l-13 3.7-1.1-3.6 13.1-3.7z" class="s83"/><path id="&lt;Path&gt;" d="m493.3 357.3l-13.1 3.7-1-3.5 13-3.8z" class="s83"/><path id="&lt;Path&gt;" d="m498.3 362.2l-13.1 3.7-1-3.5 13-3.8z" class="s83"/><path id="&lt;Path&gt;" d="m503.9 381.9l-13.1 3.7-1-3.6 13.1-3.7z" class="s83"/><path id="&lt;Path&gt;" d="m425.7 430.9l-14.1 4-1.1-3.9 14.1-4z" class="s83"/><path id="&lt;Path&gt;" d="m507.4 406.8l-13.1 3.7-1-3.5 13.1-3.8z" class="s83"/><path id="&lt;Path&gt;" d="m511.2 398.4l-13.1 3.7-1-3.6 13.1-3.7z" class="s83"/><path id="&lt;Path&gt;" d="m530.4 484.1l-14.1 4-1.1-3.8 14.1-4z" class="s83"/><path id="&lt;Path&gt;" d="m538 489.3l-14 4.1-1.1-3.9 14-4z" class="s83"/><path id="&lt;Path&gt;" d="m420.6 386.6l-22.4 6.4-1.1-3.9 22.4-6.3z" class="s83"/></g></g></g></svg>