<svg xmlns="http://www.w3.org/2000/svg" width="800" height="500" version="1.2" viewBox="0 0 3200 2000"><title>7878-ai</title><style>.s0{fill:#ebf3fa}.s1{fill:#b6d1f8}.s2{fill:#dfebfd}.s3{fill:#82b378}.s4{fill:#f99746}.s5{fill:#ed7d2b}.s6{fill:#c2dbfd}.s7{fill:#f2c5a0}.s8{fill:#f5d1b7}.s9{fill:#d8e3b7}.s10{fill:#dce9bf}.s11{fill:#ffa412}.s12,.s13{fill:#ffb93e}.s13{opacity:.5}.s14{fill:#fff}.s15{fill:#99c3ff}.s16{fill:#2e3552}.s17{fill:#efefef}.s18{fill:#fccba2}.s19{fill:#699dee}.s20{fill:#ea8e50}.s21{fill:#1e3d70}.s22{fill:#233862}.s23{fill:#2b478b}.s24{fill:#ffb07b}.s25{fill:#2a4e96}.s26{fill:#ffc299}.s27{fill:#ed985f}.s28{fill:#cee085}.s29{fill:#ffb27d}.s30{fill:#2c3a64}.s31{fill:#f77d48}.s32{fill:#fbbea3}.s33{fill:#649b57}.s34{fill:#4673bc}</style><g id="Слой 1"><g id="&lt;Group&gt;"><path id="&lt;Path&gt;" d="m547.8 1762.5c0 0-272.1-123.6-146.2-543.5 60.4-201.6 242.7-206.4 461.9-437.2 135.2-142.4 48.2-577.6 714.2-546.2 830.5 39.3 1047.6 684.4 1051.2 713.8 12.4 102 65.1 164.4 122.7 222.9 17.6 17.8 35.6 35.3 53 53.5q3.2 3.3 6.4 6.6c21.8 23.1 42.5 47.5 60.2 75.1 58.5 91.6 83.1 219 0.6 456.3z" class="s0"/><path id="&lt;Path&gt;" d="m1464.1 1758.3h-349.1v-946h349.1z" class="s1"/><path id="&lt;Path&gt;" d="m532.5 1155.4c37.6-86 184.6-35.5 184.6-35.5 0 0 79.2 172.1 108.5 180.3 29.3 8.2-39-160.3-39-160.3 58.7 3 195.5 95.9 195.5 95.9 0 0-36.6 181.4-6.2 182.2 30.4 0.7 24.2-162.4 24.2-162.4 53.5 25.2 96 98.3 96 98.3 49.4 116.1-102.2 173.6-102.2 173.6 0 0-11.3 63.1 17 141.7 0 0 6.8 14.8 12.4 39l-15.2-2.3q-1-6.4-2.4-12.5 0 0 0 0-0.1-0.1-0.1-0.2c-0.7-2.5-1.7-6.1-2.9-10.5q0 0 0 0 0 0 0 0c-3.3-9.8-5.5-17.1-6.8-22.2q0 0 0-0.1c-9.7-30.7-24.2-71-36.5-80.9 0 0 2.1-2.1 4.3-6.5q-2 3.1-4.3 6.5c-34.4 52.1-166.4 42-237 16.2-70.5-25.8-35.8-41.6 8.4-69.1 44.2-27.4 124.9-6.4 151.1-15.8 26.2-9.5-7.3-27.8-56.3-31.3-49.1-3.5-80.6 41.3-160.1 37.1-79.4-4.2-117.2-160.5-117.2-160.5 51.6 24.8 153.1 9.5 159.6-8.6 6.6-18.1-137.4-37.7-159-46.6-21.5-9-54-59.6-16.4-145.5z" class="s2"/><path id="&lt;Path&gt;" d="m2411.7 812.3c-22.2 9.2-170.1 29.3-163.4 47.9 6.7 18.6 111 34.4 164 8.9 0 0-38.8 160.6-120.4 164.9-81.7 4.3-114.1-41.8-164.5-38.2-50.4 3.6-84.8 22.5-57.9 32.2 26.9 9.7 109.9-11.9 155.3 16.3 45.4 28.2 81.1 44.4 8.6 70.9-72.4 26.5-208.1 36.9-243.5-16.6q-2.3-3.5-4.4-6.7c2.3 4.6 4.4 6.7 4.4 6.7-12.6 10.1-27.5 51.6-37.5 83.2q0 0 0 0c-1.3 5.3-3.5 12.7-6.9 22.8q0 0 0 0 0 0 0 0c-1.3 4.5-2.3 8.2-3.1 10.8q0 0.1 0 0.2 0 0 0 0.1-1.5 6.2-2.5 12.8l-15.6 2.3c5.7-24.8 12.7-40 12.7-40q0 0 0 0c29.1-80.8 17.5-145.7 17.5-145.7 0 0-155.8-59-105-178.3 0 0 43.7-75.1 98.6-101 0 0-6.4 167.6 24.9 166.8 31.2-0.7-6.4-187.2-6.4-187.2 0 0 140.6-95.4 200.9-98.5 0 0-70.2 173.1-40.1 164.7 30.1-8.4 111.5-185.2 111.5-185.2 0 0 151-51.9 189.6 36.4 38.7 88.3 5.3 140.3-16.8 149.5z" class="s2"/><g id="&lt;Group&gt;"><path id="&lt;Path&gt;" d="m665.7 1610.8c-92.3 11.1-188.1 130.3-219.7 126.6-31.5-3.6-23.5-26.2-23.5-26.2 43.9-99.7 243.2-108 243.2-108z" class="s3"/><path id="&lt;Path&gt;" d="m665.7 1603.2c0 0-49.8-20.5-92.2-27.7-42.4-7.2-184.5-9.8-100.9-44.4 83.6-34.7 193.1 64 193.1 64z" class="s3"/><path id="&lt;Path&gt;" d="m662.9 1618.6c0 0-99.8 33.8-82.9 87.8 17 53.9 82.9-87.8 82.9-87.8z" class="s3"/><g id="&lt;Group&gt;"><path id="&lt;Path&gt;" d="m1456 1726.9c-2.2 18.4-16.5 32.3-33.2 32.3l-696.5 1.6c-48.5-5.7-83.2-54-76.9-107.4l4.3-37.5c6.6-56.8 54.2-98.3 105.7-92.3l674.7 168.6c14.3 3.6 23.8 18.6 21.9 34.7z" class="s4"/><path id="&lt;Path&gt;" d="m771.7 1635.8l-5.6 48.4c-0.2 1.5-1.5 2.5-3 2.4l-0.9-0.1c-1.5-0.2-2.6-1.6-2.4-3l5.6-48.5c0.2-1.5 1.5-2.5 3-2.4l0.9 0.1c1.5 0.2 2.6 1.6 2.4 3.1z" class="s5"/><path id="&lt;Path&gt;" d="m815 1683.9l-5.6 48.5c-0.2 1.5-1.6 2.5-3.1 2.4l-0.9-0.2c-1.5-0.1-2.5-1.5-2.4-3l5.7-48.4c0.1-1.5 1.5-2.6 3-2.4l0.9 0.1c1.5 0.2 2.6 1.6 2.4 3z" class="s5"/><path id="&lt;Path&gt;" d="m951.9 1635.8l-5.6 48.4c-0.2 1.5-1.5 2.5-3 2.4l-1-0.1c-1.4-0.2-2.5-1.6-2.3-3l5.6-48.5c0.2-1.5 1.5-2.5 3-2.4l0.9 0.1c1.5 0.2 2.6 1.6 2.4 3.1z" class="s5"/><path id="&lt;Path&gt;" d="m970.8 1685.8l-5.7 48.5c-0.1 1.4-1.5 2.5-3 2.3l-0.9-0.1c-1.5-0.1-2.6-1.5-2.4-3l5.6-48.4c0.2-1.5 1.6-2.6 3-2.4l1 0.1c1.5 0.2 2.5 1.5 2.4 3z" class="s5"/><path id="&lt;Path&gt;" d="m1011.6 1621.7l-5.6 48.5c-0.2 1.5-1.6 2.5-3 2.4l-1-0.2c-1.5-0.1-2.5-1.5-2.4-3l5.7-48.4c0.1-1.5 1.5-2.6 3-2.4l0.9 0.1c1.5 0.2 2.6 1.5 2.4 3z" class="s5"/><path id="&lt;Path&gt;" d="m1089.8 1640l-3.5 30.7c-0.2 1.2-1.3 2.1-2.5 1.9l-1.9-0.2c-1.2-0.2-2.1-1.3-2-2.5l3.6-30.7c0.2-1.2 1.3-2 2.5-1.9l1.9 0.2c1.2 0.2 2.1 1.3 1.9 2.5z" class="s5"/><path id="&lt;Path&gt;" d="m1099.7 1684.8l-3.5 30.7c-0.2 1.2-1.3 2.1-2.5 2l-1.9-0.3c-1.2-0.1-2.1-1.2-2-2.4l3.6-30.7c0.1-1.2 1.2-2.1 2.4-2l2 0.3c1.2 0.1 2.1 1.2 1.9 2.4z" class="s5"/><path id="&lt;Path&gt;" d="m1137 1638.3l-4 34.9c-0.2 1.3-1.3 2.2-2.6 2.1l-1.7-0.2c-1.3-0.2-2.2-1.4-2-2.6l4-34.9c0.2-1.3 1.3-2.2 2.6-2.1l1.7 0.2c1.3 0.1 2.2 1.3 2 2.6z" class="s5"/><path id="&lt;Path&gt;" d="m1181.8 1678.1l-4 34.9c-0.2 1.3-1.4 2.2-2.6 2.1l-1.7-0.2c-1.3-0.2-2.2-1.3-2.1-2.6l4.1-34.9c0.1-1.3 1.3-2.2 2.6-2.1l1.7 0.2c1.2 0.2 2.2 1.3 2 2.6z" class="s5"/><path id="&lt;Path&gt;" d="m1216.8 1661l-4.1 34.9c-0.1 1.3-1.3 2.2-2.6 2.1l-1.7-0.2c-1.2-0.2-2.2-1.3-2-2.6l4-34.9c0.2-1.3 1.4-2.2 2.6-2.1l1.7 0.2c1.3 0.2 2.2 1.3 2.1 2.6z" class="s5"/><path id="&lt;Path&gt;" d="m1230.7 1708.1l-4.1 34.9c-0.1 1.3-1.3 2.2-2.6 2l-1.6-0.2c-1.3-0.1-2.2-1.3-2.1-2.6l4.1-34.9c0.1-1.3 1.3-2.2 2.6-2l1.6 0.2c1.3 0.1 2.2 1.3 2.1 2.6z" class="s5"/><path id="&lt;Path&gt;" d="m1196.4 1727.5l-1.8 16.2c-0.2 0.9-1 1.5-1.9 1.4l-3-0.3c-0.9-0.2-1.6-1-1.5-1.9l1.9-16.1c0.1-1 0.9-1.6 1.8-1.5l3.1 0.4c0.9 0.1 1.5 0.9 1.4 1.8z" class="s5"/><path id="&lt;Path&gt;" d="m1167.8 1649l-1.9 16.2c-0.1 0.9-0.9 1.5-1.8 1.4l-3.1-0.3c-0.9-0.1-1.5-0.9-1.4-1.8l1.9-16.2c0.1-0.9 0.9-1.6 1.8-1.5l3 0.4c0.9 0.1 1.6 0.9 1.5 1.8z" class="s5"/><path id="&lt;Path&gt;" d="m1145.3 1703.9l-4 34.9c-0.2 1.3-1.4 2.2-2.6 2.1l-1.7-0.2c-1.3-0.2-2.2-1.3-2.1-2.6l4.1-34.9c0.1-1.3 1.3-2.2 2.6-2.1l1.7 0.2c1.2 0.1 2.2 1.3 2 2.6z" class="s5"/><path id="&lt;Path&gt;" d="m1055.3 1706l-3.6 30.7c-0.1 1.2-1.2 2.1-2.4 1.9l-2-0.2c-1.2-0.1-2.1-1.2-1.9-2.4l3.6-30.7c0.1-1.2 1.2-2.1 2.4-2l1.9 0.3c1.3 0.1 2.1 1.2 2 2.4z" class="s5"/><path id="&lt;Path&gt;" d="m740.1 1664.1l-7.9 67.7c-0.2 1.7-1.8 3-3.5 2.8-1.8-0.2-3-1.8-2.8-3.5l7.8-67.8c0.2-1.7 1.8-3 3.6-2.8 1.7 0.3 3 1.8 2.8 3.6z" class="s5"/><path id="&lt;Path&gt;" d="m808 1580.3l-3.6 31c-0.2 1.2-1.3 2-2.5 1.9l-1.9-0.2c-1.2-0.2-2.1-1.3-1.9-2.5l3.5-30.9c0.2-1.2 1.3-2.1 2.5-1.9l1.9 0.2c1.2 0.1 2.1 1.2 2 2.4z" class="s5"/><path id="&lt;Path&gt;" d="m883.1 1580.3l-3.6 31c-0.2 1.2-1.3 2-2.5 1.9l-1.9-0.2c-1.2-0.2-2.1-1.3-1.9-2.5l3.6-30.9c0.1-1.2 1.2-2.1 2.4-1.9l1.9 0.2c1.2 0.1 2.1 1.2 2 2.4z" class="s5"/><path id="&lt;Path&gt;" d="m850.7 1630.5l-3.6 30.9c-0.2 1.2-1.3 2.1-2.5 2l-1.9-0.3c-1.2-0.1-2.1-1.2-2-2.4l3.6-30.9c0.2-1.3 1.3-2.1 2.5-2l1.9 0.2c1.2 0.2 2.1 1.3 2 2.5z" class="s5"/><path id="&lt;Path&gt;" d="m695 1580.3l-3.6 31c-0.1 1.2-1.2 2-2.4 1.9l-1.9-0.2c-1.2-0.2-2.1-1.3-2-2.5l3.6-30.9c0.2-1.2 1.3-2.1 2.5-1.9l1.9 0.2c1.2 0.1 2.1 1.2 1.9 2.4z" class="s5"/><path id="&lt;Path&gt;" d="m695 1654.5l-3.6 30.9c-0.1 1.2-1.2 2.1-2.4 2l-1.9-0.3c-1.2-0.1-2.1-1.2-2-2.4l3.6-31c0.2-1.2 1.3-2 2.5-1.9l1.9 0.2c1.2 0.2 2.1 1.3 1.9 2.5z" class="s5"/><path id="&lt;Path&gt;" d="m728.4 1597.2l-5.1 43.5c-0.2 1.4-1.5 2.4-2.9 2.3l-1.2-0.2c-1.4-0.1-2.4-1.4-2.2-2.8l5-43.5c0.2-1.4 1.5-2.5 2.9-2.3l1.2 0.2c1.4 0.1 2.4 1.4 2.3 2.8z" class="s5"/><path id="&lt;Path&gt;" d="m762.3 1543.1l-5.1 43.5c-0.1 1.4-1.4 2.4-2.8 2.3l-1.2-0.2c-1.4-0.1-2.5-1.4-2.3-2.8l5.1-43.5c0.1-1.4 1.4-2.5 2.8-2.3l1.2 0.1c1.4 0.2 2.4 1.5 2.3 2.9z" class="s5"/><path id="&lt;Path&gt;" d="m874.9 1676.3l-6 51.4c-0.2 1.5-1.5 2.6-3.1 2.5l-0.7-0.1c-1.6-0.2-2.7-1.6-2.5-3.1l6-51.5c0.2-1.5 1.6-2.6 3.1-2.4l0.8 0.1c1.5 0.1 2.6 1.5 2.4 3.1z" class="s5"/><path id="&lt;Path&gt;" d="m925.1 1594.8l-7.9 67.7c-0.2 1.7-1.8 3-3.5 2.8-1.8-0.2-3-1.8-2.8-3.6l7.8-67.7c0.2-1.7 1.8-3 3.6-2.8 1.7 0.2 3 1.8 2.8 3.6z" class="s5"/></g></g><path id="&lt;Path&gt;" d="m1464.1 812.3c0 33.4-78.1 60.5-174.5 60.5-96.4 0-174.6-27.1-174.6-60.5 0-33.5 78.2-60.5 174.6-60.5 96.4 0 174.5 27 174.5 60.5z" class="s6"/><g id="&lt;Group&gt;"><path id="&lt;Path&gt;" d="m1903.2 1758.3h-349.1v-1125.6h349.1z" class="s7"/><path id="&lt;Path&gt;" d="m1903.2 632.7c0 33.4-78.2 60.5-174.6 60.5-96.4 0-174.5-27.1-174.5-60.5 0-33.5 78.1-60.6 174.5-60.6 96.4 0 174.6 27.1 174.6 60.6z" class="s8"/></g><g id="&lt;Group&gt;"><path id="&lt;Path&gt;" d="m2295.8 1758.3h-287.4v-665.2h287.4z" class="s9"/><path id="&lt;Path&gt;" d="m2295.8 1093.1c0 33.5-64.3 60.6-143.7 60.6-79.4 0-143.7-27.1-143.7-60.6 0-33.4 64.3-60.5 143.7-60.5 79.4 0 143.7 27.1 143.7 60.5z" class="s10"/></g><g id="&lt;Group&gt;"><path id="&lt;Path&gt;" d="m2718.1 1383.7v313.4c0 33.8-27.4 61.2-61.2 61.2h-506.1c-33.8 0-61.2-27.4-61.2-61.2v-58.9c14.4-4.6 26-17.1 26-32.3 0-16.1-8.4-35.1-26-37.1v-181.8c5.5-1.4 10.7-4.5 14.6-8.7 8.2-9 7-23.9-0.5-33.7 11.2-13.5 28.2-22.1 47.1-22.1h506.1c33.8 0 61.2 27.4 61.2 61.2z" class="s11"/><path id="&lt;Path&gt;" d="m2467.1 1371.5v337.7c0 27.1-22 49.1-49.1 49.1h-328.4v-120.1c14.4-4.6 26-17.1 26-32.3 0-16.1-8.4-35.1-26-37.1v-37.1c5.7-0.5 11.3-2.3 16.6-5.1 16.2-8.6 29-26.5 29-46.3 0-23.2-22.4-40.4-45.6-42.1v-51.2c5.5-1.4 10.7-4.5 14.6-8.7 8.2-9 7-23.9-0.5-33.7q-1.4-1.8-3.1-3.3c-3.2-3-7-4.9-11-5.9v-12.9h328.4c27.1 0 49.1 21.9 49.1 49z" class="s12"/><g id="&lt;Group&gt;"><path id="&lt;Path&gt;" d="m2282.3 1491.7c0 19.7-12.8 37.7-29.1 46.2-6.4 3.4-13.3 5.3-20.3 5.3-11.2 0-21.5-4.1-29.3-11q0-0.1 0-0.1c-9.2-8.1-15-20-15-33.2 0-24.5 19.8-49.5 44.3-49.5 24.5 0 49.4 17.8 49.4 42.3z" class="s11"/><path id="&lt;Path&gt;" d="m2274.7 1500.1c0 15.5-9.2 29.8-21.5 37.8-6.4 3.4-13.3 5.3-20.3 5.3-11.2 0-21.5-4.1-29.3-11q0-0.1 0-0.1c-6.2-6.8-10-15.9-10-25.8 0-21.2 17.2-42.9 38.4-42.9 21.2 0 42.7 15.4 42.7 36.7z" class="s13"/></g><g id="&lt;Group&gt;"><path id="&lt;Path&gt;" d="m2151.8 1412.6c-8.1-7.5-10.6-19.5-8-29.4 1-4 2.9-7.6 5.5-10.4 4.3-4.6 9.9-7.3 15.7-7.9q0 0 0 0c6.8-0.7 13.9 1.4 19.3 6.4 10.1 9.3 12.9 27 3.6 37-9.3 10.1-26 13.6-36.1 4.3z" class="s11"/><path id="&lt;Path&gt;" d="m2151.2 1406.3c-6.4-5.9-8.8-15.1-7.4-23.1 1-4 2.9-7.6 5.5-10.4 4.3-4.6 9.9-7.3 15.7-7.9q0 0 0 0c5.2 0.1 10.3 1.9 14.4 5.7 8.7 8 11.1 23.3 3.1 32-8 8.8-22.5 11.8-31.3 3.7z" class="s13"/></g><g id="&lt;Group&gt;"><path id="&lt;Path&gt;" d="m2370.2 1426.1c-8.9 10.3-23.7 13.8-36 11-4.9-1.2-9.4-3.3-13-6.5-5.8-5.1-9.3-11.9-10.2-19q0 0 0-0.1c-1.1-8.3 1.2-17.1 7.2-24 11.1-12.8 32.7-16.8 45.5-5.7 12.7 11.1 17.6 31.6 6.5 44.3z" class="s11"/><path id="&lt;Path&gt;" d="m2362.5 1427.1c-7 8.1-18.3 11.3-28.3 10-4.9-1.2-9.4-3.3-13-6.5-5.8-5.1-9.3-11.9-10.2-19q0 0 0-0.1c-0.2-6.3 2-12.7 6.5-17.9 9.5-11 28.3-14.5 39.3-5 11.1 9.7 15.3 27.4 5.7 38.5z" class="s13"/></g><g id="&lt;Group&gt;"><path id="&lt;Path&gt;" d="m2383.7 1587.3c-6.1 16.2-22.2 27-38.2 29-6.3 0.8-12.6 0.2-18.3-1.9-9.3-3.5-16.4-10.1-20.7-18.2q0 0 0-0.1c-5.1-9.5-6.2-21-2.1-31.9 7.6-20.2 31.7-34.6 51.8-27 20.2 7.6 35.1 29.9 27.5 50.1z" class="s11"/><path id="&lt;Path&gt;" d="m2374.9 1591.8c-4.8 12.8-16.8 21.7-29.4 24.5-6.3 0.8-12.6 0.2-18.3-1.9-9.3-3.5-16.4-10.1-20.7-18.2q0 0 0-0.1c-3-7.5-3.3-16.1-0.2-24.3 6.5-17.4 27.4-29.9 44.8-23.4 17.5 6.6 30.4 26 23.8 43.4z" class="s13"/></g><g id="&lt;Group&gt;"><path id="&lt;Path&gt;" d="m2322.3 1676.7c2.2 10.3-2.5 21.1-10 27.4-3 2.4-6.4 4.2-10 5-5.9 1.3-11.7 0.2-16.6-2.5q0 0 0 0c-5.7-3.2-10.1-8.8-11.5-15.7-2.8-12.8 4.8-28.1 17.6-30.8 12.8-2.7 27.7 3.8 30.5 16.6z" class="s11"/><path id="&lt;Path&gt;" d="m2319.3 1681.9c1.7 8.1-1.5 16.6-7 22.2-3 2.4-6.4 4.2-10 5-5.9 1.3-11.7 0.2-16.6-2.5q0 0 0 0c-4-2.9-7-7.2-8.1-12.4-2.4-11.1 4.2-24.3 15.3-26.7 11-2.4 24 3.3 26.4 14.4z" class="s13"/></g><g id="&lt;Group&gt;"><path id="&lt;Path&gt;" d="m2435.6 1446.5c6.4 6.5 8 16.7 5.3 24.8-1 3.2-2.7 6.1-5 8.4-3.8 3.7-8.6 5.6-13.4 5.8q0 0 0 0c-5.7 0.3-11.5-1.8-15.8-6.2-8-8.2-9.5-23-1.3-30.9 8.1-8 22.2-10.1 30.2-1.9z" class="s11"/><path id="&lt;Path&gt;" d="m2435.8 1451.7c5 5.2 6.6 12.9 5.1 19.6-1 3.2-2.7 6.1-5 8.4-3.8 3.7-8.6 5.6-13.4 5.8q0 0 0 0c-4.3-0.2-8.5-2-11.8-5.3-6.9-7.1-8.2-19.9-1.1-26.8 7.1-6.9 19.3-8.8 26.2-1.7z" class="s13"/></g><g id="&lt;Group&gt;"><path id="&lt;Path&gt;" d="m2171.9 1720.8c-17.3 1.5-34-8.3-42.7-21.9-3.4-5.4-5.6-11.3-6.2-17.4-0.8-9.9 2.1-19.2 7.5-26.5q0.1 0 0.1-0.1c6.4-8.6 16.4-14.6 27.9-15.6 21.5-1.8 44.9 13.7 46.7 35.1 1.9 21.5-11.9 44.6-33.3 46.4z" class="s11"/><path id="&lt;Path&gt;" d="m2164 1714.8c-13.6 1.2-26.8-5.8-34.8-15.9-3.4-5.4-5.6-11.3-6.2-17.4-0.8-9.9 2.1-19.2 7.5-26.5q0.1 0 0.1-0.1c5.5-5.9 13.1-9.9 21.8-10.6 18.6-1.6 38.9 11.8 40.5 30.4 1.6 18.5-10.3 38.5-28.9 40.1z" class="s13"/></g></g><g id="&lt;Group&gt;"><path id="&lt;Path&gt;" d="m1790.3 1249.4c-55.1-83.2-77.1-263.1 6.2-318.2 83.2-55.1 240.2 35.4 295.3 118.7 55.1 83.2 32.3 195.4-51 250.5-83.2 55.1-195.4 32.3-250.5-51z" class="s14"/><path id="&lt;Path&gt;" d="m1853.8 1200.8c-30.7-46.5-18-109.2 28.5-139.9 46.5-30.8 109.1-18.1 139.9 28.4 30.8 46.5 18 109.2-28.5 139.9-46.5 30.8-109.1 18.1-139.9-28.4z" class="s4"/></g><g id="&lt;Group&gt;"><path id="&lt;Compound Path&gt;" d="m1697.9 369.3h-20.8v20.8h-3.7v-44.6h27.6v3.2h-23.9v17.3h20.8z" class="s15"/><path id="&lt;Compound Path&gt;" fill-rule="evenodd" d="m1727.6 390.1q-0.3-0.9-0.5-2.1-0.1-1.3-0.2-2.6-0.8 1.1-2 2.1-1.1 0.9-2.5 1.6-1.4 0.7-3.1 1.1-1.7 0.5-3.6 0.5-2.4 0-4.4-0.7-2-0.7-3.4-2-1.4-1.3-2.1-3-0.8-1.7-0.8-3.7 0-2.4 1-4.4 1.1-1.9 3-3.3 2-1.3 4.8-2.1 2.8-0.7 6.3-0.7h6.8v-3.7q0-3.6-2.2-5.6-2.2-2.1-6.4-2.1-1.9 0-3.5 0.6-1.7 0.5-2.8 1.4-1.2 0.9-1.9 2.1-0.6 1.2-0.6 2.6h-3.7q0-1.9 0.9-3.6 0.9-1.8 2.6-3.1 1.7-1.4 4-2.2 2.3-0.8 5.2-0.8 2.6 0 4.8 0.6 2.3 0.7 3.9 2 1.5 1.4 2.4 3.4 0.9 2 0.9 4.7v16q0 0.9 0.1 1.8 0 0.9 0.2 1.8 0.1 0.9 0.3 1.6 0.2 0.8 0.4 1.4v0.4zm-11.5-2.7q2 0 3.7-0.5 1.7-0.5 3.1-1.4 1.4-0.9 2.4-2 1-1.2 1.6-2.6v-7.3h-6.3q-2.8 0-5 0.5-2.2 0.5-3.8 1.5-1.5 0.9-2.3 2.3-0.8 1.4-0.8 3.1 0 1.3 0.5 2.5 0.5 1.2 1.5 2 1 0.9 2.3 1.4 1.4 0.5 3.1 0.5z" class="s15"/><path id="&lt;Compound Path&gt;" d="m1746 348.5v8.5h6.8v3h-6.8v22q0 1.8 0.3 2.8 0.4 1.1 1 1.7 0.6 0.6 1.3 0.8 0.8 0.2 1.7 0.2 0.8 0 1.6-0.1 0.7-0.2 1.3-0.2l0.2 3q-0.7 0.2-1.8 0.3-1.1 0.2-2.1 0.2-1.6 0-2.9-0.4-1.3-0.5-2.3-1.5-0.9-1-1.5-2.6-0.5-1.7-0.5-4.2v-22h-6.1v-3h6.1v-8.5z" class="s15"/><path id="&lt;Compound Path&gt;" d="m1780.2 381.6q0-1-0.3-2-0.4-1-1.3-1.9-1-0.9-2.7-1.7-1.8-0.7-4.5-1.3-2.8-0.6-4.9-1.4-2.2-0.7-3.7-1.8-1.5-1.1-2.2-2.6-0.8-1.5-0.8-3.5 0-1.9 0.8-3.5 0.8-1.7 2.4-2.9 1.5-1.2 3.6-1.9 2.2-0.7 4.9-0.7 2.8 0 5.1 0.7 2.3 0.8 3.9 2.1 1.6 1.3 2.4 3.1 0.8 1.8 0.8 3.9h-3.7q0-1.3-0.5-2.5-0.6-1.2-1.7-2.1-1.1-1-2.7-1.5-1.6-0.6-3.6-0.6-2.2 0-3.7 0.5-1.5 0.5-2.5 1.3-0.9 0.9-1.4 1.9-0.4 1-0.4 2.1 0 1.1 0.3 2 0.4 0.9 1.3 1.6 1 0.8 2.7 1.5 1.7 0.6 4.5 1.3 3 0.7 5.2 1.5 2.2 0.9 3.6 2.1 1.4 1.1 2.1 2.7 0.7 1.5 0.7 3.5 0 2-0.9 3.7-0.8 1.7-2.4 2.9-1.6 1.2-3.9 1.9-2.2 0.7-5 0.7-3.2 0-5.6-0.8-2.4-0.8-4.1-2.2-1.6-1.4-2.4-3.2-0.9-1.8-0.9-3.7h3.7q0.1 1.9 1 3.2 0.9 1.3 2.2 2.1 1.3 0.8 2.9 1.1 1.6 0.4 3.2 0.4 2.1 0 3.7-0.5 1.5-0.5 2.6-1.3 1.1-0.8 1.7-1.9 0.5-1.1 0.5-2.3z" class="s15"/></g><g id="&lt;Group&gt;"><path id="&lt;Compound Path&gt;" d="m1659.3 446.8h-37.7v-15.2h57.8v13.3l-36 67h-20z" class="s15"/><path id="&lt;Compound Path&gt;" d="m1686.9 501.2l10.7-12.7c6 5.5 12 8.7 19.1 8.7 8.3 0 13.4-4 13.4-11.3 0-6.9-5.8-10.9-14.2-10.9-5 0-9.6 1.3-13.4 2.9l-10.2-6.7 2.3-39.6h49.3v15.5h-34.2l-0.9 13.9c3.2-0.8 6.1-1.4 10.6-1.4 15.6 0 28.1 7.6 28.1 25.9 0 17-12.1 27.8-30.6 27.8-12.8 0-22.2-4.6-30-12.1z" class="s15"/><path id="&lt;Compound Path&gt;" fill-rule="evenodd" d="m1758 458.7c0-10 6.9-18.1 17.2-18.1 10.2 0 17.1 8 17.1 18.1 0 9.9-7 18.1-17.3 18.1-10.2 0-17-8-17-18.1zm58.6-17.3h12l-51.6 70.7h-12zm-34.9 17.2c0-4.7-2.6-8.8-6.6-8.8-4.3 0-6.5 4-6.5 8.8 0 4.8 2.6 8.9 6.7 8.9 4.2 0 6.4-4.1 6.4-8.9zm19.7 36.2c0-10 7-18.1 17.3-18.1 10.1 0 17 8 17 18.1 0 9.9-7 18-17.2 18-10.2 0-17.1-7.9-17.1-18zm23.7 0c0-4.8-2.6-8.9-6.6-8.9-4.3 0-6.5 4-6.5 8.9 0 4.7 2.6 8.8 6.7 8.8 4.2 0 6.4-4.1 6.4-8.8z" class="s15"/></g><g id="&lt;Group&gt;"><path id="&lt;Compound Path&gt;" fill-rule="evenodd" d="m1191.9 546.2v18.1h-3.8v-44.5h15.2q3.7 0 6.5 1 2.8 1 4.7 2.7 1.8 1.8 2.8 4.2 1 2.5 1 5.4 0 3.1-1 5.5-1 2.5-2.8 4.1-1.9 1.7-4.7 2.6-2.8 0.9-6.5 0.9zm0-3.2h11.4q3 0 5.1-0.7 2.1-0.8 3.5-2.1 1.3-1.3 2-3.1 0.6-1.8 0.6-3.9 0-2.1-0.6-3.9-0.7-1.9-2-3.3-1.4-1.4-3.5-2.2-2.1-0.8-5.1-0.8h-11.4z" class="s15"/><path id="&lt;Compound Path&gt;" d="m1241.1 534.4q-1.1-0.2-2.5-0.2-1.8 0-3.3 0.5-1.5 0.6-2.7 1.5-1.1 1-1.9 2.4-0.8 1.4-1.2 3v22.7h-3.7v-33.1h3.6l0.1 5.3q1.3-2.7 3.6-4.3 2.3-1.6 5.7-1.6 0.7 0 1.4 0.2 0.7 0.1 1 0.2z" class="s15"/><path id="&lt;Compound Path&gt;" fill-rule="evenodd" d="m1244.3 547.3q0-3.6 1-6.7 1.1-3 3-5.2 1.9-2.3 4.7-3.5 2.7-1.3 6-1.3 3.4 0 6.1 1.3 2.8 1.2 4.7 3.5 1.9 2.2 3 5.2 1 3.1 1 6.7v1q0 3.6-1 6.7-1.1 3-3 5.3-1.9 2.2-4.6 3.4-2.8 1.3-6.1 1.3-3.4 0-6.1-1.3-2.7-1.2-4.7-3.4-1.9-2.3-3-5.3-1-3.1-1-6.7zm3.6 1q0 2.7 0.8 5.2 0.7 2.5 2.1 4.3 1.4 1.9 3.5 3 2.1 1.1 4.8 1.1 2.7 0 4.7-1.1 2.1-1.1 3.5-3 1.4-1.8 2.1-4.3 0.8-2.5 0.8-5.2v-1q0-2.6-0.8-5.1-0.7-2.5-2.1-4.3-1.4-1.9-3.5-3-2.1-1.1-4.8-1.1-2.6 0-4.7 1.1-2.1 1.1-3.5 3-1.4 1.8-2.1 4.3-0.8 2.5-0.8 5.1z" class="s15"/><path id="&lt;Compound Path&gt;" d="m1287.1 522.8v8.4h6.8v3h-6.8v22.1q0 1.7 0.3 2.8 0.4 1 1 1.6 0.6 0.6 1.3 0.8 0.8 0.2 1.7 0.2 0.8 0 1.6-0.1 0.7-0.1 1.3-0.2l0.2 3q-0.7 0.3-1.8 0.4-1 0.2-2.1 0.2-1.6 0-2.9-0.5-1.3-0.4-2.3-1.4-0.9-1-1.5-2.7-0.5-1.6-0.5-4.1v-22.1h-6.1v-3h6.1v-8.4z" class="s15"/><path id="&lt;Compound Path&gt;" fill-rule="evenodd" d="m1314.3 565q-3.2 0-5.9-1.3-2.8-1.2-4.7-3.3-2-2.2-3.1-5.1-1.1-3-1.1-6.6v-1.3q0-3.8 1.1-6.9 1.2-3.1 3.1-5.3 2-2.2 4.5-3.4 2.6-1.2 5.4-1.2 3.2 0 5.6 1.2 2.5 1.1 4.2 3.1 1.6 2 2.5 4.8 0.8 2.8 0.8 6.1v2.2h-23.6v0.7q0 2.8 0.8 5.2 0.9 2.4 2.4 4.1 1.5 1.8 3.6 2.8 2 1.1 4.6 1.1 2.9 0 5.2-1.1 2.2-1.1 4-3.4l2.3 1.7q-0.8 1.2-1.9 2.3-1.1 1-2.5 1.8-1.4 0.8-3.2 1.3-1.9 0.5-4.1 0.5zm-0.7-31.2q-2 0-3.8 0.7-1.8 0.8-3.1 2.3-1.4 1.5-2.3 3.5-0.9 2.1-1.2 4.6h19.9v-0.4q-0.1-2.1-0.7-4-0.6-1.9-1.8-3.4-1.1-1.5-2.9-2.4-1.7-0.9-4.1-0.9z" class="s15"/><path id="&lt;Compound Path&gt;" d="m1333.6 521.7q0-1.1 0.7-1.8 0.7-0.7 1.9-0.7 1.1 0 1.8 0.7 0.7 0.7 0.7 1.8 0 1-0.7 1.7-0.7 0.7-1.8 0.7-1.2 0-1.9-0.7-0.7-0.7-0.7-1.7zm4.4 42.6h-3.7v-33.1h3.7z" class="s15"/><path id="&lt;Compound Path&gt;" d="m1351.4 531.2l0.1 5.7q0.9-1.4 2-2.6 1.1-1.1 2.5-2 1.4-0.8 2.9-1.2 1.6-0.5 3.4-0.5 2.5 0 4.4 0.7 2 0.7 3.4 2.1 1.3 1.5 2 3.8 0.8 2.3 0.8 5.6v21.5h-3.7v-21.5q0-2.6-0.5-4.3-0.6-1.7-1.6-2.8-1-1-2.5-1.4-1.4-0.5-3.2-0.5-1.9 0-3.5 0.7-1.6 0.6-2.8 1.7-1.3 1.1-2.2 2.6-0.8 1.4-1.4 2.9v22.6h-3.6v-33.1z" class="s15"/></g><g id="&lt;Group&gt;"><path id="&lt;Compound Path&gt;" d="m1163.8 678.8l27.2-22.3c10.1-8.4 14.1-12.8 14.1-19.5 0-6.9-4.6-10.6-11-10.6-6.3 0-10.6 3.4-16.6 10.9l-12.6-10.1c8-11 15.8-16.9 30.4-16.9 16.9 0 28.1 9.9 28.1 25.4 0 13.6-7 20.4-21.5 31.5l-13.3 10.3h35.6v15.5h-60.4z" class="s15"/><path id="&lt;Compound Path&gt;" fill-rule="evenodd" d="m1237 652.2c0-23.6 14.7-42.2 36.3-42.2 21.6 0 36.1 18.3 36.1 42.2 0 23.7-14.5 42.2-36.3 42.2-21.8 0-36.1-18.3-36.1-42.2zm54 0c0-14.8-7.2-26-17.9-26-10.7 0-17.7 10.9-17.7 26 0 14.9 7.1 26 17.9 26 10.9 0 17.7-11 17.7-26z" class="s15"/><path id="&lt;Compound Path&gt;" fill-rule="evenodd" d="m1319.4 639.8c0-10 7-18.1 17.3-18.1 10.2 0 17.1 8 17.1 18.1 0 9.9-7 18.1-17.3 18.1-10.2 0-17.1-8-17.1-18.1zm58.7-17.3h12l-51.6 70.7h-12zm-34.9 17.2c0-4.7-2.6-8.8-6.7-8.8-4.2 0-6.4 4-6.4 8.8 0 4.8 2.6 8.9 6.6 8.9 4.3 0 6.5-4.1 6.5-8.9zm19.7 36.2c0-10 6.9-18.1 17.2-18.1 10.2 0 17.1 8 17.1 18.1 0 9.9-7 18-17.3 18-10.2 0-17-7.9-17-18zm23.7 0c0-4.8-2.6-8.9-6.7-8.9-4.2 0-6.4 4-6.4 8.9 0 4.7 2.6 8.8 6.6 8.8 4.3 0 6.5-4.1 6.5-8.8z" class="s15"/></g><g id="&lt;Group&gt;"><path id="&lt;Compound Path&gt;" d="m2101.1 855.2q-0.4 3.4-1.6 6.1-1.2 2.7-3.3 4.6-2.1 1.8-4.9 2.8-2.9 1-6.6 1-3.8 0-6.9-1.4-3.1-1.4-5.3-4.1-2.2-2.6-3.4-6.3-1.2-3.7-1.2-8.2v-5.6q0-4.5 1.2-8.2 1.2-3.8 3.4-6.4 2.3-2.6 5.4-4.1 3.2-1.4 7.1-1.4 3.5 0 6.4 1 2.8 0.9 4.8 2.8 2.1 1.9 3.3 4.6 1.3 2.7 1.6 6.1h-3.8q-0.3-2.7-1.2-4.8-0.9-2.1-2.4-3.5-1.5-1.5-3.7-2.2-2.2-0.8-5-0.8-3.1 0-5.6 1.2-2.4 1.2-4.2 3.4-1.7 2.2-2.6 5.3-0.9 3.1-0.9 6.9v5.7q0 3.6 0.9 6.7 0.8 3.1 2.5 5.4 1.6 2.2 4.1 3.5 2.4 1.3 5.5 1.3 5.9 0 8.9-2.9 3-2.8 3.7-8.5z" class="s15"/><path id="&lt;Compound Path&gt;" fill-rule="evenodd" d="m2130.3 869.1q-0.3-0.8-0.5-2.1-0.2-1.2-0.2-2.5-0.9 1.1-2 2-1.1 1-2.5 1.7-1.4 0.7-3.1 1.1-1.7 0.4-3.7 0.4-2.4 0-4.3-0.7-2-0.7-3.4-1.9-1.4-1.3-2.2-3-0.7-1.7-0.7-3.8 0-2.4 1-4.3 1-2 3-3.3 2-1.4 4.8-2.1 2.8-0.7 6.2-0.7h6.8v-3.8q0-3.5-2.1-5.6-2.2-2-6.4-2-2 0-3.6 0.5-1.6 0.5-2.8 1.5-1.2 0.9-1.8 2.1-0.7 1.2-0.7 2.6l-3.6-0.1q0-1.8 0.9-3.6 0.9-1.7 2.6-3.1 1.6-1.3 4-2.2 2.3-0.8 5.2-0.8 2.6 0 4.8 0.7 2.2 0.7 3.8 2 1.6 1.4 2.5 3.4 0.9 2 0.9 4.7v16q0 0.9 0 1.8 0.1 0.9 0.2 1.8 0.2 0.8 0.4 1.6 0.1 0.8 0.4 1.4v0.3zm-11.5-2.6q2 0 3.7-0.5 1.7-0.5 3-1.4 1.4-0.9 2.4-2.1 1-1.1 1.7-2.5v-7.3h-6.3q-2.8 0-5 0.5-2.3 0.5-3.8 1.5-1.5 0.9-2.3 2.3-0.8 1.3-0.8 3 0 1.4 0.5 2.6 0.5 1.1 1.5 2 0.9 0.9 2.3 1.4 1.4 0.5 3.1 0.5z" class="s15"/><path id="&lt;Compound Path&gt;" d="m2158.2 839.1q-1.1-0.2-2.5-0.2-1.8 0-3.3 0.6-1.5 0.5-2.7 1.5-1.1 1-1.9 2.4-0.8 1.3-1.2 3v22.7h-3.7v-33.1h3.6l0.1 5.3q1.3-2.7 3.6-4.3 2.3-1.6 5.7-1.6 0.7 0 1.4 0.1 0.7 0.2 1 0.3z" class="s15"/><path id="&lt;Compound Path&gt;" fill-rule="evenodd" d="m2190.6 852.9q0 3.7-0.8 6.8-0.8 3.1-2.5 5.3-1.6 2.3-3.9 3.5-2.4 1.2-5.4 1.2-3.6 0-6.2-1.3-2.6-1.4-4.2-3.8l-0.2 4.5h-3.4v-47h3.6v18.7q1.7-2.5 4.2-4 2.5-1.4 6.2-1.4 3 0 5.3 1.2 2.4 1.2 4 3.4 1.7 2.2 2.5 5.3 0.8 3.1 0.8 7zm-3.6-0.7q0-2.8-0.6-5.4-0.5-2.5-1.7-4.3-1.2-1.8-3-2.9-1.8-1-4.4-1-2.1 0-3.7 0.5-1.6 0.6-2.7 1.5-1.2 1-2 2.2-0.8 1.2-1.3 2.5v15q0.6 1.3 1.5 2.4 0.8 1.2 2 2 1.2 0.9 2.8 1.3 1.5 0.5 3.4 0.5 2.5 0 4.3-1 1.9-1.1 3.1-2.9 1.1-1.8 1.7-4.3 0.6-2.5 0.6-5.4z" class="s15"/><path id="&lt;Compound Path&gt;" d="m2218.5 860.7q0-1-0.3-2-0.4-1-1.3-1.9-1-0.9-2.7-1.7-1.7-0.8-4.5-1.4-2.7-0.5-4.9-1.3-2.2-0.8-3.6-1.9-1.5-1-2.3-2.5-0.8-1.5-0.8-3.6 0-1.8 0.9-3.4 0.8-1.7 2.3-2.9 1.5-1.2 3.6-2 2.2-0.7 4.9-0.7 2.9 0 5.1 0.8 2.3 0.7 3.9 2 1.6 1.4 2.4 3.2 0.8 1.8 0.8 3.9h-3.6q0-1.3-0.6-2.5-0.6-1.2-1.7-2.2-1-0.9-2.6-1.5-1.7-0.6-3.7-0.6-2.1 0-3.7 0.6-1.5 0.5-2.4 1.3-1 0.8-1.4 1.9-0.5 1-0.5 2 0 1.1 0.3 2 0.4 0.9 1.3 1.7 1 0.8 2.7 1.4 1.8 0.7 4.6 1.3 2.9 0.7 5.1 1.6 2.2 0.9 3.6 2 1.4 1.2 2.1 2.7 0.7 1.5 0.7 3.5 0 2.1-0.8 3.8-0.9 1.7-2.5 2.9-1.6 1.2-3.8 1.9-2.3 0.6-5.1 0.6-3.1 0-5.6-0.8-2.4-0.8-4-2.2-1.7-1.3-2.5-3.1-0.9-1.8-0.9-3.7h3.7q0.1 1.9 1 3.2 0.9 1.3 2.2 2.1 1.3 0.8 2.9 1.1 1.6 0.3 3.2 0.3 2.1 0 3.7-0.4 1.6-0.5 2.7-1.4 1-0.8 1.6-1.9 0.5-1 0.5-2.2z" class="s15"/></g><g id="&lt;Group&gt;"><path id="&lt;Compound Path&gt;" d="m2068.8 974l11.3-13.5c6.5 5.8 12.8 9.3 20.4 9.3 8.8 0 14.2-4.3 14.2-12.1 0-7.3-6.2-11.6-15.1-11.6-5.3 0-10.2 1.5-14.2 3.2l-10.9-7.2 2.5-42h52.4v16.4h-36.4l-0.9 14.8c3.4-0.9 6.4-1.5 11.2-1.5 16.6 0 29.8 8 29.8 27.5 0 18.1-12.8 29.5-32.4 29.5-13.6 0-23.6-4.9-31.9-12.8z" class="s15"/><path id="&lt;Compound Path&gt;" fill-rule="evenodd" d="m2143.6 932.2c0-10 7-18.1 17.3-18.1 10.2 0 17 8 17 18.1 0 9.9-6.9 18.1-17.2 18.1-10.2 0-17.1-8-17.1-18.1zm58.7-17.2h12l-51.6 70.6h-12zm-34.9 17.3c0-4.8-2.6-8.9-6.7-8.9-4.2 0-6.4 4-6.4 8.9 0 4.7 2.6 8.8 6.6 8.8 4.3 0 6.5-4.1 6.5-8.8zm19.7 36.1c0-10 6.9-18.1 17.2-18.1 10.2 0 17.1 8 17.1 18.1 0 9.9-7 18.1-17.3 18.1-10.2 0-17-8-17-18.1zm23.7 0c0-4.7-2.7-8.9-6.7-8.9-4.2 0-6.4 4-6.4 8.9 0 4.7 2.6 8.9 6.6 8.9 4.3 0 6.5-4.2 6.5-8.9z" class="s15"/></g><g id="&lt;Group&gt;"><path id="&lt;Path&gt;" d="m2707.6 1131.9c-26.1 60.9-70.8 131.1-132.1 152.6-4.5 1.6-9.3 2.3-14.1 1.8-8.7-0.9-17-3.7-22.8-8-8-5.9-11.4-14.7-5.2-25.9 32.7-59 29-120.8-6-131.2-25.3-7.5-66.9 41.3-67.8 106.6-0.2 15.1-11.2 22.8-25.5 21.7-8.7-0.6-18.7-4.6-28.1-12.2q-1.3-1.1-2.2-2.4c-33.8-51.2-38.7-132.9-34.6-200.7 5.1-86.1 75.4-181.7 179.9-181.7 16-0.1 40.7-2.5 51.9 0.6 9.9 2.7 31.2 17.5 44.7 25.1 99.4 55.3 95.4 176 61.9 253.7z" class="s16"/><path id="&lt;Path&gt;" d="m2720.4 1036q0 0.7 0 1.4c-0.1 33.6-8.1 67.2-20.2 95.4q-4.3 9.9-9.2 20.1 0 0 0 0-0.6 1.2-1.2 2.4c-9.9 20.1-21.8 40.3-35.6 58.7v0.1q-0.9 1.2-1.8 2.3c-5 6.5-10.2 12.7-15.6 18.6q-1.9 2-3.8 4l-0.1 0.1c-17.4 18-37.3 32.4-59.3 40.2-4.7 1.7-9.6 2.3-14.5 1.8-8.2-0.9-15.9-3.5-21.3-7.6-7.7-5.7-11-14.2-5.1-24.9 31.5-56.6 27.9-116.1-5.7-126.1-24.3-7.2-64.3 39.7-65.1 102.4-0.2 14.5-10.8 21.9-24.5 21-6.4-0.5-13.5-2.9-20.5-7.2-5-3-9-7.3-12-12.3-9.8-16.5-16.9-35.8-21.7-56.6 2.4 4.9 6.6 13.1 12.3 21 8.7 11.9 18 19.3 27.3 21.9q5.5 1.5 11 0.8c10.7-1.4 20.7-11.4 29.6-29.7 6.6-13.5 10.2-26.8 10.3-26.9l-1.9-0.5c-0.2 0.5-14.3 51.9-38.2 55.1-29.8 4-50.4-46.6-50.6-47.1l-0.9 0.4q-2.5-11.8-4.2-24.2c-0.1-0.6-0.2-1.2-0.3-1.9q0 0 0.1 0c-3-22.3-4-45.3-3.8-67.7 0-0.4 0-0.9 0-1.3 0.1-10.5 0.5-20.7 1.1-30.7 2-33 13.7-66.8 33.5-95.6q0.4-0.5 0.8-1.1c15.5-22.2 35.9-41.2 60.2-54.4 0.7-0.4 1.4-0.7 2.1-1.1 6.9-3.6 14.1-6.7 21.6-9.3q1.4-0.5 2.9-0.9c2.8-1 5.7-1.8 8.6-2.6q0 0 0 0c26.9-7 57.3-7.3 90.3 1.8 36.9 10.2 64.3 26.9 83.8 47.6q0 0 0 0 3.8 4.1 7.2 8.3 0.8 0.9 1.6 1.9c4.6 6 8.7 12.2 12.3 18.6q0.4 0.7 0.7 1.3c13.8 25.4 19.7 54 19.8 82.5z" class="s4"/><path id="&lt;Path&gt;" d="m2538.6 1278.3c-9-5.2-14.6-19.9-7.6-32 32.5-56.1 29.5-111.3-4.2-121.3-24.3-7.2-64.1 37.2-64.9 99.9-0.2 14.5-10 27.8-32.1 24.1l7.6-3.2c0 0 12.7-1.9 16.5-15.3 3.3-11.9 6.7-135.4 74.9-118.1 65.8 16.6 28.9 97.2 20.7 111.9-8.2 14.8-16.5 37.2-10.9 54z" class="s17"/><g id="&lt;Group&gt;" style="opacity:.5"><path id="&lt;Path&gt;" d="m2537.2 1047l-1.9-0.3c0.1-0.6 9.2-69-9.2-100.5-20.1-34.6-47.7-53-56.6-58.3 0.7-0.4 1.4-0.7 2.1-1.1 9.9 6.1 36.6 24.7 56.3 58.4 7.8 13.5 11.8 34.7 11.8 63.2-0.1 21.1-2.4 38.4-2.5 38.6z" class="s14"/></g><g id="&lt;Group&gt;" style="opacity:.5"><path id="&lt;Path&gt;" d="m2700.6 953.5l-0.3 0.9-1.4-0.4c-81.3-22.4-130.2 94.8-130.7 96l-1.9-0.8c0.2-0.3 12.7-30.6 35.4-57.5 29.7-35.4 63.5-49 97.8-39.6l0.4 0.1q0.4 0.7 0.7 1.3z" class="s14"/></g><g id="&lt;Group&gt;" style="opacity:.5"><path id="&lt;Path&gt;" d="m2528.8 1044.5l-2 0.1c0-0.7-3-72.1-35.7-90.2-32.8-18.1-81.9-10-82.4-10l-0.2-1c0.3-0.3 0.5-0.7 0.8-1.1 7.1-1 51.9-6.7 82.8 10.4 14.2 7.8 24.7 25.7 31.2 53.1 4.8 20.3 5.5 38.5 5.5 38.7z" class="s14"/></g><g id="&lt;Group&gt;" style="opacity:.5"><path id="&lt;Path&gt;" d="m2720.4 1037.4l-0.7 0.7c-19-17.4-40.5-25.4-64-23.6-45.9 3.4-83.2 42.3-83.5 42.7l-1.6-1.2c0.2-0.3 35.7-37.7 80.9-43.1 25.4-3 48.5 4.8 68.9 23.1q0 0.7 0 1.4z" class="s14"/></g><g id="&lt;Group&gt;" style="opacity:.5"><path id="&lt;Path&gt;" d="m2517.9 1059.6c-20.1-18.8-47.9-21.9-70.3-24.4-18.5-2-33.1-3.7-37-13.4-4.4-11.2-0.8-25.7 8.7-35.4 7.1-7.2 23.3-17.5 52.8-6.2 48.2 18.4 50.5 71 50.5 71.5l-2 0.1c0-0.5-2.3-51.8-49.2-69.8-28.4-10.9-43.9-1-50.7 5.8-8.9 9-12.3 22.9-8.2 33.2 3.4 8.7 17.5 10.3 35.3 12.2 22.7 2.5 50.9 5.6 71.4 25z" class="s14"/></g><g id="&lt;Group&gt;" style="opacity:.5"><path id="&lt;Path&gt;" d="m2661.7 1100.1c-6.3-1.7-13.6-5.2-21.7-9-19.2-9.1-43.1-20.4-70.1-16.4l-0.3-2c27.6-4.1 51.8 7.4 71.3 16.6 15.6 7.4 28 13.3 36 8 8.4-5.5 16-16.4 14-28.1-1.5-8.7-9-20.5-36-27.3-48.8-12-81.8 26.8-82.1 27.2l-1.5-1.2c0.3-0.4 34-40.3 84.1-27.9 28.1 7 35.9 19.5 37.5 28.9 2.1 12.6-6 24.2-14.9 30.1-4.5 2.9-9.9 2.9-16.3 1.1z" class="s14"/></g><g id="&lt;Group&gt;" style="opacity:.5"><path id="&lt;Path&gt;" d="m2521.5 1068.1l-0.8 1.8c-1-0.4-98.7-41.3-146.2 1.8l-0.6-0.7q0-0.7 0-1.3c48.6-43 146.6-2.1 147.6-1.6z" class="s14"/></g><g id="&lt;Group&gt;" style="opacity:.5"><path id="&lt;Path&gt;" d="m2520.7 1076.4c-1.1-0.1-108.5-14.9-141.9 64.6l-0.9-0.4c-0.1-0.6-0.2-1.2-0.3-1.9q0 0 0.1 0c34.6-79.2 142.2-64.4 143.3-64.2z" class="s14"/></g><g id="&lt;Group&gt;" style="opacity:.5"><path id="&lt;Path&gt;" d="m2428.7 1168.1c-3.7-1.1-7-4-9-8.2-4.1-8.4-3.9-23.3 8.6-40 26.2-35.1 96.4-34.8 97.1-34.8v2c-0.7 0-69.9-0.3-95.5 34-12 16-12.2 30.1-8.4 37.9 2.2 4.6 5.8 7.3 9.9 7.5 5 0.1 9.8-3.6 13.7-10.4 15.1-27.1 56.3-64.9 88.9-64.8v2c-31.9-0.1-72.3 37.1-87.2 63.8-4.2 7.5-9.7 11.5-15.5 11.4q-1.3-0.1-2.6-0.4z" class="s14"/></g><g id="&lt;Group&gt;" style="opacity:.5"><path id="&lt;Path&gt;" d="m2687.6 933.6l-0.5 0.9c-16.9-9.6-37.4 2.3-59.2 15-4.1 2.3-8.3 4.7-12.4 7-12.5 6.9-24.9 8.9-35.8 5.8q-1.3-0.3-2.5-0.8c-13.4-4.7-24.1-16.6-31.8-35.5-12.2-29.4-40.4-43.7-52.2-48.5q1.4-0.5 2.9-0.9c13 5.6 39.4 20.3 51.1 48.7 7.5 18.3 17.8 29.9 30.6 34.3 11.1 3.9 23.8 2.3 36.8-4.8 4.1-2.3 8.2-4.7 12.3-7 21.5-12.5 41.8-24.2 59.1-16.1q0.8 0.9 1.6 1.9z" class="s14"/></g><g id="&lt;Group&gt;" style="opacity:.5"><path id="&lt;Path&gt;" d="m2691 1152.9q0 0 0 0-0.6 1.2-1.2 2.4c-21.7-58.2-122.2-72.6-123.2-72.7l0.3-2c1 0.1 100.6 14.4 124.1 72.3z" class="s14"/></g><g id="&lt;Group&gt;" style="opacity:.5"><path id="&lt;Path&gt;" d="m2654.2 1214v0.1q-0.9 1.2-1.8 2.3h-0.5c12.1-85.4-87.6-127.8-88.7-128.2l0.8-1.9c1 0.5 100.2 42.6 90.2 127.7z" class="s14"/></g><g id="&lt;Group&gt;" style="opacity:.5"><path id="&lt;Path&gt;" d="m2595.2 1214q-1.3-0.3-2.4-1c-5.1-2.8-7.7-9.1-7.5-17.7 0.9-30.6-14.8-83.2-42.2-99.5l1-1.7c28.1 16.7 44.1 70.2 43.2 101.2-0.2 7.9 2.1 13.5 6.4 16 3.6 2 8.1 1.5 12.3-1.3 7.3-4.8 14.4-17 12.3-37-4.4-42.5-64-77.7-64.6-78.1l1-1.7c0.6 0.3 61.1 36.1 65.6 79.6 2.1 20.8-5.4 33.7-13.2 38.8-3.9 2.6-8.2 3.4-11.9 2.4z" class="s14"/></g><g id="&lt;Group&gt;" style="opacity:.5"><path id="&lt;Path&gt;" d="m2636.8 1235q-1.9 2-3.8 4v0.1c-4.6 3-12.2 7.7-21 11.4-13.5 5.8-25.3 7.4-34.6 4.8q-5.6-1.5-9.9-4.9c-8.5-6.7-11.9-20.4-10.2-40.7 1.3-15 5-28.2 5-28.3l1.9 0.5c-0.1 0.5-14.4 51.9 4.5 66.9 23.6 18.7 67.1-14.2 67.6-14.5z" class="s14"/></g><path id="&lt;Path&gt;" d="m2678.8 923.4c-16.1-13.5-50.1-18.6-69.3-5-13.5 9.5-51.9 124.3-51.9 124.3l-10.8-3c0 0 30.3-110.4 11.5-137.6-13.2-18.9-52.3-27.9-53.6-28.1 26.9-7 57.3-7.3 90.3 1.8 36.9 10.2 64.2 26.9 83.8 47.6z" class="s18"/><path id="&lt;Path&gt;" d="m2511.3 1064.6c5-18.1 23.7-28.6 41.7-23.7 18.1 5 28.7 23.7 23.7 41.7-5 18.1-23.7 28.7-41.7 23.7-18.1-5-28.6-23.7-23.7-41.7z" class="s14"/><path id="&lt;Path&gt;" d="m2518.9 1066.7c3.8-13.9 18.2-22 32-18.2 13.9 3.8 22 18.2 18.2 32-3.8 13.9-18.2 22-32 18.2-13.9-3.8-22-18.2-18.2-32z" class="s17"/></g><g id="&lt;Group&gt;"><path id="&lt;Path&gt;" d="m2620 1758.1h-159.1v-169.3h159.2c5.5 0 10.1 4.5 10.1 10.1v149c0 5.7-4.6 10.2-10.2 10.2z" class="s0"/><path id="&lt;Path&gt;" d="m2515.5 1758.1h-149.4c-5.9 0-10.7-4.8-10.7-10.6v-147c0-6.5 5.2-11.7 11.7-11.7h147.8c5.4 0 9.8 4.4 9.8 9.9v150.2c0 5.1-4.1 9.2-9.2 9.2z" class="s14"/><g id="&lt;Group&gt;"><path id="&lt;Compound Path&gt;" d="m2411.8 1637q0-1.1-0.4-2.1-0.4-0.9-1.3-1.6-0.9-0.8-2.4-1.4-1.5-0.7-3.8-1.3-2.2-0.6-3.9-1.3-1.7-0.8-3-1.7-1.2-1-1.8-2.3-0.7-1.2-0.7-3 0-1.6 0.7-3 0.7-1.3 2-2.3 1.3-1 3.1-1.6 1.8-0.5 3.9-0.5 2.3 0 4.1 0.7 1.8 0.7 3.1 1.8 1.3 1.2 2 2.8 0.7 1.5 0.7 3.3h-2.5q0-1.4-0.5-2.6-0.5-1.2-1.4-2.1-1-0.8-2.3-1.3-1.4-0.5-3.2-0.5-1.8 0-3.2 0.4-1.3 0.4-2.2 1.2-0.9 0.7-1.4 1.7-0.4 0.9-0.4 2 0 1 0.3 1.9 0.4 0.9 1.3 1.6 0.9 0.8 2.4 1.4 1.5 0.7 3.7 1.2 2.3 0.7 4.1 1.4 1.7 0.8 3 1.8 1.2 1 1.8 2.3 0.7 1.4 0.7 3.1 0 1.8-0.8 3.2-0.7 1.4-2 2.3-1.4 1-3.2 1.5-1.8 0.5-3.9 0.5-1.3 0-2.6-0.2-1.3-0.2-2.5-0.7-1.2-0.4-2.3-1.1-1-0.7-1.8-1.6-0.7-1-1.2-2.2-0.4-1.3-0.4-2.8h2.4q0 1.8 0.8 3.1 0.7 1.2 1.9 2 1.2 0.8 2.7 1.1 1.5 0.4 3 0.4 1.6 0 3-0.4 1.4-0.4 2.4-1.1 1-0.7 1.5-1.7 0.5-1 0.5-2.3z" class="s19"/><path id="&lt;Compound Path&gt;" d="m2432.7 1641.4q-1 1.5-2.6 2.3-1.7 0.8-4.2 0.8-1.6 0-2.9-0.4-1.2-0.5-2.2-1.4-0.9-1-1.4-2.5-0.5-1.6-0.5-3.8v-13.7h2.3v13.8q0 1.7 0.4 2.8 0.4 1.2 1.1 1.9 0.7 0.7 1.6 1 0.9 0.3 1.9 0.3 1.4 0 2.5-0.3 1.1-0.4 1.9-0.9 0.8-0.6 1.3-1.4 0.5-0.8 0.8-1.7v-15.5h2.4v21.4h-2.3z" class="s19"/><path id="&lt;Compound Path&gt;" fill-rule="evenodd" d="m2440.3 1633.2q0-2.5 0.6-4.5 0.5-2 1.6-3.4 1.1-1.4 2.6-2.2 1.5-0.8 3.5-0.8 2.3 0 3.9 0.9 1.7 1 2.7 2.6l0.1-3.1h2.3v21.1q0 2-0.7 3.7-0.6 1.6-1.7 2.8-1.1 1.1-2.7 1.8-1.6 0.6-3.5 0.6-1 0-2.1-0.3-1-0.2-2-0.6-1-0.5-1.9-1.2-0.9-0.7-1.5-1.6l1.3-1.4q1.3 1.6 2.8 2.3 1.5 0.8 3.2 0.8 1.5 0 2.7-0.5 1.2-0.5 2-1.3 0.8-0.9 1.2-2.2 0.5-1.2 0.5-2.8v-2.5q-1.1 1.4-2.8 2.3-1.6 0.8-3.9 0.8-1.9 0-3.4-0.8-1.5-0.8-2.6-2.2-1.1-1.4-1.6-3.4-0.6-2-0.6-4.5zm2.4 0.5q0 1.8 0.4 3.4 0.3 1.7 1.1 2.9 0.8 1.1 2 1.8 1.1 0.7 2.8 0.7 1.2 0 2.2-0.3 1-0.3 1.7-0.8 0.8-0.6 1.3-1.3 0.6-0.7 1-1.5v-10q-0.4-0.8-0.9-1.6-0.5-0.8-1.3-1.3-0.7-0.6-1.7-1-1-0.3-2.3-0.3-1.6 0-2.8 0.7-1.2 0.7-2 1.8-0.8 1.2-1.1 2.9-0.4 1.6-0.4 3.4z" class="s19"/><path id="&lt;Compound Path&gt;" fill-rule="evenodd" d="m2477.3 1644.1q-0.2-0.5-0.3-1.3-0.2-0.8-0.2-1.7-0.5 0.7-1.3 1.4-0.7 0.6-1.6 1-0.9 0.5-2 0.8-1.1 0.2-2.4 0.2-1.5 0-2.8-0.4-1.3-0.5-2.2-1.3-0.9-0.8-1.4-1.9-0.5-1.1-0.5-2.4 0-1.6 0.7-2.9 0.7-1.2 1.9-2.1 1.3-0.9 3.1-1.4 1.8-0.4 4.1-0.4h4.4v-2.5q0-2.3-1.4-3.6-1.4-1.3-4.2-1.3-1.2 0-2.3 0.3-1 0.4-1.8 1-0.7 0.6-1.2 1.4-0.4 0.7-0.4 1.6h-2.4q0-1.2 0.6-2.3 0.6-1.2 1.7-2 1.1-0.9 2.6-1.5 1.5-0.5 3.4-0.5 1.7 0 3.1 0.4 1.4 0.5 2.5 1.4 1 0.8 1.6 2.1 0.5 1.3 0.5 3.1v10.4q0 0.5 0.1 1.1 0 0.6 0.1 1.2 0.1 0.5 0.2 1 0.1 0.5 0.3 0.9v0.2zm-7.4-1.7q1.2 0 2.3-0.3 1.1-0.3 2-0.9 0.9-0.6 1.6-1.3 0.6-0.8 1-1.7v-4.7h-4q-1.9 0-3.3 0.3-1.4 0.4-2.4 1-1 0.6-1.5 1.5-0.6 0.8-0.6 2 0 0.8 0.4 1.6 0.3 0.7 0.9 1.3 0.7 0.6 1.6 0.9 0.8 0.3 2 0.3z" class="s19"/><path id="&lt;Compound Path&gt;" d="m2495.4 1624.7q-0.8-0.1-1.6-0.1-1.2 0-2.2 0.3-1 0.4-1.7 1-0.8 0.7-1.3 1.6-0.5 0.9-0.8 1.9v14.7h-2.3v-21.4h2.3v3.4q0.9-1.8 2.4-2.8 1.5-1 3.7-1 0.4 0 0.8 0.1 0.5 0.1 0.7 0.2z" class="s19"/></g><g id="&lt;Group&gt;"><path id="&lt;Compound Path&gt;" fill-rule="evenodd" d="m2383.7 1697.5c0-17.1 10.6-30.5 26.2-30.5 15.6 0 26.1 13.2 26.1 30.5 0 17.1-10.5 30.4-26.2 30.4-15.8 0-26.1-13.2-26.1-30.4zm39 0c0-10.7-5.2-18.8-12.9-18.8-7.8 0-12.8 7.8-12.8 18.8 0 10.7 5.1 18.7 12.9 18.7 7.9 0 12.8-7.9 12.8-18.7z" class="s19"/><path id="&lt;Compound Path&gt;" fill-rule="evenodd" d="m2442.5 1692.6c0-6.5 4.5-11.7 11.2-11.7 6.6 0 11 5.1 11 11.7 0 6.4-4.5 11.7-11.2 11.7-6.6 0-11-5.2-11-11.7zm38-11.2h7.7l-33.4 45.8h-7.7zm-22.6 11.1c0-3-1.7-5.7-4.4-5.7-2.7 0-4.1 2.6-4.1 5.7 0 3.1 1.7 5.8 4.3 5.8 2.7 0 4.2-2.7 4.2-5.8zm12.7 23.4c0-6.4 4.5-11.7 11.2-11.7 6.6 0 11 5.2 11 11.7 0 6.4-4.5 11.7-11.2 11.7-6.6 0-11-5.1-11-11.7zm15.4 0c0-3-1.7-5.7-4.4-5.7-2.7 0-4.1 2.6-4.1 5.7 0 3.1 1.7 5.8 4.3 5.8 2.7 0 4.2-2.7 4.2-5.8z" class="s19"/></g></g><g id="&lt;Group&gt;"><g id="&lt;Group&gt;"><path id="&lt;Path&gt;" d="m1907.4 1319.4l8.1 6.6c0 0 22.2-8 27.3 18.5 0 0 1.3 11.2-5.8 11.2-7.2 0.1-4.2-1.2-14.3-0.9-10.1 0.3-18.5-5-20-13.2l-4.8-7z" class="s20"/><path id="&lt;Path&gt;" d="m1893.2 1342.2c0 0-63.2-24.1-95.4-44.4-13-8.2-82.5-47.1-124.3-81.7-14.8-12.3-10.1-37.5 8-42.7l14.9-4.3c18.2-5.2 34.1-11 46.9 3.8 25.9 29.9 81.2 79 86.4 82.4 7.6 5 82.7 66.5 82.7 66.5 0 0 0.5 5-6 11.8-5.5 5.8-13.2 8.6-13.2 8.6z" class="s21"/></g><path id="&lt;Path&gt;" d="m1992.2 1711.4c0 0 18.2 13.6 46.1 6.4 0 0 22.5-5.1 27.5 6.1 0 0-34.6 17.6-43.3 22.4-6.6 3.6-13.5 9.3-18.3 13.7-3.9 3.5-9.9 3-13.1-1q-2.3-2.8-5.2-6.7c-5.3-7.2-17.7-30.5-17.7-30.5z" class="s22"/><path id="&lt;Path&gt;" d="m2002.9 1704.4c0 0-11.1 25.6-36.8 20.9 0 0-52.2-43.1-88.1-88-11.7-14.6-21.6-29.3-27.4-42.8-23.8-55.1-88-137.2-128.8-178.8l102.1-36.9c0 0 32.7 65.7 76.2 146.6 31.4 58.2 68.4 124.2 102.8 179z" class="s23"/><path id="&lt;Path&gt;" d="m1900.1 1525.4l-22.1 111.9c-11.7-14.6-21.6-29.3-27.4-42.8-23.8-55.1-88-137.2-128.8-178.8l102.1-36.9c0 0 32.7 65.7 76.2 146.6z" class="s22"/><path id="&lt;Path&gt;" d="m1816.7 1726.2c0 0-1.1 20.5 23.6 23.2 0 0 14.2 0.1 14.2 13.1l-71.9 0.2c0 0-2.1-5.3-2.6-16.5-0.4-8.6 8.3-31.2 8.3-31.2z" class="s22"/><path id="&lt;Path&gt;" d="m1790.4 1378.8c0 0 45.5 49.9 74.4 140 15.7 49-28.8 172.2-37.5 214.9 0 0-29.8 2.6-50.2-5.3 0 0-1.6-88.4 10.3-156.5 6.7-38.2-59.8-81.6-88.9-150.5-19.8-46.8 4.3-46 33.8-47.2z" class="s23"/><path id="&lt;Path&gt;" d="m1737.9 1155.8c-25.3 14.3-77.1 1.1-77.1 1.1 0 0 21.1-24.1 11.5-62.8l19.9 10.1 21.3 10.8c0 0 1.4 6.9 2.3 19.1q0.4 4.8 0.7 10.6c13 3.9 21.4 11.1 21.4 11.1z" class="s24"/><path id="&lt;Path&gt;" d="m1830.7 1376.2c0 4.4-5.1 6.6-6.2 6.8-10.2 1.8-38.7 12.9-64.4 15.5-21.6 2.2-41.7 0.1-63.7-4.4-2.9-0.5-9.8-2.4-10.3-5.2-0.6-3-85-172.1-19.4-244.8 1.6-1.7 14.5 1.4 26.4 4.2 10.9 2.6 21 1.2 29.9-2.4l11.1 5.8c13.7 7.6 39.5 34.6 42.5 55.8 1.6 10.8 7.7 18.8 9.5 28.3q1 5.2 2 10.3 2.1 9.8 4.2 18.7c3.9 16 7.9 29.8 11.9 41.7 4.3 12.7 8.5 23.2 12.2 32 4.8 11.5 8.9 20 11.5 26.5 1.8 4.6 2.8 8.2 2.8 11.2z" class="s25"/><path id="&lt;Path&gt;" d="m1827.9 1365c-119.2-56.1-160.5-164-160.5-164 0 0 96.8 35.8 120.7 45.1q2.1 9.8 4.2 18.7c3.9 16 7.9 29.8 11.9 41.7 4.3 12.7 8.5 23.2 12.2 32 4.8 11.5 8.9 20 11.5 26.5z" class="s21"/><path id="&lt;Path&gt;" d="m1715.8 1134.1c-24.8 1.4-41-19.1-41-19.1 0 0 11.2-6.2 17.4-10.8l21.3 10.8c0 0 1.4 6.9 2.3 19.1z" class="s20"/><path id="&lt;Path&gt;" d="m1726.4 1108.6c0 0-37.7 27.1-54.2 3.3-16.4-23.7-32.4-36.2-9-54.5 23.3-18.3 34.4-12.5 41.8-5.9 7.4 6.6 30.8 49.4 21.4 57.1z" class="s24"/><path id="&lt;Path&gt;" d="m1685 1063.5c-15.2 10.1-3.4 21-5.8 24.7-2.3 3.7-4.7-2.4-11.1 3-6.4 5.4 5.1 10.8 8.1 14.5 3 3.8-1.4 9.3-1.4 9.3-16.7-11-16.5-5.9-33.1-12.6-11.3-4.7-17.7-20.2-17.6-36.1-2.6 1.2-5.5 3.1-6.7 6 0 0 3.3-10.4 7.3-13.7q0-0.5 0.1-1c0 0-3.4-11 0-19.8 0 0 0.4 6.8 2.1 11.3q0.7-2 1.6-4c9.5-20.4 37.9-23.5 55.8-22.2 17.9 1.4 20.3-8.4 20.3-8.4 0 0 3 6.4 4.4 15.5 1.3 9.2-8.8 23.4-24 33.5z" class="s22"/><g id="&lt;Group&gt;"><path id="&lt;Path&gt;" d="m1899.3 1339.1c0 0 11.8-1.7 15-3.9 4.7-3.5 10.4-1.4 12.6-2.1 2.3-0.8 9-2.9 9.6-1.9 1.1 1.7-2.2 4.5-6.8 6.4-4.1 1.6-1.4 3.6 11.8 1.9 13.2-1.6 22.4 3.6 22.3 4.5 0 0.8-20.2 13.1-31.9 13.4-11.6 0.2-31.8-6.6-31.8-6.6z" class="s26"/><path id="&lt;Path&gt;" d="m1899.6 1354.9c0 0-75.2-29.1-109.4-50.4-13.7-8.5-87.5-49.5-131.5-85.4-15.7-12.7-9.9-37.9 9.7-42.5l16.3-3.8c19.7-4.7 40.4 1.9 53.8 17.1 27 30.7 81.8 69.5 87.3 73.1 8.1 5.2 87.5 66.7 87.5 66.7 0 0-1.6 4.5-5.2 14.6-2.8 7.9-8.5 10.6-8.5 10.6z" class="s25"/></g></g><g id="&lt;Group&gt;"><path id="&lt;Path&gt;" d="m1229.6 1247c-6.2 5.5-22.5-13.3-24.8-15.7-0.1-0.3-0.2-0.4-0.2-0.4l5-13.9c0 0 21.4-0.8 25 2.8 3.5 3.5 1.8 21.4-5 27.2z" class="s27"/><path id="&lt;Path&gt;" d="m1209.6 1217l-2.2 14.4c0 0-0.9 0-2.6-0.1-5.2-0.4-17.9-1.1-32.2-2.7-21.6-2.1-47.2-5.9-57.3-12.2-15.6-9.4-41-38.5-57.6-67.5-0.5-0.7-0.9-1.4-1.2-2.1-8.7-15.4-14.7-30.7-15.2-42.9-0.3-7.5 0.5-13.9 2-19.5 2-7.3 5.4-13.1 8.8-17.5 0.5-0.7 0.9-1.4 1.7-2 5.6-6.8 11.2-9.6 11.2-9.6 2.9-1.2 5.9 0.2 9.1 3.7v0.1c2.6 2.7 5.5 6.8 8.2 12.1 0.1 0.1 0.2 0.2 0.2 0.3 0.6 1.1 1.2 2.3 1.9 3.6 0.3 0.2 0.4 0.6 0.5 0.8q2 4.1 3.9 8.5c14.6 31.8 30.1 79.9 43 94.2 5.6 6.2 31.1 18.3 51.4 27.3 14.5 6.4 26.4 11.1 26.4 11.1z" class="s27"/><g id="&lt;Group&gt;"><path id="&lt;Path&gt;" d="m1495.5 1329.3c41.4 26.9 74.5 66.9 92.4 116.8 43.8 122.1-20.4 256.8-143.3 301.1-121.8 43.9-256.9-18-301.7-138.4-18.4-49.3-19-100.7-5.2-147.6 12.4-41.9 11.4-86.5-3.7-127.4q-0.2-0.6-0.4-1.2c-27.9-77.8 12.5-163.7 90.3-192.8 78.6-29.4 168 11.4 196.3 89.6q0.8 2 1.4 4.2c13 39.3 39.1 73 73.9 95.7z" class="s3"/><path id="&lt;Path&gt;" d="m1480.3 1332.5c38.2 25.4 68.9 62.9 85.6 109.5 41 114.1-17.4 239.5-130.3 280.2-111.9 40.4-236.6-18.1-278.4-130.7-17.2-46.1-18-94.1-5.5-137.8 11.1-39.1 9.9-80.7-4.1-118.9q-0.2-0.6-0.4-1.1c-26.1-72.8 10.6-152.7 82.1-179.5 72.1-27 154.7 11.5 181.1 84.6q0.7 2 1.4 4c12.1 36.8 36.3 68.4 68.5 89.7z" class="s28"/><path id="&lt;Path&gt;" d="m1478.8 1490.8c20.8 58-9.3 121.8-67.2 142.6q-4.7 1.6-9.4 2.9c-55.3 14.5-113.5-15.4-133.2-70.2-13.1-36.5-5.9-75.4 15.7-104.4 12.6-16.9 30.2-30.4 51.6-38.1 57.9-20.8 121.7 9.3 142.5 67.2z" class="s4"/><path id="&lt;Path&gt;" d="m1417.9 1531.9c13.1 36.5 5.9 75.4-15.7 104.4-55.3 14.5-113.5-15.4-133.2-70.2-13.1-36.5-5.9-75.4 15.7-104.4 55.3-14.6 113.5 15.4 133.2 70.2z" class="s5"/></g><path id="&lt;Path&gt;" d="m1054.4 1733.5l-15.7 5.8c0 0-68-94.3-76.4-177.3-1.5-14.8-1-29.2 2.3-42.5 0 0-0.7-3.7-1.9-10.5-0.5-3.1-1.2-6.9-1.9-11.2-2.2-12.7-5.3-30-8.8-49.7-8-45.4-18.3-103.5-26.4-146.2l4.2-1.4 45.7-14.7 9.4-29.9 34-9c0 0 7.6 14.9 14.4 85 1.2 9.2 2.4 19.4 3.2 30.4 2.7 33.6 2.9 75.3-3.2 122.9-1.6 12.2-3.5 24.8-6 37.7-1.8 9.5-2 22.4-1.3 37.3 3.5 67.8 28.4 173.3 28.4 173.3z" class="s23"/><path id="&lt;Path&gt;" d="m1036.5 1362.3l-73.8 146.7c-0.5-3.1-1.2-6.9-1.9-11.2-2.2-12.7-5.3-30-8.8-49.7-8-45.4-18.3-103.5-26.4-146.2l4.2-1.4 45.7-14.7 9.4-29.9 34-9c0 0 7.6 14.9 14.4 85 1.2 9.2 2.4 19.4 3.2 30.4z" class="s22"/><path id="&lt;Path&gt;" d="m984.4 1343.5c-6.6 45.9-16.5 105.5-28.8 151.3-6.5 24.2-13.7 44.6-21.4 57-2.6 4.3-5.5 11.5-8.5 20.6-17.8 53.7-39.6 175.2-39.6 175.2l-10 4c0 0-38.4-109.2-5.1-197.9 3.4-9 7.5-17.8 12.5-26.3 0.5-1 0.9-2.1 0.8-3.2q0 0 0 0c-0.4-3.7-1.5-13-2.7-26-3.4-35.8-6.7-157-8.5-185.5-3.6-58.5 24.1-82.9 24.1-82.9 0 0 76.5 28.9 105.2 21.3l1.7 14.6c0 0-18.8 77.8-19.7 77.8z" class="s23"/><path id="&lt;Path&gt;" d="m1058.8 1088c-9 4.2-19.9 7-33 7.7-49.2 2.7-60.4-40.4-62.4-69.1 7.1-2.5 13.3-2.3 16.9-2.1 3.4 0.2 7.1 0.6 10.1 0.9 6-3.1 16.8-18.4 23.1-44l2.1 1 35.5 16.7c0 0-3.8 11.6-6.5 22.6-2.2 8.7-3.8 17.1-2.5 19.4 2.8 1.1 4.5 1.8 4.5 1.8q0 0 0 0.1c0.4 0.9 8.1 20.6 12.2 45z" class="s29"/><path id="&lt;Path&gt;" d="m1071.1 1120.3q-0.6 1.5-1.3 2.9c-12.4 26.9-35.5 138.1-35.5 138.1 3.3 20-150.3-4-150.7-22.2-5.4-19.3 19.2-50.3 33.1-65.8q2.6-3 4.7-6.3c3.4-5.5 5.6-11.8 6.2-18.4 2.8-25.8 1.7-49.9 2-64.7q0 0 0 0c2.7-2 5.3-3.8 7.7-5.6 3.8-2.7 7.1-5.2 9.5-7.8 2.7-2.8 4.3-5.7 4.5-9 0.2-2.4 0.1-4.9-0.2-7.5q-0.1-1.7-0.4-3.5c-1.9-12.5-7.1-23.8-7.1-23.8 13.2-5.4 36.7-2.2 36.7-2.2 0 0-0.1 1.3-0.1 3.4-0.1 8.6 0 30.6 2.8 34.8 3.4 5.2 66.3 27.9 69.6 20.9 3.3-6.9-5.7-39.4-6-40.6q0-0.1 0-0.1c21.1 8.3 28.6 15.3 28.6 15.3-12.7 8.2 5.7 36.1-4.1 62.1z" class="s4"/><path id="&lt;Path&gt;" d="m1085.3 928.6l-73.7 59.7c0 0-2.1-13-9.7-11-11.9 3.1-26.3-24.9-12.3-53.6 1.5-3.1 3.1-5.9 4.7-8.4-2.4 0.4-5 0.5-7.3 0-6.1-1.5-11.4-19.3-11.4-24.8 0.1-5.5 5.7-22.2 15.3-25.2 9.5-3 21.2 6.3 21.2 6.3-2.9-7.6-20.2-9.6-20.2-9.6 35.1 1.2 36.7 24.2 36.8 26.3 29.5-15.8 56.6 40.3 56.6 40.3z" class="s30"/><path id="&lt;Path&gt;" d="m1051.1 999.1c0 0-3.8 11.6-6.5 22.6-20.8-5.7-27.1-27.6-29-39.3z" class="s27"/><path id="&lt;Path&gt;" d="m1055.5 1011.4c0 0-49.7-11.5-42-42.4 7.6-30.8 6.3-53 38.4-47 32 6.1 35.2 19.3 35.2 30.2-0.1 11-18.5 61.4-31.6 59.2z" class="s29"/><path id="&lt;Path&gt;" d="m1081.5 973.5c-4.8-0.6-1.9-17-2.4-25.5-0.4-6.2-4.9-13.6-7.2-17-1.9 3.4-20.5 35.4-48.2 40.7 0 0 14-7.3 25.9-19.3-6.1 4.3-12.9 7.4-19.7 7.4-22.1 0.2-29.7-7.6-29.7-7.6 0 0 19.1-8.7 27.9-30 0 0 22.9-17.6 46.2 4 3.9-2 10.2-2.6 15.6 8.5 8 16.8-8.4 38.8-8.4 38.8z" class="s30"/><path id="&lt;Path&gt;" d="m1075.2 1058.2c0 0 12 20.8 13.8 26.2 0 0-15.6-0.6-21.8 11.3 0 0-1.5-34.7 8-37.5z" class="s4"/><path id="&lt;Path&gt;" d="m993 1223.9c-30.3-0.3-56-31.8-71.6-56.9 3.4-5.5 5.6-11.8 6.2-18.4 2.8-25.8 1.7-49.9 2-64.7q0 0 0 0c2.7-2 5.3-3.8 7.7-5.6 3.8-2.7 7.1-5.2 9.5-7.8 24.8 41.9 87.2 153.8 46.2 153.4z" class="s5"/><path id="&lt;Path&gt;" d="m1155.3 1253.5c-2.7 2-23.7 10.3-31.7 7.7-4.5-1.4-20-5.2-26.3-6.7-2.5-0.5-11.4-2.3-11.4-2.3l6.7-19.6c0 0 0.3 0 0.8 0.2 2.6 0.9 7.6 3.3 14 4.3 8 1.2 18-3.8 23.1-1 11 6 26.1-0.1 29.6 3.1 2.6 2.4 1.7 9.3-4.8 14.3z" class="s29"/><path id="&lt;Path&gt;" d="m1107.4 1240.4l-4.1 15.1c0 0-5.2-0.9-13.5-2.4-2.5-0.5-3.9-0.9-3.9-0.9-6.7-1.3-14.6-3-23.3-4.9h-0.1c-14.8-3.6-31.4-7.9-45.4-12.6-9.8-3.4-18.3-7.1-24.1-10.8-0.6-0.3-1.1-0.7-1.7-1.2-13.9-10-30.3-39.7-43.1-71.4-1.8-4.4-3.5-8.8-5.1-13.1-6-15.8-10.7-31.5-13.5-45-1.8-8.1-3-15.4-3.2-21.4-0.2-2.2-0.3-4.2-0.2-6.1 0.3-34.4 17.3-39.1 17.3-39.1 0.4-0.1 0.8-0.2 1.2-0.3 3-0.5 6.1 1.5 9.3 5.4 4 4.9 8.3 12.8 12.7 22.4 6.7 15.3 13.8 35.1 20.5 54.7 3.6 10.8 7.2 21.6 10.7 31.6 2.1 6 4.1 11.7 6 16.9 3.6 10 7 18 9.9 23.1 1.9 3.3 7.4 8 14.6 13.2 12.6 9.1 30.9 20.1 46.9 29.1 6.7 3.8 12.9 7.3 18.1 10.1 8.5 4.6 14 7.6 14 7.6z" class="s29"/><path id="&lt;Path&gt;" d="m966.6 1054.1c-22.8-6.2-40.4 11.6-40.4 11.6 0.3-34.3 17.4-39 17.4-39 6.8-2.9 14.8 9 23 27.4z" class="s4"/><path id="&lt;Path&gt;" d="m934 1759.8h-78.8c0 0-1.9-12.1 2.2-21.2 3.9-8.7 10.1-12.7 8.6-23.3 5.1 5.2 13.2 10.9 24.6 9.4 1.4 2.3 9 14.4 13.7 17.7 5.2 3.8 28.1 2.4 29.7 17.4z" class="s22"/><path id="&lt;Path&gt;" d="m1103.4 1759.8h-78.9c0 0-3-12.6 2.2-21.2 4.6-7.6 2.9-11.9-0.5-18.1 3.5 1.4 8.2 2.8 13.2 2.5 4-0.3 8.1-2 11.8-4.2 3.4 3.9 17.9 20.4 22.4 23.6 5.2 3.8 28.2 2.4 29.8 17.4z" class="s22"/><path id="&lt;Path&gt;" d="m1111.5 1239.1c0 0 6.7-4.4 16.7-7.7 6.2-2.1 14.3-4.4 14.1-2.1-0.3 2.3-13.1 8.3-13.4 9.3-0.2 1-17.4 0.5-17.4 0.5z" class="s29"/></g><g id="&lt;Group&gt;"><path id="&lt;Path&gt;" d="m1543 1539.8c52.8-37.2 100.4-6.7 137.6 46.1 37.1 52.8 46.8 109.6-6 146.8-52.8 37.1-176 35.9-201.7-0.6-20.3-28.9 17.3-155.2 70.1-192.3z" class="s31"/><g id="&lt;Group&gt;"><g id="&lt;Group&gt;"><path id="&lt;Path&gt;" d="m1609.3 1551.4c-1.9 1.3-8.6 0.9-8.6 0.9 0 0 1.9-6.4 3.8-7.7 1.8-1.4 4.5-0.9 5.8 1 1.3 1.9 0.9 4.5-1 5.8z" class="s32"/><path id="&lt;Path&gt;" d="m1607.8 1575.4c-1.9 1.4-8.6 1-8.6 1 0 0 1.9-6.5 3.8-7.8 1.9-1.4 4.5-0.9 5.8 1 1.3 1.9 0.9 4.5-1 5.8z" class="s32"/><path id="&lt;Path&gt;" d="m1633.6 1585.9c-1.9 1.4-8.7 1-8.7 1 0 0 1.9-6.5 3.8-7.8 1.9-1.4 4.5-0.9 5.9 1 1.3 1.9 0.9 4.5-1 5.8z" class="s32"/><path id="&lt;Path&gt;" d="m1640.3 1621.6c-1.9 1.4-8.6 1-8.6 1 0 0 1.9-6.5 3.8-7.8 1.9-1.4 4.5-0.9 5.8 1 1.3 1.9 0.9 4.5-1 5.8z" class="s32"/><path id="&lt;Path&gt;" d="m1664.8 1634.1c-1.8 1.3-8.6 0.9-8.6 0.9 0 0 1.9-6.5 3.8-7.8 1.9-1.3 4.5-0.9 5.9 1 1.3 1.9 0.8 4.5-1.1 5.9z" class="s32"/><path id="&lt;Path&gt;" d="m1669.8 1663.6c-1.9 1.3-8.6 0.9-8.6 0.9 0 0 1.9-6.4 3.8-7.8 1.9-1.3 4.5-0.8 5.9 1.1 1.3 1.8 0.8 4.5-1.1 5.8z" class="s32"/><path id="&lt;Path&gt;" d="m1691.9 1672.5c-1.9 1.3-8.6 0.9-8.6 0.9 0 0 1.9-6.5 3.8-7.8 1.8-1.3 4.5-0.9 5.8 1 1.3 1.9 0.9 4.5-1 5.9z" class="s32"/></g><g id="&lt;Group&gt;"><path id="&lt;Path&gt;" d="m1566.4 1565.1c-2.3 1.6-10.3 1.2-10.3 1.2 0 0 2.3-7.8 4.5-9.4 2.3-1.6 5.4-1 7 1.3 1.6 2.2 1 5.3-1.2 6.9z" class="s32"/><path id="&lt;Path&gt;" d="m1564.6 1593.8c-2.2 1.6-10.3 1.1-10.3 1.1 0 0 2.3-7.7 4.6-9.3 2.2-1.6 5.3-1 6.9 1.2 1.6 2.3 1.1 5.4-1.2 7z" class="s32"/><path id="&lt;Path&gt;" d="m1595.4 1606.4c-2.3 1.6-10.3 1.1-10.3 1.1 0 0 2.3-7.7 4.5-9.3 2.3-1.6 5.4-1.1 7 1.2 1.6 2.3 1.1 5.4-1.2 7z" class="s32"/><path id="&lt;Path&gt;" d="m1603.5 1649c-2.3 1.6-10.3 1.1-10.3 1.1 0 0 2.2-7.7 4.5-9.3 2.3-1.6 5.4-1 7 1.2 1.6 2.3 1 5.4-1.2 7z" class="s32"/><path id="&lt;Path&gt;" d="m1632.8 1663.9c-2.3 1.6-10.3 1.1-10.3 1.1 0 0 2.3-7.7 4.5-9.3 2.3-1.6 5.4-1.1 7 1.2 1.6 2.3 1 5.4-1.2 7z" class="s32"/><path id="&lt;Path&gt;" d="m1638.7 1699.2c-2.2 1.6-10.2 1.1-10.2 1.1 0 0 2.2-7.7 4.5-9.3 2.2-1.6 5.4-1.1 7 1.2 1.6 2.3 1 5.4-1.3 7z" class="s32"/><path id="&lt;Path&gt;" d="m1665.1 1709.8c-2.3 1.6-10.3 1.1-10.3 1.1 0 0 2.3-7.7 4.5-9.3 2.3-1.6 5.4-1.1 7 1.2 1.6 2.3 1 5.4-1.2 7z" class="s32"/></g><g id="&lt;Group&gt;"><path id="&lt;Path&gt;" d="m1491.2 1663.3c-1.2 0.8-5.5 0.6-5.5 0.6 0 0 1.2-4.2 2.4-5 1.2-0.9 2.9-0.6 3.8 0.6 0.8 1.2 0.5 2.9-0.7 3.8z" class="s32"/><path id="&lt;Path&gt;" d="m1490.3 1678.7c-1.2 0.9-5.6 0.6-5.6 0.6 0 0 1.3-4.1 2.5-5 1.2-0.9 2.9-0.6 3.7 0.6 0.9 1.3 0.6 2.9-0.6 3.8z" class="s32"/><path id="&lt;Path&gt;" d="m1506.8 1685.4c-1.2 0.9-5.5 0.6-5.5 0.6 0 0 1.2-4.1 2.4-5 1.2-0.8 2.9-0.5 3.8 0.7 0.8 1.2 0.5 2.9-0.7 3.7z" class="s32"/><path id="&lt;Path&gt;" d="m1511.2 1708.4c-1.3 0.8-5.6 0.6-5.6 0.6 0 0 1.2-4.2 2.5-5 1.2-0.9 2.9-0.6 3.7 0.6 0.9 1.2 0.6 2.9-0.6 3.8z" class="s32"/><path id="&lt;Path&gt;" d="m1526.9 1716.4c-1.2 0.8-5.5 0.6-5.5 0.6 0 0 1.2-4.2 2.4-5 1.2-0.9 2.9-0.6 3.8 0.6 0.8 1.2 0.5 2.9-0.7 3.8z" class="s32"/><path id="&lt;Path&gt;" d="m1530.1 1735.3c-1.2 0.9-5.5 0.6-5.5 0.6 0 0 1.2-4.1 2.4-5 1.2-0.8 2.9-0.5 3.8 0.7 0.8 1.2 0.5 2.9-0.7 3.7z" class="s32"/><path id="&lt;Path&gt;" d="m1544.3 1741c-1.2 0.9-5.6 0.6-5.6 0.6 0 0 1.3-4.1 2.5-5 1.2-0.8 2.9-0.5 3.7 0.7 0.9 1.2 0.6 2.9-0.6 3.7z" class="s32"/></g><g id="&lt;Group&gt;"><path id="&lt;Path&gt;" d="m1511.8 1632.8c-1.6 1.1-7.2 0.8-7.2 0.8 0 0 1.6-5.4 3.2-6.5 1.5-1.1 3.7-0.8 4.8 0.8 1.1 1.6 0.7 3.8-0.8 4.9z" class="s32"/><path id="&lt;Path&gt;" d="m1510.5 1652.8c-1.5 1.1-7.1 0.7-7.1 0.7 0 0 1.5-5.3 3.1-6.4 1.6-1.2 3.8-0.8 4.9 0.8 1.1 1.6 0.7 3.8-0.9 4.9z" class="s32"/><path id="&lt;Path&gt;" d="m1532 1661.5c-1.6 1.1-7.2 0.8-7.2 0.8 0 0 1.6-5.4 3.2-6.5 1.5-1.1 3.7-0.7 4.8 0.8 1.1 1.6 0.8 3.8-0.8 4.9z" class="s32"/><path id="&lt;Path&gt;" d="m1537.6 1691.2c-1.6 1.1-7.2 0.8-7.2 0.8 0 0 1.6-5.4 3.2-6.5 1.6-1.1 3.7-0.7 4.8 0.8 1.1 1.6 0.8 3.8-0.8 4.9z" class="s32"/><path id="&lt;Path&gt;" d="m1558 1701.6c-1.6 1.1-7.2 0.7-7.2 0.7 0 0 1.6-5.3 3.2-6.4 1.6-1.2 3.8-0.8 4.9 0.8 1.1 1.6 0.7 3.8-0.9 4.9z" class="s32"/><path id="&lt;Path&gt;" d="m1562.2 1726.1c-1.6 1.1-7.2 0.8-7.2 0.8 0 0 1.6-5.4 3.2-6.5 1.5-1.1 3.7-0.7 4.8 0.9 1.1 1.6 0.7 3.7-0.8 4.8z" class="s32"/><path id="&lt;Path&gt;" d="m1580.5 1733.5c-1.6 1.1-7.2 0.8-7.2 0.8 0 0 1.6-5.4 3.2-6.5 1.6-1.1 3.8-0.7 4.9 0.9 1.1 1.5 0.7 3.7-0.9 4.8z" class="s32"/></g><g id="&lt;Group&gt;"><path id="&lt;Path&gt;" d="m1534.8 1601.3c-1.9 1.4-8.7 1-8.7 1 0 0 1.9-6.6 3.9-7.9 1.9-1.4 4.5-0.9 5.9 1 1.3 1.9 0.9 4.6-1.1 5.9z" class="s32"/><path id="&lt;Path&gt;" d="m1533.3 1625.6c-1.9 1.4-8.7 1-8.7 1 0 0 1.9-6.6 3.9-7.9 1.9-1.4 4.5-0.9 5.9 1 1.3 1.9 0.9 4.6-1.1 5.9z" class="s32"/><path id="&lt;Path&gt;" d="m1559.4 1636.3c-1.9 1.3-8.7 0.9-8.7 0.9 0 0 1.9-6.5 3.8-7.9 2-1.3 4.6-0.9 6 1 1.3 2 0.9 4.6-1.1 6z" class="s32"/><path id="&lt;Path&gt;" d="m1566.3 1672.4c-2 1.3-8.8 0.9-8.8 0.9 0 0 2-6.5 3.9-7.8 1.9-1.4 4.5-0.9 5.9 1 1.3 1.9 0.9 4.6-1 5.9z" class="s32"/><path id="&lt;Path&gt;" d="m1591.1 1685c-1.9 1.3-8.7 0.9-8.7 0.9 0 0 1.9-6.5 3.8-7.8 1.9-1.4 4.6-0.9 5.9 1 1.4 1.9 0.9 4.5-1 5.9z" class="s32"/><path id="&lt;Path&gt;" d="m1596.2 1714.9c-2 1.3-8.8 0.9-8.8 0.9 0 0 2-6.5 3.9-7.8 1.9-1.4 4.5-0.9 5.9 1 1.3 1.9 0.9 4.6-1 5.9z" class="s32"/><path id="&lt;Path&gt;" d="m1618.5 1723.9c-1.9 1.3-8.7 0.9-8.7 0.9 0 0 1.9-6.5 3.8-7.9 1.9-1.3 4.6-0.8 5.9 1.1 1.4 1.9 0.9 4.5-1 5.9z" class="s32"/></g></g><path id="&lt;Path&gt;" d="m1674.8 1583.4c0 0 40.1-32.1 79.8-15.8 0 0-4.1 4.9-7.1 6.9-2.9 2.1-31.1-12.9-71.6 14.2z" class="s33"/><path id="&lt;Path&gt;" d="m1707 1638.3c-8.8-22.9-24.3-34.4-24.3-34.4-0.1 8.9-16.9 16.9-16.9 16.9 0 0 3.2-22.2-0.9-34.1-4.1-12-24.7-16.4-24.7-16.4 12.5-7.1 20.1-3.9 20.1-3.9-1.6-5.5-20.1-23.5-20.1-23.5 28.1 7.9 39.8 39 39.8 39 23.3 21.5 27 56.4 27 56.4z" class="s33"/></g><path id="&lt;Path&gt;" d="m2981.3 1766h-2682.3c-1.7 0-3.2-1.4-3.2-3.2v-1.4c0-1.7 1.5-3.1 3.2-3.1h2682.3c1.8 0 3.2 1.4 3.2 3.1v1.4c0 1.8-1.4 3.2-3.2 3.2z" class="s16"/><g id="&lt;Group&gt;"><path id="&lt;Path&gt;" d="m1524.7 1699.8c0 31.9-30.7 57.8-68.5 57.8-37.8 0-68.5-25.9-68.5-57.8 0-31.9 30.7-57.8 68.5-57.8 37.8 0 68.5 25.9 68.5 57.8z" class="s25"/><path id="&lt;Path&gt;" d="m1501.6 1678.9c0 8.3-7.9 15-17.7 15-9.8 0-17.7-6.7-17.7-15 0-8.2 7.9-14.9 17.7-14.9 9.8 0 17.7 6.7 17.7 14.9z" class="s34"/></g></g></g></svg>