<svg xmlns="http://www.w3.org/2000/svg" xmlns:xlink="http://www.w3.org/1999/xlink" width="500" height="500" preserveAspectRatio="xMidYMid meet" version="1.0" viewBox="0 0 375 375" zoomAndPan="magnify"><defs><clipPath id="e445d5dbcd"><path d="M 155.390625 93.851562 L 197 93.851562 L 197 146 L 155.390625 146 Z M 155.390625 93.851562" clip-rule="nonzero"/></clipPath></defs><path fill="#80cc28" fill-opacity="1" fill-rule="nonzero" d="M 210.460938 144.332031 C 219.859375 131.980469 208.851562 106.617188 208.851562 106.617188 C 208.851562 106.617188 201.195312 118.410156 192.800781 121.703125 C 187.191406 123.902344 172.496094 134.179688 187.816406 148.605469 C 187.980469 148.761719 188.152344 148.917969 188.332031 149.070312 C 195.746094 145.289062 210.046875 134.652344 208.609375 109.191406 C 208.609375 109.191406 213.71875 138.191406 189.316406 149.851562 C 193.933594 153.234375 202.0625 155.363281 210.460938 144.332031"/><g clip-path="url(#e445d5dbcd)"><path fill="#27963c" fill-opacity="1" fill-rule="nonzero" d="M 184.59375 124.117188 C 180.972656 114.695312 173.363281 104.308594 158.039062 95.859375 C 158.039062 95.859375 178.277344 104.121094 186.164062 123.050781 C 187.378906 122.292969 188.515625 121.726562 189.421875 121.375 C 192.015625 120.355469 194.539062 118.523438 196.789062 116.480469 C 188.753906 99.089844 155.421875 93.859375 155.421875 93.859375 C 155.421875 93.859375 162.988281 109.996094 160.863281 121.164062 C 159.53125 128.144531 160.457031 148.398438 181.898438 145.613281 C 173.605469 135.777344 179.132812 128.148438 184.59375 124.117188"/></g><g fill="#000" fill-opacity="1"><g><g><path d="M 1.9375 0.0742188 L 5.964844 0.0742188 L 6.382812 -0.0742188 L 6.496094 -0.457031 L 6.648438 -0.910156 L 6.761719 -1.597656 L 6.839844 -1.824219 L 6.839844 -2.316406 L 6.878906 -2.582031 L 6.992188 -3.078125 L 7.144531 -4.179688 L 7.21875 -4.445312 L 7.257812 -4.671875 L 7.332031 -5.207031 L 7.484375 -5.964844 L 7.636719 -6.535156 L 7.714844 -7.066406 L 7.75 -7.296875 L 7.714844 -7.5625 L 7.789062 -7.828125 L 7.902344 -8.28125 L 7.828125 -8.550781 L 7.941406 -9.042969 L 8.015625 -9.269531 L 8.167969 -10.753906 L 8.433594 -12.578125 L 8.472656 -13.527344 L 8.550781 -14.171875 L 8.585938 -14.589844 L 8.625 -15.351562 L 8.664062 -16.414062 L 8.777344 -16.414062 L 9.003906 -14.96875 L 9.234375 -13.601562 L 9.347656 -12.539062 L 9.535156 -11.324219 L 9.6875 -10.257812 L 9.765625 -9.535156 L 9.917969 -8.777344 L 9.917969 -8.207031 L 9.953125 -7.980469 L 10.070312 -7.445312 L 10.105469 -7.21875 L 10.21875 -6.6875 L 10.21875 -6.460938 L 10.335938 -5.890625 L 10.449219 -5.472656 L 10.488281 -4.902344 L 10.5625 -4.371094 L 10.601562 -4.140625 L 10.753906 -3.34375 L 10.789062 -3.117188 L 10.867188 -2.316406 L 10.90625 -2.089844 L 10.941406 -1.632812 L 10.980469 -1.445312 L 11.171875 -0.910156 L 11.472656 -0.304688 L 11.777344 -0.0390625 L 12.425781 -0.0390625 L 12.917969 0 L 13.679688 0 L 13.90625 -0.0390625 L 14.285156 0 L 14.550781 -0.0390625 L 15.273438 0 L 15.425781 0 L 15.84375 -0.0742188 L 16.375 -0.113281 L 16.753906 -0.378906 L 17.097656 -0.835938 L 17.289062 -2.050781 L 17.402344 -2.546875 L 17.476562 -2.8125 L 17.476562 -3.039062 L 17.667969 -3.535156 L 17.667969 -4.140625 L 17.820312 -4.671875 L 17.933594 -4.976562 L 18.007812 -5.472656 L 18.046875 -5.964844 L 18.085938 -6.382812 L 18.238281 -6.839844 L 18.390625 -7.179688 L 18.464844 -7.5625 L 18.542969 -8.09375 L 18.695312 -8.625 L 18.695312 -8.851562 L 18.730469 -9.082031 L 18.769531 -9.347656 L 18.808594 -9.574219 L 18.84375 -9.917969 L 18.921875 -10.257812 L 19.035156 -10.789062 L 19.148438 -11.019531 L 19.148438 -11.511719 L 19.1875 -11.742188 L 19.226562 -12.007812 L 19.300781 -12.234375 L 19.339844 -12.5 L 19.414062 -12.726562 L 19.378906 -13.070312 L 19.453125 -13.375 L 19.53125 -13.90625 L 19.644531 -14.398438 L 19.71875 -14.667969 L 19.832031 -15.160156 L 19.910156 -15.464844 L 19.949219 -15.730469 L 19.984375 -16.148438 L 20.097656 -16.488281 L 20.25 -17.628906 L 20.328125 -17.894531 L 20.328125 -18.390625 L 20.402344 -18.65625 L 20.480469 -18.960938 L 20.59375 -19.300781 L 20.667969 -19.910156 L 20.820312 -20.515625 L 20.933594 -21.316406 L 21.011719 -21.621094 L 21.125 -22.304688 L 21.238281 -22.722656 L 21.46875 -23.632812 L 21.542969 -24.164062 L 21.65625 -25 L 21.621094 -25.304688 L 21.734375 -25.835938 L 21.734375 -26.140625 L 21.695312 -26.445312 L 21.46875 -26.558594 L 20.933594 -26.671875 L 20.402344 -26.632812 L 20.023438 -26.632812 L 19.148438 -26.671875 L 18.769531 -26.671875 L 18.503906 -26.632812 L 17.707031 -26.710938 L 16.984375 -26.558594 L 16.832031 -26.445312 L 16.527344 -25.914062 L 16.375 -25.113281 L 16.261719 -24.507812 L 16.222656 -24.277344 L 16.222656 -23.9375 L 16.109375 -23.632812 L 16.035156 -23.367188 L 15.917969 -22.835938 L 15.882812 -22.53125 L 15.804688 -22 L 15.730469 -21.769531 L 15.691406 -21.503906 L 15.578125 -21.011719 L 15.578125 -20.785156 L 15.464844 -20.097656 L 15.503906 -19.832031 L 15.273438 -19.378906 L 15.273438 -19.113281 L 15.234375 -18.65625 L 15.234375 -18.199219 L 15.085938 -17.707031 L 15.085938 -17.476562 L 15.007812 -16.945312 L 14.933594 -16.71875 L 14.894531 -16.1875 L 14.855469 -15.882812 L 14.816406 -15.617188 L 14.78125 -15.386719 L 14.667969 -14.855469 L 14.667969 -13.5625 L 14.550781 -12.765625 L 14.4375 -10.941406 L 14.4375 -10.410156 L 14.363281 -9.5 L 14.324219 -8.738281 L 14.210938 -8.738281 L 14.097656 -9.574219 L 13.980469 -10.601562 L 13.90625 -11.054688 L 13.832031 -11.324219 L 13.832031 -11.589844 L 13.753906 -12.425781 L 13.601562 -13.296875 L 13.488281 -14.324219 L 13.414062 -14.628906 L 13.335938 -15.160156 L 13.296875 -15.769531 L 13.183594 -16.414062 L 13.109375 -17.058594 L 12.996094 -17.628906 L 12.957031 -18.046875 L 12.957031 -18.3125 L 12.84375 -18.730469 L 12.84375 -18.960938 L 12.726562 -19.453125 L 12.652344 -20.023438 L 12.613281 -20.289062 L 12.539062 -20.59375 L 12.386719 -21.351562 L 12.273438 -21.886719 L 12.160156 -22.53125 L 12.042969 -23.140625 L 11.890625 -24.050781 L 11.742188 -24.582031 L 11.703125 -25 L 11.625 -25.457031 L 11.472656 -25.835938 L 11.4375 -26.101562 L 11.207031 -26.445312 L 10.789062 -26.558594 L 10.257812 -26.558594 L 9.6875 -26.597656 L 9.234375 -26.558594 L 8.511719 -26.597656 L 8.015625 -26.558594 L 7.675781 -26.558594 L 7.027344 -26.597656 L 6.496094 -26.558594 L 6.117188 -26.484375 L 5.890625 -26.066406 L 5.773438 -25.875 L 5.699219 -25.648438 L 5.585938 -25.152344 L 5.585938 -24.847656 L 5.472656 -24.355469 L 5.394531 -23.898438 L 5.320312 -23.40625 L 5.28125 -23.140625 L 5.207031 -22.910156 L 5.167969 -22.644531 L 5.128906 -22.417969 L 5.089844 -22.152344 L 5.054688 -21.65625 L 4.976562 -21.316406 L 4.824219 -20.972656 L 4.824219 -20.707031 L 4.636719 -19.644531 L 4.558594 -19.414062 L 4.519531 -19.148438 L 4.519531 -18.695312 L 4.40625 -18.351562 L 4.292969 -17.933594 L 4.21875 -17.441406 L 4.140625 -17.171875 L 4.140625 -16.90625 L 4.027344 -16.640625 L 4.027344 -16.335938 L 3.914062 -16.035156 L 3.875 -15.730469 L 3.875 -15.199219 L 3.800781 -14.816406 L 3.722656 -14.515625 L 3.535156 -14.058594 L 3.496094 -13.679688 L 3.457031 -13.144531 L 3.417969 -12.878906 L 3.382812 -12.652344 L 3.191406 -12.195312 L 3.191406 -11.96875 L 3.152344 -11.742188 L 3.117188 -11.246094 L 3.039062 -11.019531 L 3 -10.753906 L 2.925781 -10.296875 L 2.8125 -9.878906 L 2.734375 -9.535156 L 2.660156 -9.082031 L 2.507812 -8.472656 L 2.433594 -7.980469 L 2.46875 -7.714844 L 2.433594 -7.484375 L 2.316406 -7.027344 L 2.28125 -6.761719 L 2.242188 -6.308594 L 2.089844 -6.042969 L 2.089844 -5.546875 L 2.015625 -5.242188 L 2.015625 -4.976562 L 1.898438 -4.371094 L 1.824219 -4.027344 L 1.710938 -3.496094 L 1.632812 -3.304688 L 1.519531 -2.773438 L 1.480469 -2.507812 L 1.328125 -1.976562 L 1.253906 -1.367188 L 1.253906 -0.761719 L 1.179688 -0.457031 L 1.367188 0 Z M 1.9375 0.0742188" transform="translate(49.606949, 190.030051)"/></g></g></g><g fill="#000" fill-opacity="1"><g><g><path d="M 8.246094 0.226562 L 9.003906 0.226562 L 9.574219 0.191406 L 10.449219 0.191406 L 11.207031 0.113281 L 11.4375 0.0390625 L 11.777344 -0.0390625 L 12.234375 -0.152344 L 12.460938 -0.226562 L 13.070312 -0.457031 L 13.261719 -0.609375 L 13.714844 -0.796875 L 14.019531 -0.988281 L 14.363281 -1.179688 L 14.667969 -1.558594 L 15.007812 -1.824219 L 15.234375 -2.164062 L 15.386719 -2.507812 L 15.578125 -2.773438 L 15.730469 -3.039062 L 15.957031 -3.570312 L 16.109375 -3.800781 L 16.375 -4.292969 L 16.488281 -4.789062 L 16.679688 -5.015625 L 16.792969 -5.660156 L 16.945312 -6.15625 L 17.097656 -6.609375 L 17.171875 -6.878906 L 17.25 -7.105469 L 17.25 -7.371094 L 17.324219 -7.714844 L 17.441406 -8.132812 L 17.515625 -8.398438 L 17.515625 -8.625 L 17.628906 -9.117188 L 17.78125 -9.574219 L 17.78125 -9.652344 L 17.894531 -10.183594 L 17.933594 -10.449219 L 18.085938 -10.980469 L 18.199219 -11.472656 L 18.277344 -11.929688 L 18.3125 -12.425781 L 18.464844 -12.726562 L 18.542969 -13.261719 L 18.542969 -13.527344 L 18.695312 -14.058594 L 18.730469 -14.589844 L 18.808594 -15.121094 L 18.84375 -15.351562 L 18.960938 -15.882812 L 18.960938 -16.109375 L 19.074219 -16.679688 L 19.339844 -17.515625 L 19.300781 -17.78125 L 19.378906 -18.046875 L 19.414062 -18.277344 L 19.492188 -18.542969 L 19.492188 -18.808594 L 19.605469 -19.261719 L 19.679688 -19.605469 L 19.796875 -19.949219 L 19.871094 -20.289062 L 19.984375 -20.707031 L 19.984375 -20.933594 L 20.136719 -21.390625 L 20.097656 -21.621094 L 20.25 -22.113281 L 20.289062 -22.378906 L 20.367188 -22.683594 L 20.402344 -22.949219 L 20.554688 -23.480469 L 20.59375 -23.785156 L 20.667969 -24.316406 L 20.746094 -24.621094 L 20.785156 -25.191406 L 21.011719 -25.722656 L 20.972656 -26.292969 L 20.667969 -26.597656 L 20.367188 -26.632812 L 20.023438 -26.597656 L 19.757812 -26.558594 L 19.378906 -26.597656 L 19.113281 -26.558594 L 18.808594 -26.558594 L 18.542969 -26.597656 L 18.277344 -26.597656 L 17.171875 -26.558594 L 16.90625 -26.597656 L 16.640625 -26.597656 L 15.503906 -26.558594 L 15.386719 -26.292969 L 15.351562 -25.988281 L 15.234375 -25.496094 L 15.121094 -24.960938 L 15.007812 -24.46875 L 14.96875 -24.242188 L 14.933594 -23.785156 L 14.894531 -23.558594 L 14.703125 -23.140625 L 14.742188 -22.871094 L 14.667969 -22.378906 L 14.589844 -21.847656 L 14.476562 -21.316406 L 14.4375 -21.011719 L 14.363281 -20.480469 L 14.324219 -20.175781 L 14.171875 -19.644531 L 14.210938 -19.226562 L 13.980469 -18.84375 L 13.980469 -18.3125 L 13.945312 -18.125 L 13.867188 -17.589844 L 13.867188 -17.289062 L 13.714844 -16.753906 L 13.679688 -16.453125 L 13.527344 -15.917969 L 13.449219 -15.464844 L 13.335938 -14.96875 L 13.261719 -14.476562 L 13.261719 -14.171875 L 13.070312 -13.640625 L 12.996094 -13.375 L 12.957031 -12.917969 L 12.804688 -12.234375 L 12.726562 -11.855469 L 12.652344 -11.359375 L 12.613281 -11.09375 L 12.539062 -10.789062 L 12.460938 -10.523438 L 12.425781 -10.183594 L 12.347656 -9.839844 L 12.273438 -9.613281 L 12.234375 -9.234375 L 12.160156 -8.96875 L 12.042969 -8.433594 L 11.855469 -7.675781 L 11.777344 -7.445312 L 11.703125 -7.105469 L 11.511719 -6.726562 L 11.246094 -6.117188 L 11.132812 -5.890625 L 10.90625 -5.585938 L 10.523438 -5.28125 L 9.652344 -5.167969 L 8.851562 -5.28125 L 8.433594 -5.394531 L 8.015625 -5.890625 L 7.980469 -6.34375 L 7.980469 -6.761719 L 7.941406 -7.371094 L 7.980469 -7.636719 L 8.015625 -7.863281 L 8.054688 -8.207031 L 8.167969 -9.117188 L 8.28125 -9.613281 L 8.320312 -10.144531 L 8.433594 -10.90625 L 8.625 -12.273438 L 8.699219 -12.726562 L 8.851562 -13.222656 L 8.851562 -13.714844 L 8.96875 -14.171875 L 9.042969 -14.398438 L 9.117188 -14.667969 L 9.15625 -14.96875 L 9.195312 -15.3125 L 9.347656 -15.652344 L 9.269531 -16.148438 L 9.308594 -16.375 L 9.5 -16.90625 L 9.5 -17.171875 L 9.574219 -17.476562 L 9.613281 -17.742188 L 9.652344 -18.125 L 9.765625 -18.390625 L 9.800781 -18.617188 L 9.878906 -19.1875 L 9.992188 -19.757812 L 10.03125 -20.0625 L 10.21875 -20.59375 L 10.257812 -20.859375 L 10.257812 -21.238281 L 10.296875 -21.542969 L 10.371094 -22.035156 L 10.523438 -22.492188 L 10.523438 -22.757812 L 10.601562 -22.988281 L 10.636719 -23.253906 L 10.714844 -23.558594 L 10.789062 -23.898438 L 10.867188 -24.164062 L 10.828125 -24.695312 L 10.90625 -24.960938 L 10.980469 -25.191406 L 10.980469 -25.722656 L 10.941406 -26.292969 L 10.601562 -26.558594 L 9.992188 -26.597656 L 9.652344 -26.632812 L 8.738281 -26.558594 L 7.144531 -26.597656 L 6.800781 -26.558594 L 6.609375 -26.558594 L 5.964844 -26.519531 L 5.738281 -26.445312 L 5.660156 -26.140625 L 5.507812 -25.609375 L 5.433594 -25.078125 L 5.355469 -24.695312 L 5.28125 -24.507812 L 5.089844 -24.011719 L 4.976562 -22.949219 L 4.902344 -22.722656 L 4.902344 -22.453125 L 4.789062 -21.921875 L 4.789062 -21.621094 L 4.75 -21.316406 L 4.636719 -20.785156 L 4.597656 -20.480469 L 4.558594 -20.214844 L 4.371094 -19.71875 L 4.332031 -19.492188 L 4.332031 -19.226562 L 4.253906 -18.730469 L 4.179688 -18.503906 L 4.066406 -17.441406 L 3.953125 -17.210938 L 3.914062 -16.679688 L 3.914062 -16.375 L 3.761719 -15.84375 L 3.648438 -15.351562 L 3.609375 -14.816406 L 3.457031 -14.324219 L 3.457031 -13.832031 L 3.382812 -13.5625 L 3.265625 -13.109375 L 3.230469 -12.84375 L 3.265625 -12.578125 L 3.152344 -12.121094 L 3.117188 -11.890625 L 3.078125 -11.625 L 2.925781 -11.171875 L 2.925781 -10.675781 L 2.851562 -10.296875 L 2.773438 -9.839844 L 2.734375 -9.269531 L 2.699219 -8.777344 L 2.546875 -7.75 L 2.46875 -7.410156 L 2.433594 -6.117188 L 2.394531 -5.890625 L 2.546875 -4.597656 L 2.582031 -4.066406 L 2.734375 -3.457031 L 3.039062 -2.925781 L 3.34375 -2.316406 L 3.382812 -2.203125 L 3.570312 -1.898438 L 3.761719 -1.671875 L 3.988281 -1.40625 L 4.371094 -1.027344 L 5.128906 -0.570312 L 5.355469 -0.457031 L 5.625 -0.34375 L 6.269531 -0.113281 L 6.421875 -0.0390625 L 6.6875 0.0390625 Z M 8.246094 0.226562" transform="translate(70.084765, 190.030051)"/></g></g></g><g fill="#000" fill-opacity="1"><g><g><path d="M 4.710938 0.113281 L 5.167969 0 L 8.472656 0 L 8.929688 -0.191406 L 9.003906 -0.417969 L 9.117188 -0.949219 L 9.195312 -1.480469 L 9.421875 -2.546875 L 9.613281 -3.382812 L 9.574219 -3.683594 L 9.6875 -4.21875 L 9.765625 -4.519531 L 9.953125 -5.320312 L 10.070312 -5.8125 L 10.105469 -6.078125 L 10.257812 -6.574219 L 10.371094 -7.179688 L 10.488281 -7.714844 L 10.449219 -7.980469 L 10.488281 -8.207031 L 10.523438 -8.472656 L 10.675781 -8.929688 L 10.714844 -9.195312 L 10.789062 -9.421875 L 10.828125 -9.652344 L 10.828125 -10.03125 L 10.90625 -10.371094 L 11.019531 -10.941406 L 11.132812 -11.472656 L 11.132812 -11.703125 L 11.207031 -11.929688 L 11.246094 -12.460938 L 11.398438 -12.726562 L 11.511719 -13.183594 L 11.550781 -13.679688 L 11.550781 -13.945312 L 11.664062 -14.171875 L 11.777344 -14.703125 L 11.855469 -14.96875 L 11.929688 -15.539062 L 12.121094 -15.996094 L 12.121094 -16.261719 L 12.160156 -16.488281 L 12.195312 -16.945312 L 12.195312 -17.171875 L 12.347656 -17.667969 L 12.539062 -18.199219 L 12.460938 -18.390625 L 12.613281 -18.695312 L 12.765625 -19.378906 L 12.804688 -19.644531 L 12.878906 -20.136719 L 12.957031 -20.367188 L 12.957031 -20.59375 L 13.070312 -20.859375 L 13.03125 -21.085938 L 13.109375 -21.351562 L 13.449219 -21.390625 L 15.046875 -21.351562 L 15.425781 -21.351562 L 15.769531 -21.390625 L 16.222656 -21.390625 L 16.566406 -21.351562 L 16.945312 -21.390625 L 17.097656 -21.734375 L 17.136719 -22.265625 L 17.210938 -22.53125 L 17.363281 -23.023438 L 17.402344 -23.480469 L 17.441406 -23.707031 L 17.515625 -23.976562 L 17.589844 -24.429688 L 17.589844 -24.660156 L 17.667969 -24.925781 L 17.707031 -25.152344 L 17.707031 -25.417969 L 17.78125 -25.722656 L 17.820312 -25.988281 L 17.820312 -26.214844 L 17.742188 -26.519531 L 17.402344 -26.597656 L 16.871094 -26.632812 L 14.515625 -26.632812 L 14.171875 -26.671875 L 13.375 -26.632812 L 12.804688 -26.671875 L 10.371094 -26.632812 L 9.535156 -26.632812 L 9.269531 -26.671875 L 6.460938 -26.671875 L 6.191406 -26.632812 L 5.925781 -26.632812 L 5.738281 -26.671875 L 4.75 -26.671875 L 4.484375 -26.632812 L 4.140625 -26.367188 L 3.953125 -25.949219 L 3.914062 -25.722656 L 3.914062 -25.191406 L 3.800781 -24.960938 L 3.648438 -24.46875 L 3.609375 -23.9375 L 3.535156 -23.707031 L 3.382812 -23.175781 L 3.417969 -22.910156 L 3.417969 -22.605469 L 3.304688 -22.304688 L 3.230469 -21.847656 L 3.34375 -21.503906 L 3.683594 -21.390625 L 3.988281 -21.390625 L 4.371094 -21.351562 L 4.710938 -21.351562 L 4.976562 -21.390625 L 5.507812 -21.351562 L 7.5625 -21.351562 L 7.523438 -20.746094 L 7.445312 -20.175781 L 7.371094 -19.910156 L 7.257812 -19.414062 L 7.257812 -19.1875 L 7.21875 -18.921875 L 7.21875 -18.695312 L 7.179688 -18.464844 L 6.992188 -17.859375 L 6.914062 -17.589844 L 6.878906 -17.324219 L 6.878906 -17.023438 L 6.800781 -16.832031 L 6.800781 -16.453125 L 6.609375 -16.035156 L 6.648438 -15.769531 L 6.535156 -15.199219 L 6.460938 -14.96875 L 6.460938 -14.703125 L 6.308594 -14.476562 L 6.230469 -14.210938 L 6.230469 -13.867188 L 6.117188 -13.488281 L 6.117188 -12.957031 L 6.042969 -12.726562 L 5.851562 -12.273438 L 5.925781 -12.007812 L 5.851562 -11.742188 L 5.699219 -11.171875 L 5.507812 -10.636719 L 5.433594 -10.371094 L 5.394531 -10.105469 L 5.472656 -9.726562 L 5.28125 -9.347656 L 5.242188 -8.816406 L 5.167969 -8.585938 L 5.089844 -8.09375 L 5.054688 -7.828125 L 4.976562 -7.5625 L 4.863281 -6.992188 L 4.75 -6.535156 L 4.75 -6.230469 L 4.558594 -5.433594 L 4.597656 -5.128906 L 4.558594 -4.863281 L 4.371094 -4.332031 L 4.371094 -4.066406 L 4.332031 -3.535156 L 4.253906 -3.304688 L 4.21875 -2.734375 L 4.140625 -2.46875 L 3.875 -1.671875 L 3.835938 -0.875 L 3.761719 -0.304688 L 4.101562 0 L 4.371094 0 Z M 4.710938 0.113281" transform="translate(89.384824, 190.030051)"/></g></g></g><g fill="#000" fill-opacity="1"><g><g><path d="M 5.015625 0.0742188 L 5.320312 0.0390625 L 5.890625 0 L 6.230469 -0.0390625 L 6.609375 0 L 6.726562 -0.34375 L 6.839844 -0.609375 L 6.878906 -1.0625 L 6.914062 -1.328125 L 6.914062 -1.558594 L 6.953125 -1.824219 L 6.992188 -2.316406 L 6.992188 -2.546875 L 7.066406 -2.8125 L 7.027344 -3.039062 L 7.144531 -3.570312 L 7.144531 -3.875 L 7.21875 -4.101562 L 7.257812 -4.40625 L 7.410156 -5.207031 L 7.484375 -5.507812 L 7.484375 -6.308594 L 7.636719 -6.609375 L 7.714844 -7.144531 L 7.714844 -7.371094 L 7.789062 -7.902344 L 7.980469 -8.398438 L 7.980469 -9.042969 L 8.09375 -9.839844 L 8.132812 -10.144531 L 8.246094 -10.675781 L 8.320312 -10.90625 L 8.359375 -11.054688 L 8.625 -11.019531 L 8.777344 -10.867188 L 8.929688 -10.5625 L 9.003906 -10.257812 L 9.15625 -9.953125 L 9.234375 -9.574219 L 9.347656 -9.042969 L 9.421875 -8.851562 L 9.460938 -8.320312 L 9.613281 -7.828125 L 9.6875 -7.332031 L 9.765625 -7.066406 L 9.917969 -6.609375 L 9.953125 -6.34375 L 10.183594 -5.660156 L 10.183594 -5.207031 L 10.335938 -4.824219 L 10.449219 -4.40625 L 10.488281 -4.140625 L 10.601562 -3.914062 L 10.601562 -3.648438 L 10.714844 -3.382812 L 10.789062 -2.886719 L 10.867188 -2.773438 L 10.980469 -2.46875 L 10.980469 -2.164062 L 11.207031 -1.597656 L 11.324219 -1.179688 L 11.398438 -0.988281 L 11.511719 -0.53125 L 11.589844 -0.34375 L 11.929688 0 L 12.160156 0.0390625 L 12.5 0 L 12.804688 0 L 13.222656 -0.0390625 L 13.714844 -0.0390625 L 14.703125 -0.152344 L 15.503906 -0.265625 L 15.996094 -0.265625 L 16.414062 -0.34375 L 16.605469 -0.378906 L 16.71875 -0.875 L 16.453125 -1.597656 L 16.375 -1.9375 L 16.335938 -2.203125 L 16.300781 -2.660156 L 16.035156 -3.304688 L 15.957031 -3.835938 L 15.539062 -5.207031 L 15.464844 -5.699219 L 15.273438 -6.269531 L 15.273438 -6.496094 L 15.121094 -6.992188 L 15.046875 -7.296875 L 14.933594 -7.5625 L 14.855469 -8.09375 L 14.78125 -8.320312 L 14.667969 -8.816406 L 14.550781 -9.042969 L 14.476562 -9.535156 L 14.4375 -9.839844 L 14.285156 -10.070312 L 14.210938 -10.5625 L 14.210938 -10.90625 L 14.019531 -11.472656 L 13.90625 -11.777344 L 13.90625 -12.121094 L 14.171875 -12.160156 L 14.703125 -12.425781 L 15.464844 -12.917969 L 15.996094 -13.488281 L 16.1875 -13.679688 L 16.605469 -14.171875 L 16.71875 -14.398438 L 17.023438 -14.894531 L 17.171875 -15.234375 L 17.289062 -15.503906 L 17.628906 -15.996094 L 17.820312 -16.453125 L 17.933594 -16.71875 L 18.007812 -16.945312 L 18.085938 -17.210938 L 18.238281 -17.667969 L 18.351562 -18.046875 L 18.425781 -18.65625 L 18.542969 -19.261719 L 18.542969 -19.53125 L 18.503906 -20.097656 L 18.542969 -20.367188 L 18.65625 -20.898438 L 18.65625 -21.203125 L 18.542969 -21.921875 L 18.542969 -22.1875 L 18.464844 -22.910156 L 18.351562 -23.519531 L 18.085938 -24.050781 L 17.820312 -24.507812 L 17.667969 -24.695312 L 17.476562 -24.925781 L 17.324219 -25.078125 L 16.871094 -25.34375 L 16.679688 -25.457031 L 16.453125 -25.570312 L 16.109375 -25.796875 L 15.84375 -25.875 L 15.503906 -26.027344 L 15.085938 -26.214844 L 14.78125 -26.292969 L 14.171875 -26.292969 L 13.753906 -26.367188 L 13.183594 -26.40625 L 12.691406 -26.484375 L 12.347656 -26.484375 L 11.777344 -26.558594 L 11.472656 -26.632812 L 11.09375 -26.597656 L 10.828125 -26.558594 L 9.195312 -26.558594 L 6.914062 -26.597656 L 6.382812 -26.597656 L 6.003906 -26.519531 L 5.738281 -26.214844 L 5.585938 -26.027344 L 5.625 -25.609375 L 5.472656 -25.304688 L 5.472656 -25 L 5.433594 -24.734375 L 5.394531 -24.429688 L 5.242188 -23.367188 L 5.128906 -22.757812 L 5.015625 -22.304688 L 4.9375 -22.035156 L 4.9375 -21.808594 L 4.902344 -21.316406 L 4.902344 -21.085938 L 4.863281 -20.859375 L 4.75 -20.328125 L 4.636719 -19.71875 L 4.519531 -19.1875 L 4.484375 -18.960938 L 4.445312 -18.425781 L 4.292969 -17.972656 L 4.253906 -17.742188 L 4.253906 -17.476562 L 4.21875 -17.25 L 4.140625 -16.753906 L 4.101562 -16.488281 L 4.066406 -16.261719 L 4.066406 -15.996094 L 3.875 -15.199219 L 3.875 -14.894531 L 3.800781 -14.363281 L 3.722656 -13.867188 L 3.683594 -13.640625 L 3.609375 -13.222656 L 3.535156 -12.957031 L 3.535156 -12.726562 L 3.417969 -12.5 L 3.34375 -12.234375 L 3.304688 -11.777344 L 3.34375 -11.550781 L 3.265625 -11.324219 L 3.078125 -11.054688 L 3.078125 -10.714844 L 3.039062 -10.410156 L 3 -10.144531 L 2.851562 -9.613281 L 2.851562 -9.308594 L 2.8125 -8.738281 L 2.734375 -8.359375 L 2.734375 -8.015625 L 2.546875 -7.332031 L 2.546875 -6.761719 L 2.394531 -6.460938 L 2.433594 -6.15625 L 2.394531 -5.890625 L 2.316406 -5.585938 L 2.28125 -5.054688 L 2.164062 -4.75 L 2.203125 -4.484375 L 2.089844 -4.179688 L 2.089844 -3.914062 L 1.976562 -3.382812 L 1.9375 -3.117188 L 1.9375 -2.886719 L 1.824219 -2.621094 L 1.824219 -2.355469 L 1.746094 -2.128906 L 1.746094 -1.863281 L 1.710938 -1.445312 L 1.671875 -1.0625 L 1.558594 -0.683594 L 1.558594 -0.34375 L 1.632812 -0.113281 L 1.976562 -0.0390625 L 3.152344 0.0390625 L 3.648438 0.0390625 Z M 9.953125 -15.578125 L 9.308594 -15.652344 L 9.347656 -15.957031 L 9.308594 -16.222656 L 9.347656 -16.488281 L 9.460938 -17.097656 L 9.535156 -17.441406 L 9.5 -17.78125 L 9.613281 -18.125 L 9.6875 -18.695312 L 9.6875 -18.960938 L 9.800781 -19.566406 L 9.878906 -19.871094 L 9.917969 -20.367188 L 9.953125 -20.933594 L 10.03125 -21.542969 L 10.144531 -21.808594 L 10.257812 -22.226562 L 10.601562 -22.339844 L 11.511719 -22.304688 L 12.347656 -22.1875 L 12.691406 -22 L 12.957031 -21.734375 L 13.144531 -21.390625 L 13.261719 -20.59375 L 13.296875 -19.757812 L 13.261719 -19.148438 L 13.144531 -18.84375 L 13.144531 -18.542969 L 12.878906 -18.007812 L 12.84375 -17.78125 L 12.765625 -17.476562 L 12.578125 -16.984375 L 12.308594 -16.753906 L 12.160156 -16.527344 L 11.890625 -16.222656 L 11.625 -16.070312 L 11.246094 -15.84375 L 11.019531 -15.691406 L 10.5625 -15.578125 Z M 9.953125 -15.578125" transform="translate(104.201798, 190.030051)"/></g></g></g><g fill="#000" fill-opacity="1"><g><g><path d="M 5.242188 0.0742188 L 6.230469 0.0742188 L 6.648438 -0.0390625 L 6.761719 -0.378906 L 6.800781 -0.683594 L 6.914062 -1.179688 L 6.992188 -1.710938 L 7.105469 -2.203125 L 7.257812 -3.117188 L 7.371094 -3.535156 L 7.371094 -3.800781 L 7.445312 -4.292969 L 7.523438 -4.824219 L 7.636719 -5.355469 L 7.636719 -5.660156 L 7.789062 -6.15625 L 7.828125 -6.460938 L 7.941406 -7.027344 L 7.902344 -7.445312 L 8.09375 -7.828125 L 8.09375 -8.359375 L 8.132812 -8.550781 L 8.207031 -9.082031 L 8.207031 -9.382812 L 8.359375 -9.917969 L 8.359375 -10.21875 L 8.511719 -10.753906 L 8.585938 -11.207031 L 8.664062 -11.703125 L 8.777344 -12.195312 L 8.777344 -12.5 L 8.890625 -12.765625 L 9.042969 -13.296875 L 9.234375 -14.4375 L 9.347656 -14.816406 L 9.421875 -15.3125 L 9.421875 -15.578125 L 9.460938 -15.882812 L 9.5 -16.148438 L 9.5 -16.488281 L 9.613281 -16.832031 L 9.726562 -17.363281 L 9.765625 -17.554688 L 9.878906 -18.046875 L 9.992188 -18.503906 L 10.070312 -18.996094 L 10.105469 -19.261719 L 10.144531 -19.71875 L 10.183594 -19.984375 L 10.257812 -20.441406 L 10.335938 -20.667969 L 10.410156 -21.085938 L 10.601562 -22.074219 L 10.636719 -22.304688 L 10.636719 -22.570312 L 10.675781 -22.796875 L 10.675781 -23.101562 L 10.828125 -23.441406 L 10.90625 -23.976562 L 11.019531 -24.164062 L 11.019531 -24.507812 L 11.132812 -24.660156 L 11.09375 -24.886719 L 11.132812 -25.304688 L 11.207031 -25.417969 L 11.207031 -25.914062 L 11.246094 -26.140625 L 11.09375 -26.519531 L 10.675781 -26.632812 L 10.410156 -26.597656 L 8.398438 -26.597656 L 8.132812 -26.558594 L 7.597656 -26.558594 L 7.257812 -26.597656 L 6.6875 -26.558594 L 6.421875 -26.519531 L 6.191406 -26.367188 L 5.925781 -26.253906 L 5.660156 -25.875 L 5.625 -25.609375 L 5.546875 -25.378906 L 5.472656 -24.8125 L 5.320312 -24.394531 L 5.242188 -23.976562 L 5.207031 -23.519531 L 5.128906 -23.289062 L 5.089844 -23.0625 L 4.976562 -22.570312 L 4.902344 -22.035156 L 4.824219 -21.847656 L 4.789062 -21.351562 L 4.75 -21.050781 L 4.789062 -20.785156 L 4.636719 -20.289062 L 4.597656 -20.023438 L 4.484375 -19.53125 L 4.445312 -19.300781 L 4.292969 -18.84375 L 4.332031 -18.578125 L 4.292969 -18.351562 L 4.21875 -17.820312 L 4.101562 -17.554688 L 4.101562 -17.023438 L 3.988281 -16.222656 L 3.800781 -15.691406 L 3.683594 -15.199219 L 3.609375 -14.742188 L 3.609375 -14.25 L 3.457031 -13.945312 L 3.382812 -13.414062 L 3.382812 -13.144531 L 3.230469 -12.613281 L 3.230469 -12.082031 L 3.152344 -11.550781 L 3.117188 -11.324219 L 3.078125 -11.054688 L 3 -10.789062 L 3 -10.5625 L 2.925781 -9.992188 L 2.660156 -9.15625 L 2.699219 -8.890625 L 2.621094 -8.625 L 2.582031 -8.398438 L 2.507812 -8.132812 L 2.507812 -7.863281 L 2.433594 -7.410156 L 2.355469 -7.066406 L 2.242188 -6.726562 L 2.164062 -6.382812 L 2.050781 -5.964844 L 1.9375 -5.28125 L 1.976562 -5.054688 L 1.824219 -4.558594 L 1.785156 -4.292969 L 1.710938 -3.988281 L 1.671875 -3.722656 L 1.558594 -3.152344 L 1.519531 -2.851562 L 1.445312 -2.316406 L 1.367188 -2.050781 L 1.328125 -1.480469 L 1.140625 -0.949219 L 1.179688 -0.378906 L 1.480469 -0.113281 L 1.785156 -0.0390625 L 2.089844 -0.0742188 L 2.355469 -0.0390625 L 2.773438 0 L 3.039062 -0.0390625 L 3.34375 -0.0390625 L 3.875 0.0390625 L 4.976562 0.0390625 Z M 5.242188 0.0742188" transform="translate(122.058151, 190.030051)"/></g></g></g><g fill="#000" fill-opacity="1"><g><g><path d="M 4.710938 0.113281 L 5.167969 0 L 8.472656 0 L 8.929688 -0.191406 L 9.003906 -0.417969 L 9.117188 -0.949219 L 9.195312 -1.480469 L 9.421875 -2.546875 L 9.613281 -3.382812 L 9.574219 -3.683594 L 9.6875 -4.21875 L 9.765625 -4.519531 L 9.953125 -5.320312 L 10.070312 -5.8125 L 10.105469 -6.078125 L 10.257812 -6.574219 L 10.371094 -7.179688 L 10.488281 -7.714844 L 10.449219 -7.980469 L 10.488281 -8.207031 L 10.523438 -8.472656 L 10.675781 -8.929688 L 10.714844 -9.195312 L 10.789062 -9.421875 L 10.828125 -9.652344 L 10.828125 -10.03125 L 10.90625 -10.371094 L 11.019531 -10.941406 L 11.132812 -11.472656 L 11.132812 -11.703125 L 11.207031 -11.929688 L 11.246094 -12.460938 L 11.398438 -12.726562 L 11.511719 -13.183594 L 11.550781 -13.679688 L 11.550781 -13.945312 L 11.664062 -14.171875 L 11.777344 -14.703125 L 11.855469 -14.96875 L 11.929688 -15.539062 L 12.121094 -15.996094 L 12.121094 -16.261719 L 12.160156 -16.488281 L 12.195312 -16.945312 L 12.195312 -17.171875 L 12.347656 -17.667969 L 12.539062 -18.199219 L 12.460938 -18.390625 L 12.613281 -18.695312 L 12.765625 -19.378906 L 12.804688 -19.644531 L 12.878906 -20.136719 L 12.957031 -20.367188 L 12.957031 -20.59375 L 13.070312 -20.859375 L 13.03125 -21.085938 L 13.109375 -21.351562 L 13.449219 -21.390625 L 15.046875 -21.351562 L 15.425781 -21.351562 L 15.769531 -21.390625 L 16.222656 -21.390625 L 16.566406 -21.351562 L 16.945312 -21.390625 L 17.097656 -21.734375 L 17.136719 -22.265625 L 17.210938 -22.53125 L 17.363281 -23.023438 L 17.402344 -23.480469 L 17.441406 -23.707031 L 17.515625 -23.976562 L 17.589844 -24.429688 L 17.589844 -24.660156 L 17.667969 -24.925781 L 17.707031 -25.152344 L 17.707031 -25.417969 L 17.78125 -25.722656 L 17.820312 -25.988281 L 17.820312 -26.214844 L 17.742188 -26.519531 L 17.402344 -26.597656 L 16.871094 -26.632812 L 14.515625 -26.632812 L 14.171875 -26.671875 L 13.375 -26.632812 L 12.804688 -26.671875 L 10.371094 -26.632812 L 9.535156 -26.632812 L 9.269531 -26.671875 L 6.460938 -26.671875 L 6.191406 -26.632812 L 5.925781 -26.632812 L 5.738281 -26.671875 L 4.75 -26.671875 L 4.484375 -26.632812 L 4.140625 -26.367188 L 3.953125 -25.949219 L 3.914062 -25.722656 L 3.914062 -25.191406 L 3.800781 -24.960938 L 3.648438 -24.46875 L 3.609375 -23.9375 L 3.535156 -23.707031 L 3.382812 -23.175781 L 3.417969 -22.910156 L 3.417969 -22.605469 L 3.304688 -22.304688 L 3.230469 -21.847656 L 3.34375 -21.503906 L 3.683594 -21.390625 L 3.988281 -21.390625 L 4.371094 -21.351562 L 4.710938 -21.351562 L 4.976562 -21.390625 L 5.507812 -21.351562 L 7.5625 -21.351562 L 7.523438 -20.746094 L 7.445312 -20.175781 L 7.371094 -19.910156 L 7.257812 -19.414062 L 7.257812 -19.1875 L 7.21875 -18.921875 L 7.21875 -18.695312 L 7.179688 -18.464844 L 6.992188 -17.859375 L 6.914062 -17.589844 L 6.878906 -17.324219 L 6.878906 -17.023438 L 6.800781 -16.832031 L 6.800781 -16.453125 L 6.609375 -16.035156 L 6.648438 -15.769531 L 6.535156 -15.199219 L 6.460938 -14.96875 L 6.460938 -14.703125 L 6.308594 -14.476562 L 6.230469 -14.210938 L 6.230469 -13.867188 L 6.117188 -13.488281 L 6.117188 -12.957031 L 6.042969 -12.726562 L 5.851562 -12.273438 L 5.925781 -12.007812 L 5.851562 -11.742188 L 5.699219 -11.171875 L 5.507812 -10.636719 L 5.433594 -10.371094 L 5.394531 -10.105469 L 5.472656 -9.726562 L 5.28125 -9.347656 L 5.242188 -8.816406 L 5.167969 -8.585938 L 5.089844 -8.09375 L 5.054688 -7.828125 L 4.976562 -7.5625 L 4.863281 -6.992188 L 4.75 -6.535156 L 4.75 -6.230469 L 4.558594 -5.433594 L 4.597656 -5.128906 L 4.558594 -4.863281 L 4.371094 -4.332031 L 4.371094 -4.066406 L 4.332031 -3.535156 L 4.253906 -3.304688 L 4.21875 -2.734375 L 4.140625 -2.46875 L 3.875 -1.671875 L 3.835938 -0.875 L 3.761719 -0.304688 L 4.101562 0 L 4.371094 0 Z M 4.710938 0.113281" transform="translate(132.050112, 190.030051)"/></g></g></g><g fill="#000" fill-opacity="1"><g><g><path d="M 5.242188 0.0742188 L 6.230469 0.0742188 L 6.648438 -0.0390625 L 6.761719 -0.378906 L 6.800781 -0.683594 L 6.914062 -1.179688 L 6.992188 -1.710938 L 7.105469 -2.203125 L 7.257812 -3.117188 L 7.371094 -3.535156 L 7.371094 -3.800781 L 7.445312 -4.292969 L 7.523438 -4.824219 L 7.636719 -5.355469 L 7.636719 -5.660156 L 7.789062 -6.15625 L 7.828125 -6.460938 L 7.941406 -7.027344 L 7.902344 -7.445312 L 8.09375 -7.828125 L 8.09375 -8.359375 L 8.132812 -8.550781 L 8.207031 -9.082031 L 8.207031 -9.382812 L 8.359375 -9.917969 L 8.359375 -10.21875 L 8.511719 -10.753906 L 8.585938 -11.207031 L 8.664062 -11.703125 L 8.777344 -12.195312 L 8.777344 -12.5 L 8.890625 -12.765625 L 9.042969 -13.296875 L 9.234375 -14.4375 L 9.347656 -14.816406 L 9.421875 -15.3125 L 9.421875 -15.578125 L 9.460938 -15.882812 L 9.5 -16.148438 L 9.5 -16.488281 L 9.613281 -16.832031 L 9.726562 -17.363281 L 9.765625 -17.554688 L 9.878906 -18.046875 L 9.992188 -18.503906 L 10.070312 -18.996094 L 10.105469 -19.261719 L 10.144531 -19.71875 L 10.183594 -19.984375 L 10.257812 -20.441406 L 10.335938 -20.667969 L 10.410156 -21.085938 L 10.601562 -22.074219 L 10.636719 -22.304688 L 10.636719 -22.570312 L 10.675781 -22.796875 L 10.675781 -23.101562 L 10.828125 -23.441406 L 10.90625 -23.976562 L 11.019531 -24.164062 L 11.019531 -24.507812 L 11.132812 -24.660156 L 11.09375 -24.886719 L 11.132812 -25.304688 L 11.207031 -25.417969 L 11.207031 -25.914062 L 11.246094 -26.140625 L 11.09375 -26.519531 L 10.675781 -26.632812 L 10.410156 -26.597656 L 8.398438 -26.597656 L 8.132812 -26.558594 L 7.597656 -26.558594 L 7.257812 -26.597656 L 6.6875 -26.558594 L 6.421875 -26.519531 L 6.191406 -26.367188 L 5.925781 -26.253906 L 5.660156 -25.875 L 5.625 -25.609375 L 5.546875 -25.378906 L 5.472656 -24.8125 L 5.320312 -24.394531 L 5.242188 -23.976562 L 5.207031 -23.519531 L 5.128906 -23.289062 L 5.089844 -23.0625 L 4.976562 -22.570312 L 4.902344 -22.035156 L 4.824219 -21.847656 L 4.789062 -21.351562 L 4.75 -21.050781 L 4.789062 -20.785156 L 4.636719 -20.289062 L 4.597656 -20.023438 L 4.484375 -19.53125 L 4.445312 -19.300781 L 4.292969 -18.84375 L 4.332031 -18.578125 L 4.292969 -18.351562 L 4.21875 -17.820312 L 4.101562 -17.554688 L 4.101562 -17.023438 L 3.988281 -16.222656 L 3.800781 -15.691406 L 3.683594 -15.199219 L 3.609375 -14.742188 L 3.609375 -14.25 L 3.457031 -13.945312 L 3.382812 -13.414062 L 3.382812 -13.144531 L 3.230469 -12.613281 L 3.230469 -12.082031 L 3.152344 -11.550781 L 3.117188 -11.324219 L 3.078125 -11.054688 L 3 -10.789062 L 3 -10.5625 L 2.925781 -9.992188 L 2.660156 -9.15625 L 2.699219 -8.890625 L 2.621094 -8.625 L 2.582031 -8.398438 L 2.507812 -8.132812 L 2.507812 -7.863281 L 2.433594 -7.410156 L 2.355469 -7.066406 L 2.242188 -6.726562 L 2.164062 -6.382812 L 2.050781 -5.964844 L 1.9375 -5.28125 L 1.976562 -5.054688 L 1.824219 -4.558594 L 1.785156 -4.292969 L 1.710938 -3.988281 L 1.671875 -3.722656 L 1.558594 -3.152344 L 1.519531 -2.851562 L 1.445312 -2.316406 L 1.367188 -2.050781 L 1.328125 -1.480469 L 1.140625 -0.949219 L 1.179688 -0.378906 L 1.480469 -0.113281 L 1.785156 -0.0390625 L 2.089844 -0.0742188 L 2.355469 -0.0390625 L 2.773438 0 L 3.039062 -0.0390625 L 3.34375 -0.0390625 L 3.875 0.0390625 L 4.976562 0.0390625 Z M 5.242188 0.0742188" transform="translate(146.867086, 190.030051)"/></g></g></g><g fill="#000" fill-opacity="1"><g><g><path d="M 9.195312 0.609375 L 10.03125 0.492188 L 10.449219 0.378906 L 10.714844 0.34375 L 11.246094 0.226562 L 11.550781 0.152344 L 11.816406 0.113281 L 12.691406 -0.226562 L 12.84375 -0.34375 L 13.296875 -0.644531 L 13.753906 -0.988281 L 13.945312 -1.214844 L 14.171875 -1.40625 L 14.628906 -1.863281 L 14.703125 -2.089844 L 14.894531 -2.316406 L 15.046875 -2.546875 L 15.386719 -3.039062 L 15.578125 -3.304688 L 15.882812 -3.988281 L 16.148438 -4.519531 L 16.1875 -4.902344 L 16.375 -5.167969 L 16.488281 -5.585938 L 16.488281 -5.851562 L 16.605469 -6.308594 L 16.792969 -6.726562 L 16.832031 -7.144531 L 16.945312 -7.371094 L 17.136719 -7.828125 L 17.097656 -8.054688 L 17.476562 -9.382812 L 17.589844 -9.613281 L 17.667969 -10.144531 L 17.742188 -10.410156 L 17.742188 -10.753906 L 17.859375 -11.4375 L 17.972656 -11.664062 L 18.085938 -12.160156 L 18.125 -12.613281 L 18.238281 -13.109375 L 18.3125 -13.601562 L 18.464844 -14.097656 L 18.425781 -14.550781 L 18.617188 -14.96875 L 18.578125 -15.351562 L 18.65625 -15.957031 L 18.730469 -16.222656 L 18.769531 -16.832031 L 18.808594 -17.402344 L 18.882812 -17.933594 L 18.921875 -18.160156 L 18.921875 -18.542969 L 18.882812 -18.808594 L 18.921875 -19.035156 L 18.996094 -19.300781 L 19.035156 -19.796875 L 19.035156 -20.0625 L 18.996094 -20.554688 L 19.035156 -20.785156 L 19.074219 -21.277344 L 19.074219 -21.542969 L 19.035156 -21.847656 L 18.960938 -22.570312 L 18.84375 -23.140625 L 18.769531 -23.40625 L 18.695312 -23.632812 L 18.578125 -23.859375 L 18.351562 -24.355469 L 18.238281 -24.621094 L 18.046875 -24.847656 L 17.628906 -25.230469 L 17.210938 -25.570312 L 17.023438 -25.796875 L 16.71875 -25.988281 L 16.035156 -26.445312 L 15.464844 -26.710938 L 15.234375 -26.785156 L 14.933594 -26.824219 L 14.628906 -26.9375 L 14.019531 -27.015625 L 13.601562 -27.050781 L 13.375 -27.089844 L 12.691406 -27.128906 L 12.234375 -27.089844 L 11.703125 -27.050781 L 11.019531 -26.9375 L 10.636719 -26.902344 L 10.070312 -26.75 L 9.839844 -26.710938 L 9.269531 -26.558594 L 8.816406 -26.332031 L 8.359375 -26.066406 L 8.09375 -25.875 L 7.789062 -25.761719 L 7.296875 -25.417969 L 6.761719 -24.847656 L 6.574219 -24.621094 L 6.308594 -24.429688 L 6.003906 -23.976562 L 5.699219 -23.480469 L 5.546875 -23.253906 L 5.507812 -22.988281 L 5.167969 -22.492188 L 5.015625 -22.226562 L 4.789062 -21.769531 L 4.597656 -21.238281 L 4.445312 -20.785156 L 4.332031 -20.515625 L 4.101562 -20.023438 L 4.027344 -19.53125 L 3.835938 -19.261719 L 3.683594 -18.3125 L 3.609375 -17.78125 L 3.570312 -17.554688 L 3.457031 -17.289062 L 3.382812 -16.832031 L 3.382812 -16.300781 L 3.304688 -16.035156 L 3.078125 -15.652344 L 3.117188 -15.425781 L 3.039062 -15.160156 L 3.039062 -14.933594 L 2.964844 -14.667969 L 2.851562 -14.4375 L 2.851562 -14.171875 L 2.734375 -13.714844 L 2.734375 -13.222656 L 2.621094 -12.765625 L 2.507812 -12.082031 L 2.433594 -11.816406 L 2.355469 -11.324219 L 2.433594 -11.132812 L 2.28125 -10.601562 L 2.28125 -10.335938 L 2.203125 -9.800781 L 2.203125 -9.5 L 2.050781 -8.96875 L 1.976562 -8.132812 L 1.976562 -7.863281 L 2.015625 -7.5625 L 1.898438 -7.179688 L 1.898438 -6.460938 L 1.824219 -6.191406 L 1.9375 -5.433594 L 1.976562 -5.207031 L 2.015625 -4.671875 L 2.089844 -4.445312 L 2.128906 -4.179688 L 2.203125 -3.953125 L 2.28125 -3.761719 L 2.316406 -3.535156 L 2.433594 -3.265625 L 2.433594 -3.039062 L 2.734375 -2.546875 L 2.925781 -2.28125 L 3.039062 -2.050781 L 3.230469 -1.863281 L 3.34375 -1.671875 L 3.875 -1.0625 L 4.558594 -0.492188 L 5.089844 -0.152344 L 5.355469 0 L 5.925781 0.152344 L 6.230469 0.191406 L 7.105469 0.457031 L 7.445312 0.492188 L 7.714844 0.53125 L 8.207031 0.492188 Z M 8.890625 -4.558594 L 8.664062 -4.597656 L 8.359375 -4.671875 L 8.054688 -4.789062 L 7.863281 -4.976562 L 7.636719 -5.320312 L 7.5625 -5.472656 L 7.445312 -5.738281 L 7.445312 -6.800781 L 7.332031 -7.066406 L 7.484375 -7.445312 L 7.523438 -7.902344 L 7.410156 -8.167969 L 7.523438 -8.433594 L 7.523438 -8.699219 L 7.636719 -9.269531 L 7.636719 -9.574219 L 7.714844 -9.839844 L 7.714844 -10.144531 L 7.789062 -10.488281 L 7.75 -10.636719 L 7.828125 -10.90625 L 7.789062 -11.207031 L 7.980469 -11.742188 L 8.09375 -12.007812 L 8.054688 -12.308594 L 8.09375 -12.578125 L 8.09375 -12.84375 L 8.167969 -13.375 L 8.246094 -13.640625 L 8.398438 -14.25 L 8.511719 -14.550781 L 8.585938 -15.121094 L 8.664062 -15.386719 L 8.699219 -15.652344 L 8.816406 -16.261719 L 8.929688 -16.792969 L 9.082031 -17.324219 L 9.117188 -17.554688 L 9.234375 -18.085938 L 9.269531 -18.390625 L 9.269531 -18.464844 L 9.5 -19.261719 L 9.574219 -19.566406 L 9.652344 -19.832031 L 9.878906 -20.328125 L 10.03125 -20.59375 L 10.183594 -21.050781 L 10.449219 -21.46875 L 10.828125 -21.808594 L 11.4375 -22.035156 L 11.742188 -22.113281 L 12.460938 -22.152344 L 13.070312 -21.886719 L 13.335938 -21.542969 L 13.488281 -21.316406 L 13.640625 -20.554688 L 13.5625 -20.023438 L 13.527344 -19.53125 L 13.449219 -18.84375 L 13.449219 -18.351562 L 13.375 -18.007812 L 13.261719 -17.476562 L 13.183594 -17.171875 L 13.144531 -16.679688 L 13.183594 -16.414062 L 13.109375 -16.148438 L 13.03125 -15.84375 L 12.957031 -15.386719 L 12.804688 -14.816406 L 12.84375 -14.171875 L 12.726562 -13.945312 L 12.652344 -13.222656 L 12.539062 -12.917969 L 12.425781 -12.578125 L 12.347656 -11.703125 L 12.234375 -11.132812 L 12.121094 -10.789062 L 12.160156 -10.675781 L 12.160156 -10.371094 L 12.042969 -10.144531 L 12.007812 -9.839844 L 11.890625 -9.347656 L 11.777344 -9.082031 L 11.742188 -8.550781 L 11.625 -8.246094 L 11.550781 -7.714844 L 11.472656 -7.445312 L 11.359375 -6.878906 L 11.359375 -6.574219 L 11.285156 -6.308594 L 11.054688 -5.773438 L 10.789062 -5.242188 L 10.257812 -4.863281 L 9.917969 -4.710938 L 9.382812 -4.558594 Z M 8.890625 -4.558594" transform="translate(156.859048, 190.030051)"/></g></g></g><g fill="#000" fill-opacity="1"><g><g><path d="M 1.9375 0.0742188 L 5.964844 0.0742188 L 6.382812 -0.0742188 L 6.496094 -0.457031 L 6.648438 -0.910156 L 6.761719 -1.597656 L 6.839844 -1.824219 L 6.839844 -2.316406 L 6.878906 -2.582031 L 6.992188 -3.078125 L 7.144531 -4.179688 L 7.21875 -4.445312 L 7.257812 -4.671875 L 7.332031 -5.207031 L 7.484375 -5.964844 L 7.636719 -6.535156 L 7.714844 -7.066406 L 7.75 -7.296875 L 7.714844 -7.5625 L 7.789062 -7.828125 L 7.902344 -8.28125 L 7.828125 -8.550781 L 7.941406 -9.042969 L 8.015625 -9.269531 L 8.167969 -10.753906 L 8.433594 -12.578125 L 8.472656 -13.527344 L 8.550781 -14.171875 L 8.585938 -14.589844 L 8.625 -15.351562 L 8.664062 -16.414062 L 8.777344 -16.414062 L 9.003906 -14.96875 L 9.234375 -13.601562 L 9.347656 -12.539062 L 9.535156 -11.324219 L 9.6875 -10.257812 L 9.765625 -9.535156 L 9.917969 -8.777344 L 9.917969 -8.207031 L 9.953125 -7.980469 L 10.070312 -7.445312 L 10.105469 -7.21875 L 10.21875 -6.6875 L 10.21875 -6.460938 L 10.335938 -5.890625 L 10.449219 -5.472656 L 10.488281 -4.902344 L 10.5625 -4.371094 L 10.601562 -4.140625 L 10.753906 -3.34375 L 10.789062 -3.117188 L 10.867188 -2.316406 L 10.90625 -2.089844 L 10.941406 -1.632812 L 10.980469 -1.445312 L 11.171875 -0.910156 L 11.472656 -0.304688 L 11.777344 -0.0390625 L 12.425781 -0.0390625 L 12.917969 0 L 13.679688 0 L 13.90625 -0.0390625 L 14.285156 0 L 14.550781 -0.0390625 L 15.273438 0 L 15.425781 0 L 15.84375 -0.0742188 L 16.375 -0.113281 L 16.753906 -0.378906 L 17.097656 -0.835938 L 17.289062 -2.050781 L 17.402344 -2.546875 L 17.476562 -2.8125 L 17.476562 -3.039062 L 17.667969 -3.535156 L 17.667969 -4.140625 L 17.820312 -4.671875 L 17.933594 -4.976562 L 18.007812 -5.472656 L 18.046875 -5.964844 L 18.085938 -6.382812 L 18.238281 -6.839844 L 18.390625 -7.179688 L 18.464844 -7.5625 L 18.542969 -8.09375 L 18.695312 -8.625 L 18.695312 -8.851562 L 18.730469 -9.082031 L 18.769531 -9.347656 L 18.808594 -9.574219 L 18.84375 -9.917969 L 18.921875 -10.257812 L 19.035156 -10.789062 L 19.148438 -11.019531 L 19.148438 -11.511719 L 19.1875 -11.742188 L 19.226562 -12.007812 L 19.300781 -12.234375 L 19.339844 -12.5 L 19.414062 -12.726562 L 19.378906 -13.070312 L 19.453125 -13.375 L 19.53125 -13.90625 L 19.644531 -14.398438 L 19.71875 -14.667969 L 19.832031 -15.160156 L 19.910156 -15.464844 L 19.949219 -15.730469 L 19.984375 -16.148438 L 20.097656 -16.488281 L 20.25 -17.628906 L 20.328125 -17.894531 L 20.328125 -18.390625 L 20.402344 -18.65625 L 20.480469 -18.960938 L 20.59375 -19.300781 L 20.667969 -19.910156 L 20.820312 -20.515625 L 20.933594 -21.316406 L 21.011719 -21.621094 L 21.125 -22.304688 L 21.238281 -22.722656 L 21.46875 -23.632812 L 21.542969 -24.164062 L 21.65625 -25 L 21.621094 -25.304688 L 21.734375 -25.835938 L 21.734375 -26.140625 L 21.695312 -26.445312 L 21.46875 -26.558594 L 20.933594 -26.671875 L 20.402344 -26.632812 L 20.023438 -26.632812 L 19.148438 -26.671875 L 18.769531 -26.671875 L 18.503906 -26.632812 L 17.707031 -26.710938 L 16.984375 -26.558594 L 16.832031 -26.445312 L 16.527344 -25.914062 L 16.375 -25.113281 L 16.261719 -24.507812 L 16.222656 -24.277344 L 16.222656 -23.9375 L 16.109375 -23.632812 L 16.035156 -23.367188 L 15.917969 -22.835938 L 15.882812 -22.53125 L 15.804688 -22 L 15.730469 -21.769531 L 15.691406 -21.503906 L 15.578125 -21.011719 L 15.578125 -20.785156 L 15.464844 -20.097656 L 15.503906 -19.832031 L 15.273438 -19.378906 L 15.273438 -19.113281 L 15.234375 -18.65625 L 15.234375 -18.199219 L 15.085938 -17.707031 L 15.085938 -17.476562 L 15.007812 -16.945312 L 14.933594 -16.71875 L 14.894531 -16.1875 L 14.855469 -15.882812 L 14.816406 -15.617188 L 14.78125 -15.386719 L 14.667969 -14.855469 L 14.667969 -13.5625 L 14.550781 -12.765625 L 14.4375 -10.941406 L 14.4375 -10.410156 L 14.363281 -9.5 L 14.324219 -8.738281 L 14.210938 -8.738281 L 14.097656 -9.574219 L 13.980469 -10.601562 L 13.90625 -11.054688 L 13.832031 -11.324219 L 13.832031 -11.589844 L 13.753906 -12.425781 L 13.601562 -13.296875 L 13.488281 -14.324219 L 13.414062 -14.628906 L 13.335938 -15.160156 L 13.296875 -15.769531 L 13.183594 -16.414062 L 13.109375 -17.058594 L 12.996094 -17.628906 L 12.957031 -18.046875 L 12.957031 -18.3125 L 12.84375 -18.730469 L 12.84375 -18.960938 L 12.726562 -19.453125 L 12.652344 -20.023438 L 12.613281 -20.289062 L 12.539062 -20.59375 L 12.386719 -21.351562 L 12.273438 -21.886719 L 12.160156 -22.53125 L 12.042969 -23.140625 L 11.890625 -24.050781 L 11.742188 -24.582031 L 11.703125 -25 L 11.625 -25.457031 L 11.472656 -25.835938 L 11.4375 -26.101562 L 11.207031 -26.445312 L 10.789062 -26.558594 L 10.257812 -26.558594 L 9.6875 -26.597656 L 9.234375 -26.558594 L 8.511719 -26.597656 L 8.015625 -26.558594 L 7.675781 -26.558594 L 7.027344 -26.597656 L 6.496094 -26.558594 L 6.117188 -26.484375 L 5.890625 -26.066406 L 5.773438 -25.875 L 5.699219 -25.648438 L 5.585938 -25.152344 L 5.585938 -24.847656 L 5.472656 -24.355469 L 5.394531 -23.898438 L 5.320312 -23.40625 L 5.28125 -23.140625 L 5.207031 -22.910156 L 5.167969 -22.644531 L 5.128906 -22.417969 L 5.089844 -22.152344 L 5.054688 -21.65625 L 4.976562 -21.316406 L 4.824219 -20.972656 L 4.824219 -20.707031 L 4.636719 -19.644531 L 4.558594 -19.414062 L 4.519531 -19.148438 L 4.519531 -18.695312 L 4.40625 -18.351562 L 4.292969 -17.933594 L 4.21875 -17.441406 L 4.140625 -17.171875 L 4.140625 -16.90625 L 4.027344 -16.640625 L 4.027344 -16.335938 L 3.914062 -16.035156 L 3.875 -15.730469 L 3.875 -15.199219 L 3.800781 -14.816406 L 3.722656 -14.515625 L 3.535156 -14.058594 L 3.496094 -13.679688 L 3.457031 -13.144531 L 3.417969 -12.878906 L 3.382812 -12.652344 L 3.191406 -12.195312 L 3.191406 -11.96875 L 3.152344 -11.742188 L 3.117188 -11.246094 L 3.039062 -11.019531 L 3 -10.753906 L 2.925781 -10.296875 L 2.8125 -9.878906 L 2.734375 -9.535156 L 2.660156 -9.082031 L 2.507812 -8.472656 L 2.433594 -7.980469 L 2.46875 -7.714844 L 2.433594 -7.484375 L 2.316406 -7.027344 L 2.28125 -6.761719 L 2.242188 -6.308594 L 2.089844 -6.042969 L 2.089844 -5.546875 L 2.015625 -5.242188 L 2.015625 -4.976562 L 1.898438 -4.371094 L 1.824219 -4.027344 L 1.710938 -3.496094 L 1.632812 -3.304688 L 1.519531 -2.773438 L 1.480469 -2.507812 L 1.328125 -1.976562 L 1.253906 -1.367188 L 1.253906 -0.761719 L 1.179688 -0.457031 L 1.367188 0 Z M 1.9375 0.0742188" transform="translate(175.285282, 190.030051)"/></g></g></g><g fill="#29ad3a" fill-opacity="1"><g><g><path d="M 3.078125 0.0742188 L 3.382812 0.0390625 L 4.445312 0.0742188 L 4.671875 -0.0742188 L 4.824219 -0.34375 L 4.9375 -0.53125 L 5.054688 -0.949219 L 5.28125 -1.519531 L 5.660156 -2.242188 L 5.8125 -2.699219 L 5.925781 -2.964844 L 6.003906 -3.230469 L 6.269531 -3.722656 L 6.460938 -4.140625 L 7.484375 -4.140625 L 9.15625 -4.101562 L 9.765625 -4.027344 L 10.601562 -3.988281 L 10.636719 -3.683594 L 10.636719 -1.898438 L 10.601562 -1.519531 L 10.636719 -1.140625 L 10.675781 -0.457031 L 10.753906 -0.0742188 L 10.90625 0.0390625 L 11.472656 0.0390625 L 11.96875 0.0742188 L 12.347656 0.0390625 L 12.613281 0 L 13.070312 0.0390625 L 13.375 0.0390625 L 14.210938 0 L 14.742188 0 L 15.046875 0.0390625 L 15.3125 0 C 15.464844 0 15.578125 0.0390625 15.730469 0 C 15.917969 -0.113281 15.882812 -0.457031 15.84375 -0.609375 L 15.84375 -1.40625 L 15.804688 -2.242188 L 15.804688 -2.582031 L 15.769531 -2.886719 L 15.804688 -3.417969 L 15.804688 -3.988281 L 15.769531 -4.253906 L 15.730469 -4.75 L 15.730469 -4.976562 L 15.652344 -6.421875 L 15.691406 -6.6875 L 15.652344 -7.21875 L 15.691406 -7.789062 L 15.652344 -8.359375 L 15.652344 -8.625 L 15.617188 -10.371094 L 15.617188 -11.511719 L 15.578125 -11.816406 L 15.539062 -12.273438 L 15.539062 -13.753906 L 15.464844 -14.171875 L 15.425781 -14.78125 L 15.425781 -15.007812 L 15.386719 -15.503906 L 15.425781 -15.730469 L 15.386719 -16.261719 L 15.386719 -17.023438 L 15.3125 -17.554688 L 15.3125 -18.390625 L 15.351562 -18.65625 L 15.3125 -19.226562 L 15.3125 -19.757812 L 15.234375 -20.515625 L 15.199219 -21.011719 L 15.199219 -21.542969 L 15.160156 -22.910156 L 15.160156 -23.59375 L 15.085938 -23.824219 L 15.085938 -24.660156 L 14.96875 -26.292969 L 14.703125 -26.484375 L 14.515625 -26.558594 L 13.90625 -26.558594 L 13.5625 -26.519531 L 13.296875 -26.597656 L 12.957031 -26.597656 L 12.234375 -26.558594 L 11.625 -26.558594 L 11.246094 -26.519531 L 10.523438 -26.558594 L 10.144531 -26.558594 L 9.878906 -26.519531 L 9.726562 -26.101562 L 9.613281 -25.875 L 9.5 -25.609375 L 9.15625 -24.925781 L 8.890625 -24.429688 L 8.664062 -23.746094 L 8.585938 -23.558594 L 8.433594 -23.328125 L 8.207031 -22.910156 L 8.132812 -22.644531 L 8.054688 -22.417969 L 7.941406 -22.1875 L 7.863281 -21.921875 L 7.523438 -21.238281 L 7.410156 -20.972656 L 7.296875 -20.59375 L 7.066406 -20.25 L 6.953125 -20.023438 L 6.761719 -19.53125 L 6.460938 -18.730469 L 6.308594 -18.503906 L 6.117188 -18.238281 L 6.003906 -17.707031 L 5.773438 -17.210938 L 5.699219 -17.023438 L 5.585938 -16.527344 L 5.394531 -16.261719 L 5.28125 -15.769531 L 5.167969 -15.539062 L 4.9375 -15.121094 L 4.75 -14.476562 L 4.484375 -13.980469 L 4.371094 -13.679688 L 4.066406 -12.613281 L 3.953125 -12.386719 L 3.761719 -11.855469 L 3.648438 -11.625 L 3.535156 -11.359375 L 3.496094 -11.132812 L 3.265625 -10.601562 L 3.191406 -10.335938 L 2.964844 -9.878906 L 2.773438 -9.574219 L 2.699219 -9.234375 L 2.621094 -8.96875 L 2.355469 -8.433594 L 2.242188 -8.167969 L 2.050781 -7.675781 L 1.9375 -7.445312 L 1.898438 -7.179688 L 1.824219 -6.953125 L 1.632812 -6.496094 L 1.445312 -6.230469 L 1.367188 -6.003906 L 1.0625 -5.320312 L 0.910156 -4.824219 L 0.492188 -3.914062 L 0.304688 -3.457031 L 0.0742188 -3 L -0.304688 -1.863281 L -0.609375 -1.367188 L -0.835938 -0.910156 L -0.875 -0.683594 L -0.949219 -0.417969 L -0.875 -0.113281 L -0.53125 -0.0390625 L 2.242188 0 L 2.507812 0.0390625 Z M 9.347656 -9.082031 L 9.003906 -9.117188 L 8.585938 -9.15625 L 8.28125 -9.15625 L 8.015625 -9.382812 L 8.132812 -9.652344 L 8.207031 -9.992188 L 8.28125 -10.257812 L 8.472656 -10.90625 L 8.625 -11.171875 L 8.816406 -11.742188 L 8.851562 -12.007812 L 9.082031 -12.84375 L 9.195312 -13.183594 L 9.308594 -13.449219 L 9.421875 -13.792969 L 9.574219 -14.058594 L 9.613281 -14.324219 L 9.765625 -14.703125 L 9.917969 -15.007812 L 10.105469 -15.617188 L 10.21875 -15.996094 L 10.410156 -16.605469 L 10.5625 -17.097656 L 10.867188 -17.210938 L 10.90625 -16.335938 L 10.867188 -14.96875 L 10.828125 -13.527344 L 10.867188 -12.613281 L 10.789062 -12.308594 L 10.789062 -11.664062 L 10.753906 -11.398438 L 10.753906 -10.410156 L 10.714844 -10.105469 L 10.753906 -9.800781 L 10.714844 -9.269531 L 10.488281 -9.082031 Z M 9.347656 -9.082031" transform="translate(204.158326, 190.030036)"/></g></g></g><g fill="#29ad3a" fill-opacity="1"><g><g><path d="M 7.523438 0.492188 L 7.941406 0.457031 L 8.207031 0.417969 L 8.625 0.417969 L 8.890625 0.378906 L 9.234375 0.417969 L 9.5 0.378906 L 9.992188 0.226562 L 10.296875 0.191406 L 10.867188 0 L 11.09375 -0.152344 L 11.550781 -0.265625 L 11.890625 -0.53125 L 12.273438 -0.761719 L 12.578125 -1.027344 L 12.765625 -1.179688 L 13.070312 -1.519531 L 13.261719 -1.671875 L 13.449219 -2.050781 L 13.679688 -2.203125 L 14.019531 -2.851562 L 14.210938 -3.382812 L 14.285156 -3.722656 L 14.363281 -4.027344 L 14.515625 -4.519531 L 14.515625 -5.089844 L 14.550781 -5.320312 L 14.667969 -5.851562 L 14.667969 -6.914062 L 14.703125 -7.179688 L 14.667969 -7.445312 L 14.703125 -7.675781 L 14.742188 -8.207031 L 14.667969 -8.433594 L 14.476562 -9.082031 L 14.4375 -9.347656 L 14.398438 -9.652344 L 14.363281 -9.917969 L 14.132812 -10.714844 L 13.90625 -11.207031 L 13.601562 -11.96875 L 13.5625 -12.160156 L 13.222656 -12.578125 L 12.957031 -13.222656 L 12.5 -13.679688 L 12.308594 -14.019531 L 11.96875 -14.398438 L 11.855469 -14.589844 L 11.664062 -14.703125 L 11.550781 -14.933594 L 11.171875 -15.234375 L 10.941406 -15.386719 L 10.789062 -15.578125 L 10.636719 -15.882812 L 10.449219 -16.070312 L 10.296875 -16.300781 L 9.800781 -16.90625 L 9.382812 -17.441406 L 9.117188 -17.933594 L 8.96875 -18.238281 L 8.664062 -18.769531 L 8.398438 -19.492188 L 8.359375 -19.757812 L 8.359375 -20.25 L 8.398438 -20.785156 L 8.511719 -21.164062 L 8.550781 -21.429688 L 8.699219 -21.808594 L 8.816406 -22.074219 L 9.003906 -22.339844 L 9.421875 -22.53125 L 9.878906 -22.683594 L 10.371094 -22.605469 L 10.753906 -22.304688 L 11.09375 -21.960938 L 11.207031 -21.734375 L 11.285156 -21.277344 L 11.285156 -20.402344 L 11.171875 -19.226562 L 11.09375 -18.921875 L 11.132812 -18.425781 L 11.4375 -18.160156 L 11.96875 -18.160156 L 12.5 -18.125 L 14.628906 -18.125 L 15.3125 -18.160156 L 15.769531 -18.390625 L 15.917969 -19.226562 L 16.070312 -20.289062 L 16.109375 -20.933594 L 16.070312 -21.695312 L 16.070312 -22.53125 L 15.84375 -23.441406 L 15.730469 -23.707031 L 15.652344 -24.125 L 15.503906 -24.355469 L 15.234375 -24.773438 L 15.121094 -24.960938 L 14.742188 -25.378906 L 14.628906 -25.53125 L 14.210938 -25.914062 L 13.90625 -26.027344 L 13.640625 -26.253906 L 13.183594 -26.484375 L 13.03125 -26.597656 L 12.765625 -26.632812 L 12.121094 -26.824219 L 11.550781 -26.863281 L 11.207031 -26.9375 L 10.941406 -26.9375 L 9.992188 -26.976562 L 8.816406 -26.976562 L 8.167969 -26.785156 L 7.445312 -26.632812 L 7.027344 -26.40625 L 6.421875 -26.179688 L 5.738281 -25.683594 L 5.28125 -25.304688 L 5.054688 -25.078125 L 4.824219 -24.695312 L 4.710938 -24.542969 L 4.40625 -24.203125 L 4.292969 -24.011719 L 4.179688 -23.746094 L 4.027344 -23.441406 L 3.800781 -22.949219 L 3.761719 -22.570312 L 3.648438 -22.1875 L 3.496094 -21.921875 L 3.457031 -21.390625 L 3.34375 -21.125 L 3.265625 -20.367188 L 3.265625 -19.261719 L 3.230469 -18.996094 L 3.265625 -18.695312 L 3.304688 -18.199219 L 3.457031 -17.707031 L 3.535156 -17.402344 L 3.648438 -17.136719 L 3.835938 -16.871094 L 3.988281 -16.527344 L 4.21875 -15.957031 L 4.445312 -15.578125 L 4.636719 -15.3125 L 5.015625 -15.007812 L 5.394531 -14.589844 L 5.738281 -14.097656 L 6.191406 -13.601562 L 6.609375 -13.109375 L 6.761719 -12.878906 L 6.953125 -12.691406 L 7.371094 -12.195312 L 7.5625 -11.890625 L 7.828125 -11.625 L 7.941406 -11.4375 L 8.015625 -11.246094 L 8.167969 -11.019531 L 8.433594 -10.488281 L 8.738281 -10.03125 L 9.042969 -9.5 L 9.15625 -8.929688 L 9.15625 -8.699219 L 9.308594 -8.015625 L 9.308594 -7.410156 L 9.347656 -6.878906 L 9.347656 -6.609375 L 9.308594 -6.230469 L 9.234375 -5.773438 L 9.082031 -5.320312 L 8.929688 -5.054688 L 8.738281 -4.710938 L 8.550781 -4.519531 L 8.132812 -4.40625 L 7.828125 -4.332031 L 7.484375 -4.332031 L 6.992188 -4.445312 L 6.609375 -4.824219 L 6.34375 -5.394531 L 6.230469 -5.773438 L 6.15625 -6.609375 L 6.15625 -7.410156 L 6.191406 -7.675781 L 6.191406 -9.082031 L 5.890625 -9.613281 L 5.394531 -9.652344 L 3.265625 -9.652344 L 2.8125 -9.6875 L 1.898438 -9.613281 L 1.367188 -9.347656 L 1.253906 -8.738281 L 1.179688 -8.472656 L 1.140625 -8.167969 L 1.0625 -7.597656 L 1.101562 -7.332031 L 1.0625 -6.6875 L 1.0625 -5.546875 L 1.140625 -4.9375 L 1.179688 -4.710938 L 1.292969 -4.179688 L 1.328125 -3.953125 L 1.597656 -3.265625 L 1.671875 -2.964844 L 1.9375 -2.316406 L 2.28125 -1.785156 L 2.660156 -1.328125 L 3.039062 -0.835938 L 3.496094 -0.53125 L 3.875 -0.265625 L 4.292969 -0.113281 L 4.902344 0.152344 L 5.167969 0.226562 L 5.546875 0.304688 L 5.964844 0.378906 L 6.34375 0.378906 L 6.609375 0.417969 Z M 7.523438 0.492188" transform="translate(221.102859, 190.030036)"/></g></g></g><g fill="#29ad3a" fill-opacity="1"><g><g><path d="M 7.523438 0.492188 L 7.941406 0.457031 L 8.207031 0.417969 L 8.625 0.417969 L 8.890625 0.378906 L 9.234375 0.417969 L 9.5 0.378906 L 9.992188 0.226562 L 10.296875 0.191406 L 10.867188 0 L 11.09375 -0.152344 L 11.550781 -0.265625 L 11.890625 -0.53125 L 12.273438 -0.761719 L 12.578125 -1.027344 L 12.765625 -1.179688 L 13.070312 -1.519531 L 13.261719 -1.671875 L 13.449219 -2.050781 L 13.679688 -2.203125 L 14.019531 -2.851562 L 14.210938 -3.382812 L 14.285156 -3.722656 L 14.363281 -4.027344 L 14.515625 -4.519531 L 14.515625 -5.089844 L 14.550781 -5.320312 L 14.667969 -5.851562 L 14.667969 -6.914062 L 14.703125 -7.179688 L 14.667969 -7.445312 L 14.703125 -7.675781 L 14.742188 -8.207031 L 14.667969 -8.433594 L 14.476562 -9.082031 L 14.4375 -9.347656 L 14.398438 -9.652344 L 14.363281 -9.917969 L 14.132812 -10.714844 L 13.90625 -11.207031 L 13.601562 -11.96875 L 13.5625 -12.160156 L 13.222656 -12.578125 L 12.957031 -13.222656 L 12.5 -13.679688 L 12.308594 -14.019531 L 11.96875 -14.398438 L 11.855469 -14.589844 L 11.664062 -14.703125 L 11.550781 -14.933594 L 11.171875 -15.234375 L 10.941406 -15.386719 L 10.789062 -15.578125 L 10.636719 -15.882812 L 10.449219 -16.070312 L 10.296875 -16.300781 L 9.800781 -16.90625 L 9.382812 -17.441406 L 9.117188 -17.933594 L 8.96875 -18.238281 L 8.664062 -18.769531 L 8.398438 -19.492188 L 8.359375 -19.757812 L 8.359375 -20.25 L 8.398438 -20.785156 L 8.511719 -21.164062 L 8.550781 -21.429688 L 8.699219 -21.808594 L 8.816406 -22.074219 L 9.003906 -22.339844 L 9.421875 -22.53125 L 9.878906 -22.683594 L 10.371094 -22.605469 L 10.753906 -22.304688 L 11.09375 -21.960938 L 11.207031 -21.734375 L 11.285156 -21.277344 L 11.285156 -20.402344 L 11.171875 -19.226562 L 11.09375 -18.921875 L 11.132812 -18.425781 L 11.4375 -18.160156 L 11.96875 -18.160156 L 12.5 -18.125 L 14.628906 -18.125 L 15.3125 -18.160156 L 15.769531 -18.390625 L 15.917969 -19.226562 L 16.070312 -20.289062 L 16.109375 -20.933594 L 16.070312 -21.695312 L 16.070312 -22.53125 L 15.84375 -23.441406 L 15.730469 -23.707031 L 15.652344 -24.125 L 15.503906 -24.355469 L 15.234375 -24.773438 L 15.121094 -24.960938 L 14.742188 -25.378906 L 14.628906 -25.53125 L 14.210938 -25.914062 L 13.90625 -26.027344 L 13.640625 -26.253906 L 13.183594 -26.484375 L 13.03125 -26.597656 L 12.765625 -26.632812 L 12.121094 -26.824219 L 11.550781 -26.863281 L 11.207031 -26.9375 L 10.941406 -26.9375 L 9.992188 -26.976562 L 8.816406 -26.976562 L 8.167969 -26.785156 L 7.445312 -26.632812 L 7.027344 -26.40625 L 6.421875 -26.179688 L 5.738281 -25.683594 L 5.28125 -25.304688 L 5.054688 -25.078125 L 4.824219 -24.695312 L 4.710938 -24.542969 L 4.40625 -24.203125 L 4.292969 -24.011719 L 4.179688 -23.746094 L 4.027344 -23.441406 L 3.800781 -22.949219 L 3.761719 -22.570312 L 3.648438 -22.1875 L 3.496094 -21.921875 L 3.457031 -21.390625 L 3.34375 -21.125 L 3.265625 -20.367188 L 3.265625 -19.261719 L 3.230469 -18.996094 L 3.265625 -18.695312 L 3.304688 -18.199219 L 3.457031 -17.707031 L 3.535156 -17.402344 L 3.648438 -17.136719 L 3.835938 -16.871094 L 3.988281 -16.527344 L 4.21875 -15.957031 L 4.445312 -15.578125 L 4.636719 -15.3125 L 5.015625 -15.007812 L 5.394531 -14.589844 L 5.738281 -14.097656 L 6.191406 -13.601562 L 6.609375 -13.109375 L 6.761719 -12.878906 L 6.953125 -12.691406 L 7.371094 -12.195312 L 7.5625 -11.890625 L 7.828125 -11.625 L 7.941406 -11.4375 L 8.015625 -11.246094 L 8.167969 -11.019531 L 8.433594 -10.488281 L 8.738281 -10.03125 L 9.042969 -9.5 L 9.15625 -8.929688 L 9.15625 -8.699219 L 9.308594 -8.015625 L 9.308594 -7.410156 L 9.347656 -6.878906 L 9.347656 -6.609375 L 9.308594 -6.230469 L 9.234375 -5.773438 L 9.082031 -5.320312 L 8.929688 -5.054688 L 8.738281 -4.710938 L 8.550781 -4.519531 L 8.132812 -4.40625 L 7.828125 -4.332031 L 7.484375 -4.332031 L 6.992188 -4.445312 L 6.609375 -4.824219 L 6.34375 -5.394531 L 6.230469 -5.773438 L 6.15625 -6.609375 L 6.15625 -7.410156 L 6.191406 -7.675781 L 6.191406 -9.082031 L 5.890625 -9.613281 L 5.394531 -9.652344 L 3.265625 -9.652344 L 2.8125 -9.6875 L 1.898438 -9.613281 L 1.367188 -9.347656 L 1.253906 -8.738281 L 1.179688 -8.472656 L 1.140625 -8.167969 L 1.0625 -7.597656 L 1.101562 -7.332031 L 1.0625 -6.6875 L 1.0625 -5.546875 L 1.140625 -4.9375 L 1.179688 -4.710938 L 1.292969 -4.179688 L 1.328125 -3.953125 L 1.597656 -3.265625 L 1.671875 -2.964844 L 1.9375 -2.316406 L 2.28125 -1.785156 L 2.660156 -1.328125 L 3.039062 -0.835938 L 3.496094 -0.53125 L 3.875 -0.265625 L 4.292969 -0.113281 L 4.902344 0.152344 L 5.167969 0.226562 L 5.546875 0.304688 L 5.964844 0.378906 L 6.34375 0.378906 L 6.609375 0.417969 Z M 7.523438 0.492188" transform="translate(236.223765, 190.030036)"/></g></g></g><g fill="#29ad3a" fill-opacity="1"><g><g><path d="M 5.242188 0.0742188 L 6.230469 0.0742188 L 6.648438 -0.0390625 L 6.761719 -0.378906 L 6.800781 -0.683594 L 6.914062 -1.179688 L 6.992188 -1.710938 L 7.105469 -2.203125 L 7.257812 -3.117188 L 7.371094 -3.535156 L 7.371094 -3.800781 L 7.445312 -4.292969 L 7.523438 -4.824219 L 7.636719 -5.355469 L 7.636719 -5.660156 L 7.789062 -6.15625 L 7.828125 -6.460938 L 7.941406 -7.027344 L 7.902344 -7.445312 L 8.09375 -7.828125 L 8.09375 -8.359375 L 8.132812 -8.550781 L 8.207031 -9.082031 L 8.207031 -9.382812 L 8.359375 -9.917969 L 8.359375 -10.21875 L 8.511719 -10.753906 L 8.585938 -11.207031 L 8.664062 -11.703125 L 8.777344 -12.195312 L 8.777344 -12.5 L 8.890625 -12.765625 L 9.042969 -13.296875 L 9.234375 -14.4375 L 9.347656 -14.816406 L 9.421875 -15.3125 L 9.421875 -15.578125 L 9.460938 -15.882812 L 9.5 -16.148438 L 9.5 -16.488281 L 9.613281 -16.832031 L 9.726562 -17.363281 L 9.765625 -17.554688 L 9.878906 -18.046875 L 9.992188 -18.503906 L 10.070312 -18.996094 L 10.105469 -19.261719 L 10.144531 -19.71875 L 10.183594 -19.984375 L 10.257812 -20.441406 L 10.335938 -20.667969 L 10.410156 -21.085938 L 10.601562 -22.074219 L 10.636719 -22.304688 L 10.636719 -22.570312 L 10.675781 -22.796875 L 10.675781 -23.101562 L 10.828125 -23.441406 L 10.90625 -23.976562 L 11.019531 -24.164062 L 11.019531 -24.507812 L 11.132812 -24.660156 L 11.09375 -24.886719 L 11.132812 -25.304688 L 11.207031 -25.417969 L 11.207031 -25.914062 L 11.246094 -26.140625 L 11.09375 -26.519531 L 10.675781 -26.632812 L 10.410156 -26.597656 L 8.398438 -26.597656 L 8.132812 -26.558594 L 7.597656 -26.558594 L 7.257812 -26.597656 L 6.6875 -26.558594 L 6.421875 -26.519531 L 6.191406 -26.367188 L 5.925781 -26.253906 L 5.660156 -25.875 L 5.625 -25.609375 L 5.546875 -25.378906 L 5.472656 -24.8125 L 5.320312 -24.394531 L 5.242188 -23.976562 L 5.207031 -23.519531 L 5.128906 -23.289062 L 5.089844 -23.0625 L 4.976562 -22.570312 L 4.902344 -22.035156 L 4.824219 -21.847656 L 4.789062 -21.351562 L 4.75 -21.050781 L 4.789062 -20.785156 L 4.636719 -20.289062 L 4.597656 -20.023438 L 4.484375 -19.53125 L 4.445312 -19.300781 L 4.292969 -18.84375 L 4.332031 -18.578125 L 4.292969 -18.351562 L 4.21875 -17.820312 L 4.101562 -17.554688 L 4.101562 -17.023438 L 3.988281 -16.222656 L 3.800781 -15.691406 L 3.683594 -15.199219 L 3.609375 -14.742188 L 3.609375 -14.25 L 3.457031 -13.945312 L 3.382812 -13.414062 L 3.382812 -13.144531 L 3.230469 -12.613281 L 3.230469 -12.082031 L 3.152344 -11.550781 L 3.117188 -11.324219 L 3.078125 -11.054688 L 3 -10.789062 L 3 -10.5625 L 2.925781 -9.992188 L 2.660156 -9.15625 L 2.699219 -8.890625 L 2.621094 -8.625 L 2.582031 -8.398438 L 2.507812 -8.132812 L 2.507812 -7.863281 L 2.433594 -7.410156 L 2.355469 -7.066406 L 2.242188 -6.726562 L 2.164062 -6.382812 L 2.050781 -5.964844 L 1.9375 -5.28125 L 1.976562 -5.054688 L 1.824219 -4.558594 L 1.785156 -4.292969 L 1.710938 -3.988281 L 1.671875 -3.722656 L 1.558594 -3.152344 L 1.519531 -2.851562 L 1.445312 -2.316406 L 1.367188 -2.050781 L 1.328125 -1.480469 L 1.140625 -0.949219 L 1.179688 -0.378906 L 1.480469 -0.113281 L 1.785156 -0.0390625 L 2.089844 -0.0742188 L 2.355469 -0.0390625 L 2.773438 0 L 3.039062 -0.0390625 L 3.34375 -0.0390625 L 3.875 0.0390625 L 4.976562 0.0390625 Z M 5.242188 0.0742188" transform="translate(251.344671, 190.030036)"/></g></g></g><g fill="#29ad3a" fill-opacity="1"><g><g><path d="M 7.523438 0.492188 L 7.941406 0.457031 L 8.207031 0.417969 L 8.625 0.417969 L 8.890625 0.378906 L 9.234375 0.417969 L 9.5 0.378906 L 9.992188 0.226562 L 10.296875 0.191406 L 10.867188 0 L 11.09375 -0.152344 L 11.550781 -0.265625 L 11.890625 -0.53125 L 12.273438 -0.761719 L 12.578125 -1.027344 L 12.765625 -1.179688 L 13.070312 -1.519531 L 13.261719 -1.671875 L 13.449219 -2.050781 L 13.679688 -2.203125 L 14.019531 -2.851562 L 14.210938 -3.382812 L 14.285156 -3.722656 L 14.363281 -4.027344 L 14.515625 -4.519531 L 14.515625 -5.089844 L 14.550781 -5.320312 L 14.667969 -5.851562 L 14.667969 -6.914062 L 14.703125 -7.179688 L 14.667969 -7.445312 L 14.703125 -7.675781 L 14.742188 -8.207031 L 14.667969 -8.433594 L 14.476562 -9.082031 L 14.4375 -9.347656 L 14.398438 -9.652344 L 14.363281 -9.917969 L 14.132812 -10.714844 L 13.90625 -11.207031 L 13.601562 -11.96875 L 13.5625 -12.160156 L 13.222656 -12.578125 L 12.957031 -13.222656 L 12.5 -13.679688 L 12.308594 -14.019531 L 11.96875 -14.398438 L 11.855469 -14.589844 L 11.664062 -14.703125 L 11.550781 -14.933594 L 11.171875 -15.234375 L 10.941406 -15.386719 L 10.789062 -15.578125 L 10.636719 -15.882812 L 10.449219 -16.070312 L 10.296875 -16.300781 L 9.800781 -16.90625 L 9.382812 -17.441406 L 9.117188 -17.933594 L 8.96875 -18.238281 L 8.664062 -18.769531 L 8.398438 -19.492188 L 8.359375 -19.757812 L 8.359375 -20.25 L 8.398438 -20.785156 L 8.511719 -21.164062 L 8.550781 -21.429688 L 8.699219 -21.808594 L 8.816406 -22.074219 L 9.003906 -22.339844 L 9.421875 -22.53125 L 9.878906 -22.683594 L 10.371094 -22.605469 L 10.753906 -22.304688 L 11.09375 -21.960938 L 11.207031 -21.734375 L 11.285156 -21.277344 L 11.285156 -20.402344 L 11.171875 -19.226562 L 11.09375 -18.921875 L 11.132812 -18.425781 L 11.4375 -18.160156 L 11.96875 -18.160156 L 12.5 -18.125 L 14.628906 -18.125 L 15.3125 -18.160156 L 15.769531 -18.390625 L 15.917969 -19.226562 L 16.070312 -20.289062 L 16.109375 -20.933594 L 16.070312 -21.695312 L 16.070312 -22.53125 L 15.84375 -23.441406 L 15.730469 -23.707031 L 15.652344 -24.125 L 15.503906 -24.355469 L 15.234375 -24.773438 L 15.121094 -24.960938 L 14.742188 -25.378906 L 14.628906 -25.53125 L 14.210938 -25.914062 L 13.90625 -26.027344 L 13.640625 -26.253906 L 13.183594 -26.484375 L 13.03125 -26.597656 L 12.765625 -26.632812 L 12.121094 -26.824219 L 11.550781 -26.863281 L 11.207031 -26.9375 L 10.941406 -26.9375 L 9.992188 -26.976562 L 8.816406 -26.976562 L 8.167969 -26.785156 L 7.445312 -26.632812 L 7.027344 -26.40625 L 6.421875 -26.179688 L 5.738281 -25.683594 L 5.28125 -25.304688 L 5.054688 -25.078125 L 4.824219 -24.695312 L 4.710938 -24.542969 L 4.40625 -24.203125 L 4.292969 -24.011719 L 4.179688 -23.746094 L 4.027344 -23.441406 L 3.800781 -22.949219 L 3.761719 -22.570312 L 3.648438 -22.1875 L 3.496094 -21.921875 L 3.457031 -21.390625 L 3.34375 -21.125 L 3.265625 -20.367188 L 3.265625 -19.261719 L 3.230469 -18.996094 L 3.265625 -18.695312 L 3.304688 -18.199219 L 3.457031 -17.707031 L 3.535156 -17.402344 L 3.648438 -17.136719 L 3.835938 -16.871094 L 3.988281 -16.527344 L 4.21875 -15.957031 L 4.445312 -15.578125 L 4.636719 -15.3125 L 5.015625 -15.007812 L 5.394531 -14.589844 L 5.738281 -14.097656 L 6.191406 -13.601562 L 6.609375 -13.109375 L 6.761719 -12.878906 L 6.953125 -12.691406 L 7.371094 -12.195312 L 7.5625 -11.890625 L 7.828125 -11.625 L 7.941406 -11.4375 L 8.015625 -11.246094 L 8.167969 -11.019531 L 8.433594 -10.488281 L 8.738281 -10.03125 L 9.042969 -9.5 L 9.15625 -8.929688 L 9.15625 -8.699219 L 9.308594 -8.015625 L 9.308594 -7.410156 L 9.347656 -6.878906 L 9.347656 -6.609375 L 9.308594 -6.230469 L 9.234375 -5.773438 L 9.082031 -5.320312 L 8.929688 -5.054688 L 8.738281 -4.710938 L 8.550781 -4.519531 L 8.132812 -4.40625 L 7.828125 -4.332031 L 7.484375 -4.332031 L 6.992188 -4.445312 L 6.609375 -4.824219 L 6.34375 -5.394531 L 6.230469 -5.773438 L 6.15625 -6.609375 L 6.15625 -7.410156 L 6.191406 -7.675781 L 6.191406 -9.082031 L 5.890625 -9.613281 L 5.394531 -9.652344 L 3.265625 -9.652344 L 2.8125 -9.6875 L 1.898438 -9.613281 L 1.367188 -9.347656 L 1.253906 -8.738281 L 1.179688 -8.472656 L 1.140625 -8.167969 L 1.0625 -7.597656 L 1.101562 -7.332031 L 1.0625 -6.6875 L 1.0625 -5.546875 L 1.140625 -4.9375 L 1.179688 -4.710938 L 1.292969 -4.179688 L 1.328125 -3.953125 L 1.597656 -3.265625 L 1.671875 -2.964844 L 1.9375 -2.316406 L 2.28125 -1.785156 L 2.660156 -1.328125 L 3.039062 -0.835938 L 3.496094 -0.53125 L 3.875 -0.265625 L 4.292969 -0.113281 L 4.902344 0.152344 L 5.167969 0.226562 L 5.546875 0.304688 L 5.964844 0.378906 L 6.34375 0.378906 L 6.609375 0.417969 Z M 7.523438 0.492188" transform="translate(261.336632, 190.030036)"/></g></g></g><g fill="#29ad3a" fill-opacity="1"><g><g><path d="M 4.710938 0.113281 L 5.167969 0 L 8.472656 0 L 8.929688 -0.191406 L 9.003906 -0.417969 L 9.117188 -0.949219 L 9.195312 -1.480469 L 9.421875 -2.546875 L 9.613281 -3.382812 L 9.574219 -3.683594 L 9.6875 -4.21875 L 9.765625 -4.519531 L 9.953125 -5.320312 L 10.070312 -5.8125 L 10.105469 -6.078125 L 10.257812 -6.574219 L 10.371094 -7.179688 L 10.488281 -7.714844 L 10.449219 -7.980469 L 10.488281 -8.207031 L 10.523438 -8.472656 L 10.675781 -8.929688 L 10.714844 -9.195312 L 10.789062 -9.421875 L 10.828125 -9.652344 L 10.828125 -10.03125 L 10.90625 -10.371094 L 11.019531 -10.941406 L 11.132812 -11.472656 L 11.132812 -11.703125 L 11.207031 -11.929688 L 11.246094 -12.460938 L 11.398438 -12.726562 L 11.511719 -13.183594 L 11.550781 -13.679688 L 11.550781 -13.945312 L 11.664062 -14.171875 L 11.777344 -14.703125 L 11.855469 -14.96875 L 11.929688 -15.539062 L 12.121094 -15.996094 L 12.121094 -16.261719 L 12.160156 -16.488281 L 12.195312 -16.945312 L 12.195312 -17.171875 L 12.347656 -17.667969 L 12.539062 -18.199219 L 12.460938 -18.390625 L 12.613281 -18.695312 L 12.765625 -19.378906 L 12.804688 -19.644531 L 12.878906 -20.136719 L 12.957031 -20.367188 L 12.957031 -20.59375 L 13.070312 -20.859375 L 13.03125 -21.085938 L 13.109375 -21.351562 L 13.449219 -21.390625 L 15.046875 -21.351562 L 15.425781 -21.351562 L 15.769531 -21.390625 L 16.222656 -21.390625 L 16.566406 -21.351562 L 16.945312 -21.390625 L 17.097656 -21.734375 L 17.136719 -22.265625 L 17.210938 -22.53125 L 17.363281 -23.023438 L 17.402344 -23.480469 L 17.441406 -23.707031 L 17.515625 -23.976562 L 17.589844 -24.429688 L 17.589844 -24.660156 L 17.667969 -24.925781 L 17.707031 -25.152344 L 17.707031 -25.417969 L 17.78125 -25.722656 L 17.820312 -25.988281 L 17.820312 -26.214844 L 17.742188 -26.519531 L 17.402344 -26.597656 L 16.871094 -26.632812 L 14.515625 -26.632812 L 14.171875 -26.671875 L 13.375 -26.632812 L 12.804688 -26.671875 L 10.371094 -26.632812 L 9.535156 -26.632812 L 9.269531 -26.671875 L 6.460938 -26.671875 L 6.191406 -26.632812 L 5.925781 -26.632812 L 5.738281 -26.671875 L 4.75 -26.671875 L 4.484375 -26.632812 L 4.140625 -26.367188 L 3.953125 -25.949219 L 3.914062 -25.722656 L 3.914062 -25.191406 L 3.800781 -24.960938 L 3.648438 -24.46875 L 3.609375 -23.9375 L 3.535156 -23.707031 L 3.382812 -23.175781 L 3.417969 -22.910156 L 3.417969 -22.605469 L 3.304688 -22.304688 L 3.230469 -21.847656 L 3.34375 -21.503906 L 3.683594 -21.390625 L 3.988281 -21.390625 L 4.371094 -21.351562 L 4.710938 -21.351562 L 4.976562 -21.390625 L 5.507812 -21.351562 L 7.5625 -21.351562 L 7.523438 -20.746094 L 7.445312 -20.175781 L 7.371094 -19.910156 L 7.257812 -19.414062 L 7.257812 -19.1875 L 7.21875 -18.921875 L 7.21875 -18.695312 L 7.179688 -18.464844 L 6.992188 -17.859375 L 6.914062 -17.589844 L 6.878906 -17.324219 L 6.878906 -17.023438 L 6.800781 -16.832031 L 6.800781 -16.453125 L 6.609375 -16.035156 L 6.648438 -15.769531 L 6.535156 -15.199219 L 6.460938 -14.96875 L 6.460938 -14.703125 L 6.308594 -14.476562 L 6.230469 -14.210938 L 6.230469 -13.867188 L 6.117188 -13.488281 L 6.117188 -12.957031 L 6.042969 -12.726562 L 5.851562 -12.273438 L 5.925781 -12.007812 L 5.851562 -11.742188 L 5.699219 -11.171875 L 5.507812 -10.636719 L 5.433594 -10.371094 L 5.394531 -10.105469 L 5.472656 -9.726562 L 5.28125 -9.347656 L 5.242188 -8.816406 L 5.167969 -8.585938 L 5.089844 -8.09375 L 5.054688 -7.828125 L 4.976562 -7.5625 L 4.863281 -6.992188 L 4.75 -6.535156 L 4.75 -6.230469 L 4.558594 -5.433594 L 4.597656 -5.128906 L 4.558594 -4.863281 L 4.371094 -4.332031 L 4.371094 -4.066406 L 4.332031 -3.535156 L 4.253906 -3.304688 L 4.21875 -2.734375 L 4.140625 -2.46875 L 3.875 -1.671875 L 3.835938 -0.875 L 3.761719 -0.304688 L 4.101562 0 L 4.371094 0 Z M 4.710938 0.113281" transform="translate(276.457538, 190.030036)"/></g></g></g></svg>